<?xml version="1.0" encoding="UTF-8"?>
<svg width="8px" height="25px" viewBox="0 0 8 25" version="1.1" xmlns="http://www.w3.org/2000/svg" xmlns:xlink="http://www.w3.org/1999/xlink">
    <!-- Generator: Sketch 53.1 (72631) - https://sketchapp.com -->
    <title>group</title>
    <desc>Created with Sketch.</desc>
    <defs>
        <linearGradient x1="38.9975345%" y1="141.330461%" x2="62.0247886%" y2="-45.253743%" id="linearGradient-1">
            <stop stop-color="#E08C3C" offset="0%"></stop>
            <stop stop-color="#FFD06F" offset="100%"></stop>
        </linearGradient>
        <linearGradient x1="47.790263%" y1="141.330461%" x2="52.4150606%" y2="-45.253743%" id="linearGradient-2">
            <stop stop-color="#E08C3C" offset="0%"></stop>
            <stop stop-color="#FFD06F" offset="100%"></stop>
        </linearGradient>
    </defs>
    <g id="design" stroke="none" stroke-width="1" fill="none" fill-rule="evenodd">
        <g id="main-hover" transform="translate(-500.000000, -380.000000)" fill-rule="nonzero">
            <g id="Group-5" transform="translate(385.000000, 340.000000)">
                <g id="group" transform="translate(115.000000, 40.000000)">
                    <path d="M3.80508734,5.01992032 C2.5890285,5.01992032 1.60833589,3.70517928 1.60833589,2.15139442 C1.60833589,0.597609562 2.5890285,3.40616424e-13 3.80508734,3.40616424e-13 C5.02114618,3.40616424e-13 6.0018388,0.557768924 6.0018388,2.15139442 C6.0018388,3.74501992 5.02114618,5.01992032 3.80508734,5.01992032 Z" id="Combined-Shape" fill="url(#linearGradient-1)"></path>
                    <path d="M4.95948985,5.57934113 C5.699402,5.60504119 6.36883047,5.92910947 6.8451161,6.44542593 C7.32012164,6.95520642 7.61017469,7.64753085 7.61017469,8.4063745 L7.57094698,12.4701195 C7.57094698,12.9290909 7.46248682,13.3513439 7.27159735,13.7236599 C7.07472221,14.1405938 6.77603078,14.4983209 6.41009411,14.7792857 C6.43334355,14.846217 6.43334355,14.9131483 6.43334355,14.9800797 L6.39411584,23.7450199 C6.39411584,23.9360905 6.34477392,24.1164226 6.25876709,24.275287 C6.07461287,24.689276 5.6483603,24.9800797 5.178057,24.9800797 C4.55041373,24.940239 4.04045357,24.4223108 4.04045357,23.7848606 L4.07968127,17.8486056 L3.49073916,17.8486056 L3.452038,23.7051793 L3.41953939,22.7665597 L3.4128103,23.7848606 C3.37358259,24.4223108 2.86362243,24.940239 2.23597916,24.940239 C1.60833589,24.940239 1.09837573,24.3824701 1.09837573,23.7450199 L1.13760343,14.9800797 C1.13760343,14.9003984 1.17683114,14.8207171 1.17683114,14.7410359 C0.470732455,14.2231076 -5.2846616e-14,13.3864542 -5.2846616e-14,12.4302789 L0.0392277046,8.36653386 C0.0784554091,6.812749 1.29451425,5.57768924 2.82439473,5.57768924 L4.86423537,5.57768924 C4.89588254,5.57768924 4.92739542,5.57823479 4.95876603,5.57931706 Z" id="Combined-Shape" fill="url(#linearGradient-2)"></path>
                </g>
            </g>
        </g>
    </g>
</svg>