<?xml version="1.0" encoding="UTF-8"?>
<svg width="25px" height="20px" viewBox="0 0 25 20" version="1.1" xmlns="http://www.w3.org/2000/svg" xmlns:xlink="http://www.w3.org/1999/xlink">
    <!-- Generator: Sketch 53.1 (72631) - https://sketchapp.com -->
    <title>hand</title>
    <desc>Created with Sketch.</desc>
    <defs>
        <linearGradient x1="35.6364489%" y1="108.451495%" x2="65.6981784%" y2="-10.9623955%" id="linearGradient-1">
            <stop stop-color="#E08C3C" offset="0%"></stop>
            <stop stop-color="#FFD06F" offset="100%"></stop>
        </linearGradient>
    </defs>
    <g id="design" stroke="none" stroke-width="1" fill="none" fill-rule="evenodd">
        <g id="main-hover" transform="translate(-627.000000, -384.000000)" fill="url(#linearGradient-1)" fill-rule="nonzero">
            <g id="Group-5" transform="translate(385.000000, 340.000000)">
                <g id="hand" transform="translate(242.000000, 44.000000)">
                    <path d="M14.7404747,0.478164507 C14.1179483,1.11551802 14.1179483,2.14882741 14.7404747,2.78518507 L16.0547833,4.13079763 C16.158862,4.23735518 16.158862,4.40924147 16.0547833,4.51579903 C15.9507047,4.62235658 15.7828171,4.62235658 15.6787385,4.51579903 L13.6121457,2.40018368 C12.9896194,1.762631 11.9803486,1.762631 11.358795,2.40018368 C10.7372414,3.03753719 10.7360742,4.07084658 11.358795,4.70720424 L13.4251933,6.82301875 C13.5292719,6.92957631 13.5292719,7.10146254 13.4251933,7.2080201 C13.3211147,7.31457765 13.1532271,7.31457765 13.0491485,7.2080201 L10.232606,4.32319875 C9.60988519,3.68584523 8.60061437,3.68584523 7.97906079,4.32319875 C7.35750717,4.96075142 7.35653449,5.99406081 7.97906079,6.63041847 L10.7967705,9.51504066 C10.9008491,9.62179738 10.9008491,9.79348445 10.7967705,9.90024117 C10.6926919,10.0067987 10.5248043,10.0067987 10.4205311,9.90024117 L2.72007528,2.01617818 C2.0973544,1.37882467 1.08808362,1.37882467 0.466530045,2.01617818 C-0.155023578,2.6535317 -0.155996263,3.68684108 0.466530045,4.32319875 L9.25095983,13.3168544 L5.35161067,14.2740797 L5.34947072,14.2762706 C5.07867178,14.3382134 4.81623805,14.484008 4.59835384,14.7068826 C3.97485484,15.3454311 3.97485484,16.3755537 4.59835384,17.0141023 C4.81623805,17.2369768 5.08723157,17.39034 5.37184277,17.452482 L5.36756293,17.4512869 L14.651181,19.8660601 C16.1036127,20.2434929 17.6431981,19.81069 18.7034382,18.7261931 L23.7554338,13.5538702 C25.4148554,11.8549248 25.4148554,9.09956581 23.7554338,7.40042116 L16.9940199,0.478164507 C16.371299,-0.159388169 15.3631955,-0.159388169 14.7404747,0.478164507 L14.7404747,0.478164507 Z" id="Path"></path>
                </g>
            </g>
        </g>
    </g>
</svg>