<?xml version="1.0" encoding="UTF-8"?>
<svg width="26px" height="17px" viewBox="0 0 26 17" version="1.1" xmlns="http://www.w3.org/2000/svg" xmlns:xlink="http://www.w3.org/1999/xlink">
    <!-- Generator: Sketch 53.1 (72631) - https://sketchapp.com -->
    <title>gamepad-controller</title>
    <desc>Created with Sketch.</desc>
    <defs>
        <linearGradient x1="35.6364489%" y1="89.0451233%" x2="65.6981784%" y2="9.27761578%" id="linearGradient-1">
            <stop stop-color="#E08C3C" offset="0%"></stop>
            <stop stop-color="#FFD06F" offset="100%"></stop>
        </linearGradient>
    </defs>
    <g id="design" stroke="none" stroke-width="1" fill="none" fill-rule="evenodd">
        <g id="main-hover" transform="translate(-775.000000, -385.000000)" fill="url(#linearGradient-1)" fill-rule="nonzero">
            <g id="Group-5" transform="translate(385.000000, 340.000000)">
                <g id="gamepad-controller" transform="translate(390.000000, 45.000000)">
                    <path d="M23.6753834,3.00642258 C20.2412689,-2.56296465 15.0680369,1.31172462 15.0680369,1.31172462 C14.7325283,1.56202878 14.1138738,1.76782379 13.6935184,1.76878097 L12.3078486,1.76973816 C11.8874932,1.77021675 11.2688386,1.56442174 10.9338149,1.31411758 C10.9338149,1.31411758 5.76009806,-2.56152887 2.32549868,3.00785836 C-1.10813102,8.57533122 0.275599448,14.6386265 0.275599448,14.6386265 C0.518018941,16.1232221 1.31703359,17.1139097 2.82488284,16.9894755 C4.32836853,16.8655199 7.59181975,12.9913092 7.59181975,12.9913092 C7.86139023,12.6720877 8.42622764,12.4112544 8.84561337,12.4112544 L17.1528446,12.4098187 C17.5727151,12.4098187 18.1370677,12.6706519 18.4061533,12.9898734 C18.4061533,12.9898734 21.6700894,16.8640841 23.1759993,16.9880397 C24.6819092,17.1124739 25.4828632,16.1208291 25.7238282,14.6371907 C25.7233433,14.6371907 27.109498,8.57485262 23.6753834,3.00642258 Z M9.87832041,7.53965587 L8.09702197,7.53965587 L8.09702197,9.23435383 C8.09702197,9.23435383 7.71981724,9.5186381 7.1360711,9.51145921 C6.55329464,9.50284453 6.28954223,9.20133091 6.28954223,9.20133091 L6.28954223,7.54013447 L4.60715095,7.54013447 C4.60715095,7.54013447 4.39721567,7.32763915 4.34097435,6.76816389 C4.2857027,6.20868862 4.57321222,5.7564182 4.57321222,5.7564182 L6.3549955,5.7564182 L6.3549955,3.99806736 C6.3549955,3.99806736 6.72153377,3.80423718 7.24855375,3.81907356 C7.77605856,3.83534573 8.16247524,4.03109028 8.16247524,4.03109028 L8.15520265,5.7559396 L9.83759393,5.7559396 C9.83759393,5.7559396 10.1314064,6.12828499 10.1556483,6.57816245 C10.1798903,7.0285185 9.87832041,7.53965587 9.87832041,7.53965587 Z M18.048827,9.47125739 C17.2687211,9.47125739 16.6398849,8.84860784 16.6398849,8.07950882 C16.6398849,7.30897403 17.2687211,6.68776026 18.048827,6.68776026 C18.8255391,6.68776026 19.4592236,7.30897403 19.4592236,8.07950882 C19.4592236,8.84908644 18.8255391,9.47125739 18.048827,9.47125739 Z M18.048827,5.64203446 C17.2687211,5.64203446 16.6398849,5.01986351 16.6398849,4.25076449 C16.6398849,3.48022969 17.2687211,2.85901592 18.048827,2.85901592 C18.8255391,2.85901592 19.4592236,3.48022969 19.4592236,4.25076449 C19.4592236,5.0203421 18.8255391,5.64203446 18.048827,5.64203446 Z M21.5600309,7.69759158 C20.779925,7.69759158 20.1510888,7.07542062 20.1510888,6.30584301 C20.1510888,5.53578681 20.779925,4.91409444 21.5600309,4.91409444 C22.336743,4.91409444 22.9704276,5.53578681 22.9704276,6.30584301 C22.9704276,7.07542062 22.336743,7.69759158 21.5600309,7.69759158 Z" id="Shape"></path>
                </g>
            </g>
        </g>
    </g>
</svg>