<?xml version="1.0" encoding="UTF-8"?>
<svg width="41px" height="33px" viewBox="0 0 41 33" version="1.1" xmlns="http://www.w3.org/2000/svg" xmlns:xlink="http://www.w3.org/1999/xlink">
    <!-- Generator: Sketch 53.1 (72631) - https://sketchapp.com -->
    <title>Group 13</title>
    <desc>Created with Sketch.</desc>
    <g id="design" stroke="none" stroke-width="1" fill="none" fill-rule="evenodd">
        <g id="main-hover" transform="translate(-911.000000, -374.000000)" fill-rule="nonzero">
            <g id="Group-5" transform="translate(385.000000, 340.000000)">
                <g id="Group-13" transform="translate(526.000000, 32.031384)">
                    <g id="Group-3-Copy" transform="translate(0.000000, 8.968616)">
                        <ellipse id="Oval" fill="#E2A51B" cx="11.5" cy="13" rx="11.5" ry="13"></ellipse>
                        <ellipse id="Oval" fill="#E2A51B" cx="14.5" cy="13" rx="11.5" ry="13"></ellipse>
                        <path d="M14.4990368,3.74161437 C16.4254963,3.74161437 18.2826032,4.63247493 19.7120362,6.24727692 C21.2821007,8.02149607 22.147081,10.4165044 22.147081,12.9990623 C22.147081,15.5816201 21.2821007,17.967251 19.7120362,19.7508476 C18.2826032,21.3675251 16.437055,22.2565101 14.4990368,22.2565101 C12.5610185,22.2565101 10.7154703,21.3675251 9.29759611,19.7508476 C7.72753162,17.9766284 6.8625513,15.5816201 6.8625513,13.0084397 C6.8625513,10.4352593 7.72753162,8.03837553 9.29759611,6.2566544 C10.7251026,4.64185241 12.5725773,3.75099185 14.4990368,3.75099185 L14.4990368,3.74161437 Z M14.4990368,0 C8.14172041,0 3,5.81403737 3,13.0009377 C3,20.1878381 8.14749979,26 14.4990368,26 C20.8505737,26 26,20.1859626 26,13.0009377 C26,5.81591286 20.8505737,3.99786002e-15 14.4990368,0 Z" id="Shape" fill="#F0C300"></path>
                    </g>
                    <g id="Group-3-Copy-3" transform="translate(35.303010, 8.000000) rotate(-14.000000) translate(-35.303010, -8.000000) translate(30.303010, 2.000000)">
                        <ellipse id="Oval" fill="#E2A51B" cx="4.69693664" cy="5.49329724" rx="4.5" ry="5"></ellipse>
                        <ellipse id="Oval" fill="#E2A51B" cx="5.41627644" cy="6.18795561" rx="4.5" ry="5"></ellipse>
                        <path d="M5.41589952,2.62703806 C6.1697315,2.62703806 6.89642553,2.96967673 7.45576886,3.59075442 C8.07014192,4.2731464 8.40861248,5.19430344 8.40861248,6.18759493 C8.40861248,7.18088643 8.07014192,8.09843674 7.45576886,8.78443544 C6.89642553,9.40623448 6.17425449,9.74815181 5.41589952,9.74815181 C4.65754455,9.74815181 3.93537352,9.40623448 3.38055318,8.78443544 C2.76618012,8.10204347 2.42770956,7.18088643 2.42770956,6.19120166 C2.42770956,5.20151688 2.76618012,4.2796385 3.38055318,3.59436115 C3.93914268,2.97328346 4.66206754,2.63064478 5.41589952,2.63064478 L5.41589952,2.62703806 Z M5.41589952,1.18795561 C2.92825399,1.18795561 0.91627644,3.42412382 0.91627644,6.18831628 C0.91627644,8.95250873 2.93051549,11.1879556 5.41589952,11.1879556 C7.90128356,11.1879556 9.91627644,8.95178739 9.91627644,6.18831628 C9.91627644,3.42484517 7.90128356,1.18795561 5.41589952,1.18795561 Z" id="Shape" fill="#F0C300"></path>
                    </g>
                </g>
            </g>
        </g>
    </g>
</svg>