<svg xmlns="http://www.w3.org/2000/svg" width="15" height="15" viewBox="0 0 15 15">
  <path fill="#3E3B4A" fill-rule="nonzero" d="M7.4 0a7.5 7.5 0 1 0 .2 15 7.5 7.5 0 0 0-.2-15zm0 12a1 1 0 0 1-1.1-1c0-.7.4-1.1 1-1.1h.1c.7 0 1.1.5 1 1.1 0 .6-.4 1-1 1zM10 6.8a5 5 0 0 1-1 .8l-.4.4-.5.5V9H6.4c0-.7 0-1 .3-1.3C7.1 7 8 6.6 8 6.5c.2 0 .3-.2.3-.3l.3-.7c0-.2 0-.5-.2-.7-.2-.2-.5-.3-1-.3-.3 0-.6.1-.8.4-.2.3-.2.5-.2.8v.1H4.6c0-1.2.4-2 1.1-2.4a3 3 0 0 1 1.7-.5c.9 0 1.6.2 2.2.7.6.4.9 1 .9 1.8 0 .5-.2 1-.4 1.3z"/>
</svg>
