<svg xmlns="http://www.w3.org/2000/svg" width="50" height="59" viewBox="0 0 50 59">
  <g fill="none" fill-rule="evenodd">
    <path fill="#F22054" d="M2.114925 43.831894l20 14.129826c1.729358 1.221776 4.040792 1.221776 5.77015 0l20-14.129826C49.211368 42.89488 50 41.372126 50 39.748227V5c0-2.761424-2.238576-5-5-5H5C2.238576 0 0 2.238576 0 5v34.748227c0 1.623899.788632 3.146653 2.114925 4.083667z"/>
    <text fill="#FFF" font-family="Montserrat-Bold, Montserrat" font-size="16" font-weight="bold">
      <tspan x="9" y="32.96244">50%</tspan>
    </text>
    <text fill="#FFF" font-family="Montserrat-Medium, Montserrat Medium" font-size="8">
      <tspan x="6.228" y="11.96244">cashback</tspan>
    </text>
    <g fill="#FFF" fill-opacity=".3" fill-rule="nonzero">
      <path d="M24.919781 39.000545c-3.313422.044348-5.963326 2.766642-5.919239 6.080195.044348 3.312119 2.766381 5.962805 6.079674 5.918718 3.31277-.044609 5.963195-2.766903 5.919108-6.080195-.044347-3.31238-2.766511-5.962935-6.079543-5.918718zm-.017739 9.651617l-.03313-.000522c-.510259-.01513-.869997-.391042-.855519-.893735.014218-.494086.382695-.85278.876128-.85278l.029608.000522c.524477.015521.880171.38765.865432.904823-.014609.49552-.377347.841692-.882519.841692zm2.146297-4.259854c-.12.170478-.383868.382173-.716345.641215l-.36613.252782c-.200999.15626-.322303.30326-.367824.447911-.03587.11387-.053478.144-.056609.375651l-.000521.058826h-1.397995l.004043-.118304c.017087-.486259.029087-.772301.230608-1.008648.316173-.371216 1.013605-.820302 1.043214-.839345.099912-.07526.184173-.160956.246912-.252521.146738-.202304.211695-.361564.211695-.518085 0-.217173-.064435-.418042-.19187-.596867-.122477-.172565-.355172-.259956-.691692-.259956-.333782 0-.562303.105913-.698998.323216-.140608.223434-.211695.458085-.211695.697824v.059608h-1.44143l.00261-.062217c.037173-.88291.352303-1.518647.936257-1.889602.366912-.236216.823432-.355955 1.356125-.355955.697302 0 1.285952.169434 1.749385.503607.469564.338607.707737.845736.707737 1.507299 0 .370042-.11687.71765-.347477 1.033561z"/>
    </g>
  </g>
</svg>
