<svg xmlns="http://www.w3.org/2000/svg" width="77" height="63" viewBox="0 0 77 63">
  <defs>
    <filter id="b" width="269.6%" height="322.9%" x="-84.8%" y="-111.4%" filterUnits="objectBoundingBox">
      <feOffset dy="4" in="SourceAlpha" result="shadowOffsetOuter1"/>
      <feGaussianBlur in="shadowOffsetOuter1" result="shadowBlurOuter1" stdDeviation="8"/>
      <feColorMatrix in="shadowBlurOuter1" result="shadowMatrixOuter1" values="0 0 0 0 0.996078431 0 0 0 0 0.764705882 0 0 0 0 0.0470588235 0 0 0 0.213013549 0"/>
      <feMerge>
        <feMergeNode in="shadowMatrixOuter1"/>
        <feMergeNode in="SourceGraphic"/>
      </feMerge>
    </filter>
    <linearGradient id="a" x1="35.6%" x2="65.7%" y1="63.5%" y2="35.9%">
      <stop offset="0%" stop-color="#E08C3C"/>
      <stop offset="100%" stop-color="#FFD06F"/>
    </linearGradient>
  </defs>
  <g fill="url(#a)" fill-rule="nonzero" filter="url(#b)" transform="translate(16 10)">
    <path d="M.8 12h35v4.7c0 .2 0 .4.2.6l.6.2c.2 0 .4 0 .5-.2l8.2-8 .2-.5c0-.3 0-.5-.2-.6l-8.1-8a1 1 0 0 0-.6-.2c-.3 0-.5 0-.6.2-.2.2-.2.4-.2.6v4.8H.8c-.2 0-.4 0-.6.2l-.2.6V11c0 .3 0 .4.2.6.2.2.4.2.6.2zM44.7 23h-35v-4.7c0-.2 0-.4-.2-.6a.8.8 0 0 0-.6-.2c-.2 0-.4 0-.5.2l-8.2 8-.2.6c0 .2 0 .3.2.5l8.1 8 .6.2c.3 0 .4 0 .6-.2l.3-.6v-4.8h34.9c.2 0 .4 0 .6-.2l.2-.6V24c0-.3 0-.4-.2-.6a.8.8 0 0 0-.6-.2z"/>
  </g>
</svg>
