<svg xmlns="http://www.w3.org/2000/svg" width="32" height="32">
  <g fill="none" fill-rule="evenodd">
    <g>
      <circle cx="16" cy="16" r="16" fill="#FEC30C"/>
      <path fill="#FFF177" fill-rule="nonzero" d="M16 30a14 14 0 1 0 0-28 14 14 0 0 0 0 28zm0 2a16 16 0 1 1 0-32 16 16 0 0 1 0 32z"/>
    </g>
    <g fill-rule="nonzero">
      <path fill="#E2A51B" d="M19.4 12L12 11l4.8 3.3 2.6-2.4zm1 .1l-2.8 2.7 4.7-1.3-1.8-1.4zm1.9 2.3l-4.8 1.3-.3 6 5-7.3zM17 23.2l-.5.8-.6-.6L9.5 10l.4-.5 10.7 1.8 3.1 2.4-6.6 9.5zm-.9-1.6l.4-6.3-5.3-3.6 5 9.9z"/>
      <path fill="#FFF178" d="M18.8 11.4l-7.4-.9 4.8 3.3 2.6-2.4zm1 .2L17 14.2l4.7-1.2-1.8-1.4zm1.9 2.3l-4.8 1.2-.3 6.1 5-7.3zm-5.2 8.8l-.5.7-.4-.7L9 9.4l11 1.3 3.2 2.3-6.7 9.6zm-.8-1.6l.3-6.3-5.3-3.6 5 9.9z"/>
    </g>
  </g>
</svg>
