<svg xmlns="http://www.w3.org/2000/svg" width="108" height="72" viewBox="0 0 108 72">
  <g fill="none" fill-rule="nonzero">
    <g fill="#5A3EC4">
      <path d="M77.11 0H60.44c-.83 0-1.51.68-1.51 1.52v14.9c0 .84.68 1.51 1.51 1.51h9.98c.84 0 1.52.68 1.52 1.52v3.68c0 6.02-10.21 8.65-12.54 9.18a.6.6 0 0 0-.47.59v2.58c0 .25.2.45.45.45 6.71-.07 11.1-1.67 13.95-3.67a12.66 12.66 0 0 0 5.3-10.4V1.51c0-.84-.68-1.52-1.52-1.52zM106.48 0H89.81c-.83 0-1.51.68-1.51 1.52v14.9c0 .84.68 1.51 1.51 1.51h9.98c.84 0 1.52.68 1.52 1.52v3.68c0 6.02-10.21 8.65-12.54 9.18a.6.6 0 0 0-.47.59v2.58c0 .25.2.45.45.45 6.71-.07 11.1-1.67 13.95-3.67a12.66 12.66 0 0 0 5.3-10.4V1.51c0-.84-.68-1.52-1.52-1.52zM30.89 71.86h16.67c.83 0 1.51-.68 1.51-1.52v-14.9c0-.84-.68-1.52-1.51-1.52h-9.98c-.84 0-1.52-.68-1.52-1.51v-3.68c0-6.03 10.21-8.66 12.54-9.18a.6.6 0 0 0 .47-.59v-2.59c0-.24-.2-.44-.45-.44-6.71.07-11.1 1.67-13.95 3.67a12.66 12.66 0 0 0-5.3 10.4v20.34c0 .84.68 1.52 1.52 1.52zM1.52 71.86h16.67c.83 0 1.51-.68 1.51-1.52v-14.9c0-.84-.68-1.52-1.51-1.52H8.2c-.84 0-1.52-.68-1.52-1.51v-3.68c0-6.03 10.21-8.66 12.54-9.18a.6.6 0 0 0 .47-.59v-2.59c0-.24-.2-.44-.45-.44C12.54 36 8.15 37.6 5.3 39.6A12.67 12.67 0 0 0 0 50v20.34c0 .84.68 1.52 1.52 1.52z"/>
    </g>
    <path fill="#FFF" fill-opacity=".15" d="M64.1 35.34v-2.6c0-.28.2-.52.47-.59C66.87 31.63 77 29 77 22.95v-3.68c0-.84-.67-1.52-1.5-1.52h-9.9c-.83 0-1.5-.68-1.5-1.52V1.3c0-.55.3-1.03.73-1.3h-4.32C59.67 0 59 .68 59 1.52v14.93c0 .84.67 1.52 1.5 1.52h9.9c.83 0 1.5.68 1.5 1.52v3.69c0 6.03-10.12 8.67-12.43 9.19a.6.6 0 0 0-.47.6v2.59c0 .24.2.44.45.44 1.75-.02 3.33-.14 4.78-.35a.44.44 0 0 1-.13-.31zM93.1 35.34v-2.6c0-.28.2-.52.47-.59 2.3-.52 12.43-3.15 12.43-9.2v-3.68c0-.84-.67-1.52-1.5-1.52h-9.9c-.83 0-1.5-.68-1.5-1.52V1.3c0-.55.3-1.03.73-1.3h-4.32C88.67 0 88 .68 88 1.52v14.93c0 .84.67 1.52 1.5 1.52h9.9c.83 0 1.5.68 1.5 1.52v3.69c0 6.03-10.12 8.67-12.43 9.19a.6.6 0 0 0-.47.6v2.59c0 .24.2.44.45.44 1.75-.02 3.33-.14 4.78-.35a.44.44 0 0 1-.13-.31zM36.54 70.48V50.1c0-4.12 1.96-8.06 5.38-10.42A20.46 20.46 0 0 1 50 36.54v-.1c0-.24-.2-.44-.46-.44-6.82.07-11.26 1.68-14.16 3.68A12.64 12.64 0 0 0 30 50.1v20.38c0 .84.69 1.52 1.54 1.52h6.54c-.85 0-1.54-.68-1.54-1.52zM6.54 70.48V50.1c0-4.12 1.96-8.06 5.38-10.42A20.47 20.47 0 0 1 20 36.54v-.1c0-.24-.2-.44-.46-.44-6.81.07-11.26 1.68-14.16 3.68A12.64 12.64 0 0 0 0 50.1v20.38C0 71.32.69 72 1.54 72h6.54c-.85 0-1.54-.68-1.54-1.52z"/>
  </g>
</svg>
