<svg xmlns="http://www.w3.org/2000/svg" width="14" height="13">
  <g fill="none" fill-rule="evenodd">
    <path fill="#E2A51B" d="M7.6 10.7l-3.5 1.8h-.5l-.6-.6 1.5-3.5-.1-.6L2 5.5a.5.5 0 0 1 .3-.8l3.2-.5c.2 0 .4-.2.5-.4L6.8.6l.7-.3a.5.5 0 0 1 .7.2l.2.4 1.5 3c0 .2.2.3.4.3l3.3.5a.5.5 0 0 1 .3.8L11.5 8c-.2.1-.2.3-.2.4L12 12a.5.5 0 0 1-.6.6l-1-.3a15 15 0 0 1-2.1-1.6.5.5 0 0 0-.6 0z" class="star--shadow"/>
    <path fill="#FFF177" d="M6.8 10.6l-3 1.6a.5.5 0 0 1-.7-.5l.5-3.4-.1-.4L1 5.5a.5.5 0 0 1 .2-.8l3.4-.5L5 4l1.5-3a.5.5 0 0 1 .8 0L9 4c.1.2.3.3.4.3l3.4.5a.5.5 0 0 1 .2.8L10.5 8c-.1.1-.2.3-.1.4l.5 3.4a.5.5 0 0 1-.7.5l-3-1.6h-.4z" class="star--root"/>
  </g>
</svg>
