<svg xmlns="http://www.w3.org/2000/svg" width="33" height="32">
  <g fill="none" fill-rule="evenodd">
    <g transform="translate(.5)">
      <circle cx="16" cy="16" r="16" fill="#FEC30C"/>
      <g fill-rule="nonzero">
        <path fill="#E38E2D" d="M17.6 20.6l2.7-1.7-.9-4.3-1.8 6zm1.4-7.8l-2.6-3.5-2.6 3.5 2.6 8.3 2.6-8.3zm-5.6 2l-.9 4.1 2.7 1.6-1.8-5.8zM17 22l-.6.4h-.7l-4.4-3 1.4-6.9 3.6-4.8 3.6 4.8 1.4 6.8L17 22z"/>
        <path fill="#FFF37E" d="M16.9 20.5l2.7-1.7-.8-4.2-1.9 5.9zm1.4-7.8l-2.6-3.5-2.5 3.5 2.6 8.2 2.5-8.2zm-5.6 1.8l-.9 4.4 2.8 1.6-1.9-6zm6.7-1.9l1.3 6.7-4.9 3-.7-.4-4.4-2.5 1.4-7 3.6-4.8 3.6 4.9v.1z"/>
      </g>
    </g>
    <path fill="#FFF177" fill-rule="nonzero" d="M16.5 30a14 14 0 1 0 0-28 14 14 0 0 0 0 28zm0 2a16 16 0 1 1 0-32 16 16 0 0 1 0 32z"/>
  </g>
</svg>
