<svg xmlns="http://www.w3.org/2000/svg" width="20" height="18" viewBox="0 0 20 18">
  <defs>
    <filter id="a" width="245.5%" height="300%" x="-72.7%" y="-100%" filterUnits="objectBoundingBox">
      <feMorphology in="SourceAlpha" radius="5" result="shadowSpreadOuter1"/>
      <feOffset in="shadowSpreadOuter1" result="shadowOffsetOuter1"/>
      <feGaussianBlur in="shadowOffsetOuter1" result="shadowBlurOuter1" stdDeviation="2.5"/>
      <feColorMatrix in="shadowBlurOuter1" result="shadowMatrixOuter1" values="0 0 0 0 0.996078431 0 0 0 0 0.764705882 0 0 0 0 0.0470588235 0 0 0 0.47142701 0"/>
      <feMerge>
        <feMergeNode in="shadowMatrixOuter1"/>
        <feMergeNode in="SourceGraphic"/>
      </feMerge>
    </filter>
  </defs>
  <path fill="#FEC30C" fill-rule="nonzero" d="M10 1.1L9.1.2a.6.6 0 0 0-.4-.2c-.2 0-.3 0-.5.2L4 4.6l-2-2a.6.6 0 0 0-.4-.2l-.4.2-1 1L0 4c0 .2 0 .3.2.5l2.4 2.4.9 1 .4.1c.2 0 .3 0 .5-.2l.9-1L10 2c.2 0 .2-.2.2-.4s0-.4-.2-.5z" filter="url(#a)" transform="translate(5 5)"/>
</svg>
