<svg xmlns="http://www.w3.org/2000/svg" width="155" height="35" viewBox="0 0 155 35">
  <g fill="none" fill-rule="nonzero">
    <path fill="#E2A51B" d="M115.580769 5.956731h2.234615v15.55032h-2.234615z"/>
    <g transform="translate(109.075481 5.957853)">
      <ellipse cx="6.695994" cy="7.77516" fill="#E2A51B" rx="6.695994" ry="7.77516"/>
      <ellipse cx="8.739904" cy="7.77516" fill="#E2A51B" rx="6.695994" ry="7.77516"/>
      <path fill="#F0C300" d="M8.739904 2.242468c1.121795 0 2.203205.532853 3.035577 1.498718.914263 1.061218 1.417949 2.49375 1.417949 4.038461 0 1.544712-.503686 2.971635-1.41795 4.038462-.832371.966987-1.90705 1.498718-3.035576 1.498718s-2.203205-.53173-3.028846-1.498718c-.914263-1.061218-1.417949-2.49375-1.417949-4.032853 0-1.539102.503686-2.972756 1.417949-4.038461.83125-.965866 1.907051-1.498718 3.028846-1.498718v-.005609zm0-2.23798c-3.701923 0-6.695994 3.477563-6.695994 7.776281s2.997436 7.77516 6.695994 7.77516 6.697115-3.477564 6.697115-7.77516c0-4.297596-2.998557-7.776282-6.697115-7.776282z"/>
    </g>
    <path fill="#FFF" d="M96.623558 33.921955c-1.439263 0-2.492629-1.135256-2.492629-2.528525 0-1.416827 1.053366-2.540866 2.457853-2.540866 1.029808 0 1.815064.550801 2.22452 1.47516l.995031-.420673c-.503686-1.233974-1.709615-2.084295-3.208333-2.084295-2.0125 0-3.589744 1.533494-3.589744 3.570674 0 1.966506 1.533494 3.558333 3.589744 3.558333 1.592949 0 2.739423-.889584 3.266667-2.141507l-1.01859-.448718c-.37468.89295-1.139744 1.560417-2.22452 1.560417zM106.727564 29.099359c-.550801-.808814-1.545833-1.278846-2.51282-1.278846-1.942949 0-3.488782 1.522276-3.488782 3.570673 0 2.048397 1.570512 3.558333 3.488782 3.558333a3.18253 3.18253 0 0 0 1.404487-.336538 2.703526 2.703526 0 0 0 1.108333-.959135v1.158814h1.100481v-6.842949h-1.100481v1.129648zm-2.411859 4.823718c-1.369711 0-2.467949-1.121795-2.467949-2.540865 0-1.419071 1.100481-2.539744 2.467949-2.539744.66905.00111 1.309698.270535 1.778445.747928.468748.477393.726422 1.122857.715305 1.791816 0 1.415705-1.089263 2.539743-2.49375 2.539743v.001122zM111.983173 30.83141c-.971474-.245673-1.766827-.37468-1.766827-1.053365 0-.560898.479007-1.01859 1.404487-1.01859.669797-.019524 1.310342.274613 1.732052.795353l.878365-.608013c-.550801-.714584-1.498718-1.135257-2.610417-1.135257-1.545833 0-2.517307.947917-2.517307 1.990065 0 1.346153 1.182371 1.697275 2.30641 1.977724.924359.210897 1.813942.351122 1.813942 1.053365 0 .609135-.502564 1.136378-1.521154 1.136378-.792447.006907-1.533754-.3906-1.966506-1.054487l-.949039.620353c.620353.890705 1.580609 1.416827 2.88077 1.416827 1.872275 0 2.65641-1.233975 2.65641-2.13141 0-1.392148-1.240705-1.708494-2.341186-1.988943zM118.995513 27.820513c-1.029808 0-1.8375.467788-2.317628 1.171154v-2.842629h-1.100481v8.6625h1.121795V31.01875c0-1.276603.897436-2.200962 2.083173-2.200962 1.346154 0 2.002404.81891 2.002404 2.166186v3.827564h1.135259l-.000003-3.887019c.002244-1.930609-1.133013-3.104006-2.924519-3.104006zM127.004006 27.820513c-.971474 0-1.955288.467788-2.504968 1.276602V26.14904h-1.089262v8.6625h1.076923v-1.147597c.550801.83125 1.557051 1.28782 2.528525 1.28782 1.907052 0 3.477564-1.521153 3.477564-3.558333 0-2.037179-1.533493-3.572916-3.488782-3.572916zm-.093109 6.099198c-1.440384 0-2.49375-1.121794-2.49375-2.540865 0-1.41907 1.053366-2.539743 2.49375-2.539743 1.38093 0 2.457853 1.135256 2.457853 2.539743s-1.076923 2.54311-2.457853 2.54311v-.002245zM137.505128 29.099359c-.549679-.808814-1.544711-1.276603-2.516186-1.276603-1.94407 0-3.488782 1.522276-3.488782 3.570674 0 2.048397 1.570513 3.558333 3.488782 3.558333a3.185894 3.185894 0 0 0 1.404487-.336539 2.706891 2.706891 0 0 0 1.111699-.960256v1.158814h1.100481v-6.842949h-1.100481v1.128526zm-2.410737 4.823718c-1.369712 0-2.467949-1.121795-2.467949-2.540865 0-1.419071 1.100481-2.539744 2.467949-2.539744.66895.001105 1.309487.270565 1.778057.747993.468571.477427.725992 1.122897.714571 1.79175 0 1.415706-1.088141 2.539744-2.492628 2.539744v.001122zM143.452885 33.921955c-1.440385 0-2.49375-1.135256-2.49375-2.528525 0-1.416827 1.053365-2.540866 2.457852-2.540866 1.03093 0 1.815064.550801 2.224519 1.47516l.995032-.420673c-.503685-1.233974-1.708493-2.084295-3.207211-2.084295-2.019231 0-3.589744 1.533494-3.589744 3.570674 0 1.966506 1.533494 3.558333 3.589744 3.558333 1.591827 0 2.739423-.889584 3.265545-2.141507l-1.01859-.448718c-.373558.89295-1.135256 1.560417-2.223397 1.560417zM151.074359 30.866186l2.761859-2.903205h-1.38093l-3.523557 3.710897v-5.52484h-1.100481v8.6625h1.100481v-1.873397l1.346154-1.404487 2.353525 3.277884h1.275481zM7.596795 1.089263H0V21.46218h7.759455c2.970513 0 5.674039-1.035417 7.611378-2.916667 1.93734-1.88125 2.982853-4.447917 2.982853-7.270353 0-2.916666-.973718-5.426122-2.816827-7.259134-1.927244-1.913782-4.672276-2.926763-7.940064-2.926763zm6.50641 10.18702c0 1.742147-.64391 3.313781-1.81282 4.424358-1.226122 1.165545-2.942468 1.78141-4.96282 1.78141H4.251602V5.070513h2.916666c4.404167 0 6.932693 2.261538 6.932693 6.20577h.002243zM32.884295 6.50641c-1.233975-1.154327-2.953686-1.804968-4.823718-1.804968-2.098914-.013507-4.120513.79127-5.635897 2.24359-1.64343 1.580609-2.512821 3.765865-2.512821 6.31234 0 5.339743 4.115865 8.52564 8.094872 8.52564 1.87564 0 3.646955-.711217 4.879808-1.932852v1.60641h4.222435V5.02452h-4.22468v1.48189zm-4.272917 11.352564h-.005609c-2.5375 0-4.524198-2.045032-4.524198-4.655448 0-2.580129 1.986698-4.59936 4.524198-4.59936S33.075 10.584136 33.075 13.209136v.11218c-.009638 1.22491-.494713 2.39818-1.352885 3.272275-.826525.819979-1.946517 1.275569-3.110737 1.265384zM48.74984 4.699199c-1.926122 0-3.663782.70673-4.879808 1.962019V5.024519h-4.197756v23.738302h4.197756v-8.73093c1.182372 1.121795 2.927885 1.75673 4.90673 1.75673 2.060346-.014256 4.03698-.817113 5.523719-2.243589 1.16218-1.121795 2.546474-3.111859 2.546474-6.282051 0-2.546475-.863782-4.729487-2.497115-6.314584-1.50104-1.452698-3.51114-2.26004-5.6-2.249198zm3.91843 8.504327c.015018 1.25803-.473734 2.469812-1.357373 3.365384-.830947.829529-1.959058 1.292406-3.133173 1.285577h-.005609c-2.533012 0-4.442307-2.001282-4.442307-4.655448 0-2.625 1.907051-4.59936 4.442307-4.59936 2.535257 0 4.496154 2.021475 4.496154 4.603847zM67.440064 4.699199c-1.926122 0-3.663782.70673-4.879808 1.962019V5.024519H58.3625v23.738302h4.197756v-8.73093c1.182372 1.121795 2.927885 1.75673 4.907853 1.75673 2.060322-.01437 4.036916-.81721 5.523718-2.243589 1.161058-1.121795 2.545352-3.111859 2.545352-6.282051 0-2.546475-.863782-4.73061-2.497115-6.314584-1.500907-1.452903-3.511095-2.26028-5.6-2.249198zm3.926282 8.504327c.01472 1.25819-.474445 2.469996-1.358493 3.365384-.829658.829533-1.9566 1.29283-3.129808 1.286699-2.531891 0-4.441186-2.001282-4.441186-4.655449 0-2.625 1.907051-4.599359 4.43782-4.599359 2.53077 0 4.488302 2.020353 4.488302 4.602725h.003365zM91.375801 9.165064l-.58109-.190705c-2.025961-.673077-3.266666-1.143109-3.266666-2.335577 0-1.216026.953525-1.972115 2.48702-1.972115 1.466185 0 2.562179.579968 3.348557 1.773557l.164904.25016 3.530288-2.678846-.224359-.224359C95.422115 2.315385 93.500481.81779 89.988141.81779c-3.903846 0-6.842949 2.559935-6.842949 5.953365 0 4.038461 3.222917 5.076122 5.815385 5.91298l.317468.098719c1.93734.599038 3.611058 1.121794 3.611058 2.482532 0 1.634455-1.416827 2.379326-2.732693 2.379326-1.714102 0-3.132051-.880608-4.10016-2.547596l-.16266-.279326-3.852244 3.045673.198558.224359c2.223397 2.48814 4.745192 3.648076 7.935577 3.648076 4.626282 0 7.123397-3.318269 7.123397-6.440224-.005609-4.222436-3.712019-5.417147-5.923077-6.130609zM104.291026 0l-4.252725 1.141987V5.02452h-2.713622v3.845513h2.713622v5.695353c0 5.223077 1.624359 6.899038 6.685898 6.899038h.796474v-4.007051h-.277083c-2.646314 0-2.949199-.300641-2.949199-2.922276V8.870032h3.229647V5.021154h-3.233012V0zM137.195513 5.739103c-.863782-.48125-1.822917-.714584-2.932372-.714584-1.682692 0-2.951442.553045-3.789423 1.636699V5.024519h-4.197756v16.441026h4.224679v-8.75c0-2.489263.916506-3.59984 2.972756-3.59984.959135 0 1.511058.23109 2.045032.578846l.286058.186218 1.603045-4.025-.212019-.116666zM150.096154 14.790865l.045993.025802h4.203366v-1.664744c0-2.346795-.850321-4.48718-2.396154-6.041987-1.545833-1.554808-3.701923-2.407372-6.057692-2.407372-4.783334 0-8.525641 3.76923-8.525641 8.58173 0 2.328847.852564 4.470353 2.400641 6.029648 1.583974 1.596314 3.814102 2.476923 6.267468 2.478045 2.740544 0 4.972916-.96923 6.555769-2.822436l-2.876282-2.793269c-.824519 1.170032-2.12468 1.82516-3.683975 1.82516-2.255929 0-3.926282-1.183493-4.521955-3.184775h8.576122l.01234-.025802zm-8.357372-3.605448c.711218-1.671475 2.268269-2.692308 4.150641-2.692308h.007853c2.064102 0 3.498878.952404 4.076602 2.692308h-8.235096z"/>
  </g>
</svg>
