<svg xmlns="http://www.w3.org/2000/svg" width="20" height="19">
  <g fill="none" fill-rule="nonzero">
    <ellipse cx="8.4" cy="9.5" fill="#E2A51B" rx="8.4" ry="9.5"/>
    <ellipse cx="10.6" cy="9.5" fill="#E2A51B" rx="8.4" ry="9.5"/>
    <path fill="#F0C300" d="M10.6 2.7c1.4 0 2.8.7 3.9 1.9 1.1 1.3 1.7 3 1.7 4.9 0 1.9-.6 3.6-1.7 5a5.1 5.1 0 0 1-3.9 1.7 5 5 0 0 1-3.8-1.8 7.4 7.4 0 0 1-1.8-5c0-1.8.7-3.5 1.8-4.8 1-1.2 2.4-1.9 3.8-1.9zm0-2.7C6 0 2.2 4.2 2.2 9.5c0 5.2 3.8 9.5 8.4 9.5 4.7 0 8.5-4.3 8.5-9.5C19 4.2 15.3 0 10.6 0z"/>
  </g>
</svg>
