<svg xmlns="http://www.w3.org/2000/svg" width="90" height="69" viewBox="0 0 90 69">
  <defs>
    <filter id="b" width="236.8%" height="305.5%" x="-67.9%" y="-101.8%" filterUnits="objectBoundingBox">
      <feOffset dy="4" in="SourceAlpha" result="shadowOffsetOuter1"/>
      <feGaussianBlur in="shadowOffsetOuter1" result="shadowBlurOuter1" stdDeviation="8"/>
      <feColorMatrix in="shadowBlurOuter1" result="shadowMatrixOuter1" values="0 0 0 0 0.996078431 0 0 0 0 0.764705882 0 0 0 0 0.0470588235 0 0 0 0.213013549 0"/>
      <feMerge>
        <feMergeNode in="shadowMatrixOuter1"/>
        <feMergeNode in="SourceGraphic"/>
      </feMerge>
    </filter>
    <linearGradient id="a" x1="35.6%" x2="65.7%" y1="90.6%" y2="7.7%">
      <stop offset="0%" stop-color="#E08C3C"/>
      <stop offset="100%" stop-color="#FFD06F"/>
    </linearGradient>
  </defs>
  <path fill="url(#a)" fill-rule="nonzero" d="M52.3 6.8C44.7-5.8 33.3 3 33.3 3c-.7.5-2.1 1-3 1h-3.1c-1 0-2.3-.5-3-1 0 0-11.5-8.8-19 3.8C-2.5 19.3.5 33 .5 33c.5 3.3 2.3 5.6 5.6 5.3 3.4-.3 10.6-9 10.6-9 .6-.8 1.8-1.3 2.7-1.3H38c1 0 2.2.5 2.8 1.3 0 0 7.2 8.7 10.5 9 3.3.2 5.1-2 5.6-5.3 0 0 3.1-13.7-4.5-26.2zM21.8 17h-4v3.8s-.7.6-2 .6-1.9-.7-1.9-.7V17h-3.7s-.5-.5-.6-1.8C9.5 14 10 13 10 13h4V9s.8-.4 2-.4c1 0 2 .5 2 .5V13h3.6s.7.8.7 1.8-.6 2.2-.6 2.2zm18 4.3a3.1 3.1 0 0 1-3-3.1 3.1 3.1 0 1 1 6.2 0c0 1.7-1.4 3.1-3.1 3.1zm0-8.6a3.1 3.1 0 0 1-3-3.1 3.1 3.1 0 1 1 6.2 0c0 1.7-1.4 3.1-3.1 3.1zm7.8 4.6a3.1 3.1 0 0 1-3-3 3.1 3.1 0 1 1 6.2 0c0 1.6-1.4 3-3.2 3z" filter="url(#b)" transform="translate(16.3 11.2)"/>
</svg>
