<?xml version="1.0" encoding="UTF-8"?>
<svg width="95px" height="129px" viewBox="0 0 95 129" version="1.1" xmlns="http://www.w3.org/2000/svg" xmlns:xlink="http://www.w3.org/1999/xlink">
    <!-- Generator: Sketch 53.1 (72631) - https://sketchapp.com -->
    <title>Group 6</title>
    <desc>Created with Sketch.</desc>
    <defs>
        <linearGradient x1="50%" y1="0%" x2="50%" y2="100%" id="linearGradient-1">
            <stop stop-color="#E89A31" offset="0%"></stop>
            <stop stop-color="#D87224" offset="100%"></stop>
        </linearGradient>
        <linearGradient x1="50%" y1="0%" x2="50%" y2="100%" id="linearGradient-2">
            <stop stop-color="#F6C554" offset="0%"></stop>
            <stop stop-color="#F5A939" offset="100%"></stop>
        </linearGradient>
        <linearGradient x1="65.410909%" y1="5.19246708%" x2="50%" y2="100%" id="linearGradient-3">
            <stop stop-color="#FFFAB4" offset="0%"></stop>
            <stop stop-color="#F5A939" offset="100%"></stop>
        </linearGradient>
        <linearGradient x1="50%" y1="0%" x2="50%" y2="100%" id="linearGradient-4">
            <stop stop-color="#E1882B" offset="0%"></stop>
            <stop stop-color="#F5A939" offset="100%"></stop>
        </linearGradient>
    </defs>
    <g id="design" stroke="none" stroke-width="1" fill="none" fill-rule="evenodd" opacity="0.9">
        <g id="faq1" transform="translate(-671.000000, -119.000000)" fill-rule="nonzero">
            <g id="background">
                <g id="Group-6" transform="translate(672.000000, 119.000000)">
                    <path d="M59.2491791,93 C60.2480408,93 61.1257388,93.3752955 61.8727508,94.1258865 C62.6256731,94.8764775 63,95.7505253 63,96.7506567 L63,119.250328 C63,120.25046 62.6246881,121.125821 61.8727508,121.875099 C61.1257388,122.624376 57.3065734,127.228755 56.3077117,127.228755 L36.7495075,123 C35.7496607,123 34.8752463,122.623391 34.1252791,121.875099 C33.3759687,121.125821 33,120.25046 33,119.250328 C29.9164368,106.334428 28.6248632,99.6262805 29.1252791,99.1258865 C29.8752463,98.3772656 35.7506458,93 36.7495075,93 L59.2491791,93 Z M90.0512251,23.4499707 C92.6820551,28.3347719 93.9993253,33.4644424 94,38.8372816 C94,42.3324499 93.5034515,45.6017943 92.5063066,48.6439545 C91.5111856,51.687135 90.3868676,54.1637153 89.1343645,56.0730151 C87.8838854,57.9819749 86.1179673,59.9079395 83.8389717,61.8505688 C81.558964,63.7911575 79.7144483,65.2022165 78.2990152,66.0749032 C76.8849315,66.9499707 74.9284225,68.0974551 72.4257776,69.5210977 C69.791237,71.0103788 67.592863,73.1162543 65.8269449,75.834983 C64.0627135,78.5523514 63.1799232,80.7231852 63.1799232,82.3410226 C63.1799232,83.4398733 62.7930067,84.4921309 62.0242336,85.4926938 C61.2530991,86.4993784 56.7865869,91.6175765 55.7590824,91.6175765 L36.2134945,87 C35.2497451,87 34.431722,86.4017708 33.7570637,85.203272 C33.0817307,84.0057934 32.7464256,82.7926703 32.7464256,81.5615222 L32.7464256,77.1923068 C32.7464256,71.8198077 34.8321316,66.7544154 39.0065797,61.9961299 C43.1779919,57.2381846 47.7707281,53.7260115 52.7773672,51.4606309 C56.5662481,49.7121966 59.2638692,47.9005043 60.8685439,46.0238536 C62.4742306,44.1465228 63.2753873,41.685587 63.2753873,38.6444471 C63.2753873,35.9257183 61.7840552,33.530421 58.7986923,31.4585552 C55.8119801,29.3887299 52.3617777,28.352797 48.4453864,28.352797 C44.2719503,28.352797 40.8058934,29.2907822 38.044517,31.1674329 C35.7975676,32.7866307 32.3618704,36.5086431 27.7397865,42.3338102 C26.9042222,43.3694031 25.9097759,43.8880497 24.7537489,43.8880497 C23.9829519,43.8880497 23.1801085,43.6292365 22.3455562,43.1122904 L6.5504566,30.9739181 C5.71590431,30.3267151 5.21834383,29.5172863 5.0571005,28.547332 C4.89686916,27.5760174 5.07396696,26.6700012 5.58704458,25.8289434 C15.8607408,8.60953442 30.7561837,8.5194074e-12 50.2737103,8.5194074e-12 C55.4112331,8.5194074e-12 60.5794529,1.00396388 65.7800562,3.00917087 C70.9796475,5.01505805 75.6698719,7.70283804 79.8416214,11.0684297 C84.0160695,14.4353817 87.4180338,18.560068 90.0512251,23.4499707 Z" id="Combined-Shape-Copy-6" fill="url(#linearGradient-1)" transform="translate(49.500000, 63.614377) rotate(-360.000000) translate(-49.500000, -63.614377) "></path>
                    <path d="M54.2491791,98 C55.2480408,98 56.1257388,98.3752955 56.8727508,99.1258865 C57.6256731,99.8764775 58,100.750525 58,101.750657 L58,124.250328 C58,125.25046 57.6246881,126.125821 56.8727508,126.875099 C56.1257388,127.624376 55.2480408,128 54.2491791,128 L31.7495075,128 C30.7496607,128 29.8752463,127.623391 29.1252791,126.875099 C28.3759687,126.125821 28,125.25046 28,124.250328 L28,101.750657 C28,100.750525 28.3746552,99.8764775 29.1252791,99.1258865 C29.8752463,98.3772656 30.7506458,98 31.7495075,98 L54.2491791,98 Z M85.0512251,28.4499707 C87.6820551,33.3347719 88.9993253,38.4644424 89,43.8372816 C89,47.3324499 88.5034515,50.6017943 87.5063066,53.6439545 C86.5111856,56.687135 85.3868676,59.1637153 84.1343645,61.0730151 C82.8838854,62.9819749 81.1179673,64.9079395 78.8389717,66.8505688 C76.558964,68.7911575 74.7144483,70.2022165 73.2990152,71.0749032 C71.8849315,71.9499707 69.9284225,73.0974551 67.4257776,74.5210977 C64.791237,76.0103788 62.592863,78.1162543 60.8269449,80.834983 C59.0627135,83.5523514 58.1799232,85.7231852 58.1799232,87.3410226 C58.1799232,88.4398733 57.7930067,89.4921309 57.0242336,90.4926938 C56.2530991,91.4993784 55.355129,92 54.3276244,92 L31.2134945,92 C30.2497451,92 29.431722,91.4017708 28.7570637,90.203272 C28.0817307,89.0057934 27.7464256,87.7926703 27.7464256,86.5615222 L27.7464256,82.1923068 C27.7464256,76.8198077 29.8321316,71.7544154 34.0065797,66.9961299 C38.1779919,62.2381846 42.7707281,58.7260115 47.7773672,56.4606309 C51.5662481,54.7121966 54.2638692,52.9005043 55.8685439,51.0238536 C57.4742306,49.1465228 58.2753873,46.685587 58.2753873,43.6444471 C58.2753873,40.9257183 56.7840552,38.530421 53.7986923,36.4585552 C50.8119801,34.3887299 47.3617777,33.352797 43.4453864,33.352797 C39.2719503,33.352797 35.8058934,34.2907822 33.044517,36.1674329 C30.7975676,37.7866307 27.3618704,41.5086431 22.7397865,47.3338102 C21.9042222,48.3694031 20.9097759,48.8880497 19.7537489,48.8880497 C18.9829519,48.8880497 18.1801085,48.6292365 17.3455562,48.1122904 L1.5504566,35.9739181 C0.715904313,35.3267151 0.218343833,34.5172863 0.0571005043,33.547332 C-0.103130837,32.5760174 0.0739669612,31.6700012 0.587044582,30.8289434 C10.8607408,13.6095344 25.7561837,5 45.2737103,5 C50.4112331,5 55.5794529,6.00396388 60.7800562,8.00917087 C65.9796475,10.0150581 70.6698719,12.702838 74.8416214,16.0684297 C79.0160695,19.4353817 82.4180338,23.560068 85.0512251,28.4499707 Z" id="Combined-Shape-Copy-5" stroke="url(#linearGradient-3)" stroke-width="2" fill="url(#linearGradient-2)" transform="translate(44.500000, 66.500000) rotate(-360.000000) translate(-44.500000, -66.500000) "></path>
                    <path d="M54.2491791,98 C55.2480408,98 56.1257388,98.3752955 56.8727508,99.1258865 C57.6256731,99.8764775 58,100.750525 58,101.750657 L58,124.250328 C58,125.25046 57.6246881,126.125821 56.8727508,126.875099 C56.1257388,127.624376 55.2480408,128 54.2491791,128 L31.7495075,128 C30.7496607,128 29.8752463,127.623391 29.1252791,126.875099 C28.3759687,126.125821 28,125.25046 28,124.250328 L28,101.750657 C28,100.750525 28.3746552,99.8764775 29.1252791,99.1258865 C29.8752463,98.3772656 30.7506458,98 31.7495075,98 L54.2491791,98 Z M27.7464256,86.5615222 C66.1733869,68.2963176 84.9693666,59.8001485 84.1343645,61.0730151 C82.8838854,62.9819749 81.1179673,64.9079395 78.8389717,66.8505688 C76.558964,68.7911575 74.7144483,70.2022165 73.2990152,71.0749032 C71.8849315,71.9499707 69.9284225,73.0974551 67.4257776,74.5210977 C64.791237,76.0103788 62.592863,78.1162543 60.8269449,80.834983 C59.0627135,83.5523514 58.1799232,85.7231852 58.1799232,87.3410226 C58.1799232,88.4398733 57.7930067,89.4921309 57.0242336,90.4926938 C56.2530991,91.4993784 55.355129,92 54.3276244,92 L31.2134945,92 C30.2497451,92 29.431722,91.4017708 28.7570637,90.203272 C28.0817307,89.0057934 27.7464256,87.7926703 27.7464256,86.5615222 Z" id="Combined-Shape-Copy-7" fill-opacity="0.6" fill="url(#linearGradient-4)" transform="translate(55.953714, 94.474314) rotate(-360.000000) translate(-55.953714, -94.474314) "></path>
                </g>
            </g>
        </g>
    </g>
</svg>