<?xml version="1.0" encoding="UTF-8"?>
<svg width="144px" height="199px" viewBox="0 0 144 199" version="1.1" xmlns="http://www.w3.org/2000/svg" xmlns:xlink="http://www.w3.org/1999/xlink">
    <!-- Generator: Sketch 53.1 (72631) - https://sketchapp.com -->
    <title>Combined Shape Copy 4</title>
    <desc>Created with Sketch.</desc>
    <g id="design" stroke="none" stroke-width="1" fill="none" fill-rule="evenodd" fill-opacity="0.1">
        <g id="faq1" transform="translate(-1083.000000, -80.000000)" fill="#FFFFFF">
            <g id="background">
                <path d="M1168.6045,228.716494 C1170.26927,228.716494 1171.7321,229.341987 1172.97712,230.592972 C1174.23199,231.843957 1174.85587,233.300703 1174.85587,234.967589 L1174.85587,272.467042 C1174.85587,274.133927 1174.23035,275.592862 1172.97712,276.841659 C1171.7321,278.090455 1170.26927,278.716494 1168.6045,278.716494 L1131.10505,278.716494 C1129.43863,278.716494 1127.98128,278.088813 1126.73133,276.841659 C1125.48248,275.592862 1124.85587,274.133927 1124.85587,272.467042 L1124.85587,234.967589 C1124.85587,233.300703 1125.48029,231.843957 1126.73133,230.592972 C1127.98128,229.34527 1129.44028,228.716494 1131.10505,228.716494 L1168.6045,228.716494 Z M1219.81854,118.40287 C1224.0456,126.26347 1226.16211,134.518112 1226.1632,143.16406 C1226.1632,148.788469 1225.36537,154.049483 1223.76322,158.944913 C1222.16431,163.841985 1220.35783,167.827286 1218.34538,170.899723 C1216.33618,173.971612 1213.49881,177.070866 1209.83705,180.196936 C1206.17367,183.319722 1203.21001,185.590392 1200.93577,186.994715 C1198.6637,188.40287 1195.5201,190.249397 1191.499,192.540316 C1187.26597,194.93686 1183.73375,198.325625 1180.89638,202.700591 C1178.06171,207.073368 1176.6433,210.566663 1176.6433,213.17008 C1176.6433,214.938345 1176.02162,216.631633 1174.7864,218.241735 C1173.54739,219.861687 1172.10458,220.667285 1170.45365,220.667285 L1133.31522,220.667285 C1131.76672,220.667285 1130.45237,219.704617 1129.36837,217.775998 C1128.28328,215.849021 1127.74453,213.896869 1127.74453,211.915711 L1127.74453,204.88479 C1127.74453,196.239389 1131.09572,188.088183 1137.80298,180.431172 C1144.50536,172.774708 1151.8847,167.122936 1159.92908,163.477496 C1166.01683,160.663923 1170.35121,157.748556 1172.92951,154.728659 C1175.50943,151.707666 1176.79668,147.74754 1176.79668,142.853751 C1176.79668,138.478786 1174.4005,134.624284 1169.60379,131.290247 C1164.80492,127.959494 1159.26133,126.292475 1152.9687,126.292475 C1146.26307,126.292475 1140.69401,127.801877 1136.2572,130.821775 C1132.64693,133.42738 1127.12665,139.416826 1119.70016,148.790658 C1118.35762,150.457129 1116.7598,151.291733 1114.90237,151.291733 C1113.66389,151.291733 1112.37393,150.875252 1111.03302,150.043384 L1085.65438,130.510372 C1084.31347,129.468895 1083.51402,128.166366 1083.25494,126.60552 C1082.99749,125.042485 1083.28204,123.584528 1084.10643,122.231102 C1100.6136,94.5217081 1124.54673,80.6672849 1155.90635,80.6672849 C1164.16102,80.6672849 1172.46501,82.2828589 1180.82104,85.5096288 C1189.17544,88.7374932 1196.71142,93.0626564 1203.41434,98.478551 C1210.1216,103.896635 1215.58768,110.534061 1219.81854,118.40287 Z" id="Combined-Shape-Copy-4"></path>
            </g>
        </g>
    </g>
</svg>