<?xml version="1.0" encoding="UTF-8"?>
<svg width="127px" height="124px" viewBox="0 0 127 124" version="1.1" xmlns="http://www.w3.org/2000/svg" xmlns:xlink="http://www.w3.org/1999/xlink">
    <!-- Generator: Sketch 53.1 (72631) - https://sketchapp.com -->
    <title>coin</title>
    <desc>Created with Sketch.</desc>
    <defs>
        <filter x="-45.6%" y="-45.2%" width="191.1%" height="190.4%" filterUnits="objectBoundingBox" id="filter-1">
            <feOffset dx="0" dy="10" in="SourceAlpha" result="shadowOffsetOuter1"></feOffset>
            <feGaussianBlur stdDeviation="9.5" in="shadowOffsetOuter1" result="shadowBlurOuter1"></feGaussianBlur>
            <feColorMatrix values="0 0 0 0 0.996078431   0 0 0 0 0.764705882   0 0 0 0 0.0470588235  0 0 0 0.328206949 0" type="matrix" in="shadowBlurOuter1" result="shadowMatrixOuter1"></feColorMatrix>
            <feMerge>
                <feMergeNode in="shadowMatrixOuter1"></feMergeNode>
                <feMergeNode in="SourceGraphic"></feMergeNode>
            </feMerge>
        </filter>
        <linearGradient x1="105.221669%" y1="-52.3004644%" x2="17.190313%" y2="140.305435%" id="linearGradient-2">
            <stop stop-color="#FFC649" offset="0%"></stop>
            <stop stop-color="#FFC848" offset="0%"></stop>
            <stop stop-color="#FFCF45" offset="0%"></stop>
            <stop stop-color="#FFD243" offset="0%"></stop>
            <stop stop-color="#CD571B" offset="100%"></stop>
        </linearGradient>
        <linearGradient x1="72.0049087%" y1="38.5396385%" x2="32.1521706%" y2="57.2739649%" id="linearGradient-3">
            <stop stop-color="#E08C3C" offset="0%"></stop>
            <stop stop-color="#FFD06F" offset="100%"></stop>
        </linearGradient>
        <linearGradient x1="23.21523%" y1="185.967261%" x2="82.2463451%" y2="-113.701976%" id="linearGradient-4">
            <stop stop-color="#F5942A" offset="0%"></stop>
            <stop stop-color="#F5D85D" offset="100%"></stop>
        </linearGradient>
        <linearGradient x1="34.5148467%" y1="113.594236%" x2="75.6239007%" y2="-25.7731%" id="linearGradient-5">
            <stop stop-color="#E08C3C" offset="0%"></stop>
            <stop stop-color="#FFD06F" offset="100%"></stop>
        </linearGradient>
        <linearGradient x1="69.3194447%" y1="-27.1750895%" x2="18.8000316%" y2="174.630806%" id="linearGradient-6">
            <stop stop-color="#FFDE43" offset="20%"></stop>
            <stop stop-color="#FFD23E" offset="56%"></stop>
            <stop stop-color="#FFBD37" offset="100%"></stop>
        </linearGradient>
        <linearGradient x1="67.2275668%" y1="23.9090141%" x2="33.4138713%" y2="99.3094797%" id="linearGradient-7">
            <stop stop-color="#FFFFA0" offset="2%"></stop>
            <stop stop-color="#FFEB6A" offset="98%"></stop>
        </linearGradient>
    </defs>
    <g id="design" stroke="none" stroke-width="1" fill="none" fill-rule="evenodd">
        <g id="dapp-ranking" transform="translate(-1226.000000, -107.000000)" fill-rule="nonzero">
            <g id="background">
                <g id="Group-15" filter="url(#filter-1)" transform="translate(1228.000000, 97.000000)">
                    <g id="Group-3" transform="translate(0.250000, 0.038130)">
                        <g id="Group-13-Copy" transform="translate(61.500000, 62.000000) rotate(60.000000) translate(-61.500000, -62.000000) translate(17.000000, 17.000000)">
                            <g id="coin" transform="translate(0.000000, 0.000000)">
                                <path d="M88.5651639,48.6368852 C89.782377,39.902459 88.3290984,30.7770492 83.917623,23.0938525 C82.4907898,20.59705 80.7748735,18.2769727 78.8053279,16.1815574 C76.5737705,13.8172131 74.0102459,11.7553279 71.5905738,9.58278689 C78.2963115,15.5360656 82.5086066,23.8979508 83.7036885,32.7504098 C84.8987705,41.6028689 83.1393443,50.9938525 79.0377049,58.9610656 C74.972803,66.9058114 68.860756,73.621423 61.3327869,78.4143443 C53.845082,83.1467213 45.1032787,85.7655738 36.2065574,85.5184426 C28.1286885,85.2639344 20.2020492,82.567623 13.8688525,77.4995902 C13.3918033,77.1184426 12.9258197,76.727459 12.4709016,76.3266393 C15.6762295,79.1668033 18.7745902,82.1803279 22.429918,84.4413934 C25.8052681,86.4936287 29.4894305,87.9882179 33.3405738,88.867623 C41.8536885,90.8409836 50.8868852,89.8709016 58.9352459,86.547541 C67.0054137,83.1862717 74.035428,77.7374378 79.3032787,70.7606557 C84.2185047,64.2918237 87.4059048,56.6781136 88.5651639,48.6368852 Z" id="Path" fill="url(#linearGradient-2)"></path>
                                <path d="M58.9647541,86.554918 C61.7696925,85.3896393 64.4582758,83.9619856 66.9946721,82.2909836 L63.9295082,79.052459 C63.5606557,79.2995902 63.1918033,79.5467213 62.8229508,79.7901639 C55.1840164,84.6147541 46.2504098,87.2852459 37.1913934,87.0344262 C30.7676065,86.8552382 24.4867889,85.0969133 18.9036885,81.9147541 C23.1281812,85.317464 28.0774087,87.7050057 33.370082,88.8934426 C41.8831967,90.8483607 50.9016393,89.8782787 58.9647541,86.554918 Z" id="Path" fill-opacity="0.5" fill="url(#linearGradient-3)" opacity="0.5" style="mix-blend-mode: screen;"></path>
                                <path d="M50.8352459,0.590163934 C73.5344262,2.97663934 87.9934426,23.8758197 83.1319672,47.2721311 C78.2704918,70.6684426 55.9364754,87.7020492 33.2409836,85.3155738 C10.5454918,82.9290984 -3.91721311,62.029918 0.94057377,38.6336066 C5.79836066,15.2372951 28.1397541,-1.79262295 50.8352459,0.590163934 Z" id="Path" fill="url(#linearGradient-4)"></path>
                                <path d="M50.5327869,1.575 C28.6266393,-0.737704918 7.06352459,15.7094262 2.37540984,38.2905738 C2.02029406,39.9952105 1.76779106,41.7196212 1.6192623,43.4545082 C10.8110656,50.0938525 21.9061475,54.442623 34.3622951,55.7520492 C51.0012295,57.5004098 67.5331967,53.5389344 81.9442623,45.3983607 C85.8872951,23.3262295 72.0442623,3.83606557 50.5327869,1.575 Z" id="Path" fill="url(#linearGradient-5)" opacity="0.2" style="mix-blend-mode: screen;"></path>
                                <path d="M36.6934426,83.3053279 C16.4618852,81.1770492 1.71147541,63.5422131 6.2704918,41.6803279 C10.8295082,19.8184426 31.7213115,3.86557377 52.9377049,6.09713115 C70.7606557,7.97090164 81.1881148,22.9905738 81.9811475,39.592623 C82.8516393,19.8258197 69.5508197,3.31967213 49.8209016,1.23565574 C27.8409836,-1.07704918 6.20409836,15.4180328 1.50122951,38.0766393 C-3.20163934,60.7352459 10.8,80.9778689 32.779918,83.2868852 C34.7595506,83.4954704 36.7521647,83.5534239 38.7405738,83.4602459 C38.0581967,83.4270492 37.3758197,83.3790984 36.6934426,83.3053279 Z" id="Path" fill="#94512A" opacity="0.5" style="mix-blend-mode: multiply;"></path>
                                <path d="M47.5487705,5.16393443 C48.8288228,5.16368414 50.1080179,5.23016781 51.3811475,5.36311475 C60.8532787,6.35901639 69.0565574,10.9991803 74.482377,18.4315574 C77.3183512,22.3338943 79.2808554,26.8011075 80.2364754,31.5295082 C81.2793602,36.6926021 81.2467136,42.0152511 80.1405738,47.1651639 C78.0400562,56.9660667 72.6949521,65.771908 64.9696721,72.1586066 C57.2717213,78.5729508 47.8991803,82.117623 38.5782787,82.117623 C37.2969986,82.1179011 36.0165743,82.0514176 34.7422131,81.9184426 C25.2737705,80.922541 17.0704918,76.2786885 11.6446721,68.85 C8.81041065,64.9356742 6.85172492,60.4572406 5.90163934,55.7188525 C4.86153743,50.5565947 4.89543793,45.2354716 6.00122951,40.0868852 C8.09798049,30.2879034 13.4361004,21.4815648 21.1536885,15.0897541 C28.8516393,8.67540984 38.2241803,5.1307377 47.5487705,5.1307377 L47.5487705,5.1307377 L47.5487705,5.16393443 Z M47.5487705,1.47909836 C26.6127049,1.49385246 6.91598361,17.6532787 2.41229508,39.3418033 C-2.38278689,62.4836066 11.9102459,81.302459 34.3586066,83.6631148 C35.7603652,83.8101264 37.1688321,83.883997 38.5782787,83.8844262 C59.5180328,83.8844262 77.5180328,68.3704918 82.0217213,46.6819672 C86.8168033,23.5364754 74.2168033,4.07213115 51.7758197,1.71147541 C50.3740117,1.56550204 48.9655349,1.49286206 47.5561475,1.49385246 L47.5487705,1.47909836 Z" id="Shape" fill="#E99855"></path>
                                <path d="M46.575,4.05737705 C47.8686589,4.05661181 49.1614514,4.12432951 50.4479508,4.2602459 C60.0196721,5.26352459 68.3151639,9.95901639 73.8,17.4688525 C76.668363,21.4137103 78.6535302,25.9300287 79.6204918,30.7106557 C80.6713545,35.9314386 80.6374558,41.3125431 79.5209016,46.5196721 C77.3946268,56.4295115 71.9901803,65.3333988 64.1803279,71.7934426 C56.397541,78.2778689 46.9217213,81.8483607 37.497541,81.8483607 C36.2014257,81.8492208 34.9061726,81.7815032 33.6172131,81.6454918 C24.0454918,80.6385246 15.7536885,75.9467213 10.2688525,68.4331967 C7.39958266,64.4888598 5.41432527,59.9723364 4.44836066,55.1913934 C3.39378766,49.9722101 3.42769149,44.5915452 4.54795082,39.3860656 C6.67173451,29.4762653 12.076721,20.572788 19.8885246,14.1159836 C27.6639344,7.63155738 37.1471311,4.05737705 46.5713115,4.05737705 L46.5713115,4.05737705 L46.575,4.05737705 Z M46.5713115,0.368852459 C25.4028689,0.368852459 5.49221311,16.7053279 0.94057377,38.6336066 C-3.91721311,62.029918 10.5307377,82.9327869 33.2409836,85.3155738 C34.6573239,85.4658265 36.0806303,85.5409318 37.504918,85.5405738 C58.6696721,85.5405738 78.5803279,69.2004098 83.1319672,47.2721311 C87.9934426,23.8758197 73.5344262,2.97663934 50.8352459,0.590163934 C49.418683,0.443154493 47.9954821,0.369285931 46.5713115,0.368852459 Z" id="Shape" fill="url(#linearGradient-6)"></path>
                                <polygon id="Path" fill="#FFFFFF" points="31.8872951 21.7143443 28.2504098 20.8143443 31.5479508 22.6069672 31.9315574 23.4811475 31.0352459 27.1770492 32.8057377 23.8204918 33.6651639 23.4331967 37.2983607 24.3331967 34.0045082 22.5368852 33.6209016 21.6663934 34.5172131 17.9704918 32.7467213 21.3270492"></polygon>
                                <path d="M50.7135246,0.593852459 C49.2971843,0.443599722 47.8738779,0.368494452 46.4495902,0.368852459 C25.2848361,0.368852459 5.37418033,16.7053279 0.822540984,38.6336066 C0.417860157,40.5679905 0.143066048,42.5272848 -1.42108547e-14,44.4983607 C1.16557377,45.3245902 2.35942623,46.1065574 3.58155738,46.8442623 C3.63380545,44.3375543 3.91655433,41.8409681 4.42622951,39.3860656 C6.55126464,29.4758729 11.9575401,20.5724129 19.7704918,14.1159836 C27.5532787,7.63155738 37.0290984,4.05737705 46.4532787,4.05737705 L46.4532787,4.05737705 C47.7481646,4.05661259 49.0421848,4.12433011 50.329918,4.2602459 C59.920082,5.26721311 68.1971311,9.95901639 73.6819672,17.472541 C76.5499266,21.4171976 78.5339164,25.9336996 79.4987705,30.7143443 C80.5533435,35.9335276 80.5194397,41.3141925 79.3991803,46.5196721 C79.3069672,46.9659836 79.2,47.404918 79.0930328,47.847541 C80.5266393,47.1098361 81.9405738,46.342623 83.3348361,45.5459016 C87.152459,22.8688525 72.8557377,2.91762295 50.7135246,0.593852459 Z" id="Path" fill="url(#linearGradient-7)" opacity="0.7"></path>
                                <path d="M45.2952199,56.6824608 L53.2179614,51.6795748 L50.7258051,39.240425 L45.2952199,56.6824608 Z M49.3962441,33.9198243 L41.8072156,23.8137131 L34.3719082,34.1064245 L41.8699918,58.0927557 L49.3962441,33.9198243 Z M33.0956067,39.5796455 L30.5860133,51.9112207 L38.3819376,56.4905909 L33.0956067,39.5796455 Z M43.991643,60.8693089 L43.94573,61.0167729 L43.7581139,61.0167729 L42.1744796,62.0167729 L40.1820902,61.8424615 L27.3924958,53.3337516 L31.4792643,33.2522948 L41.7628015,19.0167729 L52.4194546,33.2079597 L56.3924958,53.0386795 L43.991643,60.8693089 Z" id="Combined-Shape-Copy-2" fill="#E38E2D" transform="translate(41.892496, 40.516773) rotate(-16.000000) translate(-41.892496, -40.516773) "></path>
                                <path d="M44.7089101,58.5325627 L52.5668251,53.570612 L50.0950604,41.2332433 L44.7089101,58.5325627 Z M48.7819243,35.859889 L41.1560793,25.7047502 L33.8800192,35.7770153 L41.3587993,59.7015946 L48.7819243,35.859889 Z M32.534437,41.0286074 L29.934877,53.8022578 L38.0102777,58.5457942 L32.534437,41.0286074 Z M51.8455955,35.4847121 L51.8813033,35.4961612 L51.8609721,35.5614615 L55.7413595,54.9297167 L41.5233433,63.9078101 L39.3405279,62.6256119 L39.2856214,62.6256119 L39.2732716,62.5861052 L26.7413595,55.2247887 L30.828128,35.1433319 L41.1116652,20.9078101 L51.7683183,35.0989969 L51.8455955,35.4847121 Z" id="Combined-Shape" fill="#FFF37E" transform="translate(41.241360, 42.407810) rotate(-16.000000) translate(-41.241360, -42.407810) "></path>
                            </g>
                        </g>
                    </g>
                </g>
            </g>
        </g>
    </g>
</svg>