<?xml version="1.0" encoding="UTF-8"?>
<svg width="61px" height="59px" viewBox="0 0 61 59" version="1.1" xmlns="http://www.w3.org/2000/svg" xmlns:xlink="http://www.w3.org/1999/xlink">
    <!-- Generator: Sketch 53.1 (72631) - https://sketchapp.com -->
    <title>Group 35</title>
    <desc>Created with Sketch.</desc>
    <defs>
        <linearGradient x1="105.221669%" y1="-52.3004644%" x2="17.190313%" y2="140.305435%" id="linearGradient-1">
            <stop stop-color="#FFC649" offset="0%"></stop>
            <stop stop-color="#FFC848" offset="0%"></stop>
            <stop stop-color="#FFCF45" offset="0%"></stop>
            <stop stop-color="#FFD243" offset="0%"></stop>
            <stop stop-color="#CD571B" offset="100%"></stop>
        </linearGradient>
        <linearGradient x1="72.0049087%" y1="38.5396385%" x2="32.1521706%" y2="57.2739649%" id="linearGradient-2">
            <stop stop-color="#E08C3C" offset="0%"></stop>
            <stop stop-color="#FFD06F" offset="100%"></stop>
        </linearGradient>
        <linearGradient x1="23.21523%" y1="185.967261%" x2="82.2463451%" y2="-113.701976%" id="linearGradient-3">
            <stop stop-color="#F5942A" offset="0%"></stop>
            <stop stop-color="#F5D85D" offset="100%"></stop>
        </linearGradient>
        <linearGradient x1="34.5148467%" y1="113.594236%" x2="75.6239007%" y2="-25.7731%" id="linearGradient-4">
            <stop stop-color="#E08C3C" offset="0%"></stop>
            <stop stop-color="#FFD06F" offset="100%"></stop>
        </linearGradient>
        <linearGradient x1="69.3194447%" y1="-27.1750895%" x2="18.8000316%" y2="174.630806%" id="linearGradient-5">
            <stop stop-color="#FFDE43" offset="20%"></stop>
            <stop stop-color="#FFD23E" offset="56%"></stop>
            <stop stop-color="#FFBD37" offset="100%"></stop>
        </linearGradient>
        <linearGradient x1="67.2275668%" y1="23.9090141%" x2="33.4138713%" y2="99.3094797%" id="linearGradient-6">
            <stop stop-color="#FFFFA0" offset="2%"></stop>
            <stop stop-color="#FFEB6A" offset="98%"></stop>
        </linearGradient>
    </defs>
    <g id="design" stroke="none" stroke-width="1" fill="none" fill-rule="evenodd">
        <g id="dapp-ranking" transform="translate(-1037.000000, -278.000000)" fill-rule="nonzero">
            <g id="background">
                <g id="Group-35" transform="translate(1026.000000, 267.000000)">
                    <g id="Group-34">
                        <g id="Group-13-Copy-2" transform="translate(41.000000, 41.000000) scale(1, -1) rotate(-120.000000) translate(-41.000000, -41.000000) translate(11.000000, 11.000000)">
                            <g id="coin" transform="translate(0.000000, 0.000000)">
                                <path d="M59.0434426,32.4245902 C59.854918,26.6016393 58.8860656,20.5180328 55.945082,15.3959016 C54.9938599,13.7313667 53.8499157,12.1846485 52.5368852,10.7877049 C51.0491803,9.21147541 49.3401639,7.83688525 47.7270492,6.38852459 C52.197541,10.357377 55.0057377,15.9319672 55.802459,21.8336066 C56.5991803,27.7352459 55.4262295,33.9959016 52.6918033,39.307377 C49.9818687,44.6038743 45.9071707,49.0809487 40.8885246,52.2762295 C35.8967213,55.4311475 30.0688525,57.1770492 24.1377049,57.0122951 C18.752459,56.842623 13.4680328,55.045082 9.24590164,51.6663934 C8.92786885,51.4122951 8.61721311,51.1516393 8.31393443,50.8844262 C10.4508197,52.7778689 12.5163934,54.7868852 14.9532787,56.2942623 C17.2035121,57.6624192 19.6596203,58.6588119 22.2270492,59.245082 C27.902459,60.5606557 33.9245902,59.9139344 39.2901639,57.6983607 C44.6702758,55.4575145 49.356952,51.8249585 52.8688525,47.1737705 C56.1456698,42.8612158 58.2706032,37.7854091 59.0434426,32.4245902 Z" id="Path" fill="url(#linearGradient-1)"></path>
                                <path d="M39.3098361,57.7032787 C41.179795,56.9264262 42.9721839,55.9746571 44.6631148,54.8606557 L42.6196721,52.7016393 C42.3737705,52.8663934 42.1278689,53.0311475 41.8819672,53.1934426 C36.7893443,56.4098361 30.8336066,58.1901639 24.7942623,58.0229508 C20.5117377,57.9034921 16.3245259,56.7312755 12.602459,54.6098361 C15.4187874,56.8783093 18.7182725,58.4700038 22.2467213,59.2622951 C27.9221311,60.5655738 33.9344262,59.9188525 39.3098361,57.7032787 Z" id="Path" fill-opacity="0.5" fill="url(#linearGradient-2)" opacity="0.5" style="mix-blend-mode: screen;"></path>
                                <path d="M33.8901639,0.393442623 C49.0229508,1.98442623 58.6622951,15.9172131 55.4213115,31.5147541 C52.1803279,47.1122951 37.2909836,58.4680328 22.1606557,56.8770492 C7.03032787,55.2860656 -2.61147541,41.3532787 0.62704918,25.7557377 C3.86557377,10.1581967 18.7598361,-1.19508197 33.8901639,0.393442623 Z" id="Path" fill="url(#linearGradient-3)"></path>
                                <path d="M33.6885246,1.05 C19.0844262,-0.491803279 4.70901639,10.4729508 1.58360656,25.5270492 C1.34686271,26.6634737 1.17852737,27.8130808 1.0795082,28.9696721 C7.20737705,33.3959016 14.6040984,36.295082 22.9081967,37.1680328 C34.0008197,38.3336066 45.0221311,35.692623 54.6295082,30.2655738 C57.2581967,15.5508197 48.0295082,2.55737705 33.6885246,1.05 Z" id="Path" fill="url(#linearGradient-4)" opacity="0.2" style="mix-blend-mode: screen;"></path>
                                <path d="M24.4622951,55.5368852 C10.9745902,54.1180328 1.14098361,42.3614754 4.18032787,27.7868852 C7.21967213,13.2122951 21.147541,2.57704918 35.2918033,4.0647541 C47.1737705,5.31393443 54.1254098,15.3270492 54.6540984,26.395082 C55.2344262,13.2172131 46.3672131,2.21311475 33.2139344,0.823770492 C18.5606557,-0.718032787 4.13606557,10.2786885 1.00081967,25.3844262 C-2.13442623,40.4901639 7.2,53.9852459 21.8532787,55.5245902 C23.1730337,55.6636469 24.5014431,55.7022826 25.8270492,55.6401639 C25.3721311,55.6180328 24.9172131,55.5860656 24.4622951,55.5368852 Z" id="Path" fill="#94512A" opacity="0.5" style="mix-blend-mode: multiply;"></path>
                                <path d="M31.6991803,3.44262295 C32.5525486,3.44245609 33.4053452,3.48677854 34.2540984,3.57540984 C40.5688525,4.23934426 46.0377049,7.33278689 49.654918,12.2877049 C51.5455675,14.8892629 52.8539036,17.867405 53.4909836,21.0196721 C54.1862401,24.4617347 54.1644757,28.0101674 53.4270492,31.4434426 C52.0267041,37.9773778 48.4633014,43.8479387 43.3131148,48.1057377 C38.1811475,52.3819672 31.9327869,54.745082 25.7188525,54.745082 C24.8646657,54.7452674 24.0110495,54.700945 23.1614754,54.6122951 C16.8491803,53.9483607 11.3803279,50.852459 7.76311475,45.9 C5.8736071,43.2904495 4.56781661,40.304827 3.93442623,37.1459016 C3.24102496,33.7043965 3.26362529,30.1569811 4.00081967,26.7245902 C5.39865366,20.1919356 8.95740029,14.3210432 14.102459,10.0598361 C19.2344262,5.78360656 25.4827869,3.4204918 31.6991803,3.4204918 L31.6991803,3.4204918 L31.6991803,3.44262295 Z M31.6991803,0.986065574 C17.7418033,0.995901639 4.61065574,11.7688525 1.60819672,26.2278689 C-1.58852459,41.6557377 7.94016393,54.2016393 22.9057377,55.7754098 C23.8402435,55.8734176 24.7792214,55.9226647 25.7188525,55.9229508 C39.6786885,55.9229508 51.6786885,45.5803279 54.6811475,31.1213115 C57.8778689,15.6909836 49.4778689,2.7147541 34.5172131,1.14098361 C33.5826745,1.04366802 32.6436899,0.995241374 31.7040984,0.995901639 L31.6991803,0.986065574 Z" id="Shape" fill="#E99855"></path>
                                <path d="M31.05,2.70491803 C31.9124393,2.70440787 32.7743009,2.74955301 33.6319672,2.84016393 C40.0131148,3.50901639 45.5434426,6.63934426 49.2,11.6459016 C51.112242,14.2758069 52.4356868,17.2866858 53.0803279,20.4737705 C53.780903,23.9542924 53.7583039,27.5416954 53.0139344,31.0131148 C51.5964179,37.6196744 47.9934536,43.5555992 42.7868852,47.8622951 C37.5983607,52.1852459 31.2811475,54.5655738 24.9983607,54.5655738 C24.1342838,54.5661472 23.2707817,54.5210021 22.4114754,54.4303279 C16.0303279,53.7590164 10.502459,50.6311475 6.84590164,45.6221311 C4.93305511,42.9925732 3.60955018,39.9815576 2.96557377,36.7942623 C2.2625251,33.3148068 2.28512766,29.7276968 3.03196721,26.257377 C4.447823,19.6508436 8.05114733,13.715192 13.2590164,9.41065574 C18.442623,5.08770492 24.7647541,2.70491803 31.047541,2.70491803 L31.047541,2.70491803 L31.05,2.70491803 Z M31.047541,0.245901639 C16.9352459,0.245901639 3.66147541,11.1368852 0.62704918,25.7557377 C-2.61147541,41.3532787 7.0204918,55.2885246 22.1606557,56.8770492 C23.1048826,56.9772177 24.0537535,57.0272879 25.0032787,57.0270492 C39.1131148,57.0270492 52.3868852,46.1336066 55.4213115,31.5147541 C58.6622951,15.9172131 49.0229508,1.98442623 33.8901639,0.393442623 C32.9457887,0.295436329 31.9969881,0.24619062 31.047541,0.245901639 Z" id="Shape" fill="url(#linearGradient-5)"></path>
                                <polygon id="Path" fill="#FFFFFF" points="21.2581967 14.4762295 18.8336066 13.8762295 21.0319672 15.0713115 21.2877049 15.6540984 20.6901639 18.1180328 21.8704918 15.8803279 22.4434426 15.6221311 24.8655738 16.2221311 22.6696721 15.0245902 22.4139344 14.4442623 23.0114754 11.9803279 21.8311475 14.2180328"></polygon>
                                <path d="M33.8090164,0.395901639 C32.8647895,0.295733148 31.9159186,0.245662968 30.9663934,0.245901639 C16.8565574,0.245901639 3.58278689,11.1368852 0.548360656,25.7557377 C0.278573438,27.045327 0.0953773653,28.3515232 -1.42108547e-14,29.6655738 C0.77704918,30.2163934 1.57295082,30.7377049 2.38770492,31.2295082 C2.42253697,29.5583695 2.61103622,27.8939787 2.95081967,26.257377 C4.36750976,19.6505819 7.97169341,13.714942 13.1803279,9.41065574 C18.3688525,5.08770492 24.6860656,2.70491803 30.9688525,2.70491803 L30.9688525,2.70491803 C31.8321097,2.70440839 32.6947899,2.74955341 33.5532787,2.84016393 C39.9467213,3.51147541 45.4647541,6.63934426 49.1213115,11.6483607 C51.0332844,14.2781318 52.3559443,17.289133 52.9991803,20.4762295 C53.702229,23.9556851 53.6796264,27.542795 52.9327869,31.0131148 C52.8713115,31.3106557 52.8,31.6032787 52.7286885,31.8983607 C53.6844262,31.4065574 54.6270492,30.895082 55.5565574,30.3639344 C58.1016393,15.2459016 48.5704918,1.94508197 33.8090164,0.395901639 Z" id="Path" fill="url(#linearGradient-6)" opacity="0.7"></path>
                            </g>
                        </g>
                        <path d="M50.9800835,30.2921182 L35.8464065,27.1888351 L45.1958028,34.700574 L50.9800835,30.2921182 Z M53.1022681,30.9151016 L46.6833796,35.80722 L56.6295506,34.1380164 L53.1022681,30.9151016 Z M56.3942907,35.9842921 L46.3936323,37.66264 L44.6303762,50.1086796 L56.3942907,35.9842921 Z M44.2078855,53.0908533 L44.1945331,53.1851018 L44.1362634,53.1768466 L42.9723143,54.5743465 L42.3103337,52.9181634 L42.234247,52.9073841 L42.2530306,52.7747991 L30.9812368,24.5743465 L31.9078471,23.5580201 L53.5832285,29.2090681 L59.5544067,34.6649958 L44.2078855,53.0908533 Z M42.699401,49.624069 L44.5296594,36.7050905 L34.2270884,28.4275268 L42.699401,49.624069 Z" id="Combined-Shape-Copy" fill="#E48E2D" transform="translate(45.267822, 39.066183) rotate(-89.000000) translate(-45.267822, -39.066183) "></path>
                    </g>
                    <path d="M50.4881693,28.7928237 L35.3544923,25.6895405 L44.7038886,33.2012795 L50.4881693,28.7928237 Z M52.6103539,29.4158071 L46.1914654,34.3079255 L56.1376364,32.6387218 L52.6103539,29.4158071 Z M55.9023764,34.4849976 L45.9017181,36.1633455 L44.138462,48.6093851 L55.9023764,34.4849976 Z M43.7159713,51.5915588 L43.7026189,51.6858073 L43.6443492,51.6775521 L42.4804001,53.075052 L41.8184194,51.4188689 L41.7423328,51.4080895 L41.7611164,51.2755046 L30.4893226,23.075052 L53.0913143,27.7097736 L59.0624925,33.1657013 L43.7159713,51.5915588 Z M42.2074868,48.1247745 L44.0377451,35.205796 L33.7351741,26.9282323 L42.2074868,48.1247745 Z" id="Combined-Shape" fill="#FFF178" transform="translate(44.775908, 38.075052) rotate(-89.000000) translate(-44.775908, -38.075052) "></path>
                </g>
            </g>
        </g>
    </g>
</svg>