<?xml version="1.0" encoding="UTF-8"?>
<svg width="1440px" height="356px" viewBox="0 0 1440 356" version="1.1" xmlns="http://www.w3.org/2000/svg" xmlns:xlink="http://www.w3.org/1999/xlink">
    <!-- Generator: Sketch 53.1 (72631) - https://sketchapp.com -->
    <title>Group 9</title>
    <desc>Created with Sketch.</desc>
    <defs>
        <rect id="path-1" x="0" y="0" width="1440" height="356"></rect>
        <rect id="path-3" x="0" y="0" width="1440" height="915"></rect>
        <linearGradient x1="12.4987109%" y1="105.880673%" x2="82.0560386%" y2="21.4915%" id="linearGradient-5">
            <stop stop-color="#5D45B9" offset="0%"></stop>
            <stop stop-color="#5A3EC4" offset="40%"></stop>
            <stop stop-color="#7153E0" offset="100%"></stop>
        </linearGradient>
        <linearGradient x1="37.8734822%" y1="105.880673%" x2="60.365727%" y2="21.4915%" id="linearGradient-6">
            <stop stop-color="#5D45B9" offset="0%"></stop>
            <stop stop-color="#5A3EC4" offset="40%"></stop>
            <stop stop-color="#8269E1" offset="100%"></stop>
        </linearGradient>
        <linearGradient x1="38.6973987%" y1="102.429331%" x2="60.365727%" y2="21.4915%" id="linearGradient-7">
            <stop stop-color="#5D45B9" offset="0%"></stop>
            <stop stop-color="#5A3EC4" offset="40%"></stop>
            <stop stop-color="#8269E1" offset="100%"></stop>
        </linearGradient>
    </defs>
    <g id="design" stroke="none" stroke-width="1" fill="none" fill-rule="evenodd">
        <g id="dapp-ranking">
            <g id="background" transform="translate(-100.000000, -101.000000)">
                <g id="Group-9" transform="translate(100.000000, 101.000000)">
                    <mask id="mask-2" fill="white">
                        <use xlink:href="#path-1"></use>
                    </mask>
                    <use id="Rectangle" fill="#D8D8D8" xlink:href="#path-1"></use>
                    <g id="Group" mask="url(#mask-2)">
                        <g transform="translate(0.000000, -31.000000)">
                            <mask id="mask-4" fill="white">
                                <use xlink:href="#path-3"></use>
                            </mask>
                            <use id="Rectangle" stroke="none" fill="#5A3EC4" fill-rule="evenodd" xlink:href="#path-3"></use>
                            <path d="M1291.36866,-205.463057 C1269.23154,-219.307768 1245.12673,-232.090147 1219.29915,-243.680317 C1213.66925,-246.237933 1208.34926,-248.491772 1203.18422,-250.667216 L1200.30902,-251.892128 L1199.55148,-252.205705 C1194.57583,-254.263558 1189.80677,-256.125424 1185.20989,-257.918696 L1180.54414,-259.741365 L1180.13093,-259.898154 C1177.5312,-260.878083 1174.87981,-261.858013 1172.22842,-262.837943 L1169.71477,-263.759077 L1169.30157,-263.915865 L1164.13653,-265.758133 C1148.69689,-271.540082 1130.07616,-273.909992 1111.78024,-272.421656 L1111.26374,-272.421656 C1099.31586,-271.40478 1087.94651,-268.821708 1078.05254,-264.876197 C1074.10188,-263.313354 1070.37694,-261.573341 1066.91327,-259.67277 L1066.68945,-259.555178 C1065.13994,-258.732037 1063.65929,-257.879498 1062.2303,-256.987762 L1061.31781,-256.409604 C1058.78694,-254.831917 1055.63627,-252.862258 1051.79692,-250.177251 L1047.64767,-247.296257 L1046.94178,-246.816092 L1042.37933,-243.552926 C1036.1985,-239.123643 1030.0521,-234.625766 1024.00901,-230.147487 L1021.83969,-228.530603 L1020.97885,-227.87405 L1018.70624,-226.051381 L1018.5685,-225.953388 L1013.91997,-222.317849 L1013.62728,-222.082665 L1004.46794,-214.831185 C1001.40335,-212.420558 998.269896,-209.804146 995.256956,-207.275927 L993.535277,-205.884427 L993.242591,-205.649244 L983.429016,-197.310042 C981.70624,-195.843534 980.142343,-194.318541 978.746047,-192.743569 L977.695823,-191.528457 C976.393011,-190.079242 975.243184,-188.587101 974.252463,-187.059977 L968.261017,-177.731046 L951.595157,-152.252873 L951.440206,-152.01769 C948.323965,-147.235633 945.104424,-142.404579 941.884883,-137.710716 L936.978096,-130.576828 C935.566318,-128.567972 934.48166,-126.902091 933.431435,-125.285207 L932.398427,-123.70752 C931.916357,-122.992171 931.46872,-122.267023 931.072734,-121.541875 L930.935,-121.296893 C929.913614,-119.553054 929.05162,-117.780273 928.35248,-115.985674 C926.224625,-110.777489 925.746541,-105.394988 926.940702,-100.091214 L926.940702,-99.9638228 C930.31721,-85.1248554 947.13694,-72.3852634 971.239523,-66.411029 L973.667092,-65.783874 C974.648449,-65.5192929 975.647024,-65.2645112 976.628381,-65.0195288 L977.472004,-64.8039442 C979.073166,-64.333578 980.708762,-63.8828103 982.327141,-63.4222433 C983.601184,-63.0694686 984.892444,-62.7166939 986.14927,-62.3443206 C988.111985,-61.7171656 990.126351,-61.1194085 992.123499,-60.5216513 C993.225374,-60.1884752 994.344466,-59.8650984 995.429124,-59.5417216 L995.962845,-59.3653342 C1007.38656,-55.7225479 1018.36695,-51.6466445 1028.82971,-47.1652091 C1038.69183,-42.9368411 1047.98071,-38.291916 1056.61762,-33.2698056 L1056.78979,-33.1620133 L1059.69943,-31.4765342 L1062.31638,-29.8008544 C1063.07392,-29.3108895 1063.84868,-28.8209247 1064.60622,-28.3505584 L1065.36376,-27.8801921 L1068.3767,-25.8125404 C1069.11702,-25.2931776 1069.89178,-24.7738149 1070.66653,-24.2642514 L1073.79999,-21.9026208 L1075.09125,-20.9226911 C1075.64219,-20.5013213 1076.14147,-20.0701522 1076.65798,-19.6389831 C1077.17448,-19.207814 1077.98367,-18.5316625 1078.67234,-17.9731026 C1090.77345,-7.77096445 1099.12456,3.71872928 1103.2235,15.8050751 C1105.13264,21.5747535 1105.83768,27.4525932 1105.32395,33.3164193 C1105.05679,36.0554864 1104.48172,38.7820044 1103.60227,41.479234 C1103.49896,41.7830122 1103.39566,42.0769911 1103.30958,42.3807693 C1102.49934,44.8682218 1101.34803,47.3157317 1099.86622,49.7008444 C1097.89227,52.9800371 1095.59301,56.1928375 1092.9795,59.3237543 C1090.13873,62.675114 1086.66094,66.3302518 1082.64942,70.1813757 C1073.79038,78.5561799 1063.93062,86.574563 1053.13983,94.1798547 L1052.52003,94.6306224 C1031.3778,110.025318 1005.43208,126.047169 970.860754,145.077405 C946.240733,158.629833 920.570487,171.819687 893.264646,185.744488 L872.707789,196.327729 C836.431996,214.946394 801.103127,233.41807 767.685322,253.830006 C731.931152,275.367206 699.662431,298.695828 671.271254,323.532407 C641.723887,349.03141 617.049796,376.254972 597.669443,404.739184 L591.144277,414.489485 C590.713857,415.126439 590.31787,415.773193 589.939101,416.449344 L581.330702,431.373674 C580.056659,433.578516 579.195819,435.459981 578.54158,436.841682 C578.403846,437.165058 578.248895,437.488435 578.093944,437.821611 L577.784041,438.438967 L573.032205,448.29706 C571.568777,451.236849 570.552986,453.843462 569.709363,456.136498 L565.904451,466.396362 C565.91228,466.44853 565.91228,466.500983 565.904451,466.553151 L565.594548,467.395891 C564.94031,469.110768 564.062253,471.423402 563.373582,474.186804 L560.412292,484.309478 C560.412292,484.427069 560.412292,484.55446 560.326208,484.681851 C560.205691,485.122819 560.067956,485.553988 559.947439,485.994957 C559.534236,487.425654 559.017732,489.209126 558.587312,491.286577 C558.587312,491.52176 558.587312,491.756944 558.449577,492.001926 L557.502653,497.362142 C557.502653,497.362142 557.502653,497.440536 557.502653,497.479733 L555.574372,508.141369 C555.471071,508.699929 555.402204,509.248689 555.333337,509.807249 C555.092302,512.237475 554.902917,514.706898 554.730749,517.107726 C554.627448,518.411032 554.541364,519.714339 554.420847,521.027445 C554.420847,521.213631 554.420847,521.399818 554.420847,521.586004 C554.420847,522.418945 554.300329,523.242086 554.231462,524.065227 C554.007644,527.005016 553.714958,530.591559 553.887126,534.648468 L553.887126,539.822497 C553.887126,540.302662 553.887126,540.802426 553.887126,541.272793 L554.283112,546.564413 C554.489714,550.003967 554.920134,553.139742 555.298903,555.922742 C555.436638,556.902672 555.574372,557.882602 555.69489,558.862531 C555.69489,559.058517 555.69489,559.244704 555.69489,559.44069 C556.245827,563.164423 556.951716,566.594177 557.623171,569.906339 L557.984724,571.729009 L558.191325,572.708938 C560.377859,581.734091 562.857078,589.867508 565.783933,597.569756 C572.067177,614.270069 580.703499,630.655207 591.60913,646.566242 C591.60913,646.625038 591.60913,646.683833 591.729648,646.73283 C602.763787,662.957153 616.171086,678.625702 631.810353,693.573471 L632.516242,694.249622 C635.959601,697.48339 639.798947,701.10913 644.275315,704.950455 L645.704309,706.194966 C647.425989,707.635462 649.009934,709.06616 650.731614,710.477259 C650.869348,710.575252 650.989866,710.683044 651.110384,710.781037 L660.080335,717.84633 C660.527972,718.189306 660.975609,718.54208 661.440462,718.885056 L664.505052,721.19769 L664.660003,721.305482 L670.858051,725.94055 C671.288471,726.263927 671.736107,726.587303 672.183744,726.920479 L672.579731,727.204659 C677.124965,730.39923 681.807934,733.701593 687.076274,737.131347 C708.677714,751.320143 732.678685,764.265267 758.732587,775.779776 L758.921972,775.867969 C786.286386,787.860785 815.826303,798.153073 847.037543,806.569168 L847.295795,806.627963 C877.884044,814.697278 909.715069,821.143135 942.38417,825.883583 C971.96174,830.198101 1001.96702,833.49985 1032.23864,835.771074 C1054.74099,837.583944 1076.12426,838.828454 1096.80163,840.023969 L1112.09015,840.915705 C1134.06555,842.220544 1155.92298,837.898188 1171.74293,829.119232 C1187.56288,820.340276 1195.7083,808.013164 1193.97324,795.476363 L1174.82816,656.875103 C1173.07929,644.096292 1161.25229,632.456589 1142.66437,625.220653 C1124.07645,617.984717 1100.72944,615.931828 1079.17163,619.637773 C1043.01635,625.850527 1012.33602,629.250884 985.443382,630.015229 L985.150696,630.015229 C980.123391,630.172018 974.614016,630.172018 967.314093,630.015229 C962.837726,629.887838 957.930939,629.593859 951.922276,629.084296 C942.156491,628.07978 932.640754,626.404942 923.583427,624.096453 C912.994187,621.366939 902.974803,617.97159 893.712282,613.973779 C883.272146,609.410942 873.668115,604.259785 865.046314,598.598682 C864.701978,598.383097 864.374859,598.167513 864.030523,597.961727 C863.686187,597.755942 862.308843,596.766213 861.361919,596.11946 C860.414995,595.472706 859.554155,594.85535 858.641665,594.228195 C857.729175,593.60104 857.006069,592.993484 856.162446,592.376128 C854.85397,591.396198 853.597143,590.465265 852.719087,589.828311 C851.84103,589.191356 851.152358,588.564201 850.377602,587.937046 C849.000258,586.829726 847.588481,585.693007 846.934243,584.997257 L846.538256,584.575887 L843.404799,581.783088 L840.409076,578.902094 C836.965717,575.629129 833.711742,572.101382 830.371683,568.122867 C827.307093,564.291342 824.208069,560.283429 821.901019,556.579295 L821.694417,556.246119 C816.596887,548.395922 812.792819,540.292957 810.33133,532.041855 L809.384406,528.749291 L808.661301,525.456727 C808.661301,525.094153 808.50635,524.72178 808.403049,524.359206 C808.299748,523.996632 808.179231,522.810917 808.093147,522.007374 C807.972629,521.027445 807.869328,520.047515 807.731594,519.13618 C807.593859,518.224846 807.507776,517.313511 807.387258,516.402176 C807.197873,515.08907 807.042922,513.83476 806.939621,512.766637 L806.939621,505.123185 C806.83632,487.847024 812.225178,468.983377 822.934026,449.061405 C823.175062,448.620437 823.39888,448.179469 823.605482,447.728701 C824.69014,445.455264 826.635638,442.43708 828.770521,439.24251 C829.918307,437.485169 831.066094,435.731095 832.21388,433.980287 C832.351615,433.764702 832.454916,433.588315 832.575433,433.37273 C832.833685,432.951361 833.728959,431.755846 834.383197,430.883709 C835.037435,430.011571 835.898275,428.865054 836.638598,427.845927 L838.911215,424.749349 C839.823705,423.495039 840.736195,422.230929 841.700336,420.976619 C849.304172,411.62675 857.733953,402.501749 866.957379,393.63658 C868.110904,392.568457 869.247213,391.490534 870.400738,390.412611 C871.760865,389.119104 873.034908,387.894192 873.844098,387.149445 L886.205759,376.507408 L898.980623,366.44353 C900.168582,365.541995 901.73531,364.483671 903.370906,363.258758 C904.627732,362.376822 905.867342,361.485086 907.089734,360.59335 C908.312127,359.701614 909.741121,358.702085 911.049598,357.751553 C912.358075,356.801022 913.907586,355.664303 914.751209,355.135141 C914.957811,354.988152 915.181629,354.841162 915.405448,354.703972 L925.735527,347.844464 L927.990927,346.345171 C928.455781,346.031594 928.903417,345.718016 929.368271,345.424037 L944.863389,335.977515 L955.520587,329.843155 L956.054308,329.529577 C961.219347,326.521193 966.935324,323.395217 973.03007,320.092854 L977.420354,317.711625 C979.142034,316.731695 981.276917,315.673371 983.549534,314.517054 L988.060335,312.184821 L992.588353,309.842789 C994.80932,308.696271 996.909769,307.608549 998.751966,306.707014 C1001.43779,305.403707 1004.08917,304.100401 1006.75778,302.787295 C1012.37045,300.033692 1017.69044,297.436879 1023.16539,294.859664 C1053.89737,280.317506 1086.11,266.373106 1120.21648,251.615365 L1129.78902,247.470262 C1166.06481,231.73259 1203.56299,215.455958 1240.75128,197.052877 C1262.82321,186.27365 1282.15768,175.96479 1299.87376,165.479542 L1300.02871,165.381549 C1310.59983,159.080601 1320.68887,152.554269 1329.98594,145.998539 C1340.29763,138.814284 1349.92419,131.320101 1358.82408,123.548349 C1368.36597,115.211269 1376.95761,106.53411 1384.54597,97.5704115 C1392.34255,88.4470745 1399.09415,79.0462558 1404.75849,69.4268298 C1415.92754,50.4197844 1423.09957,30.7263137 1426.12454,10.758437 L1426.12454,10.6408455 C1432.05984,-29.1021708 1422.50675,-69.1009018 1398.14724,-106.499954 C1374.66353,-142.414379 1338.81816,-175.72219 1291.36866,-205.463057 Z" id="Path-Copy" stroke="none" fill="url(#linearGradient-5)" fill-rule="nonzero" opacity="0.206263951" mask="url(#mask-4)" transform="translate(990.835217, 284.144488) rotate(22.000000) translate(-990.835217, -284.144488) "></path>
                            <path d="M580.368663,-53.4630573 C558.231544,-67.3077678 534.126731,-80.0901473 508.299147,-91.6803166 C502.669254,-94.2379332 497.349264,-96.4917716 492.184224,-98.6672156 L489.309019,-99.8921277 L488.55148,-100.205705 C483.575825,-102.263558 478.806772,-104.125424 474.209887,-105.918696 L469.544135,-107.741365 L469.130932,-107.898154 C466.531196,-108.878083 463.879809,-109.858013 461.228422,-110.837943 L458.714769,-111.759077 L458.301566,-111.915865 L453.136527,-113.758133 C437.696894,-119.540082 419.076161,-121.909992 400.780244,-120.421656 L400.26374,-120.421656 C388.315858,-119.40478 376.946511,-116.821708 367.052537,-112.876197 C363.101882,-111.313354 359.37694,-109.573341 355.913269,-107.67277 L355.689451,-107.555178 C354.139939,-106.732037 352.659294,-105.879498 351.2303,-104.987762 L350.31781,-104.409604 C347.786941,-102.831917 344.636267,-100.862258 340.796921,-98.1772507 L336.647672,-95.2962573 L335.941784,-94.8160918 L331.379332,-91.5529258 C325.198502,-87.1236434 319.052105,-82.6257659 313.009009,-78.1474871 L310.839692,-76.530603 L309.978852,-75.8740501 L307.706235,-74.0513808 L307.568501,-73.9533879 L302.919965,-70.3178486 L302.62728,-70.0826654 L293.467943,-62.8311855 C290.403353,-60.4205583 287.269896,-57.804146 284.256956,-55.2759273 L282.535277,-53.884427 L282.242591,-53.6492439 L272.429016,-45.3100419 C270.70624,-43.8435339 269.142343,-42.3185407 267.746047,-40.7435694 L266.695823,-39.5284565 C265.393011,-38.0792418 264.243184,-36.5871006 263.252463,-35.059977 L257.261017,-25.731046 L240.595157,-0.252873083 L240.440206,-0.0176899487 C237.323965,4.76436712 234.104424,9.59542067 230.884883,14.2892841 L225.978096,21.4231725 C224.566318,23.4320284 223.48166,25.097909 222.431435,26.714793 L221.398427,28.2924799 C220.916357,29.0078286 220.46872,29.7329766 220.072734,30.4581246 L219.935,30.703107 C218.913614,32.4469458 218.05162,34.2197274 217.35248,36.0143261 C215.224625,41.2225112 214.746541,46.6050124 215.940702,51.9087863 L215.940702,52.0361772 C219.31721,66.8751446 236.13694,79.6147366 260.239523,85.588971 L262.667092,86.216126 C263.648449,86.4807071 264.647024,86.7354888 265.628381,86.9804712 L266.472004,87.1960558 C268.073166,87.666422 269.708762,88.1171897 271.327141,88.5777567 C272.601184,88.9305314 273.892444,89.2833061 275.14927,89.6556794 C277.111985,90.2828344 279.126351,90.8805915 281.123499,91.4783487 C282.225374,91.8115248 283.344466,92.1349016 284.429124,92.4582784 L284.962845,92.6346658 C296.386557,96.2774521 307.366951,100.353356 317.829712,104.834791 C327.691831,109.063159 336.980713,113.708084 345.617624,118.730194 L345.789792,118.837987 L348.699431,120.523466 L351.316384,122.199146 C352.073923,122.68911 352.848679,123.179075 353.606218,123.649442 L354.363757,124.119808 L357.376697,126.18746 C358.117019,126.706822 358.891775,127.226185 359.666531,127.735749 L362.799988,130.097379 L364.091248,131.077309 C364.642186,131.498679 365.141473,131.929848 365.657977,132.361017 C366.174481,132.792186 366.98367,133.468337 367.672342,134.026897 C379.773452,144.229036 388.12456,155.718729 392.223496,167.805075 C394.132643,173.574754 394.837678,179.452593 394.323945,185.316419 C394.056793,188.055486 393.481723,190.782004 392.602265,193.479234 C392.498965,193.783012 392.395664,194.076991 392.30958,194.380769 C391.49934,196.868222 390.348032,199.315732 388.86622,201.700844 C386.892274,204.980037 384.593005,208.192838 381.979501,211.323754 C379.13873,214.675114 375.660936,218.330252 371.649422,222.181376 C362.790381,230.55618 352.930623,238.574563 342.139831,246.179855 L341.520026,246.630622 C320.377798,262.025318 294.432084,278.047169 259.860754,297.077405 C235.240733,310.629833 209.570487,323.819687 182.264646,337.744488 L161.707789,348.327729 C125.431996,366.946394 90.1031267,385.41807 56.685322,405.830006 C20.9311524,427.367206 -11.3375686,450.695828 -39.7287461,475.532407 C-69.2761126,501.03141 -93.9502041,528.254972 -113.330557,556.739184 L-119.855723,566.489485 C-120.286143,567.126439 -120.68213,567.773193 -121.060899,568.449344 L-129.669298,583.373674 C-130.943341,585.578516 -131.804181,587.459981 -132.45842,588.841682 C-132.596154,589.165058 -132.751105,589.488435 -132.906056,589.821611 L-133.215959,590.438967 L-137.967795,600.29706 C-139.431223,603.236849 -140.447014,605.843462 -141.290637,608.136498 L-145.095549,618.396362 C-145.08772,618.44853 -145.08772,618.500983 -145.095549,618.553151 L-145.405452,619.395891 C-146.05969,621.110768 -146.937747,623.423402 -147.626418,626.186804 L-150.587708,636.309478 C-150.587708,636.427069 -150.587708,636.55446 -150.673792,636.681851 C-150.794309,637.122819 -150.932044,637.553988 -151.052561,637.994957 C-151.465764,639.425654 -151.982268,641.209126 -152.412688,643.286577 C-152.412688,643.52176 -152.412688,643.756944 -152.550423,644.001926 L-153.497347,649.362142 C-153.497347,649.362142 -153.497347,649.440536 -153.497347,649.479733 L-155.425628,660.141369 C-155.528929,660.699929 -155.597796,661.248689 -155.666663,661.807249 C-155.907698,664.237475 -156.097083,666.706898 -156.269251,669.107726 C-156.372552,670.411032 -156.458636,671.714339 -156.579153,673.027445 C-156.579153,673.213631 -156.579153,673.399818 -156.579153,673.586004 C-156.579153,674.418945 -156.699671,675.242086 -156.768538,676.065227 C-156.992356,679.005016 -157.285042,682.591559 -157.112874,686.648468 L-157.112874,691.822497 C-157.112874,692.302662 -157.112874,692.802426 -157.112874,693.272793 L-156.716888,698.564413 C-156.510286,702.003967 -156.079866,705.139742 -155.701097,707.922742 C-155.563362,708.902672 -155.425628,709.882602 -155.30511,710.862531 C-155.30511,711.058517 -155.30511,711.244704 -155.30511,711.44069 C-154.754173,715.164423 -154.048284,718.594177 -153.376829,721.906339 L-153.015276,723.729009 L-152.808675,724.708938 C-150.622141,733.734091 -148.142922,741.867508 -145.216067,749.569756 C-138.932823,766.270069 -130.296501,782.655207 -119.39087,798.566242 C-119.39087,798.625038 -119.39087,798.683833 -119.270352,798.73283 C-108.236213,814.957153 -94.828914,830.625702 -79.1896469,845.573471 L-78.4837582,846.249622 C-75.0403986,849.48339 -71.2010526,853.10913 -66.7246852,856.950455 L-65.295691,858.194966 C-63.5740112,859.635462 -61.9900658,861.06616 -60.268386,862.477259 C-60.1306516,862.575252 -60.010134,862.683044 -59.8896164,862.781037 L-50.9196647,869.84633 C-50.472028,870.189306 -50.0243913,870.54208 -49.5595377,870.885056 L-46.4949477,873.19769 L-46.3399965,873.305482 L-40.1419493,877.94055 C-39.7115293,878.263927 -39.2638926,878.587303 -38.8162558,878.920479 L-38.4202695,879.204659 C-33.8750348,882.39923 -29.1920658,885.701593 -23.9237257,889.131347 C-2.3222865,903.320143 21.6786846,916.265267 47.7325871,927.779776 L47.9219719,927.867969 C75.286386,939.860785 104.826303,950.153073 136.037543,958.569168 L136.295795,958.627963 C166.884044,966.697278 198.715069,973.143135 231.38417,977.883583 C260.96174,982.198101 290.967016,985.49985 321.238638,987.771074 C343.740993,989.583944 365.124256,990.828454 385.80163,992.023969 L401.090147,992.915705 C423.065554,994.220544 444.92298,989.898188 460.74293,981.119232 C476.562879,972.340276 484.708305,960.013164 482.973238,947.476363 L463.828158,808.875103 C462.079286,796.096292 450.252295,784.456589 431.664374,777.220653 C413.076453,769.984717 389.729445,767.931828 368.171629,771.637773 C332.016354,777.850527 301.33602,781.250884 274.443382,782.015229 L274.150696,782.015229 C269.123391,782.172018 263.614016,782.172018 256.314093,782.015229 C251.837726,781.887838 246.930939,781.593859 240.922276,781.084296 C231.156491,780.07978 221.640754,778.404942 212.583427,776.096453 C201.994187,773.366939 191.974803,769.97159 182.712282,765.973779 C172.272146,761.410942 162.668115,756.259785 154.046314,750.598682 C153.701978,750.383097 153.374859,750.167513 153.030523,749.961727 C152.686187,749.755942 151.308843,748.766213 150.361919,748.11946 C149.414995,747.472706 148.554155,746.85535 147.641665,746.228195 C146.729175,745.60104 146.006069,744.993484 145.162446,744.376128 C143.85397,743.396198 142.597143,742.465265 141.719087,741.828311 C140.84103,741.191356 140.152358,740.564201 139.377602,739.937046 C138.000258,738.829726 136.588481,737.693007 135.934243,736.997257 L135.538256,736.575887 L132.404799,733.783088 L129.409076,730.902094 C125.965717,727.629129 122.711742,724.101382 119.371683,720.122867 C116.307093,716.291342 113.208069,712.283429 110.901019,708.579295 L110.694417,708.246119 C105.596887,700.395922 101.792819,692.292957 99.3313304,684.041855 L98.3844065,680.749291 L97.661301,677.456727 C97.661301,677.094153 97.5063498,676.72178 97.403049,676.359206 C97.2997482,675.996632 97.1792306,674.810917 97.0931466,674.007374 C96.972629,673.027445 96.8693283,672.047515 96.7315939,671.13618 C96.5938595,670.224846 96.5077755,669.313511 96.3872579,668.402176 C96.1978731,667.08907 96.042922,665.83476 95.9396212,664.766637 L95.9396212,657.123185 C95.8363204,639.847024 101.225178,620.983377 111.934026,601.061405 C112.175062,600.620437 112.39888,600.179469 112.605482,599.728701 C113.69014,597.455264 115.635638,594.43708 117.770521,591.24251 C118.918307,589.485169 120.066094,587.731095 121.21388,585.980287 C121.351615,585.764702 121.454916,585.588315 121.575433,585.37273 C121.833685,584.951361 122.728959,583.755846 123.383197,582.883709 C124.037435,582.011571 124.898275,580.865054 125.638598,579.845927 L127.911215,576.749349 C128.823705,575.495039 129.736195,574.230929 130.700336,572.976619 C138.304172,563.62675 146.733953,554.501749 155.957379,545.63658 C157.110904,544.568457 158.247213,543.490534 159.400738,542.412611 C160.760865,541.119104 162.034908,539.894192 162.844098,539.149445 L175.205759,528.507408 L187.980623,518.44353 C189.168582,517.541995 190.73531,516.483671 192.370906,515.258758 C193.627732,514.376822 194.867342,513.485086 196.089734,512.59335 C197.312127,511.701614 198.741121,510.702085 200.049598,509.751553 C201.358075,508.801022 202.907586,507.664303 203.751209,507.135141 C203.957811,506.988152 204.181629,506.841162 204.405448,506.703972 L214.735527,499.844464 L216.990927,498.345171 C217.455781,498.031594 217.903417,497.718016 218.368271,497.424037 L233.863389,487.977515 L244.520587,481.843155 L245.054308,481.529577 C250.219347,478.521193 255.935324,475.395217 262.03007,472.092854 L266.420354,469.711625 C268.142034,468.731695 270.276917,467.673371 272.549534,466.517054 L277.060335,464.184821 L281.588353,461.842789 C283.80932,460.696271 285.909769,459.608549 287.751966,458.707014 C290.437787,457.403707 293.089174,456.100401 295.757777,454.787295 C301.370453,452.033692 306.690444,449.436879 312.165386,446.859664 C342.89737,432.317506 375.109999,418.373106 409.216475,403.615365 L418.789015,399.470262 C455.064808,383.73259 492.562994,367.455958 529.751277,349.052877 C551.823212,338.27365 571.157676,327.96479 588.873761,317.479542 L589.028712,317.381549 C599.599826,311.080601 609.68887,304.554269 618.985941,297.998539 C629.297627,290.814284 638.924193,283.320101 647.824077,275.548349 C657.365973,267.211269 665.957608,258.53411 673.545973,249.570412 C681.342546,240.447074 688.094147,231.046256 693.758494,221.42683 C704.927542,202.419784 712.099574,182.726314 715.12454,162.758437 L715.12454,162.640845 C721.059842,122.897829 711.506754,82.8990982 687.147244,45.5000459 C663.663531,9.58562138 627.818158,-23.72219 580.368663,-53.4630573 Z" id="Path-Copy-3" stroke="none" fill="url(#linearGradient-5)" fill-rule="nonzero" opacity="0.206263951" mask="url(#mask-4)" transform="translate(279.835217, 436.144488) scale(-1, 1) rotate(22.000000) translate(-279.835217, -436.144488) "></path>
                            <path d="M1503.95937,143.9236 C1491.3711,130.078889 1477.6639,117.29651 1462.97705,105.706341 C1459.77561,103.148724 1456.7504,100.894886 1453.8133,98.7194416 L1452.17831,97.4945294 L1451.74754,97.1809519 C1448.91813,95.1230995 1446.20621,93.261233 1443.59219,91.4679616 L1440.93902,89.6452923 L1440.70405,89.4885035 C1439.22571,88.5085738 1437.718,87.5286441 1436.21029,86.5487144 L1434.7809,85.6275804 L1434.54593,85.4707917 L1431.60883,83.6285238 C1422.82909,77.8465747 1412.24041,75.4766649 1401.83644,76.9650016 L1401.54273,76.9650016 C1394.74856,77.9818772 1388.28339,80.5649495 1382.65718,84.5104605 C1380.41064,86.0733034 1378.29245,87.8133158 1376.32284,89.7138874 L1376.19556,89.8314789 C1375.31443,90.6546199 1374.47246,91.5071588 1373.65987,92.3988948 L1373.14098,92.9770534 C1371.7018,94.5547402 1369.91017,96.524399 1367.72693,99.2094064 L1365.36746,102.0904 L1364.96605,102.570565 L1362.37162,105.833731 C1358.85689,110.263014 1355.36174,114.760891 1351.92533,119.23917 L1350.69175,120.856054 L1350.20224,121.512607 L1348.90991,123.335276 L1348.83159,123.433269 L1346.1882,127.068809 L1346.02176,127.303992 L1340.81331,134.555472 C1339.07063,136.966099 1337.28879,139.582511 1335.57548,142.11073 L1334.59645,143.50223 L1334.43001,143.737413 L1328.84953,152.076615 C1327.86987,153.543123 1326.98056,155.068116 1326.18656,156.643088 L1325.58935,157.858201 C1324.8485,159.307415 1324.19465,160.799557 1323.63128,162.32668 L1320.22424,171.655611 L1310.7472,197.133784 L1310.65909,197.368967 C1308.88704,202.151024 1307.05625,206.982078 1305.22546,211.675941 L1302.43521,218.80983 C1301.63241,220.818686 1301.01562,222.484566 1300.41841,224.10145 L1299.83099,225.679137 C1299.55686,226.394486 1299.30231,227.119634 1299.07713,227.844782 L1298.99881,228.089764 C1298.418,229.833603 1297.92782,231.606384 1297.53026,233.400983 C1296.32025,238.609168 1296.04839,243.99167 1296.72745,249.295443 L1296.72745,249.422834 C1298.6475,264.261802 1308.21204,277.001394 1321.91797,282.975628 L1323.29841,283.602783 C1323.85646,283.867364 1324.4243,284.122146 1324.98234,284.367128 L1325.46207,284.582713 C1326.37257,285.053079 1327.30265,285.503847 1328.22294,285.964414 C1328.94743,286.317189 1329.6817,286.669963 1330.3964,287.042337 C1331.51249,287.669492 1332.65796,288.267249 1333.79364,288.865006 C1334.42022,289.198182 1335.05659,289.521559 1335.67339,289.844936 L1335.97689,290.021323 C1342.47298,293.664109 1348.71698,297.740013 1354.66663,302.221448 C1360.27472,306.449816 1365.55684,311.094741 1370.46822,316.116852 L1370.56612,316.224644 L1372.22069,317.910123 L1373.70882,319.585803 C1374.13959,320.075768 1374.58016,320.565732 1375.01093,321.036099 L1375.44171,321.506465 L1377.15501,323.574117 C1377.576,324.09348 1378.01656,324.612842 1378.45713,325.122406 L1380.23897,327.484036 L1380.97324,328.463966 C1381.28653,328.885336 1381.57045,329.316505 1381.86416,329.747674 C1382.15787,330.178843 1382.61802,330.854995 1383.00963,331.413555 C1389.89093,341.615693 1394.63978,353.105386 1396.97064,365.191732 C1398.05628,370.961411 1398.4572,376.83925 1398.16506,382.703076 C1398.01315,385.442144 1397.68613,388.168662 1397.18603,390.865891 C1397.12729,391.169669 1397.06855,391.463648 1397.01959,391.767426 C1396.55885,394.254879 1395.90416,396.702389 1395.06153,399.087502 C1393.93904,402.366694 1392.63156,405.579495 1391.1454,408.710411 C1389.52999,412.061771 1387.55234,415.716909 1385.2712,419.568033 C1380.23351,427.942837 1374.62675,435.96122 1368.49057,443.566512 L1368.13812,444.01728 C1356.11559,459.411976 1341.36157,475.433827 1321.70258,494.464062 C1307.70241,508.01649 1293.10503,521.206344 1277.57757,535.131146 L1265.88791,545.714387 C1245.25969,564.333051 1225.16993,582.804727 1206.1669,603.216663 C1185.83529,624.753864 1167.48569,648.082486 1151.34105,672.919064 C1134.53894,698.418067 1120.50802,725.641629 1109.48739,754.125841 L1105.77685,763.876142 C1105.53209,764.513096 1105.30692,765.15985 1105.09153,765.836001 L1100.19636,780.760331 C1099.47188,782.965173 1098.98236,784.846638 1098.61033,786.228339 C1098.53201,786.551716 1098.4439,786.875092 1098.35578,787.208269 L1098.17956,787.825624 L1095.47743,797.683717 C1094.64525,800.623507 1094.06762,803.23012 1093.58789,805.523155 L1091.42423,815.783019 C1091.42868,815.835187 1091.42868,815.88764 1091.42423,815.939808 L1091.248,816.782548 C1090.87597,818.497425 1090.37666,820.810059 1089.98505,823.573461 L1088.30111,833.696135 C1088.30111,833.813726 1088.30111,833.941117 1088.25216,834.068508 C1088.18363,834.509476 1088.10531,834.940646 1088.03677,835.381614 C1087.80181,836.812311 1087.5081,838.595783 1087.26334,840.673234 C1087.26334,840.908418 1087.26334,841.143601 1087.18502,841.388583 L1086.64655,846.748799 C1086.64655,846.748799 1086.64655,846.827193 1086.64655,846.86639 L1085.55003,857.528026 C1085.49129,858.086586 1085.45213,858.635346 1085.41297,859.193906 C1085.2759,861.624132 1085.16821,864.093555 1085.0703,866.494383 C1085.01156,867.797689 1084.96261,869.100996 1084.89408,870.414102 C1084.89408,870.600288 1084.89408,870.786475 1084.89408,870.972662 C1084.89408,871.805602 1084.82555,872.628743 1084.78639,873.451884 C1084.65911,876.391673 1084.49268,879.978216 1084.59058,884.035125 L1084.59058,889.209154 C1084.59058,889.689319 1084.59058,890.189084 1084.59058,890.65945 L1084.81576,895.95107 C1084.93324,899.390624 1085.178,902.526399 1085.39339,905.309399 C1085.47171,906.289329 1085.55003,907.269259 1085.61856,908.249188 C1085.61856,908.445174 1085.61856,908.631361 1085.61856,908.827347 C1085.93185,912.55108 1086.33326,915.980834 1086.71508,919.292996 L1086.92068,921.115666 L1087.03816,922.095595 C1088.28153,931.120748 1089.69134,939.254165 1091.3557,946.956413 C1094.92866,963.656726 1099.83971,980.041864 1106.04119,995.952899 C1106.04119,996.011695 1106.04119,996.070491 1106.10972,996.119487 C1112.38429,1012.34381 1120.00835,1028.01236 1128.90161,1042.96013 L1129.30302,1043.63628 C1131.26108,1046.87005 1133.44433,1050.49579 1135.98981,1054.33711 L1136.80241,1055.58162 C1137.78144,1057.02212 1138.68215,1058.45282 1139.66119,1059.86392 C1139.73951,1059.96191 1139.80804,1060.0697 1139.87657,1060.16769 L1144.97733,1067.23299 C1145.23188,1067.57596 1145.48643,1067.92874 1145.75077,1068.27171 L1147.49345,1070.58435 L1147.58156,1070.69214 L1151.10608,1075.32721 C1151.35084,1075.65058 1151.60539,1075.97396 1151.85994,1076.30714 L1152.08511,1076.59132 C1154.66976,1079.78589 1157.33273,1083.08825 1160.32857,1086.518 C1172.61223,1100.7068 1186.26038,1113.65192 1201.07593,1125.16643 L1201.18362,1125.25463 C1216.74439,1137.24744 1233.54226,1147.53973 1251.29053,1155.95582 L1251.43738,1156.01462 C1268.83139,1164.08393 1286.9321,1170.52979 1305.50938,1175.27024 C1322.32866,1179.58476 1339.39116,1182.88651 1356.60511,1185.15773 C1369.40107,1186.9706 1381.56066,1188.21511 1393.31885,1189.41063 L1402.01266,1190.30236 C1414.50898,1191.6072 1426.9382,1187.28485 1435.93421,1178.50589 C1444.93022,1169.72693 1449.56212,1157.39982 1448.57547,1144.86302 L1437.68863,1006.26176 C1436.69413,993.482949 1429.96871,981.843246 1419.39869,974.60731 C1408.82867,967.371374 1395.5524,965.318485 1383.29355,969.02443 C1362.73386,975.237185 1345.28749,978.637541 1329.99499,979.401886 L1329.82856,979.401886 C1326.96978,979.558675 1323.83688,979.558675 1319.68578,979.401886 C1317.14029,979.274495 1314.35005,978.980516 1310.93322,978.470953 C1305.37991,977.466437 1299.96879,975.791599 1294.81834,973.48311 C1288.79677,970.753596 1283.09925,967.358247 1277.83211,963.360436 C1271.89533,958.797599 1266.434,953.646442 1261.53122,947.985339 C1261.33541,947.769754 1261.14939,947.55417 1260.95359,947.348385 C1260.75778,947.142599 1259.97455,946.15287 1259.43608,945.506117 C1258.89762,944.859363 1258.4081,944.242007 1257.88921,943.614852 C1257.37032,942.987697 1256.95913,942.380141 1256.4794,941.762785 C1255.73534,940.782855 1255.02065,939.851922 1254.52134,939.214968 C1254.02203,938.578013 1253.63042,937.950858 1253.18985,937.323703 C1252.40663,936.216383 1251.60382,935.079664 1251.23179,934.383914 L1251.00661,933.962544 L1249.22477,931.169745 L1247.52125,928.288751 C1245.56319,925.015786 1243.71281,921.488039 1241.81349,917.509524 C1240.07081,913.677999 1238.30855,909.670087 1236.99665,905.965952 L1236.87916,905.632776 C1233.98045,897.782579 1231.81727,889.679614 1230.41755,881.428512 L1229.87908,878.135948 L1229.46788,874.843384 C1229.46788,874.48081 1229.37977,874.108437 1229.32103,873.745863 C1229.26229,873.383289 1229.19375,872.197574 1229.1448,871.394031 C1229.07627,870.414102 1229.01753,869.434172 1228.93921,868.522837 C1228.86088,867.611503 1228.81193,866.700168 1228.7434,865.788833 C1228.63571,864.475728 1228.54759,863.221417 1228.48885,862.153294 L1228.48885,854.509842 C1228.43011,837.233681 1231.49448,818.370034 1237.58407,798.448063 C1237.72113,798.007094 1237.84841,797.566126 1237.96589,797.115358 C1238.58268,794.841921 1239.68899,791.823738 1240.90299,788.629167 C1241.55568,786.871826 1242.20837,785.117752 1242.86106,783.366944 C1242.93938,783.151359 1242.99812,782.974972 1243.06665,782.759388 C1243.21351,782.338018 1243.7226,781.142504 1244.09464,780.270366 C1244.46667,779.398229 1244.95619,778.251711 1245.37717,777.232584 L1246.66949,774.136006 C1247.18838,772.881696 1247.70727,771.617587 1248.25553,770.363277 C1252.57945,761.013408 1257.37304,751.888406 1262.61794,743.023237 C1263.27389,741.955114 1263.92006,740.877191 1264.57601,739.799268 C1265.34944,738.505761 1266.07393,737.280849 1266.53407,736.536102 L1273.56353,725.894066 L1280.82796,715.830187 C1281.50349,714.928652 1282.39441,713.870328 1283.32449,712.645416 C1284.03918,711.763479 1284.74409,710.871743 1285.4392,709.980007 C1286.13431,709.088271 1286.94691,708.088742 1287.69098,707.138211 C1288.43504,706.187679 1289.31617,705.05096 1289.7959,704.521798 C1289.91338,704.374809 1290.04066,704.227819 1290.16793,704.090629 L1296.04213,697.231121 L1297.32466,695.731829 C1297.589,695.418251 1297.84355,695.104673 1298.10789,694.810695 L1306.91919,685.364172 L1312.9794,679.229812 L1313.2829,678.916234 C1316.22,675.90785 1319.47039,672.781874 1322.93617,669.479511 L1325.4327,667.098282 C1326.41173,666.118352 1327.62573,665.060028 1328.91806,663.903711 L1331.48312,661.571478 L1334.05798,659.229446 C1335.32093,658.082928 1336.51535,656.995206 1337.56292,656.093671 C1339.09021,654.790365 1340.59792,653.487058 1342.11542,652.173952 C1345.30707,649.42035 1348.33228,646.823536 1351.44561,644.246321 C1368.92135,629.704163 1387.23905,615.759763 1406.6337,601.002022 L1412.07712,596.856919 C1432.70535,581.119248 1454.02869,564.842615 1475.1758,546.439535 C1487.727,535.660308 1498.72154,525.351447 1508.79579,514.866199 L1508.88391,514.768206 C1514.89517,508.467258 1520.6323,501.940926 1525.91908,495.385196 C1531.78282,488.200941 1537.25697,480.706758 1542.31788,472.935006 C1547.74388,464.597926 1552.62951,455.920767 1556.94464,446.957069 C1561.37816,437.833732 1565.21745,428.432913 1568.43848,418.813487 C1574.78976,399.806442 1578.86814,380.112971 1580.58828,360.145094 L1580.58828,360.027503 C1583.96339,320.284486 1578.53103,280.285755 1564.679,242.886703 C1551.32499,206.972279 1530.94152,173.664467 1503.95937,143.9236 Z" id="Path-Copy-2" stroke="none" fill="url(#linearGradient-6)" fill-rule="nonzero" opacity="0.206263951" mask="url(#mask-4)" transform="translate(1333.061060, 633.531145) rotate(22.000000) translate(-1333.061060, -633.531145) "></path>
                            <path d="M758.95937,-411.0764 C746.3711,-424.921111 732.663901,-437.70349 717.977048,-449.293659 C714.77561,-451.851276 711.750398,-454.105114 708.813299,-456.280558 L707.178314,-457.505471 L706.747539,-457.819048 C703.918134,-459.876901 701.206213,-461.738767 698.592194,-463.532038 L695.939015,-465.354708 L695.704047,-465.511496 C694.225707,-466.491426 692.717996,-467.471356 691.210286,-468.451286 L689.780897,-469.37242 L689.545929,-469.529208 L686.60883,-471.371476 C677.829085,-477.153425 667.240407,-479.523335 656.836436,-478.034998 L656.542727,-478.034998 C649.748564,-477.018123 643.283387,-474.43505 637.65718,-470.489539 C635.41064,-468.926697 633.292452,-467.186684 631.322836,-465.286113 L631.195562,-465.168521 C630.314432,-464.34538 629.472464,-463.492841 628.659866,-462.601105 L628.140979,-462.022947 C626.7018,-460.44526 624.91017,-458.475601 622.726926,-455.790594 L620.367457,-452.9096 L619.966053,-452.429435 L617.371616,-449.166269 C613.856887,-444.736986 610.361739,-440.239109 606.925333,-435.76083 L605.691752,-434.143946 L605.202235,-433.487393 L603.909912,-431.664724 L603.831589,-431.566731 L601.1882,-427.931191 L601.021764,-427.696008 L595.813309,-420.444528 C594.07063,-418.033901 592.28879,-415.417489 590.575482,-412.88927 L589.596449,-411.49777 L589.430013,-411.262587 L583.849525,-402.923385 C582.869869,-401.456877 581.980559,-399.931884 581.186555,-398.356912 L580.589345,-397.141799 C579.848502,-395.692585 579.194653,-394.200443 578.631279,-392.67332 L575.224244,-383.344389 L565.747205,-357.866216 L565.659092,-357.631033 C563.887042,-352.848976 562.05625,-348.017922 560.225459,-343.324059 L557.435214,-336.19017 C556.632407,-334.181314 556.015617,-332.515434 555.418406,-330.89855 L554.830987,-329.320863 C554.556857,-328.605514 554.302309,-327.880366 554.077131,-327.155218 L553.998809,-326.910236 C553.417998,-325.166397 552.927825,-323.393616 552.530259,-321.599017 C551.320255,-316.390832 551.048392,-311.00833 551.727452,-305.704557 L551.727452,-305.577166 C553.647503,-290.738198 563.21204,-277.998606 576.917971,-272.024372 L578.298408,-271.397217 C578.856457,-271.132636 579.424296,-270.877854 579.982345,-270.632872 L580.462071,-270.417287 C581.372572,-269.946921 582.302653,-269.496153 583.222944,-269.035586 C583.947428,-268.682811 584.681703,-268.330037 585.396397,-267.957663 C586.512495,-267.330508 587.657964,-266.732751 588.793642,-266.134994 C589.420223,-265.801818 590.056595,-265.478441 590.673385,-265.155064 L590.976886,-264.978677 C597.472978,-261.335891 603.716978,-257.259987 609.666626,-252.778552 C615.274718,-248.550184 620.55684,-243.905259 625.468219,-238.883148 L625.566122,-238.775356 L627.220688,-237.089877 L628.708818,-235.414197 C629.139592,-234.924232 629.580157,-234.434268 630.010932,-233.963901 L630.441706,-233.493535 L632.155014,-231.425883 C632.575998,-230.90652 633.016563,-230.387158 633.457128,-229.877594 L635.238968,-227.515964 L635.973243,-226.536034 C636.286533,-226.114664 636.570453,-225.683495 636.864163,-225.252326 C637.157873,-224.821157 637.618018,-224.145005 638.009632,-223.586445 C644.890926,-213.384307 649.639783,-201.894614 651.970642,-189.808268 C653.056279,-184.038589 653.457197,-178.16075 653.165063,-172.296924 C653.013147,-169.557856 652.686133,-166.831338 652.18603,-164.134109 C652.127288,-163.830331 652.068546,-163.536352 652.019594,-163.232574 C651.558851,-160.745121 650.90416,-158.297611 650.061528,-155.912498 C648.939044,-152.633306 647.631565,-149.420505 646.145396,-146.289589 C644.529991,-142.938229 642.552345,-139.283091 640.271198,-135.431967 C635.233505,-127.057163 629.626754,-119.03878 623.490572,-111.433488 L623.13812,-110.98272 C611.115595,-95.5880245 596.361567,-79.5661734 576.702584,-60.5359381 C562.702412,-46.98351 548.10503,-33.7936559 532.577566,-19.8688545 L520.887912,-9.28561341 C500.259686,9.3330514 480.169929,27.8047268 461.166898,48.216663 C440.835294,69.7538636 422.485689,93.0824856 406.341049,117.919064 C389.538943,143.418067 375.508023,170.641629 364.487388,199.125841 L360.776853,208.876142 C360.532095,209.513096 360.306917,210.15985 360.09153,210.836001 L355.196365,225.760331 C354.47188,227.965173 353.982364,229.846638 353.610331,231.228339 C353.532009,231.551716 353.443896,231.875092 353.355783,232.208269 L353.179557,232.825624 L350.477426,242.683717 C349.645247,245.623507 349.067618,248.23012 348.587892,250.523155 L346.424229,260.783019 C346.428681,260.835187 346.428681,260.88764 346.424229,260.939808 L346.248003,261.782548 C345.87597,263.497425 345.376664,265.810059 344.98505,268.573461 L343.301114,278.696135 C343.301114,278.813726 343.301114,278.941117 343.252162,279.068508 C343.18363,279.509476 343.105307,279.940646 343.036775,280.381614 C342.801807,281.812311 342.508097,283.595783 342.263339,285.673234 C342.263339,285.908418 342.263339,286.143601 342.185016,286.388583 L341.646548,291.748799 C341.646548,291.748799 341.646548,291.827193 341.646548,291.86639 L340.550031,302.528026 C340.491289,303.086586 340.452127,303.635346 340.412966,304.193906 C340.275902,306.624132 340.168208,309.093555 340.070305,311.494383 C340.011563,312.797689 339.962611,314.100996 339.894079,315.414102 C339.894079,315.600288 339.894079,315.786475 339.894079,315.972662 C339.894079,316.805602 339.825546,317.628743 339.786385,318.451884 C339.659111,321.391673 339.492675,324.978216 339.590578,329.035125 L339.590578,334.209154 C339.590578,334.689319 339.590578,335.189084 339.590578,335.65945 L339.815756,340.95107 C339.93324,344.390624 340.177998,347.526399 340.393385,350.309399 C340.471708,351.289329 340.550031,352.269259 340.618563,353.249188 C340.618563,353.445174 340.618563,353.631361 340.618563,353.827347 C340.931854,357.55108 341.333257,360.980834 341.71508,364.292996 L341.920677,366.115666 L342.038161,367.095595 C343.281533,376.120748 344.69134,384.254165 346.355697,391.956413 C349.928662,408.656726 354.839706,425.041864 361.041192,440.952899 C361.041192,441.011695 361.041192,441.070491 361.109724,441.119487 C367.384286,457.34381 375.008345,473.012359 383.901613,487.960128 L384.303016,488.63628 C386.261082,491.870048 388.444326,495.495788 390.989812,499.337112 L391.802409,500.581623 C392.781442,502.02212 393.682152,503.452817 394.661185,504.863916 C394.739508,504.961909 394.80804,505.069701 394.876573,505.167694 L399.977335,512.232987 C400.231883,512.575963 400.486432,512.928737 400.750771,513.271713 L402.49345,515.584347 L402.581563,515.692139 L406.106081,520.327207 C406.35084,520.650584 406.605388,520.973961 406.859937,521.307137 L407.085114,521.591316 C409.669762,524.785887 412.332731,528.08825 415.328572,531.518004 C427.612228,545.706801 441.260378,558.651924 456.075926,570.166433 L456.18362,570.254627 C471.744391,582.247442 488.542261,592.53973 506.29053,600.955825 L506.437385,601.014621 C523.831389,609.083935 541.932097,615.529792 560.509378,620.27024 C577.32866,624.584758 594.391156,627.886507 611.605111,630.157731 C624.401073,631.970601 636.560663,633.215111 648.318849,634.410626 L657.012662,635.302362 C669.508975,636.607201 681.938198,632.284845 690.93421,623.505889 C699.930223,614.726933 704.562118,602.399821 703.575473,589.86302 L692.688625,451.26176 C691.69413,438.482949 684.968712,426.843246 674.398693,419.60731 C663.828674,412.371374 650.5524,410.318485 638.293551,414.02443 C617.733858,420.237185 600.28749,423.637541 584.994994,424.401886 L584.828558,424.401886 C581.969782,424.558675 578.836876,424.558675 574.685776,424.401886 C572.14029,424.274495 569.350046,423.980516 565.933221,423.470953 C560.379909,422.466437 554.968785,420.791599 549.818338,418.48311 C543.796767,415.753596 538.099246,412.358247 532.832115,408.360436 C526.895332,403.797599 521.434002,398.646442 516.531215,392.985339 C516.335409,392.769754 516.149392,392.55417 515.953586,392.348385 C515.757779,392.142599 514.974553,391.15287 514.436084,390.506117 C513.897616,389.859363 513.4081,389.242007 512.889212,388.614852 C512.370325,387.987697 511.959131,387.380141 511.479405,386.762785 C510.73534,385.782855 510.020646,384.851922 509.521339,384.214968 C509.022032,383.578013 508.630419,382.950858 508.189854,382.323703 C507.406627,381.216383 506.60382,380.079664 506.231788,379.383914 L506.00661,378.962544 L504.22477,376.169745 L502.521253,373.288751 C500.563187,370.015786 498.712814,366.488039 496.81349,362.509524 C495.070811,358.677999 493.308552,354.670087 491.996648,350.965952 L491.879164,350.632776 C488.980454,342.782579 486.817271,334.679614 485.417546,326.428512 L484.879078,323.135948 L484.467884,319.843384 C484.467884,319.48081 484.379771,319.108437 484.321029,318.745863 C484.262287,318.383289 484.193755,317.197574 484.144803,316.394031 C484.076271,315.414102 484.017529,314.434172 483.939206,313.522837 C483.860883,312.611503 483.811932,311.700168 483.743399,310.788833 C483.635706,309.475728 483.547593,308.221417 483.488851,307.153294 L483.488851,299.509842 C483.430109,282.233681 486.494482,263.370034 492.584068,243.448063 C492.721132,243.007094 492.848406,242.566126 492.96589,242.115358 C493.582681,239.841921 494.688989,236.823738 495.90299,233.629167 C496.555678,231.871826 497.208367,230.117752 497.861056,228.366944 C497.939378,228.151359 497.99812,227.974972 498.066652,227.759388 C498.213507,227.338018 498.722605,226.142504 499.094637,225.270366 C499.46667,224.398229 499.956186,223.251711 500.37717,222.232584 L501.669494,219.136006 C502.188381,217.881696 502.707269,216.617587 503.255527,215.363277 C507.579448,206.013408 512.373042,196.888406 517.617942,188.023237 C518.273894,186.955114 518.920056,185.877191 519.576008,184.799268 C520.349444,183.505761 521.073928,182.280849 521.534074,181.536102 L528.563531,170.894066 L535.827956,160.830187 C536.503489,159.928652 537.394409,158.870328 538.32449,157.645416 C539.039184,156.763479 539.744088,155.871743 540.439201,154.980007 C541.134315,154.088271 541.946912,153.088742 542.690977,152.138211 C543.435042,151.187679 544.316172,150.05096 544.795898,149.521798 C544.913382,149.374809 545.040656,149.227819 545.167931,149.090629 L551.042129,142.231121 L552.324662,140.731829 C552.589001,140.418251 552.84355,140.104673 553.107889,139.810695 L561.919186,130.364172 L567.9794,124.229812 L568.2829,123.916234 C571.219999,120.90785 574.470389,117.781874 577.936166,114.479511 L580.4327,112.098282 C581.411733,111.118352 582.625734,110.060028 583.918058,108.903711 L586.483124,106.571478 L589.057981,104.229446 C590.320933,103.082928 591.515354,101.995206 592.562919,101.093671 C594.090211,99.7903645 595.597921,98.487058 597.115423,97.1739521 C600.30707,94.4203496 603.332282,91.8235358 606.445607,89.2463206 C623.921346,74.7041635 642.239054,60.7597635 661.633698,46.0020218 L667.077122,41.856919 C687.705347,26.1192476 709.028686,9.84261486 730.1758,-8.56046541 C742.727003,-19.3396924 753.721544,-29.6485531 763.795793,-40.1338012 L763.883906,-40.2317942 C769.895169,-46.5327423 775.632302,-53.0590743 780.919081,-59.6148042 C786.78282,-66.7990592 792.256966,-74.2932415 797.317884,-82.0649942 C802.743881,-90.4020738 807.629514,-99.0792326 811.944637,-108.042931 C816.378157,-117.166268 820.217454,-126.567087 823.438484,-136.186513 C829.789762,-155.193558 833.868137,-174.887029 835.588284,-194.854906 L835.588284,-194.972497 C838.963393,-234.715514 833.531031,-274.714245 819.678998,-312.113297 C806.324987,-348.027721 785.94152,-381.335533 758.95937,-411.0764 Z" id="Path-Copy-4" stroke="none" fill="url(#linearGradient-7)" fill-rule="nonzero" opacity="0.206263951" mask="url(#mask-4)" transform="translate(588.061060, 78.531145) rotate(22.000000) translate(-588.061060, -78.531145) "></path>
                        </g>
                    </g>
                </g>
            </g>
        </g>
    </g>
</svg>