<?xml version="1.0" encoding="UTF-8"?>
<svg width="70px" height="70px" viewBox="0 0 70 70" version="1.1" xmlns="http://www.w3.org/2000/svg" xmlns:xlink="http://www.w3.org/1999/xlink">
    <!-- Generator: Sketch 53.1 (72631) - https://sketchapp.com -->
    <title>Group 13</title>
    <desc>Created with Sketch.</desc>
    <defs>
        <linearGradient x1="105.221669%" y1="-52.3004644%" x2="17.190313%" y2="140.305435%" id="linearGradient-1">
            <stop stop-color="#FFC649" offset="0%"></stop>
            <stop stop-color="#FFC848" offset="0%"></stop>
            <stop stop-color="#FFCF45" offset="0%"></stop>
            <stop stop-color="#FFD243" offset="0%"></stop>
            <stop stop-color="#CD571B" offset="100%"></stop>
        </linearGradient>
        <linearGradient x1="72.0049087%" y1="38.5396385%" x2="32.1521706%" y2="57.2739649%" id="linearGradient-2">
            <stop stop-color="#E08C3C" offset="0%"></stop>
            <stop stop-color="#FFD06F" offset="100%"></stop>
        </linearGradient>
        <linearGradient x1="23.21523%" y1="185.967261%" x2="82.2463451%" y2="-113.701976%" id="linearGradient-3">
            <stop stop-color="#F5942A" offset="0%"></stop>
            <stop stop-color="#F5D85D" offset="100%"></stop>
        </linearGradient>
        <linearGradient x1="34.5148467%" y1="113.594236%" x2="75.6239007%" y2="-25.7731%" id="linearGradient-4">
            <stop stop-color="#E08C3C" offset="0%"></stop>
            <stop stop-color="#FFD06F" offset="100%"></stop>
        </linearGradient>
        <linearGradient x1="69.3194447%" y1="-27.1750895%" x2="18.8000316%" y2="174.630806%" id="linearGradient-5">
            <stop stop-color="#FFDE43" offset="20%"></stop>
            <stop stop-color="#FFD23E" offset="56%"></stop>
            <stop stop-color="#FFBD37" offset="100%"></stop>
        </linearGradient>
        <linearGradient x1="67.2275668%" y1="23.9090141%" x2="33.4138713%" y2="99.3094797%" id="linearGradient-6">
            <stop stop-color="#FFFFA0" offset="2%"></stop>
            <stop stop-color="#FFEB6A" offset="98%"></stop>
        </linearGradient>
    </defs>
    <g id="design" stroke="none" stroke-width="1" fill="none" fill-rule="evenodd">
        <g id="dapp-ranking" transform="translate(-87.000000, -235.000000)">
            <g id="background">
                <g id="Group-31" transform="translate(86.000000, 235.000000)">
                    <g id="Group-13" transform="translate(1.000000, 0.000000)">
                        <g id="coin" transform="translate(0.000000, 0.000000)" fill-rule="nonzero">
                            <path d="M68.8840164,37.8286885 C69.8307377,31.0352459 68.7004098,23.9377049 65.2692623,17.9618852 C64.1595032,16.0199278 62.8249016,14.2154232 61.2930328,12.5856557 C59.557377,10.7467213 57.5635246,9.14303279 55.6815574,7.45327869 C60.8971311,12.0836066 64.1733607,18.5872951 65.1028689,25.472541 C66.032377,32.3577869 64.6639344,39.6618852 61.4737705,45.8586066 C58.3121801,52.0378533 53.5583658,57.2611068 47.7032787,60.9889344 C41.8795082,64.6696721 35.0803279,66.7065574 28.1606557,66.5143443 C21.8778689,66.3163934 15.7127049,64.2192623 10.7868852,60.277459 C10.415847,59.9810109 10.0534153,59.6769126 9.69959016,59.3651639 C12.192623,61.5741803 14.602459,63.9180328 17.4454918,65.6766393 C20.0707641,67.2728224 22.9362237,68.4352806 25.9315574,69.1192623 C32.5528689,70.6540984 39.5786885,69.8995902 45.8385246,67.3147541 C52.1153218,64.7004336 57.5831106,60.4624516 61.6803279,55.0360656 C65.5032815,50.0047517 67.9823704,44.0829773 68.8840164,37.8286885 Z" id="Path" fill="url(#linearGradient-1)"></path>
                            <path d="M45.8614754,67.3204918 C48.0430942,66.4141639 50.1342145,65.3037666 52.1069672,64.0040984 L49.7229508,61.4852459 C49.4360656,61.677459 49.1491803,61.8696721 48.8622951,62.0590164 C42.9209016,65.8114754 35.972541,67.8885246 28.9266393,67.6934426 C23.9303606,67.5540742 19.0452803,66.1864881 14.7028689,63.7114754 C17.9885853,66.3580275 21.8379846,68.2150044 25.9545082,69.1393443 C32.5758197,70.6598361 39.5901639,69.9053279 45.8614754,67.3204918 Z" id="Path" fill-opacity="0.5" fill="url(#linearGradient-2)" opacity="0.5" style="mix-blend-mode: screen;"></path>
                            <path d="M39.5385246,0.459016393 C57.1934426,2.31516393 68.4393443,18.570082 64.6581967,36.7672131 C60.8770492,54.9643443 43.5061475,68.2127049 25.8540984,66.3565574 C8.20204918,64.5004098 -3.04672131,48.2454918 0.731557377,30.0483607 C4.50983607,11.8512295 21.8864754,-1.3942623 39.5385246,0.459016393 Z" id="Path" fill="url(#linearGradient-3)"></path>
                            <path d="M39.3032787,1.225 C22.2651639,-0.573770492 5.49385246,12.2184426 1.84754098,29.7815574 C1.57133983,31.1073859 1.3749486,32.4485943 1.25942623,33.7979508 C8.40860656,38.9618852 17.0381148,42.3442623 26.7262295,43.3627049 C39.667623,44.722541 52.5258197,41.6413934 63.7344262,35.3098361 C66.8012295,18.142623 56.0344262,2.98360656 39.3032787,1.225 Z" id="Path" fill="url(#linearGradient-4)" opacity="0.2" style="mix-blend-mode: screen;"></path>
                            <path d="M28.5393443,64.7930328 C12.8036885,63.1377049 1.33114754,49.4217213 4.87704918,32.4180328 C8.42295082,15.4143443 24.6721311,3.00655738 41.1737705,4.74221311 C55.0360656,6.19959016 63.1463115,17.8815574 63.7631148,30.7942623 C64.4401639,15.420082 54.095082,2.58196721 38.7495902,0.961065574 C21.6540984,-0.837704918 4.82540984,11.9918033 1.16762295,29.6151639 C-2.49016393,47.2385246 8.4,62.9827869 25.4954918,64.7786885 C27.035206,64.9409214 28.585017,64.9859964 30.1315574,64.9135246 C29.6008197,64.8877049 29.070082,64.8504098 28.5393443,64.7930328 Z" id="Path" fill="#94512A" opacity="0.5" style="mix-blend-mode: multiply;"></path>
                            <path d="M36.982377,4.01639344 C37.9779733,4.01619877 38.9729028,4.06790829 39.9631148,4.17131148 C47.3303279,4.94590164 53.7106557,8.55491803 57.9307377,14.3356557 C60.1364954,17.3708067 61.6628876,20.8453058 62.4061475,24.5229508 C63.2172801,28.5386905 63.1918883,32.6785287 62.3315574,36.6840164 C60.6978215,44.3069407 56.5405183,51.1559284 50.5319672,56.1233607 C44.5446721,61.1122951 37.254918,63.8692623 30.0053279,63.8692623 C29.0087767,63.8694787 28.0128911,63.8177692 27.0217213,63.7143443 C19.657377,62.9397541 13.2770492,59.3278689 9.05696721,53.55 C6.85254162,50.5055244 5.32911938,47.0222982 4.59016393,43.3368852 C3.78119578,39.3217959 3.80756284,35.1831446 4.66762295,31.1786885 C6.29842927,23.5572582 10.4503003,16.7078837 16.4528689,11.7364754 C22.4401639,6.74754098 29.729918,3.99057377 36.982377,3.99057377 L36.982377,3.99057377 L36.982377,4.01639344 Z M36.982377,1.15040984 C20.6987705,1.16188525 5.37909836,13.7303279 1.87622951,30.5991803 C-1.85327869,48.5983607 9.26352459,63.2352459 26.7233607,65.0713115 C27.8136174,65.1856539 28.9090916,65.2431088 30.0053279,65.2434426 C46.2918033,65.2434426 60.2918033,53.1770492 63.7946721,36.3081967 C67.5241803,18.3061475 57.7241803,3.16721311 40.270082,1.33114754 C39.1797869,1.21761269 38.0843049,1.16111494 36.9881148,1.16188525 L36.982377,1.15040984 Z" id="Shape" fill="#E99855"></path>
                            <path d="M36.225,3.1557377 C37.2311792,3.15514252 38.2366844,3.20781184 39.2372951,3.31352459 C46.6819672,4.09385246 53.1340164,7.74590164 57.4,13.5868852 C59.630949,16.655108 61.1749679,20.1678001 61.9270492,23.8860656 C62.7443868,27.9466745 62.7180212,32.131978 61.8495902,36.1819672 C60.1958209,43.8896201 55.9923625,50.8148657 49.9180328,55.8393443 C43.8647541,60.8827869 36.4946721,63.6598361 29.1647541,63.6598361 C28.1566644,63.660505 27.1492454,63.6078358 26.1467213,63.5020492 C18.7020492,62.7188525 12.2528689,59.0696721 7.98688525,53.2258197 C5.75523096,50.1580021 4.21114187,46.6451505 3.45983607,42.9266393 C2.63961262,38.8672745 2.66598227,34.6823129 3.53729508,30.6336066 C5.18912684,22.9259842 9.39300522,16.0010573 15.4688525,10.9790984 C21.5163934,5.93565574 28.8922131,3.1557377 36.2221311,3.1557377 L36.2221311,3.1557377 L36.225,3.1557377 Z M36.2221311,0.286885246 C19.7577869,0.286885246 4.27172131,12.9930328 0.731557377,30.0483607 C-3.04672131,48.2454918 8.19057377,64.5032787 25.8540984,66.3565574 C26.9556964,66.4734206 28.0627125,66.5318358 29.1704918,66.5315574 C45.6319672,66.5315574 61.1180328,53.822541 64.6581967,36.7672131 C68.4393443,18.570082 57.1934426,2.31516393 39.5385246,0.459016393 C38.4367535,0.344675717 37.3298194,0.28722239 36.2221311,0.286885246 Z" id="Shape" fill="url(#linearGradient-5)"></path>
                            <polygon id="Path" fill="#FFFFFF" points="24.8012295 16.8889344 21.972541 16.1889344 24.5372951 17.5831967 24.8356557 18.2631148 24.1385246 21.1377049 25.5155738 18.5270492 26.1840164 18.2258197 29.0098361 18.9258197 26.4479508 17.5286885 26.1495902 16.8516393 26.8467213 13.9770492 25.4696721 16.5877049"></polygon>
                            <path d="M39.4438525,0.461885246 C38.3422545,0.345022006 37.2352384,0.286606796 36.127459,0.286885246 C19.6659836,0.286885246 4.17991803,12.9930328 0.639754098,30.0483607 C0.325002345,31.5528815 0.111273593,33.0767771 -1.42108547e-14,34.6098361 C0.906557377,35.252459 1.83510929,35.8606557 2.78565574,36.4344262 C2.82629313,34.4847644 3.04620893,32.5429752 3.44262295,30.6336066 C5.09542805,22.9256789 9.30030898,16.0007656 15.3770492,10.9790984 C21.4303279,5.93565574 28.8004098,3.1557377 36.1303279,3.1557377 L36.1303279,3.1557377 C37.1374613,3.15514312 38.1439215,3.20781231 39.1454918,3.31352459 C46.6045082,4.09672131 53.0422131,7.74590164 57.3081967,13.5897541 C59.5388318,16.6578204 61.081935,20.1706552 61.832377,23.8889344 C62.6526005,27.9482992 62.6262308,32.1332609 61.754918,36.1819672 C61.6831967,36.5290984 61.6,36.8704918 61.5168033,37.2147541 C62.6318306,36.6409836 63.7315574,36.0442623 64.8159836,35.4245902 C67.7852459,17.7868852 56.6655738,2.2692623 39.4438525,0.461885246 Z" id="Path" fill="url(#linearGradient-6)" opacity="0.7"></path>
                        </g>
                        <g id="Group-7" transform="translate(32.189541, 33.896025) rotate(20.000000) translate(-32.189541, -33.896025) translate(19.502041, 14.646025)">
                            <polygon id="Path-4" fill="#FFF177" points="13.0827558 0.0737263984 0.83275585 18.5918969 11.5317642 25.1686334"></polygon>
                            <polygon id="Path-4-Copy" fill="#E1882B" transform="translate(18.138449, 12.621180) scale(-1, 1) translate(-18.138449, -12.621180) " points="23.1941424 0.0737263984 11.5317642 19.9340716 24.7451341 25.1686334"></polygon>
                            <polygon id="Path-5" fill="#FFF177" points="0.76322343 23.0409896 11.4784004 37.6257018 11.4784004 28.7105022"></polygon>
                            <polygon id="Path-5-Copy" fill="#E1882B" transform="translate(17.927367, 30.593318) scale(-1, 1) translate(-17.927367, -30.593318) " points="11.4784004 23.5609333 24.3763341 37.6257018 24.3763341 28.7105022"></polygon>
                        </g>
                    </g>
                </g>
            </g>
        </g>
    </g>
</svg>