<?xml version="1.0" encoding="UTF-8"?>
<svg width="768px" height="996px" viewBox="0 0 768 996" version="1.1" xmlns="http://www.w3.org/2000/svg" xmlns:xlink="http://www.w3.org/1999/xlink">
    <!-- Generator: Sketch 53.1 (72631) - https://sketchapp.com -->
    <title>bg</title>
    <desc>Created with Sketch.</desc>
    <defs>
        <path d="M0.164783022,0.867629815 L1440.16881,0.867629815 L1440.16881,1135.86763 C1440.16612,1113.52414 1357.96644,1092.44992 1193.56976,1072.64498 C946.974741,1042.93756 655.813601,1032.07297 433.627173,1072.64498 C285.502887,1099.69299 141.015424,1100.02606 0.164783022,1073.64419 L0.164783022,0.867629815 Z" id="path-1"></path>
        <linearGradient x1="12.4987109%" y1="105.880673%" x2="82.0560386%" y2="21.4915%" id="linearGradient-3">
            <stop stop-color="#5D45B9" offset="0%"></stop>
            <stop stop-color="#5A3EC4" offset="40%"></stop>
            <stop stop-color="#7153E0" offset="100%"></stop>
        </linearGradient>
        <linearGradient x1="37.8734822%" y1="105.880673%" x2="60.365727%" y2="21.4915%" id="linearGradient-4">
            <stop stop-color="#5D45B9" offset="0%"></stop>
            <stop stop-color="#5A3EC4" offset="40%"></stop>
            <stop stop-color="#8269E1" offset="100%"></stop>
        </linearGradient>
        <linearGradient x1="38.6973987%" y1="102.429331%" x2="60.365727%" y2="21.4915%" id="linearGradient-5">
            <stop stop-color="#5D45B9" offset="0%"></stop>
            <stop stop-color="#5A3EC4" offset="40%"></stop>
            <stop stop-color="#8269E1" offset="100%"></stop>
        </linearGradient>
        <radialGradient cx="49.7016335%" cy="50%" fx="49.7016335%" fy="50%" r="61.0765879%" gradientTransform="translate(0.497016,0.500000),scale(0.823529,1.000000),translate(-0.497016,-0.500000)" id="radialGradient-6">
            <stop stop-color="#FFFFFF" offset="0%"></stop>
            <stop stop-color="#FFFFFF" stop-opacity="0.631091565" offset="29.29%"></stop>
            <stop stop-color="#FFFFFF" stop-opacity="0.168132649" offset="55.6521987%"></stop>
            <stop stop-color="#FEC30C" stop-opacity="0" offset="100%"></stop>
        </radialGradient>
        <radialGradient cx="49.7016335%" cy="50%" fx="49.7016335%" fy="50%" r="61.0765879%" gradientTransform="translate(0.497016,0.500000),scale(0.823529,1.000000),translate(-0.497016,-0.500000)" id="radialGradient-7">
            <stop stop-color="#FEC30C" offset="0%"></stop>
            <stop stop-color="#FEC30C" stop-opacity="0.715745192" offset="29.29%"></stop>
            <stop stop-color="#FEC30C" stop-opacity="0.168132649" offset="55.6521987%"></stop>
            <stop stop-color="#FEC30C" stop-opacity="0" offset="100%"></stop>
        </radialGradient>
        <filter x="-59.4%" y="-59.4%" width="219.4%" height="218.9%" filterUnits="objectBoundingBox" id="filter-8">
            <feOffset dx="0" dy="10" in="SourceAlpha" result="shadowOffsetOuter1"></feOffset>
            <feGaussianBlur stdDeviation="9.5" in="shadowOffsetOuter1" result="shadowBlurOuter1"></feGaussianBlur>
            <feColorMatrix values="0 0 0 0 0.996078431   0 0 0 0 0.764705882   0 0 0 0 0.0470588235  0 0 0 0.328206949 0" type="matrix" in="shadowBlurOuter1" result="shadowMatrixOuter1"></feColorMatrix>
            <feMerge>
                <feMergeNode in="shadowMatrixOuter1"></feMergeNode>
                <feMergeNode in="SourceGraphic"></feMergeNode>
            </feMerge>
        </filter>
        <filter x="-41.9%" y="-41.3%" width="183.8%" height="182.6%" filterUnits="objectBoundingBox" id="filter-9">
            <feOffset dx="0" dy="13" in="SourceAlpha" result="shadowOffsetOuter1"></feOffset>
            <feGaussianBlur stdDeviation="9" in="shadowOffsetOuter1" result="shadowBlurOuter1"></feGaussianBlur>
            <feColorMatrix values="0 0 0 0 0.996078431   0 0 0 0 0.764705882   0 0 0 0 0.0470588235  0 0 0 0.0925480769 0" type="matrix" in="shadowBlurOuter1" result="shadowMatrixOuter1"></feColorMatrix>
            <feMerge>
                <feMergeNode in="shadowMatrixOuter1"></feMergeNode>
                <feMergeNode in="SourceGraphic"></feMergeNode>
            </feMerge>
        </filter>
        <linearGradient x1="105.035267%" y1="-52.3004644%" x2="17.301063%" y2="140.305435%" id="linearGradient-10">
            <stop stop-color="#FFC649" offset="0%"></stop>
            <stop stop-color="#FFC848" offset="0%"></stop>
            <stop stop-color="#FFCF45" offset="0%"></stop>
            <stop stop-color="#FFD243" offset="0%"></stop>
            <stop stop-color="#CD571B" offset="100%"></stop>
        </linearGradient>
        <linearGradient x1="72.0049087%" y1="38.5008228%" x2="32.1521706%" y2="57.2986015%" id="linearGradient-11">
            <stop stop-color="#E08C3C" offset="0%"></stop>
            <stop stop-color="#FFD06F" offset="100%"></stop>
        </linearGradient>
        <linearGradient x1="23.3056426%" y1="185.967261%" x2="82.1374967%" y2="-113.701976%" id="linearGradient-12">
            <stop stop-color="#F5942A" offset="0%"></stop>
            <stop stop-color="#F5D85D" offset="100%"></stop>
        </linearGradient>
        <linearGradient x1="34.5148467%" y1="113.809627%" x2="75.6239007%" y2="-26.0297403%" id="linearGradient-13">
            <stop stop-color="#E08C3C" offset="0%"></stop>
            <stop stop-color="#FFD06F" offset="100%"></stop>
        </linearGradient>
        <linearGradient x1="69.2542314%" y1="-27.1750895%" x2="18.9053478%" y2="174.630806%" id="linearGradient-14">
            <stop stop-color="#FFDE43" offset="20%"></stop>
            <stop stop-color="#FFD23E" offset="56%"></stop>
            <stop stop-color="#FFBD37" offset="100%"></stop>
        </linearGradient>
        <linearGradient x1="67.2275668%" y1="23.820645%" x2="33.4138713%" y2="99.4764889%" id="linearGradient-15">
            <stop stop-color="#FFFFA0" offset="2%"></stop>
            <stop stop-color="#FFEB6A" offset="98%"></stop>
        </linearGradient>
        <radialGradient cx="49.7016335%" cy="50%" fx="49.7016335%" fy="50%" r="59.0459086%" gradientTransform="translate(0.497016,0.500000),scale(0.851852,1.000000),translate(-0.497016,-0.500000)" id="radialGradient-16">
            <stop stop-color="#FEC30C" offset="0%"></stop>
            <stop stop-color="#FEC30C" stop-opacity="0.715745192" offset="29.29%"></stop>
            <stop stop-color="#FEC30C" stop-opacity="0.168132649" offset="55.6521987%"></stop>
            <stop stop-color="#FEC30C" stop-opacity="0" offset="100%"></stop>
        </radialGradient>
        <filter x="-58.2%" y="-57.7%" width="216.5%" height="215.3%" filterUnits="objectBoundingBox" id="filter-17">
            <feOffset dx="0" dy="10" in="SourceAlpha" result="shadowOffsetOuter1"></feOffset>
            <feGaussianBlur stdDeviation="9.5" in="shadowOffsetOuter1" result="shadowBlurOuter1"></feGaussianBlur>
            <feColorMatrix values="0 0 0 0 0.996078431   0 0 0 0 0.764705882   0 0 0 0 0.0470588235  0 0 0 0.197088068 0" type="matrix" in="shadowBlurOuter1" result="shadowMatrixOuter1"></feColorMatrix>
            <feMerge>
                <feMergeNode in="shadowMatrixOuter1"></feMergeNode>
                <feMergeNode in="SourceGraphic"></feMergeNode>
            </feMerge>
        </filter>
        <linearGradient x1="104.998363%" y1="-52.3004644%" x2="17.322989%" y2="140.305435%" id="linearGradient-18">
            <stop stop-color="#FFC649" offset="0%"></stop>
            <stop stop-color="#FFC848" offset="0%"></stop>
            <stop stop-color="#FFCF45" offset="0%"></stop>
            <stop stop-color="#FFD243" offset="0%"></stop>
            <stop stop-color="#CD571B" offset="100%"></stop>
        </linearGradient>
        <linearGradient x1="72.0049087%" y1="38.4931069%" x2="32.1521706%" y2="57.3034988%" id="linearGradient-19">
            <stop stop-color="#E08C3C" offset="0%"></stop>
            <stop stop-color="#FFD06F" offset="100%"></stop>
        </linearGradient>
        <linearGradient x1="23.3235423%" y1="185.967261%" x2="82.1159472%" y2="-113.701976%" id="linearGradient-20">
            <stop stop-color="#F5942A" offset="0%"></stop>
            <stop stop-color="#F5D85D" offset="100%"></stop>
        </linearGradient>
        <linearGradient x1="34.5148467%" y1="113.852443%" x2="75.6239007%" y2="-26.0807556%" id="linearGradient-21">
            <stop stop-color="#E08C3C" offset="0%"></stop>
            <stop stop-color="#FFD06F" offset="100%"></stop>
        </linearGradient>
        <linearGradient x1="69.2413206%" y1="-27.1750895%" x2="18.9261981%" y2="174.630806%" id="linearGradient-22">
            <stop stop-color="#FFDE43" offset="20%"></stop>
            <stop stop-color="#FFD23E" offset="56%"></stop>
            <stop stop-color="#FFBD37" offset="100%"></stop>
        </linearGradient>
        <linearGradient x1="67.2275668%" y1="23.8030789%" x2="33.4138713%" y2="99.5096872%" id="linearGradient-23">
            <stop stop-color="#FFFFA0" offset="2%"></stop>
            <stop stop-color="#FFEB6A" offset="98%"></stop>
        </linearGradient>
        <filter x="-83.1%" y="-83.1%" width="266.2%" height="266.2%" filterUnits="objectBoundingBox" id="filter-24">
            <feOffset dx="0" dy="10" in="SourceAlpha" result="shadowOffsetOuter1"></feOffset>
            <feGaussianBlur stdDeviation="9.5" in="shadowOffsetOuter1" result="shadowBlurOuter1"></feGaussianBlur>
            <feColorMatrix values="0 0 0 0 0.996078431   0 0 0 0 0.764705882   0 0 0 0 0.0470588235  0 0 0 0.328206949 0" type="matrix" in="shadowBlurOuter1" result="shadowMatrixOuter1"></feColorMatrix>
            <feMerge>
                <feMergeNode in="shadowMatrixOuter1"></feMergeNode>
                <feMergeNode in="SourceGraphic"></feMergeNode>
            </feMerge>
        </filter>
        <linearGradient x1="105.221669%" y1="-52.3004644%" x2="17.190313%" y2="140.305435%" id="linearGradient-25">
            <stop stop-color="#FFC649" offset="0%"></stop>
            <stop stop-color="#FFC848" offset="0%"></stop>
            <stop stop-color="#FFCF45" offset="0%"></stop>
            <stop stop-color="#FFD243" offset="0%"></stop>
            <stop stop-color="#CD571B" offset="100%"></stop>
        </linearGradient>
        <linearGradient x1="72.0049087%" y1="38.5396385%" x2="32.1521706%" y2="57.2739649%" id="linearGradient-26">
            <stop stop-color="#E08C3C" offset="0%"></stop>
            <stop stop-color="#FFD06F" offset="100%"></stop>
        </linearGradient>
        <linearGradient x1="23.21523%" y1="185.967261%" x2="82.2463451%" y2="-113.701976%" id="linearGradient-27">
            <stop stop-color="#F5942A" offset="0%"></stop>
            <stop stop-color="#F5D85D" offset="100%"></stop>
        </linearGradient>
        <linearGradient x1="34.5148467%" y1="113.594236%" x2="75.6239007%" y2="-25.7731%" id="linearGradient-28">
            <stop stop-color="#E08C3C" offset="0%"></stop>
            <stop stop-color="#FFD06F" offset="100%"></stop>
        </linearGradient>
        <linearGradient x1="69.3194447%" y1="-27.1750895%" x2="18.8000316%" y2="174.630806%" id="linearGradient-29">
            <stop stop-color="#FFDE43" offset="20%"></stop>
            <stop stop-color="#FFD23E" offset="56%"></stop>
            <stop stop-color="#FFBD37" offset="100%"></stop>
        </linearGradient>
        <linearGradient x1="67.2275668%" y1="23.9090141%" x2="33.4138713%" y2="99.3094797%" id="linearGradient-30">
            <stop stop-color="#FFFFA0" offset="2%"></stop>
            <stop stop-color="#FFEB6A" offset="98%"></stop>
        </linearGradient>
    </defs>
    <g id="Page-1" stroke="none" stroke-width="1" fill="none" fill-rule="evenodd">
        <g id="main_tablet_menu">
            <g id="bg" transform="translate(-434.000000, -163.000000)">
                <g id="переход" transform="translate(81.000000, 1118.000000)" fill="#5A3EC4">
                    <path d="M50,146.127202 C333.957269,158.23772 511.597203,146.451389 582.919804,110.768211 C689.903704,57.2434424 1430.47652,112.484304 1512.77987,146.127202 C1567.64877,168.555801 1583.73474,136.089504 1561.03778,48.7283108 L50,30 L50,146.127202 Z" id="Path-3" opacity="0.178036644"></path>
                    <path d="M0,146.127202 C265.966847,155.79164 443.606781,144.005309 532.919804,110.768211 C711.449162,24.6913539 1380.47652,112.484304 1462.77987,146.127202 C1517.64877,168.555801 1533.73474,136.089504 1511.03778,48.7283108 L0,30 L0,146.127202 Z" id="Path-3-Copy-2" opacity="0.54296875" transform="translate(760.500000, 91.500000) scale(-1, 1) translate(-760.500000, -91.500000) "></path>
                    <path d="M50,116.127202 C300.014061,132.827456 478.458538,126.254975 585.333431,96.4097578 C745.645771,51.6419325 1430.47652,82.4843038 1512.77987,116.127202 C1567.64877,138.555801 1583.73474,106.089504 1561.03778,18.7283108 L50,0 L50,116.127202 Z" id="Path-3-Copy" opacity="0.896554129"></path>
                </g>
                <g id="фон">
                    <g id="background" transform="translate(130.835217, 107.531145)">
                        <mask id="mask-2" fill="white">
                            <use xlink:href="#path-1"></use>
                        </mask>
                        <use id="Rectangle" fill="#5A3EC4" xlink:href="#path-1"></use>
                        <path d="M1291.53345,228.005797 C1269.39633,214.161087 1245.29151,201.378707 1219.46393,189.788538 C1213.83404,187.230921 1208.51405,184.977083 1203.34901,182.801639 L1200.4738,181.576727 L1199.71626,181.263149 C1194.74061,179.205297 1189.97156,177.34343 1185.37467,175.550159 L1180.70892,173.72749 L1180.29572,173.570701 C1177.69598,172.590771 1175.04459,171.610841 1172.3932,170.630912 L1169.87955,169.709778 L1169.46635,169.552989 L1164.30131,167.710721 C1148.86168,161.928772 1130.24094,159.558862 1111.94503,161.047199 L1111.42852,161.047199 C1099.48064,162.064075 1088.11129,164.647147 1078.21732,168.592658 C1074.26666,170.155501 1070.54172,171.895513 1067.07805,173.796085 L1066.85423,173.913676 C1065.30472,174.736817 1063.82408,175.589356 1062.39508,176.481092 L1061.48259,177.059251 C1058.95172,178.636938 1055.80105,180.606596 1051.9617,183.291604 L1047.81246,186.172597 L1047.10657,186.652763 L1042.54412,189.915929 C1036.36328,194.345211 1030.21689,198.843089 1024.17379,203.321367 L1022.00448,204.938252 L1021.14364,205.594804 L1018.87102,207.417474 L1018.73328,207.515467 L1014.08475,211.151006 L1013.79206,211.386189 L1004.63273,218.637669 C1001.56814,221.048296 998.434679,223.664709 995.421739,226.192927 L993.70006,227.584427 L993.407374,227.819611 L983.593799,236.158813 C981.871023,237.625321 980.307126,239.150314 978.91083,240.725285 L977.860606,241.940398 C976.557795,243.389613 975.407967,244.881754 974.417246,246.408878 L968.4258,255.737809 L951.75994,281.215981 L951.604989,281.451165 C948.488748,286.233222 945.269207,291.064275 942.049666,295.758139 L937.142879,302.892027 C935.731101,304.900883 934.646443,306.566763 933.596218,308.183648 L932.56321,309.761334 C932.08114,310.476683 931.633503,311.201831 931.237517,311.926979 L931.099783,312.171962 C930.078397,313.9158 929.216403,315.688582 928.517263,317.483181 C926.389408,322.691366 925.911324,328.073867 927.105485,333.377641 L927.105485,333.505032 C930.481993,348.343999 947.301723,361.083591 971.404306,367.057826 L973.831875,367.684981 C974.813232,367.949562 975.811807,368.204343 976.793164,368.449326 L977.636787,368.66491 C979.237949,369.135277 980.873545,369.586044 982.491924,370.046611 C983.765967,370.399386 985.057227,370.752161 986.314053,371.124534 C988.276768,371.751689 990.291134,372.349446 992.288282,372.947203 C993.390157,373.280379 994.509249,373.603756 995.593907,373.927133 L996.127628,374.10352 C1007.55134,377.746307 1018.53173,381.82221 1028.9945,386.303645 C1038.85661,390.532013 1048.1455,395.176939 1056.78241,400.199049 L1056.95458,400.306841 L1059.86421,401.99232 L1062.48117,403.668 C1063.23871,404.157965 1064.01346,404.64793 1064.771,405.118296 L1065.52854,405.588662 L1068.54148,407.656314 C1069.2818,408.175677 1070.05656,408.69504 1070.83131,409.204603 L1073.96477,411.566234 L1075.25603,412.546163 C1075.80697,412.967533 1076.30626,413.398702 1076.82276,413.829871 C1077.33926,414.261041 1078.14845,414.937192 1078.83713,415.495752 C1090.93823,425.69789 1099.28934,437.187584 1103.38828,449.27393 C1105.29743,455.043608 1106.00246,460.921448 1105.48873,466.785274 C1105.22158,469.524341 1104.64651,472.250859 1103.76705,474.948089 C1103.66375,475.251867 1103.56045,475.545846 1103.47436,475.849624 C1102.66412,478.337076 1101.51282,480.784586 1100.031,483.169699 C1098.05706,486.448892 1095.75779,489.661692 1093.14428,492.792609 C1090.30351,496.143969 1086.82572,499.799106 1082.81421,503.65023 C1073.95516,512.025034 1064.09541,520.043418 1053.30461,527.648709 L1052.68481,528.099477 C1031.54258,543.494173 1005.59687,559.516024 971.025537,578.546259 C946.405516,592.098687 920.73527,605.288542 893.429429,619.213343 L872.872572,629.796584 C836.596779,648.415249 801.26791,666.886924 767.850105,687.29886 C732.095935,708.836061 699.827214,732.164683 671.436037,757.001262 C641.88867,782.500265 617.214579,809.723826 597.834226,838.208038 L591.30906,847.958339 C590.87864,848.595293 590.482653,849.242047 590.103884,849.918199 L581.495485,864.842528 C580.221442,867.04737 579.360602,868.928835 578.706364,870.310536 C578.568629,870.633913 578.413678,870.95729 578.258727,871.290466 L577.948824,871.907822 L573.196988,881.765915 C571.73356,884.705704 570.717769,887.312317 569.874146,889.605353 L566.069234,899.865217 C566.077063,899.917385 566.077063,899.969838 566.069234,900.022006 L565.759332,900.864745 C565.105093,902.579622 564.227037,904.892256 563.538365,907.655658 L560.577075,917.778332 C560.577075,917.895924 560.577075,918.023315 560.490991,918.150705 C560.370474,918.591674 560.232739,919.022843 560.112222,919.463811 C559.699019,920.894509 559.182515,922.677981 558.752095,924.755432 C558.752095,924.990615 558.752095,925.225798 558.61436,925.470781 L557.667437,930.830996 C557.667437,930.830996 557.667437,930.909391 557.667437,930.948588 L555.739155,941.610223 C555.635854,942.168783 555.566987,942.717544 555.49812,943.276104 C555.257085,945.706329 555.0677,948.175752 554.895532,950.57658 C554.792231,951.879887 554.706147,953.183193 554.58563,954.496299 C554.58563,954.682486 554.58563,954.868672 554.58563,955.054859 C554.58563,955.887799 554.465112,956.71094 554.396245,957.534081 C554.172427,960.47387 553.879741,964.060413 554.051909,968.117322 L554.051909,973.291351 C554.051909,973.771517 554.051909,974.271281 554.051909,974.741647 L554.447895,980.033268 C554.654497,983.472821 555.084917,986.608596 555.463686,989.391597 C555.601421,990.371526 555.739155,991.351456 555.859673,992.331386 C555.859673,992.527372 555.859673,992.713558 555.859673,992.909544 C556.41061,996.633277 557.116499,1000.06303 557.787954,1003.37519 L558.149507,1005.19786 L558.356108,1006.17779 C560.542642,1015.20295 563.021861,1023.33636 565.948716,1031.03861 C572.23196,1047.73892 580.868282,1064.12406 591.773913,1080.0351 C591.773913,1080.09389 591.773913,1080.15269 591.894431,1080.20168 C602.92857,1096.42601 616.335869,1112.09456 631.975136,1127.04233 L632.681025,1127.71848 C636.124384,1130.95225 639.96373,1134.57799 644.440098,1138.41931 L645.869092,1139.66382 C647.590772,1141.10432 649.174717,1142.53501 650.896397,1143.94611 C651.034131,1144.04411 651.154649,1144.1519 651.275167,1144.24989 L660.245118,1151.31518 C660.692755,1151.65816 661.140392,1152.01093 661.605245,1152.35391 L664.669835,1154.66654 L664.824787,1154.77434 L671.022834,1159.4094 C671.453254,1159.73278 671.90089,1160.05616 672.348527,1160.38933 L672.744514,1160.67351 C677.289748,1163.86808 681.972717,1167.17045 687.241057,1170.6002 C708.842497,1184.789 732.843468,1197.73412 758.89737,1209.24863 L759.086755,1209.33682 C786.451169,1221.32964 815.991086,1231.62193 847.202326,1240.03802 L847.460578,1240.09682 C878.048827,1248.16613 909.879852,1254.61199 942.548953,1259.35244 C972.126523,1263.66696 1002.1318,1266.9687 1032.40342,1269.23993 C1054.90578,1271.0528 1076.28904,1272.29731 1096.96641,1273.49282 L1112.25493,1274.38456 C1134.23034,1275.6894 1156.08776,1271.36704 1171.90771,1262.58809 C1187.72766,1253.80913 1195.87309,1241.48202 1194.13802,1228.94522 L1174.99294,1090.34396 C1173.24407,1077.56515 1161.41708,1065.92544 1142.82916,1058.68951 C1124.24124,1051.45357 1100.89423,1049.40068 1079.33641,1053.10663 C1043.18114,1059.31938 1012.5008,1062.71974 985.608165,1063.48408 L985.315479,1063.48408 C980.288174,1063.64087 974.778799,1063.64087 967.478876,1063.48408 C963.002509,1063.35669 958.095722,1063.06271 952.087059,1062.55315 C942.321274,1061.54863 932.805537,1059.8738 923.74821,1057.56531 C913.15897,1054.83579 903.139586,1051.44044 893.877066,1047.44263 C883.436929,1042.8798 873.832899,1037.72864 865.211097,1032.06754 C864.866761,1031.85195 864.539642,1031.63637 864.195306,1031.43058 C863.85097,1031.2248 862.473626,1030.23507 861.526702,1029.58831 C860.579778,1028.94156 859.718939,1028.3242 858.806448,1027.69705 C857.893958,1027.06989 857.170852,1026.46234 856.327229,1025.84498 C855.018753,1024.86505 853.761926,1023.93412 852.88387,1023.29717 C852.005813,1022.66021 851.317141,1022.03306 850.542385,1021.4059 C849.165041,1020.29858 847.753264,1019.16186 847.099026,1018.46611 L846.703039,1018.04474 L843.569582,1015.25194 L840.573859,1012.37095 C837.1305,1009.09798 833.876525,1005.57024 830.536466,1001.59172 C827.471876,997.760197 824.372852,993.752284 822.065802,990.04815 L821.8592,989.714973 C816.76167,981.864776 812.957602,973.761812 810.496113,965.510709 L809.549189,962.218145 L808.826084,958.925581 C808.826084,958.563007 808.671133,958.190634 808.567832,957.82806 C808.464531,957.465486 808.344014,956.279771 808.25793,955.476229 C808.137412,954.496299 808.034111,953.516369 807.896377,952.605035 C807.758643,951.6937 807.672559,950.782365 807.552041,949.871031 C807.362656,948.557925 807.207705,947.303615 807.104404,946.235491 L807.104404,938.59204 C807.001103,921.315879 812.389961,902.452231 823.098809,882.53026 C823.339845,882.089292 823.563663,881.648323 823.770265,881.197555 C824.854923,878.924119 826.800421,875.905935 828.935304,872.711364 C830.08309,870.954023 831.230877,869.199949 832.378663,867.449141 C832.516398,867.233557 832.619699,867.05717 832.740216,866.841585 C832.998468,866.420215 833.893742,865.224701 834.54798,864.352563 C835.202218,863.480426 836.063058,862.333908 836.803381,861.314781 L839.075998,858.218203 C839.988488,856.963893 840.900978,855.699784 841.865119,854.445474 C849.468955,845.095605 857.898736,835.970603 867.122162,827.105435 C868.275687,826.037311 869.411996,824.959388 870.565521,823.881466 C871.925648,822.587959 873.199691,821.363046 874.008881,820.6183 L886.370542,809.976263 L899.145406,799.912385 C900.333365,799.010849 901.900093,797.952525 903.535689,796.727613 C904.792515,795.845676 906.032125,794.95394 907.254517,794.062204 C908.47691,793.170468 909.905904,792.17094 911.214381,791.220408 C912.522858,790.269876 914.072369,789.133158 914.915993,788.603996 C915.122594,788.457006 915.346412,788.310017 915.570231,788.172826 L925.90031,781.313318 L928.15571,779.814026 C928.620564,779.500448 929.0682,779.186871 929.533054,778.892892 L945.028172,769.446369 L955.68537,763.312009 L956.219091,762.998432 C961.38413,759.990048 967.100107,756.864072 973.194853,753.561709 L977.585137,751.180479 C979.306817,750.20055 981.4417,749.142225 983.714317,747.985908 L988.225118,745.653676 L992.753136,743.311644 C994.974103,742.165126 997.074552,741.077404 998.916749,740.175868 C1001.60257,738.872562 1004.25396,737.569255 1006.92256,736.25615 C1012.53524,733.502547 1017.85523,730.905733 1023.33017,728.328518 C1054.06215,713.786361 1086.27478,699.841961 1120.38126,685.084219 L1129.9538,680.939116 C1166.22959,665.201445 1203.72778,648.924812 1240.91606,630.521732 C1262.988,619.742505 1282.32246,609.433644 1300.03854,598.948396 L1300.1935,598.850403 C1310.76461,592.549455 1320.85365,586.023123 1330.15072,579.467393 C1340.46241,572.283138 1350.08898,564.788956 1358.98886,557.017203 C1368.53076,548.680124 1377.12239,540.002965 1384.71076,531.039266 C1392.50733,521.915929 1399.25893,512.51511 1404.92328,502.895684 C1416.09232,483.888639 1423.26436,464.195168 1426.28932,444.227292 L1426.28932,444.1097 C1432.22462,404.366684 1422.67154,364.367953 1398.31203,326.9689 C1374.82831,291.054476 1338.98294,257.746664 1291.53345,228.005797 Z" id="Path-Copy" fill="url(#linearGradient-3)" fill-rule="nonzero" opacity="0.206263951" mask="url(#mask-2)" transform="translate(991.000000, 717.613343) rotate(22.000000) translate(-991.000000, -717.613343) "></path>
                        <path d="M580.533446,380.005797 C558.396327,366.161087 534.291514,353.378707 508.46393,341.788538 C502.834037,339.230921 497.514047,336.977083 492.349007,334.801639 L489.473802,333.576727 L488.716263,333.263149 C483.740608,331.205297 478.971555,329.34343 474.37467,327.550159 L469.708918,325.72749 L469.295715,325.570701 C466.695979,324.590771 464.044592,323.610841 461.393205,322.630912 L458.879552,321.709778 L458.466349,321.552989 L453.30131,319.710721 C437.861677,313.928772 419.240944,311.558862 400.945027,313.047199 L400.428524,313.047199 C388.480641,314.064075 377.111294,316.647147 367.21732,320.592658 C363.266665,322.155501 359.541723,323.895513 356.078052,325.796085 L355.854234,325.913676 C354.304722,326.736817 352.824077,327.589356 351.395083,328.481092 L350.482593,329.059251 C347.951724,330.636938 344.80105,332.606596 340.961704,335.291604 L336.812455,338.172597 L336.106567,338.652763 L331.544115,341.915929 C325.363285,346.345211 319.216888,350.843089 313.173792,355.321367 L311.004475,356.938252 L310.143635,357.594804 L307.871018,359.417474 L307.733284,359.515467 L303.084748,363.151006 L302.792063,363.386189 L293.632726,370.637669 C290.568136,373.048296 287.434679,375.664709 284.421739,378.192927 L282.70006,379.584427 L282.407374,379.819611 L272.593799,388.158813 C270.871023,389.625321 269.307126,391.150314 267.91083,392.725285 L266.860606,393.940398 C265.557795,395.389613 264.407967,396.881754 263.417246,398.408878 L257.4258,407.737809 L240.75994,433.215981 L240.604989,433.451165 C237.488748,438.233222 234.269207,443.064275 231.049666,447.758139 L226.142879,454.892027 C224.731101,456.900883 223.646443,458.566763 222.596218,460.183648 L221.56321,461.761334 C221.08114,462.476683 220.633503,463.201831 220.237517,463.926979 L220.099783,464.171962 C219.078397,465.9158 218.216403,467.688582 217.517263,469.483181 C215.389408,474.691366 214.911324,480.073867 216.105485,485.377641 L216.105485,485.505032 C219.481993,500.343999 236.301723,513.083591 260.404306,519.057826 L262.831875,519.684981 C263.813232,519.949562 264.811807,520.204343 265.793164,520.449326 L266.636787,520.66491 C268.237949,521.135277 269.873545,521.586044 271.491924,522.046611 C272.765967,522.399386 274.057227,522.752161 275.314053,523.124534 C277.276768,523.751689 279.291134,524.349446 281.288282,524.947203 C282.390157,525.280379 283.509249,525.603756 284.593907,525.927133 L285.127628,526.10352 C296.55134,529.746307 307.531734,533.82221 317.994495,538.303645 C327.856614,542.532013 337.145496,547.176939 345.782407,552.199049 L345.954575,552.306841 L348.864214,553.99232 L351.481167,555.668 C352.238706,556.157965 353.013462,556.64793 353.771001,557.118296 L354.52854,557.588662 L357.54148,559.656314 C358.281802,560.175677 359.056558,560.69504 359.831314,561.204603 L362.964771,563.566234 L364.256031,564.546163 C364.806969,564.967533 365.306256,565.398702 365.82276,565.829871 C366.339264,566.261041 367.148453,566.937192 367.837125,567.495752 C379.938235,577.69789 388.289343,589.187584 392.388279,601.27393 C394.297426,607.043608 395.002461,612.921448 394.488728,618.785274 C394.221576,621.524341 393.646506,624.250859 392.767048,626.948089 C392.663748,627.251867 392.560447,627.545846 392.474363,627.849624 C391.664123,630.337076 390.512816,632.784586 389.031003,635.169699 C387.057057,638.448892 384.757788,641.661692 382.144284,644.792609 C379.303513,648.143969 375.825719,651.799106 371.814205,655.65023 C362.955164,664.025034 353.095406,672.043418 342.304614,679.648709 L341.684809,680.099477 C320.542581,695.494173 294.596867,711.516024 260.025537,730.546259 C235.405516,744.098687 209.73527,757.288542 182.429429,771.213343 L161.872572,781.796584 C125.596779,800.415249 90.2679097,818.886924 56.850105,839.29886 C21.0959354,860.836061 -11.1727856,884.164683 -39.5639631,909.001262 C-69.1113296,934.500265 -93.7854211,961.723826 -113.165774,990.208038 L-119.69094,999.958339 C-120.12136,1000.59529 -120.517347,1001.24205 -120.896116,1001.9182 L-129.504515,1016.84253 C-130.778558,1019.04737 -131.639398,1020.92884 -132.293636,1022.31054 C-132.431371,1022.63391 -132.586322,1022.95729 -132.741273,1023.29047 L-133.051176,1023.90782 L-137.803012,1033.76591 C-139.26644,1036.7057 -140.282231,1039.31232 -141.125854,1041.60535 L-144.930766,1051.86522 C-144.922937,1051.91738 -144.922937,1051.96984 -144.930766,1052.02201 L-145.240668,1052.86475 C-145.894907,1054.57962 -146.772963,1056.89226 -147.461635,1059.65566 L-150.422925,1069.77833 C-150.422925,1069.89592 -150.422925,1070.02331 -150.509009,1070.15071 C-150.629526,1070.59167 -150.767261,1071.02284 -150.887778,1071.46381 C-151.300981,1072.89451 -151.817485,1074.67798 -152.247905,1076.75543 C-152.247905,1076.99061 -152.247905,1077.2258 -152.38564,1077.47078 L-153.332563,1082.831 C-153.332563,1082.831 -153.332563,1082.90939 -153.332563,1082.94859 L-155.260845,1093.61022 C-155.364146,1094.16878 -155.433013,1094.71754 -155.50188,1095.2761 C-155.742915,1097.70633 -155.9323,1100.17575 -156.104468,1102.57658 C-156.207769,1103.87989 -156.293853,1105.18319 -156.41437,1106.4963 C-156.41437,1106.68249 -156.41437,1106.86867 -156.41437,1107.05486 C-156.41437,1107.8878 -156.534888,1108.71094 -156.603755,1109.53408 C-156.827573,1112.47387 -157.120259,1116.06041 -156.948091,1120.11732 L-156.948091,1125.29135 C-156.948091,1125.77152 -156.948091,1126.27128 -156.948091,1126.74165 L-156.552105,1132.03327 C-156.345503,1135.47282 -155.915083,1138.6086 -155.536314,1141.3916 C-155.398579,1142.37153 -155.260845,1143.35146 -155.140327,1144.33139 C-155.140327,1144.52737 -155.140327,1144.71356 -155.140327,1144.90954 C-154.58939,1148.63328 -153.883501,1152.06303 -153.212046,1155.37519 L-152.850493,1157.19786 L-152.643892,1158.17779 C-150.457358,1167.20295 -147.978139,1175.33636 -145.051284,1183.03861 C-138.76804,1199.73892 -130.131718,1216.12406 -119.226087,1232.0351 C-119.226087,1232.09389 -119.226087,1232.15269 -119.105569,1232.20168 C-108.07143,1248.42601 -94.664131,1264.09456 -79.0248638,1279.04233 L-78.3189751,1279.71848 C-74.8756156,1282.95225 -71.0362696,1286.57799 -66.5599022,1290.41931 L-65.130908,1291.66382 C-63.4092282,1293.10432 -61.8252828,1294.53501 -60.103603,1295.94611 C-59.9658686,1296.04411 -59.845351,1296.1519 -59.7248334,1296.24989 L-50.7548817,1303.31518 C-50.307245,1303.65816 -49.8596082,1304.01093 -49.3947547,1304.35391 L-46.3301647,1306.66654 L-46.1752135,1306.77434 L-39.9771662,1311.4094 C-39.5467463,1311.73278 -39.0991096,1312.05616 -38.6514728,1312.38933 L-38.2554865,1312.67351 C-33.7102518,1315.86808 -29.0272828,1319.17045 -23.7589426,1322.6002 C-2.15750348,1336.789 21.8434676,1349.73412 47.8973701,1361.24863 L48.0867549,1361.33682 C75.451169,1373.32964 104.991086,1383.62193 136.202326,1392.03802 L136.460578,1392.09682 C167.048827,1400.16613 198.879852,1406.61199 231.548953,1411.35244 C261.126523,1415.66696 291.131799,1418.9687 321.403421,1421.23993 C343.905776,1423.0528 365.289039,1424.29731 385.966413,1425.49282 L401.25493,1426.38456 C423.230337,1427.6894 445.087763,1423.36704 460.907713,1414.58809 C476.727662,1405.80913 484.873088,1393.48202 483.138021,1380.94522 L463.992941,1242.34396 C462.244069,1229.56515 450.417078,1217.92544 431.829157,1210.68951 C413.241236,1203.45357 389.894228,1201.40068 368.336412,1205.10663 C332.181137,1211.31938 301.500803,1214.71974 274.608165,1215.48408 L274.315479,1215.48408 C269.288174,1215.64087 263.778799,1215.64087 256.478876,1215.48408 C252.002509,1215.35669 247.095722,1215.06271 241.087059,1214.55315 C231.321274,1213.54863 221.805537,1211.8738 212.74821,1209.56531 C202.15897,1206.83579 192.139586,1203.44044 182.877066,1199.44263 C172.436929,1194.8798 162.832899,1189.72864 154.211097,1184.06754 C153.866761,1183.85195 153.539642,1183.63637 153.195306,1183.43058 C152.85097,1183.2248 151.473626,1182.23507 150.526702,1181.58831 C149.579778,1180.94156 148.718939,1180.3242 147.806448,1179.69705 C146.893958,1179.06989 146.170852,1178.46234 145.327229,1177.84498 C144.018753,1176.86505 142.761926,1175.93412 141.88387,1175.29717 C141.005813,1174.66021 140.317141,1174.03306 139.542385,1173.4059 C138.165041,1172.29858 136.753264,1171.16186 136.099026,1170.46611 L135.703039,1170.04474 L132.569582,1167.25194 L129.573859,1164.37095 C126.1305,1161.09798 122.876525,1157.57024 119.536466,1153.59172 C116.471876,1149.7602 113.372852,1145.75228 111.065802,1142.04815 L110.8592,1141.71497 C105.76167,1133.86478 101.957602,1125.76181 99.4961134,1117.51071 L98.5491895,1114.21815 L97.826084,1110.92558 C97.826084,1110.56301 97.6711328,1110.19063 97.567832,1109.82806 C97.4645312,1109.46549 97.3440136,1108.27977 97.2579297,1107.47623 C97.1374121,1106.4963 97.0341113,1105.51637 96.8963769,1104.60503 C96.7586425,1103.6937 96.6725585,1102.78237 96.5520409,1101.87103 C96.3626562,1100.55792 96.207705,1099.30361 96.1044042,1098.23549 L96.1044042,1090.59204 C96.0011034,1073.31588 101.389961,1054.45223 112.098809,1034.53026 C112.339845,1034.08929 112.563663,1033.64832 112.770265,1033.19756 C113.854923,1030.92412 115.800421,1027.90593 117.935304,1024.71136 C119.08309,1022.95402 120.230877,1021.19995 121.378663,1019.44914 C121.516398,1019.23356 121.619699,1019.05717 121.740216,1018.84158 C121.998468,1018.42022 122.893742,1017.2247 123.54798,1016.35256 C124.202218,1015.48043 125.063058,1014.33391 125.803381,1013.31478 L128.075998,1010.2182 C128.988488,1008.96389 129.900978,1007.69978 130.865119,1006.44547 C138.468955,997.095605 146.898736,987.970603 156.122162,979.105435 C157.275687,978.037311 158.411996,976.959388 159.565521,975.881466 C160.925648,974.587959 162.199691,973.363046 163.008881,972.6183 L175.370542,961.976263 L188.145406,951.912385 C189.333365,951.010849 190.900093,949.952525 192.535689,948.727613 C193.792515,947.845676 195.032125,946.95394 196.254517,946.062204 C197.47691,945.170468 198.905904,944.17094 200.214381,943.220408 C201.522858,942.269876 203.072369,941.133158 203.915993,940.603996 C204.122594,940.457006 204.346412,940.310017 204.570231,940.172826 L214.90031,933.313318 L217.15571,931.814026 C217.620564,931.500448 218.0682,931.186871 218.533054,930.892892 L234.028172,921.446369 L244.68537,915.312009 L245.219091,914.998432 C250.38413,911.990048 256.100107,908.864072 262.194853,905.561709 L266.585137,903.180479 C268.306817,902.20055 270.4417,901.142225 272.714317,899.985908 L277.225118,897.653676 L281.753136,895.311644 C283.974103,894.165126 286.074552,893.077404 287.916749,892.175868 C290.60257,890.872562 293.253957,889.569255 295.92256,888.25615 C301.535236,885.502547 306.855227,882.905733 312.330169,880.328518 C343.062153,865.786361 375.274782,851.841961 409.381258,837.084219 L418.953798,832.939116 C455.229591,817.201445 492.727777,800.924812 529.91606,782.521732 C551.987995,771.742505 571.322459,761.433644 589.038544,750.948396 L589.193495,750.850403 C599.764609,744.549455 609.853653,738.023123 619.150724,731.467393 C629.46241,724.283138 639.088976,716.788956 647.98886,709.017203 C657.530756,700.680124 666.122392,692.002965 673.710756,683.039266 C681.507329,673.915929 688.25893,664.51511 693.923277,654.895684 C705.092325,635.888639 712.264357,616.195168 715.289323,596.227292 L715.289323,596.1097 C721.224625,556.366684 711.671537,516.367953 687.312027,478.9689 C663.828314,443.054476 627.982941,409.746664 580.533446,380.005797 Z" id="Path-Copy-3" fill="url(#linearGradient-3)" fill-rule="nonzero" opacity="0.206263951" mask="url(#mask-2)" transform="translate(280.000000, 869.613343) scale(-1, 1) rotate(22.000000) translate(-280.000000, -869.613343) "></path>
                        <path d="M1504.12415,577.392454 C1491.53588,563.547744 1477.82868,550.765364 1463.14183,539.175195 C1459.94039,536.617578 1456.91518,534.36374 1453.97808,532.188296 L1452.3431,530.963384 L1451.91232,530.649806 C1449.08292,528.591954 1446.371,526.730088 1443.75698,524.936816 L1441.1038,523.114147 L1440.86883,522.957358 C1439.39049,521.977428 1437.88278,520.997499 1436.37507,520.017569 L1434.94568,519.096435 L1434.71071,518.939646 L1431.77361,517.097378 C1422.99387,511.315429 1412.40519,508.945519 1402.00122,510.433856 L1401.70751,510.433856 C1394.91335,511.450732 1388.44817,514.033804 1382.82196,517.979315 C1380.57542,519.542158 1378.45723,521.28217 1376.48762,523.182742 L1376.36034,523.300333 C1375.47922,524.123474 1374.63725,524.976013 1373.82465,525.867749 L1373.30576,526.445908 C1371.86658,528.023595 1370.07495,529.993254 1367.89171,532.678261 L1365.53224,535.559254 L1365.13084,536.03942 L1362.5364,539.302586 C1359.02167,543.731868 1355.52652,548.229746 1352.09012,552.708025 L1350.85653,554.324909 L1350.36702,554.981462 L1349.07469,556.804131 L1348.99637,556.902124 L1346.35298,560.537663 L1346.18655,560.772846 L1340.97809,568.024326 C1339.23541,570.434953 1337.45357,573.051366 1335.74027,575.579584 L1334.76123,576.971085 L1334.5948,577.206268 L1329.01431,585.54547 C1328.03465,587.011978 1327.14534,588.536971 1326.35134,590.111942 L1325.75413,591.327055 C1325.01328,592.77627 1324.35944,594.268411 1323.79606,595.795535 L1320.38903,605.124466 L1310.91199,630.602639 L1310.82387,630.837822 C1309.05183,635.619879 1307.22103,640.450932 1305.39024,645.144796 L1302.6,652.278684 C1301.79719,654.28754 1301.1804,655.953421 1300.58319,657.570305 L1299.99577,659.147992 C1299.72164,659.86334 1299.46709,660.588488 1299.24191,661.313636 L1299.16359,661.558619 C1298.58278,663.302457 1298.09261,665.075239 1297.69504,666.869838 C1296.48504,672.078023 1296.21318,677.460524 1296.89224,682.764298 L1296.89224,682.891689 C1298.81229,697.730656 1308.37682,710.470248 1322.08275,716.444483 L1323.46319,717.071638 C1324.02124,717.336219 1324.58908,717.591 1325.14713,717.835983 L1325.62685,718.051567 C1326.53735,718.521934 1327.46744,718.972701 1328.38773,719.433268 C1329.11221,719.786043 1329.84649,720.138818 1330.56118,720.511191 C1331.67728,721.138346 1332.82275,721.736103 1333.95842,722.33386 C1334.58501,722.667036 1335.22138,722.990413 1335.83817,723.31379 L1336.14167,723.490177 C1342.63776,727.132964 1348.88176,731.208867 1354.83141,735.690303 C1360.4395,739.918671 1365.72162,744.563596 1370.633,749.585706 L1370.7309,749.693498 L1372.38547,751.378977 L1373.8736,753.054657 C1374.30438,753.544622 1374.74494,754.034587 1375.17571,754.504953 L1375.60649,754.97532 L1377.3198,757.042971 C1377.74078,757.562334 1378.18135,758.081697 1378.62191,758.59126 L1380.40375,760.952891 L1381.13803,761.932821 C1381.45132,762.35419 1381.73524,762.785359 1382.02895,763.216529 C1382.32266,763.647698 1382.7828,764.323849 1383.17441,764.882409 C1390.05571,775.084547 1394.80457,786.574241 1397.13543,798.660587 C1398.22106,804.430265 1398.62198,810.308105 1398.32985,816.171931 C1398.17793,818.910998 1397.85092,821.637516 1397.35081,824.334746 C1397.29207,824.638524 1397.23333,824.932503 1397.18438,825.236281 C1396.72363,827.723733 1396.06894,830.171243 1395.22631,832.556356 C1394.10383,835.835549 1392.79635,839.048349 1391.31018,842.179266 C1389.69477,845.530626 1387.71713,849.185764 1385.43598,853.036887 C1380.39829,861.411692 1374.79154,869.430075 1368.65535,877.035366 L1368.3029,877.486134 C1356.28038,892.88083 1341.52635,908.902681 1321.86737,927.932916 C1307.8672,941.485345 1293.26981,954.675199 1277.74235,968.6 L1266.0527,979.183241 C1245.42447,997.801906 1225.33471,1016.27358 1206.33168,1036.68552 C1186.00008,1058.22272 1167.65047,1081.55134 1151.50583,1106.38792 C1134.70373,1131.88692 1120.67281,1159.11048 1109.65217,1187.5947 L1105.94164,1197.345 C1105.69688,1197.98195 1105.4717,1198.6287 1105.25631,1199.30486 L1100.36115,1214.22919 C1099.63666,1216.43403 1099.14715,1218.31549 1098.77511,1219.69719 C1098.69679,1220.02057 1098.60868,1220.34395 1098.52057,1220.67712 L1098.34434,1221.29448 L1095.64221,1231.15257 C1094.81003,1234.09236 1094.2324,1236.69897 1093.75267,1238.99201 L1091.58901,1249.25187 C1091.59346,1249.30404 1091.59346,1249.35649 1091.58901,1249.40866 L1091.41279,1250.2514 C1091.04075,1251.96628 1090.54145,1254.27891 1090.14983,1257.04232 L1088.4659,1267.16499 C1088.4659,1267.28258 1088.4659,1267.40997 1088.41694,1267.53736 C1088.34841,1267.97833 1088.27009,1268.4095 1088.20156,1268.85047 C1087.96659,1270.28117 1087.67288,1272.06464 1087.42812,1274.14209 C1087.42812,1274.37727 1087.42812,1274.61246 1087.3498,1274.85744 L1086.81133,1280.21765 C1086.81133,1280.21765 1086.81133,1280.29605 1086.81133,1280.33524 L1085.71481,1290.99688 C1085.65607,1291.55544 1085.61691,1292.1042 1085.57775,1292.66276 C1085.44068,1295.09299 1085.33299,1297.56241 1085.23509,1299.96324 C1085.17635,1301.26654 1085.12739,1302.56985 1085.05886,1303.88296 C1085.05886,1304.06914 1085.05886,1304.25533 1085.05886,1304.44152 C1085.05886,1305.27446 1084.99033,1306.0976 1084.95117,1306.92074 C1084.82389,1309.86053 1084.65746,1313.44707 1084.75536,1317.50398 L1084.75536,1322.67801 C1084.75536,1323.15817 1084.75536,1323.65794 1084.75536,1324.1283 L1084.98054,1329.41992 C1085.09802,1332.85948 1085.34278,1335.99525 1085.55817,1338.77825 C1085.63649,1339.75818 1085.71481,1340.73811 1085.78335,1341.71804 C1085.78335,1341.91403 1085.78335,1342.10022 1085.78335,1342.2962 C1086.09664,1346.01993 1086.49804,1349.44969 1086.87986,1352.76185 L1087.08546,1354.58452 L1087.20294,1355.56445 C1088.44632,1364.5896 1089.85612,1372.72302 1091.52048,1380.42527 C1095.09345,1397.12558 1100.00449,1413.51072 1106.20597,1429.42175 C1106.20597,1429.48055 1106.20597,1429.53935 1106.27451,1429.58834 C1112.54907,1445.81266 1120.17313,1461.48121 1129.0664,1476.42898 L1129.4678,1477.10513 C1131.42587,1480.3389 1133.60911,1483.96464 1136.15459,1487.80597 L1136.96719,1489.05048 C1137.94623,1490.49097 1138.84694,1491.92167 1139.82597,1493.33277 C1139.90429,1493.43076 1139.97282,1493.53856 1140.04136,1493.63655 L1145.14212,1500.70184 C1145.39667,1501.04482 1145.65121,1501.39759 1145.91555,1501.74057 L1147.65823,1504.0532 L1147.74635,1504.16099 L1151.27086,1508.79606 C1151.51562,1509.11944 1151.77017,1509.44282 1152.02472,1509.77599 L1152.2499,1510.06017 C1154.83454,1513.25474 1157.49751,1516.5571 1160.49336,1519.98686 C1172.77701,1534.17566 1186.42516,1547.12078 1201.24071,1558.63529 L1201.3484,1558.72348 C1216.90917,1570.7163 1233.70704,1581.00858 1251.45531,1589.42468 L1251.60217,1589.48348 C1268.99617,1597.55279 1287.09688,1603.99865 1305.67416,1608.73909 C1322.49344,1613.05361 1339.55594,1616.35536 1356.76989,1618.62659 C1369.56586,1620.43946 1381.72545,1621.68397 1393.48363,1622.87948 L1402.17745,1623.77122 C1414.67376,1625.07606 1427.10298,1620.7537 1436.09899,1611.97474 C1445.09501,1603.19579 1449.7269,1590.86868 1448.74026,1578.33187 L1437.85341,1439.73061 C1436.85891,1426.9518 1430.1335,1415.3121 1419.56348,1408.07616 C1408.99346,1400.84023 1395.71718,1398.78734 1383.45833,1402.49328 C1362.89864,1408.70604 1345.45227,1412.1064 1330.15978,1412.87074 L1329.99334,1412.87074 C1327.13456,1413.02753 1324.00166,1413.02753 1319.85056,1412.87074 C1317.30507,1412.74335 1314.51483,1412.44937 1311.098,1411.93981 C1305.54469,1410.93529 1300.13357,1409.26045 1294.98312,1406.95196 C1288.96155,1404.22245 1283.26403,1400.8271 1277.9969,1396.82929 C1272.06012,1392.26645 1266.59878,1387.1153 1261.696,1381.45419 C1261.50019,1381.23861 1261.31418,1381.02302 1261.11837,1380.81724 C1260.92256,1380.61145 1260.13934,1379.62172 1259.60087,1378.97497 C1259.0624,1378.32822 1258.57288,1377.71086 1258.054,1377.08371 C1257.53511,1376.45655 1257.12391,1375.849 1256.64419,1375.23164 C1255.90012,1374.25171 1255.18543,1373.32078 1254.68612,1372.68382 C1254.18681,1372.04687 1253.7952,1371.41971 1253.35464,1370.79256 C1252.57141,1369.68524 1251.7686,1368.54852 1251.39657,1367.85277 L1251.17139,1367.4314 L1249.38955,1364.6386 L1247.68604,1361.75761 C1245.72797,1358.48464 1243.8776,1354.95689 1241.97827,1350.97838 C1240.23559,1347.14685 1238.47334,1343.13894 1237.16143,1339.43481 L1237.04395,1339.10163 C1234.14524,1331.25143 1231.98205,1323.14847 1230.58233,1314.89737 L1230.04386,1311.6048 L1229.63267,1308.31224 C1229.63267,1307.94966 1229.54455,1307.57729 1229.48581,1307.21472 C1229.42707,1306.85214 1229.35854,1305.66643 1229.30959,1304.86289 C1229.24105,1303.88296 1229.18231,1302.90303 1229.10399,1301.99169 C1229.02567,1301.08036 1228.97671,1300.16902 1228.90818,1299.25769 C1228.80049,1297.94458 1228.71238,1296.69027 1228.65363,1295.62215 L1228.65363,1287.9787 C1228.59489,1270.70254 1231.65927,1251.83889 1237.74885,1231.91692 C1237.88592,1231.47595 1238.01319,1231.03498 1238.13067,1230.58421 C1238.74746,1228.31078 1239.85377,1225.29259 1241.06777,1222.09802 C1241.72046,1220.34068 1242.37315,1218.58661 1243.02584,1216.8358 C1243.10416,1216.62021 1243.1629,1216.44383 1243.23144,1216.22824 C1243.37829,1215.80687 1243.88739,1214.61136 1244.25942,1213.73922 C1244.63145,1212.86708 1245.12097,1211.72057 1245.54195,1210.70144 L1246.83428,1207.60486 C1247.35316,1206.35055 1247.87205,1205.08644 1248.42031,1203.83213 C1252.74423,1194.48226 1257.53783,1185.35726 1262.78272,1176.49209 C1263.43868,1175.42397 1264.08484,1174.34605 1264.74079,1173.26812 C1265.51423,1171.97462 1266.23871,1170.7497 1266.69886,1170.00496 L1273.72831,1159.36292 L1280.99274,1149.29904 C1281.66827,1148.39751 1282.55919,1147.33918 1283.48927,1146.11427 C1284.20397,1145.23233 1284.90887,1144.3406 1285.60398,1143.44886 C1286.2991,1142.55713 1287.1117,1141.5576 1287.85576,1140.60707 C1288.59983,1139.65653 1289.48096,1138.51981 1289.96068,1137.99065 C1290.07817,1137.84366 1290.20544,1137.69667 1290.33271,1137.55948 L1296.20691,1130.69998 L1297.48945,1129.20068 C1297.75378,1128.88711 1298.00833,1128.57353 1298.27267,1128.27955 L1307.08397,1118.83303 L1313.14418,1112.69867 L1313.44768,1112.38509 C1316.38478,1109.3767 1319.63517,1106.25073 1323.10095,1102.94837 L1325.59748,1100.56714 C1326.57652,1099.58721 1327.79052,1098.52888 1329.08284,1097.37257 L1331.64791,1095.04033 L1334.22276,1092.6983 C1335.48572,1091.55178 1336.68014,1090.46406 1337.7277,1089.56253 C1339.25499,1088.25922 1340.7627,1086.95591 1342.28021,1085.64281 C1345.47185,1082.8892 1348.49707,1080.29239 1351.61039,1077.71518 C1369.08613,1063.17302 1387.40384,1049.22862 1406.79848,1034.47088 L1412.2419,1030.32577 C1432.87013,1014.5881 1454.19347,998.311469 1475.34058,979.908389 C1487.89179,969.129162 1498.88633,958.820301 1508.96058,948.335053 L1509.04869,948.23706 C1515.05995,941.936112 1520.79709,935.40978 1526.08386,928.85405 C1531.9476,921.669795 1537.42175,914.175613 1542.48267,906.40386 C1547.90866,898.066781 1552.7943,889.389622 1557.10942,880.425923 C1561.54294,871.302586 1565.38224,861.901767 1568.60327,852.282341 C1574.95455,833.275296 1579.03292,813.581825 1580.75307,793.613949 L1580.75307,793.496357 C1584.12818,753.753341 1578.69581,713.75461 1564.84378,676.355558 C1551.48977,640.441133 1531.1063,607.133322 1504.12415,577.392454 Z" id="Path-Copy-2" fill="url(#linearGradient-4)" fill-rule="nonzero" opacity="0.206263951" mask="url(#mask-2)" transform="translate(1333.225843, 1067.000000) rotate(22.000000) translate(-1333.225843, -1067.000000) "></path>
                        <path d="M759.124153,-317.607546 C746.535883,-331.452256 732.828684,-344.234636 718.141831,-355.824805 C714.940393,-358.382422 711.915181,-360.63626 708.978082,-362.811704 L707.343097,-364.036616 L706.912323,-364.350194 C704.082917,-366.408046 701.370996,-368.269912 698.756978,-370.063184 L696.103798,-371.885853 L695.86883,-372.042642 C694.39049,-373.022572 692.882779,-374.002501 691.375069,-374.982431 L689.94568,-375.903565 L689.710712,-376.060354 L686.773613,-377.902622 C677.993868,-383.684571 667.40519,-386.054481 657.001219,-384.566144 L656.70751,-384.566144 C649.913347,-383.549268 643.44817,-380.966196 637.821963,-377.020685 C635.575423,-375.457842 633.457235,-373.71783 631.487619,-371.817258 L631.360345,-371.699667 C630.479215,-370.876526 629.637247,-370.023987 628.824649,-369.132251 L628.305762,-368.554092 C626.866583,-366.976405 625.074953,-365.006746 622.891709,-362.321739 L620.53224,-359.440746 L620.130836,-358.96058 L617.536399,-355.697414 C614.02167,-351.268132 610.526522,-346.770254 607.090116,-342.291975 L605.856535,-340.675091 L605.367018,-340.018538 L604.074695,-338.195869 L603.996372,-338.097876 L601.352983,-334.462337 L601.186547,-334.227154 L595.978092,-326.975674 C594.235413,-324.565047 592.453573,-321.948634 590.740265,-319.420416 L589.761232,-318.028915 L589.594796,-317.793732 L584.014308,-309.45453 C583.034652,-307.988022 582.145342,-306.463029 581.351338,-304.888058 L580.754128,-303.672945 C580.013285,-302.22373 579.359436,-300.731589 578.796062,-299.204465 L575.389027,-289.875534 L565.911988,-264.397361 L565.823875,-264.162178 C564.051825,-259.380121 562.221033,-254.549068 560.390242,-249.855204 L557.599997,-242.721316 C556.79719,-240.71246 556.1804,-239.046579 555.583189,-237.429695 L554.99577,-235.852008 C554.72164,-235.13666 554.467092,-234.411512 554.241914,-233.686364 L554.163592,-233.441381 C553.582781,-231.697543 553.092608,-229.924761 552.695042,-228.130162 C551.485038,-222.921977 551.213175,-217.539476 551.892235,-212.235702 L551.892235,-212.108311 C553.812286,-197.269344 563.376823,-184.529752 577.082754,-178.555517 L578.463191,-177.928362 C579.02124,-177.663781 579.589079,-177.409 580.147128,-177.164017 L580.626854,-176.948433 C581.537355,-176.478066 582.467436,-176.027299 583.387727,-175.566732 C584.112212,-175.213957 584.846486,-174.861182 585.56118,-174.488809 C586.677278,-173.861654 587.822747,-173.263897 588.958425,-172.66614 C589.585006,-172.332964 590.221378,-172.009587 590.838168,-171.68621 L591.141669,-171.509823 C597.637761,-167.867036 603.881761,-163.791133 609.831409,-159.309697 C615.439501,-155.081329 620.721623,-150.436404 625.633002,-145.414294 L625.730905,-145.306502 L627.385471,-143.621023 L628.873601,-141.945343 C629.304375,-141.455378 629.74494,-140.965413 630.175715,-140.495047 L630.606489,-140.02468 L632.319797,-137.957029 C632.740781,-137.437666 633.181346,-136.918303 633.621911,-136.40874 L635.403751,-134.047109 L636.138026,-133.067179 C636.451316,-132.64581 636.735236,-132.214641 637.028946,-131.783471 C637.322656,-131.352302 637.782801,-130.676151 638.174415,-130.117591 C645.055709,-119.915453 649.804566,-108.425759 652.135425,-96.3394132 C653.221062,-90.5697348 653.62198,-84.6918951 653.329846,-78.828069 C653.17793,-76.0890019 652.850916,-73.3624839 652.350813,-70.6652543 C652.292071,-70.3614761 652.233329,-70.0674972 652.184377,-69.763719 C651.723634,-67.2762665 651.068943,-64.8287566 650.226311,-62.4436439 C649.103827,-59.1644512 647.796348,-55.9516508 646.310179,-52.820734 C644.694774,-49.4693744 642.717128,-45.8142365 640.435981,-41.9631126 C635.398288,-33.5883085 629.791538,-25.5699253 623.655355,-17.9646336 L623.302903,-17.5138659 C611.280378,-2.11916994 596.52635,13.9026811 576.867367,32.9329164 C562.867195,46.4853445 548.269813,59.6751987 532.742349,73.6000001 L521.052695,84.1832411 C500.424469,102.801906 480.334712,121.273581 461.331681,141.685518 C441.000077,163.222718 422.650472,186.55134 406.505832,211.387919 C389.703726,236.886922 375.672806,264.110484 364.652171,292.594695 L360.941636,302.344996 C360.696878,302.981951 360.4717,303.628704 360.256313,304.304856 L355.361148,319.229185 C354.636663,321.434027 354.147147,323.315492 353.775114,324.697193 C353.696792,325.02057 353.608679,325.343947 353.520566,325.677123 L353.34434,326.294479 L350.642209,336.152572 C349.81003,339.092361 349.232401,341.698974 348.752675,343.99201 L346.589012,354.251874 C346.593464,354.304042 346.593464,354.356495 346.589012,354.408663 L346.412786,355.251402 C346.040753,356.966279 345.541447,359.278913 345.149833,362.042315 L343.465897,372.164989 C343.465897,372.282581 343.465897,372.409972 343.416945,372.537363 C343.348413,372.978331 343.27009,373.4095 343.201558,373.850468 C342.96659,375.281166 342.67288,377.064638 342.428122,379.142089 C342.428122,379.377272 342.428122,379.612455 342.349799,379.857438 L341.811331,385.217653 C341.811331,385.217653 341.811331,385.296048 341.811331,385.335245 L340.714814,395.99688 C340.656072,396.55544 340.61691,397.104201 340.577749,397.662761 C340.440685,400.092987 340.332991,402.562409 340.235088,404.963237 C340.176346,406.266544 340.127394,407.56985 340.058862,408.882956 C340.058862,409.069143 340.058862,409.25533 340.058862,409.441516 C340.058862,410.274456 339.990329,411.097597 339.951168,411.920738 C339.823894,414.860528 339.657458,418.44707 339.755361,422.503979 L339.755361,427.678008 C339.755361,428.158174 339.755361,428.657938 339.755361,429.128304 L339.980539,434.419925 C340.098023,437.859478 340.342781,440.995253 340.558169,443.778254 C340.636491,444.758184 340.714814,445.738113 340.783346,446.718043 C340.783346,446.914029 340.783346,447.100216 340.783346,447.296202 C341.096637,451.019934 341.49804,454.449689 341.879863,457.761851 L342.08546,459.58452 L342.202944,460.56445 C343.446316,469.589603 344.856123,477.72302 346.52048,485.425267 C350.093445,502.12558 355.004489,518.510719 361.205975,534.421754 C361.205975,534.480549 361.205975,534.539345 361.274507,534.588342 C367.549069,550.812665 375.173128,566.481214 384.066396,581.428983 L384.467799,582.105134 C386.425865,585.338902 388.609109,588.964642 391.154595,592.805967 L391.967192,594.050477 C392.946225,595.490974 393.846935,596.921672 394.825968,598.33277 C394.904291,598.430763 394.972823,598.538556 395.041356,598.636549 L400.142118,605.701842 C400.396666,606.044817 400.651215,606.397592 400.915554,606.740567 L402.658233,609.053202 L402.746346,609.160994 L406.270864,613.796061 C406.515623,614.119438 406.770171,614.442815 407.02472,614.775991 L407.249897,615.060171 C409.834545,618.254742 412.497514,621.557105 415.493355,624.986859 C427.777011,639.175655 441.425161,652.120779 456.240709,663.635287 L456.348403,663.723481 C471.909174,675.716297 488.707044,686.008585 506.455313,694.424679 L506.602168,694.483475 C523.996172,702.552789 542.09688,708.998647 560.674161,713.739094 C577.493443,718.053613 594.555939,721.355362 611.769894,723.626585 C624.565856,725.439455 636.725446,726.683966 648.483632,727.87948 L657.177445,728.771216 C669.673758,730.076055 682.102981,725.7537 691.098993,716.974744 C700.095006,708.195787 704.726901,695.868676 703.740256,683.331875 L692.853408,544.730614 C691.858913,531.951804 685.133495,520.312101 674.563476,513.076165 C663.993457,505.840228 650.717184,503.78734 638.458334,507.493285 C617.898641,513.706039 600.452273,517.106395 585.159777,517.87074 L584.993341,517.87074 C582.134565,518.027529 579.001659,518.027529 574.850559,517.87074 C572.305073,517.74335 569.514829,517.449371 566.098004,516.939807 C560.544692,515.935292 555.133569,514.260453 549.983121,511.951965 C543.96155,509.222451 538.264029,505.827102 532.996898,501.829291 C527.060115,497.266454 521.598785,492.115297 516.695998,486.454193 C516.500192,486.238609 516.314175,486.023024 516.118369,485.817239 C515.922562,485.611454 515.139336,484.621725 514.600867,483.974971 C514.062399,483.328218 513.572883,482.710862 513.053995,482.083707 C512.535108,481.456552 512.123914,480.848995 511.644188,480.23164 C510.900123,479.25171 510.185429,478.320777 509.686122,477.683822 C509.186815,477.046868 508.795202,476.419713 508.354637,475.792558 C507.57141,474.685237 506.768603,473.548519 506.396571,472.852769 L506.171393,472.431399 L504.389553,469.638599 L502.686036,466.757606 C500.72797,463.484641 498.877597,459.956894 496.978273,455.978379 C495.235594,452.146854 493.473335,448.138941 492.161431,444.434807 L492.043947,444.101631 C489.145237,436.251433 486.982054,428.148469 485.582329,419.897366 L485.043861,416.604802 L484.632667,413.312239 C484.632667,412.949665 484.544554,412.577291 484.485812,412.214717 C484.42707,411.852143 484.358538,410.666428 484.309586,409.862886 C484.241054,408.882956 484.182312,407.903026 484.103989,406.991692 C484.025666,406.080357 483.976715,405.169023 483.908182,404.257688 C483.800489,402.944582 483.712376,401.690272 483.653634,400.622149 L483.653634,392.978697 C483.594892,375.702536 486.659265,356.838888 492.748851,336.916917 C492.885915,336.475949 493.01319,336.03498 493.130673,335.584213 C493.747464,333.310776 494.853772,330.292592 496.067773,327.098021 C496.720461,325.340681 497.37315,323.586606 498.025839,321.835799 C498.104161,321.620214 498.162903,321.443827 498.231435,321.228242 C498.37829,320.806872 498.887388,319.611358 499.25942,318.739221 C499.631453,317.867083 500.120969,316.720565 500.541953,315.701438 L501.834277,312.604861 C502.353164,311.35055 502.872052,310.086441 503.42031,308.832131 C507.744231,299.482262 512.537825,290.35726 517.782725,281.492092 C518.438677,280.423968 519.084839,279.346046 519.740791,278.268123 C520.514227,276.974616 521.238711,275.749703 521.698857,275.004957 L528.728314,264.36292 L535.992739,254.299042 C536.668272,253.397506 537.559192,252.339182 538.489273,251.11427 C539.203967,250.232333 539.908871,249.340597 540.603984,248.448861 C541.299098,247.557125 542.111695,246.557597 542.85576,245.607065 C543.599825,244.656533 544.480955,243.519815 544.960681,242.990653 C545.078165,242.843663 545.20544,242.696674 545.332714,242.559484 L551.206912,235.699976 L552.489445,234.200683 C552.753784,233.887106 553.008333,233.573528 553.272672,233.279549 L562.083969,223.833027 L568.144183,217.698666 L568.447683,217.385089 C571.384782,214.376705 574.635172,211.250729 578.100949,207.948366 L580.597483,205.567136 C581.576516,204.587207 582.790517,203.528883 584.082841,202.372566 L586.647907,200.040333 L589.222764,197.698301 C590.485716,196.551783 591.680137,195.464061 592.727702,194.562526 C594.254994,193.259219 595.762704,191.955913 597.280206,190.642807 C600.471853,187.889204 603.497065,185.29239 606.61039,182.715175 C624.086129,168.173018 642.403837,154.228618 661.798481,139.470876 L667.241905,135.325774 C687.87013,119.588102 709.193469,103.311469 730.340583,84.9083891 C742.891786,74.1291621 753.886327,63.8203014 763.960576,53.3350533 L764.048689,53.2370603 C770.059952,46.9361122 775.797085,40.4097802 781.083864,33.8540503 C786.947603,26.6697953 792.421749,19.175613 797.482667,11.4038603 C802.908664,3.06678073 807.794297,-5.61037809 812.10942,-14.5740768 C816.54294,-23.6974139 820.382238,-33.0982325 823.603268,-42.7176585 C829.954545,-61.7247039 834.03292,-81.4181746 835.753067,-101.386051 L835.753067,-101.503643 C839.128176,-141.246659 833.695814,-181.24539 819.843781,-218.644442 C806.48977,-254.558867 786.106303,-287.866678 759.124153,-317.607546 Z" id="Path-Copy-4" fill="url(#linearGradient-5)" fill-rule="nonzero" opacity="0.206263951" mask="url(#mask-2)" transform="translate(588.225843, 172.000000) rotate(22.000000) translate(-588.225843, -172.000000) "></path>
                    </g>
                    <g id="огоньки" transform="translate(260.000000, 680.000000)" fill-rule="nonzero">
                        <ellipse id="Oval-Copy-21" fill="url(#radialGradient-6)" opacity="0.498976935" cx="915.5" cy="258" rx="8.5" ry="7"></ellipse>
                        <ellipse id="Oval-Copy-32" fill="url(#radialGradient-6)" opacity="0.191778274" cx="773.5" cy="7" rx="8.5" ry="7"></ellipse>
                        <ellipse id="Oval-Copy-24" fill="url(#radialGradient-7)" cx="259.5" cy="258" rx="8.5" ry="7"></ellipse>
                        <ellipse id="Oval-Copy-29" fill="url(#radialGradient-7)" cx="463.5" cy="345" rx="8.5" ry="7"></ellipse>
                        <ellipse id="Oval-Copy-31" fill="url(#radialGradient-7)" cx="664.5" cy="457" rx="8.5" ry="7"></ellipse>
                        <ellipse id="Oval-Copy-25" fill="url(#radialGradient-7)" opacity="0.20375279" cx="179.5" cy="318" rx="8.5" ry="7"></ellipse>
                    </g>
                    <g id="огоньки-copy" transform="translate(628.500000, 271.000000) scale(-1, 1) translate(-628.500000, -271.000000) " fill-rule="nonzero">
                        <ellipse id="Oval-Copy-17" fill="url(#radialGradient-6)" opacity="0.498976935" cx="432.5" cy="307" rx="8.5" ry="7"></ellipse>
                        <ellipse id="Oval-Copy-23" fill="url(#radialGradient-6)" opacity="0.498976935" cx="140.5" cy="396" rx="8.5" ry="7"></ellipse>
                        <ellipse id="Oval-Copy-17" fill="url(#radialGradient-7)" cx="49.5" cy="258" rx="8.5" ry="7"></ellipse>
                        <ellipse id="Oval-Copy-24" fill="url(#radialGradient-7)" cx="57.5" cy="535" rx="8.5" ry="7"></ellipse>
                        <ellipse id="Oval-Copy-30" fill="url(#radialGradient-7)" cx="794.5" cy="205" rx="8.5" ry="7"></ellipse>
                        <ellipse id="Oval-Copy-31" fill="url(#radialGradient-7)" cx="744.5" cy="457" rx="8.5" ry="7"></ellipse>
                    </g>
                    <g id="eos" filter="url(#filter-8)" transform="translate(986.000000, 937.000000)" fill-rule="nonzero">
                        <g id="Group-13-Copy" filter="url(#filter-9)" transform="translate(98.083724, 97.592156) rotate(60.000000) translate(-98.083724, -97.592156) translate(27.083724, 25.592156)">
                            <g id="coin" transform="translate(0.000000, 0.000000)">
                                <path d="M140.889836,77.5026789 C142.826184,63.5844062 140.514302,49.0431028 133.496509,36.79996 C131.226696,32.8213155 128.49701,29.1242817 125.363848,25.7852459 C121.813877,22.0176729 117.735811,18.7320672 113.886587,15.2701319 C124.554103,24.7566573 131.255039,38.0812875 133.156181,52.1876449 C135.057322,66.2940024 132.25842,81.2584966 125.733514,93.9542183 C119.267051,106.614138 109.543981,117.315438 97.5684561,124.952939 C85.6569836,132.493962 71.750486,136.667093 57.5975442,136.273291 C44.7472364,135.867733 32.1375051,131.571172 22.062629,123.495282 C21.3037372,122.887925 20.5624485,122.264894 19.8387629,121.62619 C24.937812,126.151979 29.8666972,130.954018 35.6816082,134.557017 C41.0511294,137.827246 46.9119104,140.208868 53.0383254,141.610196 C66.5810243,144.754738 80.9510717,143.208916 93.7544378,137.913155 C106.592495,132.556986 117.775871,123.874291 126.15599,112.756817 C133.975153,102.44876 139.045682,90.3163437 140.889836,77.5026789 Z" id="Path" fill="url(#linearGradient-10)"></path>
                                <path d="M93.8013796,137.92491 C98.2634875,136.068043 102.540497,133.793083 106.575407,131.130348 L101.699331,125.969772 C101.112559,126.363575 100.525787,126.757377 99.9390152,127.145302 C87.7869661,134.833267 73.5753471,139.088685 59.1642256,138.689004 C48.9452382,138.403469 38.9536871,135.601585 30.0720675,130.530828 C36.7924082,135.953032 44.6656602,139.75757 53.0852672,141.651339 C66.627966,144.766493 80.9745426,143.220672 93.8013796,137.92491 Z" id="Path" fill-opacity="0.5" fill="url(#linearGradient-11)" opacity="0.5" style="mix-blend-mode: screen;"></path>
                                <path d="M80.8689236,0.94042383 C116.978875,4.74326269 139.98034,38.0460216 132.246684,75.3279488 C124.513029,112.609876 88.9839811,139.752859 52.879897,135.95002 C16.7758129,132.147181 -6.23151915,98.8444222 1.49626872,61.562495 C9.22405659,24.2805678 44.7648395,-2.85653739 80.8689236,0.94042383 Z" id="Path" fill="url(#linearGradient-12)"></path>
                                <path d="M80.3877706,2.5097561 C45.5393786,-1.17552979 11.2366847,25.0329068 3.77881199,61.0158737 C3.21389232,63.7322054 2.81220948,66.4800468 2.57592929,69.2445822 C17.1982887,79.8243503 34.8483919,86.7540984 54.663684,88.8406637 C81.1329711,91.6266693 107.432094,85.3140744 130.357278,72.3421032 C136.629871,37.1702519 114.608316,6.1127549 80.3877706,2.5097561 Z" id="Path" fill="url(#linearGradient-13)" opacity="0.2" style="mix-blend-mode: screen;"></path>
                                <path d="M58.3720833,132.746701 C26.1876365,129.355298 2.7226223,101.254258 9.97512481,66.417433 C17.2276273,31.5806078 50.4623961,6.15977609 84.2135243,9.7157537 C112.56635,12.7015994 129.154395,36.6353858 130.415955,63.0906837 C131.800737,31.5923631 110.641737,5.28988405 79.2553005,1.9690124 C44.2895542,-1.71627349 9.86950585,24.5685726 2.38816224,60.67497 C-5.09318138,96.7813675 17.1806856,129.037905 52.1464319,132.717313 C55.2956397,133.049693 58.4654987,133.142041 61.6286682,132.993563 C60.5431399,132.940664 59.4576116,132.864254 58.3720833,132.746701 Z" id="Path" fill="#94512A" opacity="0.5" style="mix-blend-mode: multiply;"></path>
                                <path d="M75.6407847,8.22870852 C77.6770974,8.22830968 79.7120462,8.33425114 81.7373463,8.54610156 C96.8056525,10.1330668 109.855463,17.5271491 118.48688,29.3706118 C122.998359,35.5889698 126.120319,42.7074558 127.640524,50.2421431 C129.299549,58.4695123 129.247615,66.9511319 127.487963,75.157497 C124.146451,90.7751957 115.643436,104.807268 103.354029,114.984446 C91.1080959,125.205678 76.1982181,130.854098 61.3704885,130.854098 C59.3322227,130.854542 57.2953183,130.7486 55.2680592,130.536705 C40.2056207,128.94974 27.1558104,121.54978 18.5243936,109.712195 C14.0156384,103.474733 10.8997529,96.3383671 9.38835277,88.7877649 C7.73375426,80.5617282 7.78768332,72.0825402 9.54678122,63.8782887 C12.8823015,48.2636509 21.3742053,34.2307862 33.6513769,24.0454618 C45.8973096,13.8242303 60.8071873,8.17580968 75.6407847,8.17580968 L75.6407847,8.17580968 L75.6407847,8.22870852 Z M75.6407847,2.35693723 C42.3356033,2.38044782 11.0019759,28.1304278 3.83748919,62.6910036 C-3.79054743,99.5673731 18.9468694,129.555138 54.6578163,133.316833 C56.8877399,133.551096 59.1283349,133.668808 61.3704885,133.669492 C94.6815377,133.669492 123.316014,108.948101 130.4805,74.387525 C138.108537,37.5052779 118.064404,6.48892443 82.3651924,2.72722911 C80.1351904,2.49462113 77.8945795,2.37886962 75.6525201,2.38044782 L75.6407847,2.35693723 Z" id="Shape" fill="#E99855"></path>
                                <path d="M74.0917065,6.46541383 C76.1496646,6.46419442 78.2062443,6.57210231 80.252813,6.78868453 C95.4795476,8.38740504 108.676051,15.8696521 117.401351,27.8365454 C121.964355,34.1226604 125.122368,41.3193953 126.660614,48.9373051 C128.332331,57.2566013 128.278405,65.8313695 126.502186,74.1289084 C123.119699,89.9201972 114.522283,104.108505 102.098336,114.402559 C89.7174461,124.735466 74.6432722,130.42503 59.6512464,130.42503 C57.5893807,130.426401 55.5288866,130.318493 53.4784044,130.101759 C38.2516698,128.497161 25.0610342,121.020792 16.3357338,109.048021 C11.7712873,102.762736 8.61313148,95.5656742 7.0764709,87.9472611 C5.39885172,79.6305137 5.45278609,71.056446 7.23489935,62.7615354 C10.6134234,46.970309 19.2116987,32.782654 31.6387488,22.4937625 C44.0079036,12.1608557 59.0938129,6.46541383 74.0858388,6.46541383 L74.0858388,6.46541383 L74.0917065,6.46541383 Z M74.0858388,0.587764894 C40.4109909,0.587764894 8.73703579,26.6198721 1.49626872,61.562495 C-6.23151915,98.8444222 16.752342,132.153059 52.879897,135.95002 C55.133017,136.189447 57.3972189,136.309127 59.6629818,136.308557 C93.3319619,136.308557 125.005917,110.270572 132.246684,75.3279488 C139.98034,38.0460216 116.978875,4.74326269 80.8689236,0.94042383 C78.6154495,0.706164883 76.3514154,0.588455629 74.0858388,0.587764894 Z" id="Shape" fill="url(#linearGradient-14)"></path>
                                <polygon id="Path" fill="#FFFFFF" points="50.7264435 34.6017193 44.9408712 33.167573 50.1866133 36.0241104 50.7968562 37.4171132 49.3710001 43.3065174 52.1875059 37.9578569 53.5546848 37.3407037 59.3343895 38.7748501 54.0945151 35.912435 53.4842722 34.5253099 54.9101282 28.6359056 52.0936224 33.9845662"></polygon>
                                <path d="M80.6752889,0.946301479 C78.4221688,0.706874353 76.1579669,0.587194411 73.892204,0.587764894 C40.2232239,0.587764894 8.54926874,26.6198721 1.30850167,61.562495 C0.664733701,64.644928 0.227590073,67.7670555 -1.42108547e-14,70.9079568 C1.85419967,72.2245502 3.7533852,73.4706118 5.69755659,74.6461415 C5.78067304,70.6517125 6.23047116,66.6734125 7.04126458,62.7615354 C10.4217794,46.9696836 19.0221053,32.7820564 31.4509818,22.4937625 C43.831872,12.1608557 58.9060459,6.46541383 73.8980717,6.46541383 L73.8980717,6.46541383 C75.9579816,6.46419567 78.0165145,6.57210326 80.0650459,6.78868453 C95.3211192,8.39328269 108.488284,15.8696521 117.213584,27.842423 C121.775946,34.1282174 124.932086,41.3252448 126.466979,48.9431827 C128.144599,57.2599301 128.090664,65.8339979 126.308551,74.1289084 C126.161858,74.840104 125.991694,75.5395442 125.82153,76.2448621 C128.102118,75.0693323 130.35141,73.8467813 132.569409,72.5772091 C138.642499,36.4414234 115.899215,4.64922031 80.6752889,0.946301479 Z" id="Path" fill="url(#linearGradient-15)" opacity="0.7"></path>
                            </g>
                        </g>
                        <ellipse id="Oval-Copy-27" fill="url(#radialGradient-16)" cx="178.5" cy="101.5" rx="13.5" ry="11.5"></ellipse>
                        <ellipse id="Oval-Copy-26" fill="url(#radialGradient-16)" opacity="0.20375279" cx="65.5" cy="28.5" rx="13.5" ry="11.5"></ellipse>
                        <g id="Group-14" transform="translate(65.000000, 65.000000)">
                            <path d="M41.9298788,55.4651006 L54.5725515,47.460483 L50.5957062,27.5578432 L41.9298788,55.4651006 Z M48.4740664,19.0448821 L36.3639145,2.87510419 L24.4990623,19.3434425 L36.4640893,57.7215724 L48.4740664,19.0448821 Z M22.462411,28.1005961 L18.4577406,47.8311163 L30.8980454,55.1581088 L22.462411,28.1005961 Z M39.8497029,62.1640575 L39.7764375,62.4 L39.4770501,62.4 L36.9499742,64 L33.7706294,63.7211016 L13.3617021,50.1071658 L19.8831412,17.976835 L36.293041,-4.8 L53.2983385,17.9058989 L59.6382979,49.6350505 L39.8497029,62.1640575 Z" id="Combined-Shape-Copy-2" fill="#E38E2D" transform="translate(36.500000, 29.600000) rotate(85.000000) translate(-36.500000, -29.600000) "></path>
                            <path d="M42.0333254,52.1996041 L54.5725515,44.260483 L50.6282461,24.5206932 L42.0333254,52.1996041 Z M48.5328162,15.9233263 L36.3639145,-0.324895807 L24.7531804,15.7907283 L36.6874039,54.0700553 L48.5328162,15.9233263 Z M22.6059747,24.1932757 L18.4577406,44.6311163 L31.3440185,52.2207745 L22.6059747,24.1932757 Z M53.4216532,15.3230432 L53.4786337,15.3413618 L53.4461902,15.4458422 L59.6382979,46.4350505 L36.9499742,60.8 L33.466758,58.7484829 L33.3791412,58.7484829 L33.3594342,58.6852722 L13.3617021,46.9071658 L19.8831412,14.776835 L36.293041,-8 L53.2983385,14.7058989 L53.4216532,15.3230432 Z" id="Combined-Shape" fill="#FFF37E" transform="translate(36.500000, 26.400000) rotate(85.000000) translate(-36.500000, -26.400000) "></path>
                        </g>
                    </g>
                </g>
                <g id="монетка---Etherum" filter="url(#filter-17)" transform="translate(406.000000, 612.000000)">
                    <g id="coin" fill-rule="nonzero">
                        <path d="M96.242438,52.9601639 C97.5651653,43.4493443 95.9859091,33.5127869 91.1920248,25.1466393 C89.6415066,22.4278989 87.776846,19.9015925 85.6365702,17.619918 C83.2115702,15.0454098 80.4258264,12.8002459 77.796405,10.4345902 C85.0834298,16.9170492 89.6608678,26.0222131 90.9595455,35.6615574 C92.2582231,45.3009016 90.346281,55.5266393 85.8890909,64.2020492 C81.4718228,72.8529946 74.8299529,80.1655495 66.6494215,85.3845082 C58.5126446,90.537541 49.0130579,93.3891803 39.345124,93.120082 C30.5670248,92.8429508 21.9532645,89.9069672 15.0710744,84.3884426 C14.5526722,83.9734153 14.0462948,83.5476776 13.5519421,83.1112295 C17.035124,86.2038525 20.4020661,89.4852459 24.3742562,91.9472951 C28.0421986,94.1819513 32.0457227,95.8093929 36.2307025,96.7669672 C45.4817769,98.9157377 55.2980165,97.8594262 64.0440496,94.2406557 C72.8137801,90.580607 80.4531914,84.6474322 86.177686,77.0504918 C91.5189885,70.0066524 94.9826885,61.7161682 96.242438,52.9601639 Z" id="Path" fill="url(#linearGradient-18)"></path>
                        <path d="M64.0761157,94.2486885 C67.1242003,92.9798295 70.0458435,91.4252732 72.8021074,89.6057377 L69.4712397,86.0793443 C69.0704132,86.3484426 68.6695868,86.617541 68.2687603,86.882623 C59.9676446,92.1360656 50.2596281,95.0439344 40.4153306,94.7708197 C33.4346975,94.5757038 26.609427,92.6610834 20.5423554,89.1960656 C25.1330483,92.9012386 30.5112998,95.5010062 36.2627686,96.795082 C45.513843,98.9237705 55.3140496,97.867459 64.0761157,94.2486885 Z" id="Path" fill-opacity="0.5" fill="url(#linearGradient-19)" opacity="0.5" style="mix-blend-mode: screen;"></path>
                        <path d="M55.2419008,0.642622951 C79.9087603,3.24122951 95.621157,25.9981148 90.3382645,51.4740984 C85.0553719,76.950082 60.7853306,95.4977869 36.1224793,92.8991803 C11.4596281,90.3005738 -4.25677686,67.5436885 1.02210744,42.0677049 C6.30099174,16.5917213 30.5790496,-1.95196721 55.2419008,0.642622951 Z" id="Path" fill="url(#linearGradient-20)"></path>
                        <path d="M54.9132231,1.715 C31.1081405,-0.803278689 7.67582645,17.1058197 2.58132231,41.6941803 C2.19542332,43.5503403 1.92103209,45.428032 1.7596281,47.3171311 C11.7482231,54.5466393 23.8050826,59.2819672 37.3409917,60.7077869 C55.4222727,62.6115574 73.387314,58.2979508 89.0476033,49.4337705 C93.332438,25.3996721 78.2894215,4.17704918 54.9132231,1.715 Z" id="Path" fill="url(#linearGradient-21)" opacity="0.2" style="mix-blend-mode: screen;"></path>
                        <path d="M39.8742149,90.7102459 C17.8888843,88.3927869 1.85983471,69.1904098 6.81404959,45.3852459 C11.7682645,21.580082 34.4710744,4.20918033 57.5266116,6.63909836 C76.8945455,8.67942623 88.2259091,25.0341803 89.087686,43.1119672 C90.0336364,21.5881148 75.5798347,3.6147541 54.1396281,1.3454918 C30.2543802,-1.17278689 6.74190083,16.7885246 1.63136364,41.4612295 C-3.47917355,66.1339344 11.7361983,88.1759016 35.6214463,90.6901639 C37.7726833,90.91729 39.9380273,90.9803949 42.0988017,90.8789344 C41.3572727,90.8427869 40.6157438,90.7905738 39.8742149,90.7102459 Z" id="Path" fill="#94512A" opacity="0.5" style="mix-blend-mode: multiply;"></path>
                        <path d="M51.6705372,5.62295082 C53.0615509,5.62267828 54.451633,5.69507161 55.835124,5.83983607 C66.1283471,6.9242623 75.0427273,11.9768852 80.9388843,20.069918 C84.020695,24.3191294 86.1533189,29.1834281 87.1917769,34.3321311 C88.3250641,39.9541667 88.2895876,45.7499401 87.087562,51.357623 C84.8049609,62.029717 78.9965163,71.6182998 70.6015702,78.5727049 C62.2363223,85.5572131 52.0513223,89.4169672 41.922438,89.4169672 C40.5300901,89.4172701 39.1386722,89.3448769 37.753843,89.200082 C27.4646281,88.1156557 18.5502479,83.0590164 12.6540909,74.97 C9.57414138,70.7077342 7.44566691,65.8312175 6.41322314,60.6716393 C5.28295996,55.0505143 5.31979913,49.2564025 6.52144628,43.6501639 C8.79995419,32.9801615 14.6008092,23.3910372 22.9873967,16.4310656 C31.3526446,9.44655738 41.5376446,5.58680328 51.6705372,5.58680328 L51.6705372,5.58680328 L51.6705372,5.62295082 Z M51.6705372,1.61057377 C28.9196281,1.62663934 7.51549587,19.222459 2.62140496,42.8388525 C-2.58933884,68.0377049 12.942686,88.5293443 37.3369835,91.0998361 C38.8602537,91.2599154 40.3908135,91.3403523 41.922438,91.3408197 C64.6773554,91.3408197 84.237686,74.4478689 89.1317769,50.8314754 C94.3425207,25.6286066 80.6502893,4.43409836 56.2640083,1.86360656 C54.7406846,1.70465777 53.2101139,1.62556091 51.6785537,1.62663934 L51.6705372,1.61057377 Z" id="Shape" fill="#E99855"></path>
                        <path d="M50.6123554,4.41803279 C52.0181552,4.41719952 53.4230134,4.49093658 54.8210331,4.63893443 C65.2224793,5.73139344 74.2370661,10.8442623 80.1973554,19.0216393 C83.3143625,23.3171512 85.471614,28.2349201 86.5223967,33.4404918 C87.6643535,39.1253443 87.6275163,44.9847691 86.4141736,50.6547541 C84.1035825,61.4454681 78.2306514,71.140812 69.7438017,78.175082 C61.2863636,85.2359016 50.9891322,89.1237705 40.7480165,89.1237705 C39.3395474,89.1247071 37.9320153,89.0509701 36.5313223,88.9028689 C26.129876,87.8063934 17.1192975,82.697541 11.1590083,74.5161475 C8.04101572,70.2212029 5.88366623,65.3032107 4.83396694,60.0972951 C3.68797825,54.4141844 3.72482104,48.5552381 4.94219008,42.8870492 C7.25007403,32.0963778 13.1235919,22.4014802 21.612562,15.3707377 C30.0619835,8.30991803 40.3672314,4.41803279 50.6083471,4.41803279 L50.6083471,4.41803279 L50.6123554,4.41803279 Z M50.6083471,0.401639344 C27.6049174,0.401639344 5.96830579,18.1902459 1.02210744,42.0677049 C-4.25677686,67.5436885 11.443595,90.3045902 36.1224793,92.8991803 C37.6615951,93.0627889 39.2082809,93.1445702 40.7560331,93.1441803 C63.7554545,93.1441803 85.3920661,75.3515574 90.3382645,51.4740984 C95.621157,25.9981148 79.9087603,3.24122951 55.2419008,0.642622951 C53.7025432,0.482546004 52.155972,0.402111347 50.6083471,0.401639344 Z" id="Shape" fill="url(#linearGradient-22)"></path>
                        <polygon id="Path" fill="#FFFFFF" points="34.6514463 23.6445082 30.6992975 22.6645082 34.282686 24.6164754 34.6995455 25.5683607 33.7255372 29.5927869 35.6495041 25.9378689 36.5834298 25.5161475 40.5315702 26.4961475 36.9521901 24.5401639 36.5353306 23.5922951 37.5093388 19.5678689 35.5853719 23.2227869"></polygon>
                        <path d="M55.1096281,0.646639344 C53.5705123,0.483030808 52.0238265,0.401249514 50.4760744,0.401639344 C27.4766529,0.401639344 5.84004132,18.1902459 0.893842975,42.0677049 C0.454082378,44.1740341 0.155467733,46.3074879 -1.42108547e-14,48.4537705 C1.26661157,49.3534426 2.56395317,50.204918 3.89202479,51.0081967 C3.948802,48.2786702 4.25606097,45.5601652 4.80991736,42.8870492 C7.11916123,32.0959505 12.9940799,22.4010719 21.4842975,15.3707377 C29.9417355,8.30991803 40.2389669,4.41803279 50.4800826,4.41803279 L50.4800826,4.41803279 C51.8872157,4.41720037 53.2934082,4.49093723 54.6927686,4.63893443 C65.1142562,5.73540984 74.1088017,10.8442623 80.0690909,19.0256557 C83.1856594,23.3209485 85.3416315,28.2389173 86.390124,33.4445082 C87.5361127,39.1276189 87.4992699,44.9865652 86.2819008,50.6547541 C86.1816942,51.1407377 86.0654545,51.6186885 85.9492149,52.1006557 C87.5070937,51.297377 89.043595,50.4619672 90.558719,49.5944262 C94.7072727,24.9016393 79.1712397,3.17696721 55.1096281,0.646639344 Z" id="Path" fill="url(#linearGradient-23)" opacity="0.7"></path>
                    </g>
                    <g id="Group-7" transform="translate(45.442443, 47.112803) rotate(20.000000) translate(-45.442443, -47.112803) translate(28.442443, 20.612803)">
                        <polygon id="Path-4" fill="#FFF177" points="17.3158582 0.103216958 0.16585819 26.0286556 15.1444698 35.2360868"></polygon>
                        <polygon id="Path-4-Copy" fill="#E1882B" transform="translate(24.393829, 17.669652) scale(-1, 1) translate(-24.393829, -17.669652) " points="31.4717994 0.103216958 15.1444698 27.9077002 33.6431878 35.2360868"></polygon>
                        <polygon id="Path-5" fill="#FFF177" points="0.0685128024 32.2573854 15.0697606 52.6759825 15.0697606 40.1947031"></polygon>
                        <polygon id="Path-5-Copy" fill="#E1882B" transform="translate(24.098314, 42.830645) scale(-1, 1) translate(-24.098314, -42.830645) " points="15.0697606 32.9853066 33.1268677 52.6759825 33.1268677 40.1947031"></polygon>
                    </g>
                </g>
                <g id="tron-copy" transform="translate(1042.000000, 311.000000)" fill-rule="nonzero">
                    <g id="Group-34">
                        <g id="Group-13-Copy-2" filter="url(#filter-24)" transform="translate(46.491073, 46.466682) scale(1, -1) rotate(-120.000000) translate(-46.491073, -46.466682) translate(12.491073, 12.466682)">
                            <g id="coin" transform="translate(0.000000, 0.000000)">
                                <path d="M66.9639044,36.7742303 C67.8842363,30.1701519 66.7854158,23.2704518 63.44991,17.4612055 C62.371085,15.5733793 61.0736848,13.8191745 59.5845162,12.2348361 C57.8972411,10.4471611 55.9589664,8.88817473 54.1294582,7.24552179 C59.1996501,11.7467813 62.3845562,18.0691823 63.2881547,24.762505 C64.1917533,31.4558277 62.8614554,38.5563275 59.7602159,44.5803179 C56.6867535,50.5873208 52.0654497,55.6649783 46.3735706,59.2888944 C40.7121351,62.8670332 34.102479,64.8471411 27.3756897,64.6602859 C21.2680328,64.4678529 15.2747201,62.4291783 10.4862055,58.5972511 C10.1255098,58.3090664 9.77318073,58.0134446 9.42921831,57.7103858 C11.8527589,59.8578269 14.1954218,62.1363455 16.9592063,63.8459316 C19.5113003,65.3976217 22.2968864,66.527677 25.2087265,67.192593 C31.6454718,68.6846461 38.4754498,67.9511695 44.5607957,65.4383846 C50.6626299,62.8969372 55.9780065,58.7770871 59.9610156,53.5019592 C63.677406,48.6108911 66.0873915,42.8541835 66.9639044,36.7742303 Z" id="Path" fill="url(#linearGradient-25)"></path>
                                <path d="M44.5831068,65.4439624 C46.7039139,64.562898 48.7367451,63.4834525 50.6545082,62.220012 L48.3369452,59.7713715 C48.0580568,59.9582267 47.7791683,60.145082 47.5002799,60.3291483 C41.7245002,63.9770092 34.9698221,65.9961615 28.1203219,65.8065174 C23.2633122,65.6710338 18.5144014,64.3415686 14.2930328,61.9355458 C17.4871614,64.5083264 21.2292602,66.3135409 25.2310376,67.2121152 C31.6677829,68.6902239 38.4866054,67.9567473 44.5831068,65.4439624 Z" id="Path" fill-opacity="0.5" fill="url(#linearGradient-26)" opacity="0.5" style="mix-blend-mode: screen;"></path>
                                <path d="M38.4364054,0.446221511 C55.5992003,2.25062975 66.5316273,18.052449 62.8558776,35.7423431 C59.1801279,53.4322371 42.2934326,66.3113055 25.1334266,64.5068972 C7.97342063,62.702489 -2.96179528,46.9006697 0.711165534,29.2107757 C4.38412635,11.5208816 21.2763994,-1.35539784 38.4364054,0.446221511 Z" id="Path" fill="url(#linearGradient-27)"></path>
                                <path d="M38.2077169,1.19085366 C21.6445322,-0.557776889 5.34071371,11.8778589 1.79604158,28.9514094 C1.52753941,30.2402811 1.33662251,31.5441039 1.22432027,32.8558477 C8.17422031,37.8758397 16.5631847,41.1639344 25.9812475,42.1539884 C38.5619052,43.4759196 51.0616853,40.4806577 61.9578569,34.3255898 C64.9391743,17.6369052 54.472491,2.90043982 38.2077169,1.19085366 Z" id="Path" fill="url(#linearGradient-28)" opacity="0.2" style="mix-blend-mode: screen;"></path>
                                <path d="M27.7438225,62.9869552 C12.4467913,61.3777689 1.29404238,48.0441124 4.74110356,31.5143942 C8.18816473,14.9846761 23.9844062,2.9227509 40.0260696,4.61002599 C53.5019592,6.02677929 61.3861355,17.3831168 61.9857457,29.9358856 C62.6439224,14.9902539 52.5872051,2.509996 37.6694622,0.934276289 C21.0504998,-0.814354258 4.69090364,11.657537 1.13507597,28.7896541 C-2.4207517,45.9217713 8.16585366,61.2271691 24.7848161,62.9730108 C26.2816114,63.1307215 27.7882221,63.17454 29.2916533,63.1040884 C28.7757097,63.0789884 28.2597661,63.0427329 27.7438225,62.9869552 Z" id="Path" fill="#94512A" opacity="0.5" style="mix-blend-mode: multiply;"></path>
                                <path d="M35.9515094,3.90443822 C36.9193539,3.90424898 37.8865501,3.95451712 38.8491603,4.05503798 C46.0110156,4.80803679 52.2134946,8.31645342 56.3159436,13.9360556 C58.4602168,16.886603 59.9440614,20.264252 60.6666034,23.8393842 C61.455126,27.7431869 61.430442,31.7676289 60.5940924,35.6614654 C59.0058961,43.0719041 54.9644759,49.7299792 49.1234106,54.5589464 C43.3030088,59.4088165 36.2164534,62.0889344 29.1689424,62.0889344 C28.2001697,62.0891448 27.232044,62.0388767 26.2685026,61.9383347 C19.1094362,61.1853359 12.9069572,57.6741303 8.8045082,52.0573171 C6.66153,49.0977049 5.1805725,45.7115721 4.46221511,42.1288884 C3.6757966,38.225718 3.70142868,34.2024298 4.53751499,30.3095962 C6.12286329,22.9006099 10.1590028,16.2421588 15.9942523,11.4093263 C21.8146541,6.55945622 28.9012095,3.87933826 35.9515094,3.87933826 L35.9515094,3.87933826 L35.9515094,3.90443822 Z M35.9515094,1.11834266 C20.1218013,1.1294982 5.22915834,13.347601 1.82393043,29.7462415 C-1.80161935,47.2437025 9.00530788,61.472591 25.9784586,63.257477 C27.0383249,63.3686322 28.1032633,63.4244856 29.1689424,63.4248101 C45.0014394,63.4248101 58.6111955,51.6947621 62.0164234,35.2961216 C65.6419732,17.7958717 56.1151439,3.07892843 39.147571,1.29404238 C38.0876674,1.18367227 37.0227215,1.12874936 35.9570872,1.1294982 L35.9515094,1.11834266 Z" id="Shape" fill="#E99855"></path>
                                <path d="M35.2152439,3.06777289 C36.1933763,3.06719429 37.1708535,3.11839548 38.1435726,3.22116154 C45.3807277,3.9797381 51.6529288,7.529988 55.8,13.2081567 C57.9687623,16.1908541 59.4697424,19.6056314 60.2008597,23.2202519 C60.9954144,27.1676731 60.9697837,31.2363131 60.1255598,35.1734106 C58.5178886,42.666216 54.4315998,49.3984235 48.5265894,54.2828469 C42.6420432,59.1857057 35.477399,61.8853459 28.3517993,61.8853459 C27.3718097,61.8859962 26.392472,61.8347951 25.4178928,61.7319572 C18.1807377,60.9705918 11.9113255,57.4231307 7.7642543,51.7421731 C5.5948064,48.7598696 4.09375813,45.3449372 3.36339464,41.730078 C2.56603457,37.7838662 2.59166918,33.7155585 3.43869452,29.7797081 C5.04448219,22.2869323 9.13117929,15.5550348 15.0376649,10.6730608 C20.9166333,5.77020192 28.0868553,3.06777289 35.212455,3.06777289 L35.212455,3.06777289 L35.2152439,3.06777289 Z M35.212455,0.278888445 C19.2070472,0.278888445 4.15264894,12.6308577 0.711165534,29.2107757 C-2.96179528,46.9006697 7.96226509,62.7052779 25.1334266,64.5068972 C26.2043181,64.620503 27.2804766,64.6772899 28.357377,64.6770192 C44.359996,64.6770192 59.4143942,52.3222611 62.8558776,35.7423431 C66.5316273,18.052449 55.5992003,2.25062975 38.4364054,0.446221511 C37.3653457,0.335068031 36.2892669,0.279216191 35.212455,0.278888445 Z" id="Shape" fill="url(#linearGradient-29)"></path>
                                <polygon id="Path" fill="#FFFFFF" points="24.109906 16.4181627 21.360066 15.7376749 23.8533287 17.0930728 24.1433727 17.7540384 23.4656737 20.5485006 24.8043383 18.0106158 25.4541483 17.7177829 28.2011995 18.3982707 25.7107257 17.040084 25.4206817 16.3819072 26.0983806 13.587445 24.7597161 16.1253299"></polygon>
                                <path d="M38.3443723,0.449010396 C37.2734808,0.335404668 36.1973223,0.278617756 35.1204218,0.278888445 C19.1178029,0.278888445 4.06340464,12.6308577 0.621921232,29.2107757 C0.315943046,30.6733587 0.10817189,32.1547763 -1.42108547e-14,33.645102 C0.881287485,34.2698121 1.78395642,34.8610556 2.7080068,35.4188325 C2.74751144,33.5235166 2.96129718,31.6358539 3.34666134,29.7797081 C4.95339522,22.2866356 9.04106692,15.5547512 14.9484206,10.6730608 C20.8329668,5.77020192 27.997611,3.06777289 35.1232107,3.06777289 L35.1232107,3.06777289 C36.1022708,3.06719488 37.0806763,3.11839594 38.0543283,3.22116154 C45.3054278,3.98252699 51.5636845,7.529988 55.7107557,13.2109456 C57.8792128,16.1934909 59.3793027,19.608407 60.1088265,23.2230408 C60.9061865,27.1692526 60.8805519,31.2375602 60.0335266,35.1734106 C59.9638045,35.5108657 59.8829268,35.8427429 59.8020492,36.177409 C60.8859956,35.6196321 61.955068,35.0395442 63.0092663,34.4371451 C65.8957617,17.2910836 55.0860456,2.2060076 38.3443723,0.449010396 Z" id="Path" fill="url(#linearGradient-30)" opacity="0.7"></path>
                            </g>
                        </g>
                        <path d="M57.8188752,34.355695 L40.6550708,30.8361178 L51.2586544,39.355529 L57.8188752,34.355695 Z M60.225743,35.0622494 L52.9457842,40.6106275 L64.2261976,38.7175064 L60.225743,35.0622494 Z M63.9593784,40.8114533 L52.6171684,42.7149454 L50.6173779,56.8305756 L63.9593784,40.8114533 Z M50.1382116,60.212797 L50.1230681,60.3196887 L50.0569817,60.3103261 L48.736893,61.8952954 L47.9861101,60.0169414 L47.8998167,60.0047161 L47.9211201,59.8543454 L35.1372564,27.8709051 L36.188168,26.7182423 L60.7712226,33.1273577 L67.5434125,39.3151782 L50.1382116,60.212797 Z M48.4273694,56.2809563 L50.5031502,41.6289441 L38.818527,32.2409756 L48.4273694,56.2809563 Z" id="Combined-Shape-Copy" fill="#E48E2D" transform="translate(51.340334, 44.306769) rotate(-89.000000) translate(-51.340334, -44.306769) "></path>
                    </g>
                    <path d="M57.2609725,32.6552757 L40.0971681,29.1356984 L50.7007517,37.6551096 L57.2609725,32.6552757 Z M59.6678403,33.36183 L52.3878815,38.9102082 L63.6682949,37.017087 L59.6678403,33.36183 Z M63.4014757,39.1110339 L52.0592657,41.014526 L50.0594752,55.1301562 L63.4014757,39.1110339 Z M49.5803089,58.5123776 L49.5651654,58.6192693 L49.499079,58.6099067 L48.1789903,60.194876 L47.4282074,58.316522 L47.341914,58.3042967 L47.3632174,58.153926 L34.5793537,26.1704858 L60.2133199,31.4269383 L66.9855098,37.6147588 L49.5803089,58.5123776 Z M47.8694667,54.580537 L49.9452475,39.9285247 L38.2606243,30.5405562 L47.8694667,54.580537 Z" id="Combined-Shape" fill="#FFF178" transform="translate(50.782432, 43.182681) rotate(-89.000000) translate(-50.782432, -43.182681) "></path>
                </g>
            </g>
        </g>
    </g>
</svg>