<?xml version="1.0" encoding="UTF-8"?>
<svg width="320px" height="674px" viewBox="0 0 320 674" version="1.1" xmlns="http://www.w3.org/2000/svg" xmlns:xlink="http://www.w3.org/1999/xlink">
    <!-- Generator: Sketch 53.1 (72631) - https://sketchapp.com -->
    <title>bg</title>
    <desc>Created with Sketch.</desc>
    <defs>
        <path d="M0.195455615,0.468854542 L330.343492,0.468854542 L330.343492,741.468855 C281.700622,729.049474 228.807719,722.638738 171.664783,722.236644 C114.521847,721.834551 57.3654045,727.470912 0.195455615,739.145728 L0.195455615,0.468854542 Z" id="path-1"></path>
        <linearGradient x1="12.4987109%" y1="105.880673%" x2="82.0560386%" y2="21.4915%" id="linearGradient-3">
            <stop stop-color="#5D45B9" offset="0%"></stop>
            <stop stop-color="#5A3EC4" offset="40%"></stop>
            <stop stop-color="#7153E0" offset="100%"></stop>
        </linearGradient>
        <linearGradient x1="38.6973987%" y1="102.429331%" x2="60.365727%" y2="21.4915%" id="linearGradient-4">
            <stop stop-color="#5D45B9" offset="0%"></stop>
            <stop stop-color="#5A3EC4" offset="40%"></stop>
            <stop stop-color="#8269E1" offset="100%"></stop>
        </linearGradient>
        <radialGradient cx="49.7016335%" cy="50%" fx="49.7016335%" fy="50%" r="61.0765879%" gradientTransform="translate(0.497016,0.500000),scale(0.823529,1.000000),translate(-0.497016,-0.500000)" id="radialGradient-5">
            <stop stop-color="#FFFFFF" offset="0%"></stop>
            <stop stop-color="#FFFFFF" stop-opacity="0.631091565" offset="29.29%"></stop>
            <stop stop-color="#FFFFFF" stop-opacity="0.168132649" offset="55.6521987%"></stop>
            <stop stop-color="#FEC30C" stop-opacity="0" offset="100%"></stop>
        </radialGradient>
        <radialGradient cx="49.7016335%" cy="50%" fx="49.7016335%" fy="50%" r="61.0765879%" gradientTransform="translate(0.497016,0.500000),scale(0.823529,1.000000),translate(-0.497016,-0.500000)" id="radialGradient-6">
            <stop stop-color="#FEC30C" offset="0%"></stop>
            <stop stop-color="#FEC30C" stop-opacity="0.715745192" offset="29.29%"></stop>
            <stop stop-color="#FEC30C" stop-opacity="0.168132649" offset="55.6521987%"></stop>
            <stop stop-color="#FEC30C" stop-opacity="0" offset="100%"></stop>
        </radialGradient>
        <filter x="-86.9%" y="-86.9%" width="273.8%" height="273.8%" filterUnits="objectBoundingBox" id="filter-7">
            <feOffset dx="0" dy="10" in="SourceAlpha" result="shadowOffsetOuter1"></feOffset>
            <feGaussianBlur stdDeviation="9.5" in="shadowOffsetOuter1" result="shadowBlurOuter1"></feGaussianBlur>
            <feColorMatrix values="0 0 0 0 0.996078431   0 0 0 0 0.764705882   0 0 0 0 0.0470588235  0 0 0 0.197088068 0" type="matrix" in="shadowBlurOuter1" result="shadowMatrixOuter1"></feColorMatrix>
            <feMerge>
                <feMergeNode in="shadowMatrixOuter1"></feMergeNode>
                <feMergeNode in="SourceGraphic"></feMergeNode>
            </feMerge>
        </filter>
        <linearGradient x1="105.221669%" y1="-52.3004644%" x2="17.190313%" y2="140.305435%" id="linearGradient-8">
            <stop stop-color="#FFC649" offset="0%"></stop>
            <stop stop-color="#FFC848" offset="0%"></stop>
            <stop stop-color="#FFCF45" offset="0%"></stop>
            <stop stop-color="#FFD243" offset="0%"></stop>
            <stop stop-color="#CD571B" offset="100%"></stop>
        </linearGradient>
        <linearGradient x1="72.0049087%" y1="38.5396385%" x2="32.1521706%" y2="57.2739649%" id="linearGradient-9">
            <stop stop-color="#E08C3C" offset="0%"></stop>
            <stop stop-color="#FFD06F" offset="100%"></stop>
        </linearGradient>
        <linearGradient x1="23.21523%" y1="185.967261%" x2="82.2463451%" y2="-113.701976%" id="linearGradient-10">
            <stop stop-color="#F5942A" offset="0%"></stop>
            <stop stop-color="#F5D85D" offset="100%"></stop>
        </linearGradient>
        <linearGradient x1="34.5148467%" y1="113.594236%" x2="75.6239007%" y2="-25.7731%" id="linearGradient-11">
            <stop stop-color="#E08C3C" offset="0%"></stop>
            <stop stop-color="#FFD06F" offset="100%"></stop>
        </linearGradient>
        <linearGradient x1="69.3194447%" y1="-27.1750895%" x2="18.8000316%" y2="174.630806%" id="linearGradient-12">
            <stop stop-color="#FFDE43" offset="20%"></stop>
            <stop stop-color="#FFD23E" offset="56%"></stop>
            <stop stop-color="#FFBD37" offset="100%"></stop>
        </linearGradient>
        <linearGradient x1="67.2275668%" y1="23.9090141%" x2="33.4138713%" y2="99.3094797%" id="linearGradient-13">
            <stop stop-color="#FFFFA0" offset="2%"></stop>
            <stop stop-color="#FFEB6A" offset="98%"></stop>
        </linearGradient>
        <filter x="-94.7%" y="-95.5%" width="290.2%" height="290.2%" filterUnits="objectBoundingBox" id="filter-14">
            <feOffset dx="0" dy="10" in="SourceAlpha" result="shadowOffsetOuter1"></feOffset>
            <feGaussianBlur stdDeviation="9.5" in="shadowOffsetOuter1" result="shadowBlurOuter1"></feGaussianBlur>
            <feColorMatrix values="0 0 0 0 0.996078431   0 0 0 0 0.764705882   0 0 0 0 0.0470588235  0 0 0 0.328206949 0" type="matrix" in="shadowBlurOuter1" result="shadowMatrixOuter1"></feColorMatrix>
            <feMerge>
                <feMergeNode in="shadowMatrixOuter1"></feMergeNode>
                <feMergeNode in="SourceGraphic"></feMergeNode>
            </feMerge>
        </filter>
        <filter x="-66.9%" y="-66.1%" width="233.7%" height="232.2%" filterUnits="objectBoundingBox" id="filter-15">
            <feOffset dx="0" dy="13" in="SourceAlpha" result="shadowOffsetOuter1"></feOffset>
            <feGaussianBlur stdDeviation="9" in="shadowOffsetOuter1" result="shadowBlurOuter1"></feGaussianBlur>
            <feColorMatrix values="0 0 0 0 0.996078431   0 0 0 0 0.764705882   0 0 0 0 0.0470588235  0 0 0 0.0925480769 0" type="matrix" in="shadowBlurOuter1" result="shadowMatrixOuter1"></feColorMatrix>
            <feMerge>
                <feMergeNode in="shadowMatrixOuter1"></feMergeNode>
                <feMergeNode in="SourceGraphic"></feMergeNode>
            </feMerge>
        </filter>
        <linearGradient x1="105.221669%" y1="-52.3004644%" x2="17.190313%" y2="140.305435%" id="linearGradient-16">
            <stop stop-color="#FFC649" offset="0%"></stop>
            <stop stop-color="#FFC848" offset="0%"></stop>
            <stop stop-color="#FFCF45" offset="0%"></stop>
            <stop stop-color="#FFD243" offset="0%"></stop>
            <stop stop-color="#CD571B" offset="100%"></stop>
        </linearGradient>
        <linearGradient x1="72.0049087%" y1="38.5396385%" x2="32.1521706%" y2="57.2739649%" id="linearGradient-17">
            <stop stop-color="#E08C3C" offset="0%"></stop>
            <stop stop-color="#FFD06F" offset="100%"></stop>
        </linearGradient>
        <linearGradient x1="23.21523%" y1="185.967261%" x2="82.2463451%" y2="-113.701976%" id="linearGradient-18">
            <stop stop-color="#F5942A" offset="0%"></stop>
            <stop stop-color="#F5D85D" offset="100%"></stop>
        </linearGradient>
        <linearGradient x1="34.5148467%" y1="113.594236%" x2="75.6239007%" y2="-25.7731%" id="linearGradient-19">
            <stop stop-color="#E08C3C" offset="0%"></stop>
            <stop stop-color="#FFD06F" offset="100%"></stop>
        </linearGradient>
        <linearGradient x1="69.3194447%" y1="-27.1750895%" x2="18.8000316%" y2="174.630806%" id="linearGradient-20">
            <stop stop-color="#FFDE43" offset="20%"></stop>
            <stop stop-color="#FFD23E" offset="56%"></stop>
            <stop stop-color="#FFBD37" offset="100%"></stop>
        </linearGradient>
        <linearGradient x1="67.2275668%" y1="23.9090141%" x2="33.4138713%" y2="99.3094797%" id="linearGradient-21">
            <stop stop-color="#FFFFA0" offset="2%"></stop>
            <stop stop-color="#FFEB6A" offset="98%"></stop>
        </linearGradient>
        <filter x="-110.3%" y="-110.3%" width="320.6%" height="322.1%" filterUnits="objectBoundingBox" id="filter-22">
            <feOffset dx="0" dy="10" in="SourceAlpha" result="shadowOffsetOuter1"></feOffset>
            <feGaussianBlur stdDeviation="9.5" in="shadowOffsetOuter1" result="shadowBlurOuter1"></feGaussianBlur>
            <feColorMatrix values="0 0 0 0 0.996078431   0 0 0 0 0.764705882   0 0 0 0 0.0470588235  0 0 0 0.328206949 0" type="matrix" in="shadowBlurOuter1" result="shadowMatrixOuter1"></feColorMatrix>
            <feMerge>
                <feMergeNode in="shadowMatrixOuter1"></feMergeNode>
                <feMergeNode in="SourceGraphic"></feMergeNode>
            </feMerge>
        </filter>
        <linearGradient x1="105.221669%" y1="-52.3004644%" x2="17.190313%" y2="140.305435%" id="linearGradient-23">
            <stop stop-color="#FFC649" offset="0%"></stop>
            <stop stop-color="#FFC848" offset="0%"></stop>
            <stop stop-color="#FFCF45" offset="0%"></stop>
            <stop stop-color="#FFD243" offset="0%"></stop>
            <stop stop-color="#CD571B" offset="100%"></stop>
        </linearGradient>
        <linearGradient x1="72.0049087%" y1="38.5396385%" x2="32.1521706%" y2="57.2739649%" id="linearGradient-24">
            <stop stop-color="#E08C3C" offset="0%"></stop>
            <stop stop-color="#FFD06F" offset="100%"></stop>
        </linearGradient>
        <linearGradient x1="23.21523%" y1="185.967261%" x2="82.2463451%" y2="-113.701976%" id="linearGradient-25">
            <stop stop-color="#F5942A" offset="0%"></stop>
            <stop stop-color="#F5D85D" offset="100%"></stop>
        </linearGradient>
        <linearGradient x1="34.5148467%" y1="113.594236%" x2="75.6239007%" y2="-25.7731%" id="linearGradient-26">
            <stop stop-color="#E08C3C" offset="0%"></stop>
            <stop stop-color="#FFD06F" offset="100%"></stop>
        </linearGradient>
        <linearGradient x1="69.3194447%" y1="-27.1750895%" x2="18.8000316%" y2="174.630806%" id="linearGradient-27">
            <stop stop-color="#FFDE43" offset="20%"></stop>
            <stop stop-color="#FFD23E" offset="56%"></stop>
            <stop stop-color="#FFBD37" offset="100%"></stop>
        </linearGradient>
        <linearGradient x1="67.2275668%" y1="23.9090141%" x2="33.4138713%" y2="99.3094797%" id="linearGradient-28">
            <stop stop-color="#FFFFA0" offset="2%"></stop>
            <stop stop-color="#FFEB6A" offset="98%"></stop>
        </linearGradient>
    </defs>
    <g id="Page-1" stroke="none" stroke-width="1" fill="none" fill-rule="evenodd">
        <g id="main_menu">
            <g id="bg" transform="translate(-722.000000, -13.000000)">
                <g id="фон" transform="translate(716.000000, 0.000000)">
                    <g id="background" transform="translate(0.835217, 0.531145)">
                        <mask id="mask-2" fill="white">
                            <use xlink:href="#path-1"></use>
                        </mask>
                        <use id="Rectangle" fill="#5A3EC4" xlink:href="#path-1"></use>
                        <path d="M752.533446,-257.994203 C730.396327,-271.838913 706.291514,-284.621293 680.46393,-296.211462 C674.834037,-298.769079 669.514047,-301.022917 664.349007,-303.198361 L661.473802,-304.423273 L660.716263,-304.736851 C655.740608,-306.794703 650.971555,-308.65657 646.37467,-310.449841 L641.708918,-312.27251 L641.295715,-312.429299 C638.695979,-313.409229 636.044592,-314.389159 633.393205,-315.369088 L630.879552,-316.290222 L630.466349,-316.447011 L625.30131,-318.289279 C609.861677,-324.071228 591.240944,-326.441138 572.945027,-324.952801 L572.428524,-324.952801 C560.480641,-323.935925 549.111294,-321.352853 539.21732,-317.407342 C535.266665,-315.844499 531.541723,-314.104487 528.078052,-312.203915 L527.854234,-312.086324 C526.304722,-311.263183 524.824077,-310.410644 523.395083,-309.518908 L522.482593,-308.940749 C519.951724,-307.363062 516.80105,-305.393404 512.961704,-302.708396 L508.812455,-299.827403 L508.106567,-299.347237 L503.544115,-296.084071 C497.363285,-291.654789 491.216888,-287.156911 485.173792,-282.678633 L483.004475,-281.061748 L482.143635,-280.405196 L479.871018,-278.582526 L479.733284,-278.484533 L475.084748,-274.848994 L474.792063,-274.613811 L465.632726,-267.362331 C462.568136,-264.951704 459.434679,-262.335291 456.421739,-259.807073 L454.70006,-258.415573 L454.407374,-258.180389 L444.593799,-249.841187 C442.871023,-248.374679 441.307126,-246.849686 439.91083,-245.274715 L438.860606,-244.059602 C437.557795,-242.610387 436.407967,-241.118246 435.417246,-239.591122 L429.4258,-230.262191 L412.75994,-204.784019 L412.604989,-204.548835 C409.488748,-199.766778 406.269207,-194.935725 403.049666,-190.241861 L398.142879,-183.107973 C396.731101,-181.099117 395.646443,-179.433237 394.596218,-177.816352 L393.56321,-176.238666 C393.08114,-175.523317 392.633503,-174.798169 392.237517,-174.073021 L392.099783,-173.828038 C391.078397,-172.0842 390.216403,-170.311418 389.517263,-168.516819 C387.389408,-163.308634 386.911324,-157.926133 388.105485,-152.622359 L388.105485,-152.494968 C391.481993,-137.656001 408.301723,-124.916409 432.404306,-118.942174 L434.831875,-118.315019 C435.813232,-118.050438 436.811807,-117.795657 437.793164,-117.550674 L438.636787,-117.33509 C440.237949,-116.864723 441.873545,-116.413956 443.491924,-115.953389 C444.765967,-115.600614 446.057227,-115.247839 447.314053,-114.875466 C449.276768,-114.248311 451.291134,-113.650554 453.288282,-113.052797 C454.390157,-112.719621 455.509249,-112.396244 456.593907,-112.072867 L457.127628,-111.89648 C468.55134,-108.253693 479.531734,-104.17779 489.994495,-99.6963546 C499.856614,-95.4679866 509.145496,-90.8230614 517.782407,-85.8009511 L517.954575,-85.6931588 L520.864214,-84.0076797 L523.481167,-82.3319998 C524.238706,-81.842035 525.013462,-81.3520701 525.771001,-80.8817038 L526.52854,-80.4113376 L529.54148,-78.3436859 C530.281802,-77.8243231 531.056558,-77.3049603 531.831314,-76.7953969 L534.964771,-74.4337662 L536.256031,-73.4538365 C536.806969,-73.0324667 537.306256,-72.6012976 537.82276,-72.1701286 C538.339264,-71.7389595 539.148453,-71.062808 539.837125,-70.504248 C551.938235,-60.3021099 560.289343,-48.8124162 564.388279,-36.7260703 C566.297426,-30.9563919 567.002461,-25.0785522 566.488728,-19.2147261 C566.221576,-16.475659 565.646506,-13.7491411 564.767048,-11.0519115 C564.663748,-10.7481333 564.560447,-10.4541544 564.474363,-10.1503761 C563.664123,-7.66292366 562.512816,-5.21541373 561.031003,-2.83030108 C559.057057,0.448891648 556.757788,3.66169209 554.144284,6.79260884 C551.303513,10.1439685 547.825719,13.7991064 543.814205,17.6502302 C534.955164,26.0250344 525.095406,34.0434175 514.304614,41.6487092 L513.684809,42.0994769 C492.542581,57.4941729 466.596867,73.516024 432.025537,92.5462593 C407.405516,106.098687 381.73527,119.288542 354.429429,133.213343 L333.872572,143.796584 C297.596779,162.415249 262.26791,180.886924 228.850105,201.29886 C193.095935,222.836061 160.827214,246.164683 132.436037,271.001262 C102.88867,296.500265 78.2145789,323.723826 58.834226,352.208038 L52.3090596,361.958339 C51.8786396,362.595293 51.4826533,363.242047 51.1038837,363.918199 L42.4954848,378.842528 C41.2214417,381.04737 40.3606018,382.928835 39.7063635,384.310536 C39.5686291,384.633913 39.413678,384.95729 39.2587268,385.290466 L38.9488244,385.907822 L34.1969882,395.765915 C32.7335604,398.705704 31.7177693,401.312317 30.8741462,403.605353 L27.0692339,413.865217 C27.0770628,413.917385 27.0770628,413.969838 27.0692339,414.022006 L26.7593315,414.864745 C26.1050932,416.579622 25.2270365,418.892256 24.5383646,421.655658 L21.5770754,431.778332 C21.5770754,431.895924 21.5770754,432.023315 21.4909914,432.150705 C21.3704738,432.591674 21.2327394,433.022843 21.1122218,433.463811 C20.6990187,434.894509 20.1825147,436.677981 19.7520948,438.755432 C19.7520948,438.990615 19.7520948,439.225798 19.6143604,439.470781 L18.6674365,444.830996 C18.6674365,444.830996 18.6674365,444.909391 18.6674365,444.948588 L16.7391551,455.610223 C16.6358544,456.168783 16.5669872,456.717544 16.49812,457.276104 C16.2570848,459.706329 16.0677,462.175752 15.895532,464.57658 C15.7922313,465.879887 15.7061473,467.183193 15.5856297,468.496299 C15.5856297,468.682486 15.5856297,468.868672 15.5856297,469.054859 C15.5856297,469.887799 15.4651121,470.71094 15.3962449,471.534081 C15.1724265,474.47387 14.879741,478.060413 15.051909,482.117322 L15.051909,487.291351 C15.051909,487.771517 15.051909,488.271281 15.051909,488.741647 L15.4478953,494.033268 C15.6544969,497.472821 16.0849168,500.608596 16.4636864,503.391597 C16.6014208,504.371526 16.7391551,505.351456 16.8596727,506.331386 C16.8596727,506.527372 16.8596727,506.713558 16.8596727,506.909544 C17.4106103,510.633277 18.116499,514.063031 18.7879541,517.375194 L19.1495068,519.197863 L19.3561084,520.177793 C21.5426418,529.202946 24.0218606,537.336362 26.9487163,545.03861 C33.2319596,561.738923 41.8682816,578.124062 52.7739131,594.035096 C52.7739131,594.093892 52.7739131,594.152688 52.8944307,594.201684 C63.9285698,610.426008 77.335869,626.094557 92.9751362,641.042325 L93.6810249,641.718477 C97.1243844,644.952245 100.96373,648.577985 105.440098,652.41931 L106.869092,653.66382 C108.590772,655.104317 110.174717,656.535014 111.896397,657.946113 C112.034131,658.044106 112.154649,658.151898 112.275167,658.249891 L121.245118,665.315185 C121.692755,665.65816 122.140392,666.010935 122.605245,666.35391 L125.669835,668.666544 L125.824787,668.774337 L132.022834,673.409404 C132.453254,673.732781 132.90089,674.056158 133.348527,674.389334 L133.744514,674.673514 C138.289748,677.868085 142.972717,681.170448 148.241057,684.600202 C169.842497,698.788998 193.843468,711.734121 219.89737,723.24863 L220.086755,723.336824 C247.451169,735.329639 276.991086,745.621927 308.202326,754.038022 L308.460578,754.096818 C339.048827,762.166132 370.879852,768.61199 403.548953,773.352437 C433.126523,777.666956 463.131799,780.968705 493.403421,783.239928 C515.905776,785.052798 537.289039,786.297309 557.966413,787.492823 L573.25493,788.384559 C595.230337,789.689398 617.087763,785.367043 632.907713,776.588087 C648.727662,767.80913 656.873088,755.482018 655.138021,742.945218 L635.992941,604.343957 C634.244069,591.565147 622.417078,579.925443 603.829157,572.689507 C585.241236,565.453571 561.894228,563.400682 540.336412,567.106628 C504.181137,573.319382 473.500803,576.719738 446.608165,577.484083 L446.315479,577.484083 C441.288174,577.640872 435.778799,577.640872 428.478876,577.484083 C424.002509,577.356692 419.095722,577.062714 413.087059,576.55315 C403.321274,575.548635 393.805537,573.873796 384.74821,571.565308 C374.15897,568.835794 364.139586,565.440445 354.877066,561.442634 C344.436929,556.879797 334.832899,551.72864 326.211097,546.067536 C325.866761,545.851952 325.539642,545.636367 325.195306,545.430582 C324.85097,545.224797 323.473626,544.235068 322.526702,543.588314 C321.579778,542.94156 320.718939,542.324205 319.806448,541.69705 C318.893958,541.069895 318.170852,540.462338 317.327229,539.844983 C316.018753,538.865053 314.761926,537.93412 313.88387,537.297165 C313.005813,536.660211 312.317141,536.033056 311.542385,535.405901 C310.165041,534.29858 308.753264,533.161862 308.099026,532.466112 L307.703039,532.044742 L304.569582,529.251942 L301.573859,526.370949 C298.1305,523.097983 294.876525,519.570236 291.536466,515.591722 C288.471876,511.760197 285.372852,507.752284 283.065802,504.04815 L282.8592,503.714973 C277.76167,495.864776 273.957602,487.761812 271.496113,479.510709 L270.549189,476.218145 L269.826084,472.925581 C269.826084,472.563007 269.671133,472.190634 269.567832,471.82806 C269.464531,471.465486 269.344014,470.279771 269.25793,469.476229 C269.137412,468.496299 269.034111,467.516369 268.896377,466.605035 C268.758643,465.6937 268.672559,464.782365 268.552041,463.871031 C268.362656,462.557925 268.207705,461.303615 268.104404,460.235491 L268.104404,452.59204 C268.001103,435.315879 273.389961,416.452231 284.098809,396.53026 C284.339845,396.089292 284.563663,395.648323 284.770265,395.197555 C285.854923,392.924119 287.800421,389.905935 289.935304,386.711364 C291.08309,384.954023 292.230877,383.199949 293.378663,381.449141 C293.516398,381.233557 293.619699,381.05717 293.740216,380.841585 C293.998468,380.420215 294.893742,379.224701 295.54798,378.352563 C296.202218,377.480426 297.063058,376.333908 297.803381,375.314781 L300.075998,372.218203 C300.988488,370.963893 301.900978,369.699784 302.865119,368.445474 C310.468955,359.095605 318.898736,349.970603 328.122162,341.105435 C329.275687,340.037311 330.411996,338.959388 331.565521,337.881466 C332.925648,336.587959 334.199691,335.363046 335.008881,334.6183 L347.370542,323.976263 L360.145406,313.912385 C361.333365,313.010849 362.900093,311.952525 364.535689,310.727613 C365.792515,309.845676 367.032125,308.95394 368.254517,308.062204 C369.47691,307.170468 370.905904,306.17094 372.214381,305.220408 C373.522858,304.269876 375.072369,303.133158 375.915993,302.603996 C376.122594,302.457006 376.346412,302.310017 376.570231,302.172826 L386.90031,295.313318 L389.15571,293.814026 C389.620564,293.500448 390.0682,293.186871 390.533054,292.892892 L406.028172,283.446369 L416.68537,277.312009 L417.219091,276.998432 C422.38413,273.990048 428.100107,270.864072 434.194853,267.561709 L438.585137,265.180479 C440.306817,264.20055 442.4417,263.142225 444.714317,261.985908 L449.225118,259.653676 L453.753136,257.311644 C455.974103,256.165126 458.074552,255.077404 459.916749,254.175868 C462.60257,252.872562 465.253957,251.569255 467.92256,250.25615 C473.535236,247.502547 478.855227,244.905733 484.330169,242.328518 C515.062153,227.786361 547.274782,213.841961 581.381258,199.084219 L590.953798,194.939116 C627.229591,179.201445 664.727777,162.924812 701.91606,144.521732 C723.987995,133.742505 743.322459,123.433644 761.038544,112.948396 L761.193495,112.850403 C771.764609,106.549455 781.853653,100.023123 791.150724,93.4673932 C801.46241,86.2831382 811.088976,78.7889559 819.98886,71.0172032 C829.530756,62.6801236 838.122392,54.0029648 845.710756,45.0392661 C853.507329,35.915929 860.25893,26.5151104 865.923277,16.8956843 C877.092325,-2.11136102 884.264357,-21.8048317 887.289323,-41.7727084 L887.289323,-41.8903 C893.224625,-81.6333163 883.671537,-121.632047 859.312027,-159.0311 C835.828314,-194.945524 799.982941,-228.253336 752.533446,-257.994203 Z" id="Path-Copy" fill="url(#linearGradient-3)" fill-rule="nonzero" opacity="0.206263951" mask="url(#mask-2)" transform="translate(452.000000, 231.613343) rotate(22.000000) translate(-452.000000, -231.613343) "></path>
                        <path d="M41.5334461,-105.994203 C19.3963271,-119.838913 -4.70848639,-132.621293 -30.5360698,-144.211462 C-36.1659627,-146.769079 -41.4859532,-149.022917 -46.6509926,-151.198361 L-49.5261978,-152.423273 L-50.283737,-152.736851 C-55.2593915,-154.794703 -60.0284446,-156.65657 -64.6253296,-158.449841 L-69.2910818,-160.27251 L-69.704285,-160.429299 C-72.3040214,-161.409229 -74.9554083,-162.389159 -77.6067952,-163.369088 L-80.1204477,-164.290222 L-80.5336508,-164.447011 L-85.6986902,-166.289279 C-101.138323,-172.071228 -119.759056,-174.441138 -138.054973,-172.952801 L-138.571476,-172.952801 C-150.519359,-171.935925 -161.888706,-169.352853 -171.78268,-165.407342 C-175.733335,-163.844499 -179.458277,-162.104487 -182.921948,-160.203915 L-183.145766,-160.086324 C-184.695278,-159.263183 -186.175923,-158.410644 -187.604917,-157.518908 L-188.517407,-156.940749 C-191.048276,-155.363062 -194.19895,-153.393404 -198.038296,-150.708396 L-202.187545,-147.827403 L-202.893433,-147.347237 L-207.455885,-144.084071 C-213.636715,-139.654789 -219.783112,-135.156911 -225.826208,-130.678633 L-227.995525,-129.061748 L-228.856365,-128.405196 L-231.128982,-126.582526 L-231.266716,-126.484533 L-235.915252,-122.848994 L-236.207937,-122.613811 L-245.367274,-115.362331 C-248.431864,-112.951704 -251.565321,-110.335291 -254.578261,-107.807073 L-256.29994,-106.415573 L-256.592626,-106.180389 L-266.406201,-97.8411874 C-268.128977,-96.3746793 -269.692874,-94.8496862 -271.08917,-93.2747149 L-272.139394,-92.059602 C-273.442205,-90.6103873 -274.592033,-89.1182461 -275.582754,-87.5911224 L-281.5742,-78.2621914 L-298.24006,-52.7840185 L-298.395011,-52.5488354 C-301.511252,-47.7667783 -304.730793,-42.9357248 -307.950334,-38.2418614 L-312.857121,-31.107973 C-314.268899,-29.099117 -315.353557,-27.4332365 -316.403782,-25.8163525 L-317.43679,-24.2386656 C-317.91886,-23.5233169 -318.366497,-22.7981689 -318.762483,-22.0730209 L-318.900217,-21.8280385 C-319.921603,-20.0841997 -320.783597,-18.3114181 -321.482737,-16.5168193 C-323.610592,-11.3086343 -324.088676,-5.92613306 -322.894515,-0.622359166 L-322.894515,-0.494968302 C-319.518007,14.3439991 -302.698277,27.0835912 -278.595694,33.0578256 L-276.168125,33.6849806 C-275.186768,33.9495616 -274.188193,34.2043433 -273.206836,34.4493258 L-272.363213,34.6649103 C-270.762051,35.1352766 -269.126455,35.5860443 -267.508076,36.0466112 C-266.234033,36.3993859 -264.942773,36.7521606 -263.685947,37.1245339 C-261.723232,37.7516889 -259.708866,38.3494461 -257.711718,38.9472032 C-256.609843,39.2803793 -255.490751,39.6037561 -254.406093,39.9271329 L-253.872372,40.1035203 C-242.44866,43.7463067 -231.468266,47.8222101 -221.005505,52.3036454 C-211.143386,56.5320134 -201.854504,61.1769386 -193.217593,66.1990489 L-193.045425,66.3068412 L-190.135786,67.9923203 L-187.518833,69.6680002 C-186.761294,70.157965 -185.986538,70.6479299 -185.228999,71.1182962 L-184.47146,71.5886624 L-181.45852,73.6563141 C-180.718198,74.1756769 -179.943442,74.6950397 -179.168686,75.2046031 L-176.035229,77.5662338 L-174.743969,78.5461635 C-174.193031,78.9675333 -173.693744,79.3987024 -173.17724,79.8298714 C-172.660736,80.2610405 -171.851547,80.937192 -171.162875,81.495752 C-159.061765,91.6978901 -150.710657,103.187584 -146.611721,115.27393 C-144.702574,121.043608 -143.997539,126.921448 -144.511272,132.785274 C-144.778424,135.524341 -145.353494,138.250859 -146.232952,140.948089 C-146.336252,141.251867 -146.439553,141.545846 -146.525637,141.849624 C-147.335877,144.337076 -148.487184,146.784586 -149.968997,149.169699 C-151.942943,152.448892 -154.242212,155.661692 -156.855716,158.792609 C-159.696487,162.143969 -163.174281,165.799106 -167.185795,169.65023 C-176.044836,178.025034 -185.904594,186.043418 -196.695386,193.648709 L-197.315191,194.099477 C-218.457419,209.494173 -244.403133,225.516024 -278.974463,244.546259 C-303.594484,258.098687 -329.26473,271.288542 -356.570571,285.213343 L-377.127428,295.796584 C-413.403221,314.415249 -448.73209,332.886924 -482.149895,353.29886 C-517.904065,374.836061 -550.172786,398.164683 -578.563963,423.001262 C-608.11133,448.500265 -632.785421,475.723826 -652.165774,504.208038 L-658.69094,513.958339 C-659.12136,514.595293 -659.517347,515.242047 -659.896116,515.918199 L-668.504515,530.842528 C-669.778558,533.04737 -670.639398,534.928835 -671.293636,536.310536 C-671.431371,536.633913 -671.586322,536.95729 -671.741273,537.290466 L-672.051176,537.907822 L-676.803012,547.765915 C-678.26644,550.705704 -679.282231,553.312317 -680.125854,555.605353 L-683.930766,565.865217 C-683.922937,565.917385 -683.922937,565.969838 -683.930766,566.022006 L-684.240668,566.864745 C-684.894907,568.579622 -685.772963,570.892256 -686.461635,573.655658 L-689.422925,583.778332 C-689.422925,583.895924 -689.422925,584.023315 -689.509009,584.150705 C-689.629526,584.591674 -689.767261,585.022843 -689.887778,585.463811 C-690.300981,586.894509 -690.817485,588.677981 -691.247905,590.755432 C-691.247905,590.990615 -691.247905,591.225798 -691.38564,591.470781 L-692.332563,596.830996 C-692.332563,596.830996 -692.332563,596.909391 -692.332563,596.948588 L-694.260845,607.610223 C-694.364146,608.168783 -694.433013,608.717544 -694.50188,609.276104 C-694.742915,611.706329 -694.9323,614.175752 -695.104468,616.57658 C-695.207769,617.879887 -695.293853,619.183193 -695.41437,620.496299 C-695.41437,620.682486 -695.41437,620.868672 -695.41437,621.054859 C-695.41437,621.887799 -695.534888,622.71094 -695.603755,623.534081 C-695.827573,626.47387 -696.120259,630.060413 -695.948091,634.117322 L-695.948091,639.291351 C-695.948091,639.771517 -695.948091,640.271281 -695.948091,640.741647 L-695.552105,646.033268 C-695.345503,649.472821 -694.915083,652.608596 -694.536314,655.391597 C-694.398579,656.371526 -694.260845,657.351456 -694.140327,658.331386 C-694.140327,658.527372 -694.140327,658.713558 -694.140327,658.909544 C-693.58939,662.633277 -692.883501,666.063031 -692.212046,669.375194 L-691.850493,671.197863 L-691.643892,672.177793 C-689.457358,681.202946 -686.978139,689.336362 -684.051284,697.03861 C-677.76804,713.738923 -669.131718,730.124062 -658.226087,746.035096 C-658.226087,746.093892 -658.226087,746.152688 -658.105569,746.201684 C-647.07143,762.426008 -633.664131,778.094557 -618.024864,793.042325 L-617.318975,793.718477 C-613.875616,796.952245 -610.03627,800.577985 -605.559902,804.41931 L-604.130908,805.66382 C-602.409228,807.104317 -600.825283,808.535014 -599.103603,809.946113 C-598.965869,810.044106 -598.845351,810.151898 -598.724833,810.249891 L-589.754882,817.315185 C-589.307245,817.65816 -588.859608,818.010935 -588.394755,818.35391 L-585.330165,820.666544 L-585.175213,820.774337 L-578.977166,825.409404 C-578.546746,825.732781 -578.09911,826.056158 -577.651473,826.389334 L-577.255486,826.673514 C-572.710252,829.868085 -568.027283,833.170448 -562.758943,836.600202 C-541.157503,850.788998 -517.156532,863.734121 -491.10263,875.24863 L-490.913245,875.336824 C-463.548831,887.329639 -434.008914,897.621927 -402.797674,906.038022 L-402.539422,906.096818 C-371.951173,914.166132 -340.120148,920.61199 -307.451047,925.352437 C-277.873477,929.666956 -247.868201,932.968705 -217.596579,935.239928 C-195.094224,937.052798 -173.710961,938.297309 -153.033587,939.492823 L-137.74507,940.384559 C-115.769663,941.689398 -93.9122366,937.367043 -78.0922874,928.588087 C-62.2723382,919.80913 -54.1269124,907.482018 -55.8619795,894.945218 L-75.0070587,756.343957 C-76.7559307,743.565147 -88.582922,731.925443 -107.170843,724.689507 C-125.758764,717.453571 -149.105772,715.400682 -170.663588,719.106628 C-206.818863,725.319382 -237.499197,728.719738 -264.391835,729.484083 L-264.684521,729.484083 C-269.711826,729.640872 -275.221201,729.640872 -282.521124,729.484083 C-286.997491,729.356692 -291.904278,729.062714 -297.912941,728.55315 C-307.678726,727.548635 -317.194463,725.873796 -326.25179,723.565308 C-336.84103,720.835794 -346.860414,717.440445 -356.122934,713.442634 C-366.563071,708.879797 -376.167101,703.72864 -384.788903,698.067536 C-385.133239,697.851952 -385.460358,697.636367 -385.804694,697.430582 C-386.14903,697.224797 -387.526374,696.235068 -388.473298,695.588314 C-389.420222,694.94156 -390.281061,694.324205 -391.193552,693.69705 C-392.106042,693.069895 -392.829148,692.462338 -393.672771,691.844983 C-394.981247,690.865053 -396.238074,689.93412 -397.11613,689.297165 C-397.994187,688.660211 -398.682859,688.033056 -399.457615,687.405901 C-400.834959,686.29858 -402.246736,685.161862 -402.900974,684.466112 L-403.296961,684.044742 L-406.430418,681.251942 L-409.426141,678.370949 C-412.8695,675.097983 -416.123475,671.570236 -419.463534,667.591722 C-422.528124,663.760197 -425.627148,659.752284 -427.934198,656.04815 L-428.1408,655.714973 C-433.23833,647.864776 -437.042398,639.761812 -439.503887,631.510709 L-440.450811,628.218145 L-441.173916,624.925581 C-441.173916,624.563007 -441.328867,624.190634 -441.432168,623.82806 C-441.535469,623.465486 -441.655986,622.279771 -441.74207,621.476229 C-441.862588,620.496299 -441.965889,619.516369 -442.103623,618.605035 C-442.241357,617.6937 -442.327441,616.782365 -442.447959,615.871031 C-442.637344,614.557925 -442.792295,613.303615 -442.895596,612.235491 L-442.895596,604.59204 C-442.998897,587.315879 -437.610039,568.452231 -426.901191,548.53026 C-426.660155,548.089292 -426.436337,547.648323 -426.229735,547.197555 C-425.145077,544.924119 -423.199579,541.905935 -421.064696,538.711364 C-419.91691,536.954023 -418.769123,535.199949 -417.621337,533.449141 C-417.483602,533.233557 -417.380301,533.05717 -417.259784,532.841585 C-417.001532,532.420215 -416.106258,531.224701 -415.45202,530.352563 C-414.797782,529.480426 -413.936942,528.333908 -413.196619,527.314781 L-410.924002,524.218203 C-410.011512,522.963893 -409.099022,521.699784 -408.134881,520.445474 C-400.531045,511.095605 -392.101264,501.970603 -382.877838,493.105435 C-381.724313,492.037311 -380.588004,490.959388 -379.434479,489.881466 C-378.074352,488.587959 -376.800309,487.363046 -375.991119,486.6183 L-363.629458,475.976263 L-350.854594,465.912385 C-349.666635,465.010849 -348.099907,463.952525 -346.464311,462.727613 C-345.207485,461.845676 -343.967875,460.95394 -342.745483,460.062204 C-341.52309,459.170468 -340.094096,458.17094 -338.785619,457.220408 C-337.477142,456.269876 -335.927631,455.133158 -335.084007,454.603996 C-334.877406,454.457006 -334.653588,454.310017 -334.429769,454.172826 L-324.09969,447.313318 L-321.84429,445.814026 C-321.379436,445.500448 -320.9318,445.186871 -320.466946,444.892892 L-304.971828,435.446369 L-294.31463,429.312009 L-293.780909,428.998432 C-288.61587,425.990048 -282.899893,422.864072 -276.805147,419.561709 L-272.414863,417.180479 C-270.693183,416.20055 -268.5583,415.142225 -266.285683,413.985908 L-261.774882,411.653676 L-257.246864,409.311644 C-255.025897,408.165126 -252.925448,407.077404 -251.083251,406.175868 C-248.39743,404.872562 -245.746043,403.569255 -243.07744,402.25615 C-237.464764,399.502547 -232.144773,396.905733 -226.669831,394.328518 C-195.937847,379.786361 -163.725218,365.841961 -129.618742,351.084219 L-120.046202,346.939116 C-83.7704088,331.201445 -46.272223,314.924812 -9.08393962,296.521732 C12.9879953,285.742505 32.3224593,275.433644 50.0385443,264.948396 L50.1934955,264.850403 C60.7646094,258.549455 70.8536529,252.023123 80.1507238,245.467393 C90.4624098,238.283138 100.088976,230.788956 108.98886,223.017203 C118.530756,214.680124 127.122392,206.002965 134.710756,197.039266 C142.507329,187.915929 149.25893,178.51511 154.923277,168.895684 C166.092325,149.888639 173.264357,130.195168 176.289323,110.227292 L176.289323,110.1097 C182.224625,70.3666837 172.671537,30.3679527 148.312027,-7.03109958 C124.828314,-42.9455241 88.9829411,-76.2533355 41.5334461,-105.994203 Z" id="Path-Copy-3" fill="url(#linearGradient-3)" fill-rule="nonzero" opacity="0.206263951" mask="url(#mask-2)" transform="translate(-259.000000, 383.613343) scale(-1, 1) rotate(22.000000) translate(259.000000, -383.613343) "></path>
                        <path d="M220.124153,-463.607546 C207.535883,-477.452256 193.828684,-490.234636 179.141831,-501.824805 C175.940393,-504.382422 172.915181,-506.63626 169.978082,-508.811704 L168.343097,-510.036616 L167.912323,-510.350194 C165.082917,-512.408046 162.370996,-514.269912 159.756978,-516.063184 L157.103798,-517.885853 L156.86883,-518.042642 C155.39049,-519.022572 153.882779,-520.002501 152.375069,-520.982431 L150.94568,-521.903565 L150.710712,-522.060354 L147.773613,-523.902622 C138.993868,-529.684571 128.40519,-532.054481 118.001219,-530.566144 L117.70751,-530.566144 C110.913347,-529.549268 104.44817,-526.966196 98.8219627,-523.020685 C96.5754229,-521.457842 94.4572348,-519.71783 92.4876191,-517.817258 L92.3603448,-517.699667 C91.4792151,-516.876526 90.6372467,-516.023987 89.8246493,-515.132251 L89.3057618,-514.554092 C87.8665833,-512.976405 86.0749528,-511.006746 83.8917092,-508.321739 L81.5322397,-505.440746 L81.1308361,-504.96058 L78.5363986,-501.697414 C75.0216701,-497.268132 71.5265222,-492.770254 68.0901164,-488.291975 L66.8565348,-486.675091 L66.3670183,-486.018538 L65.0746947,-484.195869 L64.996372,-484.097876 L62.3529829,-480.462337 L62.1865473,-480.227154 L56.9780916,-472.975674 C55.2354129,-470.565047 53.4535728,-467.948634 51.740265,-465.420416 L50.761232,-464.028915 L50.5947964,-463.793732 L45.0143082,-455.45453 C44.0346519,-453.988022 43.1453417,-452.463029 42.3513384,-450.888058 L41.7541283,-449.672945 C41.0132849,-448.22373 40.3594359,-446.731589 39.7960622,-445.204465 L36.3890274,-435.875534 L26.9119878,-410.397361 L26.8238748,-410.162178 C25.051825,-405.380121 23.2210333,-400.549068 21.3902416,-395.855204 L18.5999975,-388.721316 C17.7971904,-386.71246 17.1803996,-385.046579 16.5831895,-383.429695 L15.9957697,-381.852008 C15.7216404,-381.13666 15.4670918,-380.411512 15.2419142,-379.686364 L15.1635916,-379.441381 C14.582781,-377.697543 14.0926078,-375.924761 13.6950421,-374.130162 C12.4850379,-368.921977 12.2131752,-363.539476 12.892235,-358.235702 L12.892235,-358.108311 C14.8122859,-343.269344 24.376823,-330.529752 38.0827545,-324.555517 L39.463191,-323.928362 C40.0212398,-323.663781 40.589079,-323.409 41.1471278,-323.164017 L41.626854,-322.948433 C42.5373547,-322.478066 43.467436,-322.027299 44.3877271,-321.566732 C45.1122115,-321.213957 45.8464863,-320.861182 46.5611804,-320.488809 C47.677278,-319.861654 48.8227466,-319.263897 49.9584249,-318.66614 C50.5850061,-318.332964 51.2213775,-318.009587 51.8381683,-317.68621 L52.1416686,-317.509823 C58.6377611,-313.867036 64.8817607,-309.791133 70.8314088,-305.309697 C76.4395014,-301.081329 81.7216233,-296.436404 86.6330017,-291.414294 L86.730905,-291.306502 L88.3854708,-289.621023 L89.8736009,-287.945343 C90.3043755,-287.455378 90.7449403,-286.965413 91.1757148,-286.495047 L91.6064894,-286.02468 L93.3197971,-283.957029 C93.7407813,-283.437666 94.1813462,-282.918303 94.6219111,-282.40874 L96.4037511,-280.047109 L97.1380259,-279.067179 C97.4513165,-278.64581 97.735236,-278.214641 98.0289459,-277.783471 C98.3226558,-277.352302 98.7828014,-276.676151 99.1744146,-276.117591 C106.055709,-265.915453 110.804566,-254.425759 113.135425,-242.339413 C114.221062,-236.569735 114.62198,-230.691895 114.329846,-224.828069 C114.17793,-222.089002 113.850916,-219.362484 113.350813,-216.665254 C113.292071,-216.361476 113.233329,-216.067497 113.184377,-215.763719 C112.723634,-213.276267 112.068943,-210.828757 111.226311,-208.443644 C110.103827,-205.164451 108.796348,-201.951651 107.310179,-198.820734 C105.694774,-195.469374 103.717128,-191.814236 101.435981,-187.963113 C96.3982881,-179.588308 90.7915375,-171.569925 84.655355,-163.964634 L84.3029031,-163.513866 C72.2803777,-148.11917 57.5263501,-132.097319 37.8673672,-113.067084 C23.8671951,-99.5146555 9.26981285,-86.3248013 -6.25765076,-72.3999999 L-17.9473049,-61.8167589 C-38.5755306,-43.1980941 -58.665288,-24.7264187 -77.6683188,-4.31448248 C-97.9999233,17.2227182 -116.349528,40.5513401 -132.494168,65.387919 C-149.296274,90.886922 -163.327194,118.110484 -174.347829,146.594695 L-178.058364,156.344996 C-178.303122,156.981951 -178.5283,157.628704 -178.743687,158.304856 L-183.638852,173.229185 C-184.363337,175.434027 -184.852853,177.315492 -185.224886,178.697193 C-185.303208,179.02057 -185.391321,179.343947 -185.479434,179.677123 L-185.65566,180.294479 L-188.357791,190.152572 C-189.18997,193.092361 -189.767599,195.698974 -190.247325,197.99201 L-192.410988,208.251874 C-192.406536,208.304042 -192.406536,208.356495 -192.410988,208.408663 L-192.587214,209.251402 C-192.959247,210.966279 -193.458553,213.278913 -193.850167,216.042315 L-195.534103,226.164989 C-195.534103,226.282581 -195.534103,226.409972 -195.583055,226.537363 C-195.651587,226.978331 -195.72991,227.4095 -195.798442,227.850468 C-196.03341,229.281166 -196.32712,231.064638 -196.571878,233.142089 C-196.571878,233.377272 -196.571878,233.612455 -196.650201,233.857438 L-197.188669,239.217653 C-197.188669,239.217653 -197.188669,239.296048 -197.188669,239.335245 L-198.285186,249.99688 C-198.343928,250.55544 -198.38309,251.104201 -198.422251,251.662761 C-198.559315,254.092987 -198.667009,256.562409 -198.764912,258.963237 C-198.823654,260.266544 -198.872606,261.56985 -198.941138,262.882956 C-198.941138,263.069143 -198.941138,263.25533 -198.941138,263.441516 C-198.941138,264.274456 -199.009671,265.097597 -199.048832,265.920738 C-199.176106,268.860528 -199.342542,272.44707 -199.244639,276.503979 L-199.244639,281.678008 C-199.244639,282.158174 -199.244639,282.657938 -199.244639,283.128304 L-199.019461,288.419925 C-198.901977,291.859478 -198.657219,294.995253 -198.441831,297.778254 C-198.363509,298.758184 -198.285186,299.738113 -198.216654,300.718043 C-198.216654,300.914029 -198.216654,301.100216 -198.216654,301.296202 C-197.903363,305.019934 -197.50196,308.449689 -197.120137,311.761851 L-196.91454,313.58452 L-196.797056,314.56445 C-195.553684,323.589603 -194.143877,331.72302 -192.47952,339.425267 C-188.906555,356.12558 -183.995511,372.510719 -177.794025,388.421754 C-177.794025,388.480549 -177.794025,388.539345 -177.725493,388.588342 C-171.450931,404.812665 -163.826872,420.481214 -154.933604,435.428983 L-154.532201,436.105134 C-152.574135,439.338902 -150.390891,442.964642 -147.845405,446.805967 L-147.032808,448.050477 C-146.053775,449.490974 -145.153065,450.921672 -144.174032,452.33277 C-144.095709,452.430763 -144.027177,452.538556 -143.958644,452.636549 L-138.857882,459.701842 C-138.603334,460.044817 -138.348785,460.397592 -138.084446,460.740567 L-136.341767,463.053202 L-136.253654,463.160994 L-132.729136,467.796061 C-132.484377,468.119438 -132.229829,468.442815 -131.97528,468.775991 L-131.750103,469.060171 C-129.165455,472.254742 -126.502486,475.557105 -123.506645,478.986859 C-111.222989,493.175655 -97.5748392,506.120779 -82.7592905,517.635287 L-82.6515969,517.723481 C-67.0908259,529.716297 -50.2929556,540.008585 -32.5446872,548.424679 L-32.3978322,548.483475 C-15.0038282,556.552789 3.09688039,562.998647 21.6741611,567.739094 C38.493443,572.053613 55.5559394,575.355362 72.7698942,577.626585 C85.5658557,579.439455 97.7254457,580.683966 109.483632,581.87948 L118.177445,582.771216 C130.673758,584.076055 143.102981,579.7537 152.098993,570.974744 C161.095006,562.195787 165.726901,549.868676 164.740256,537.331875 L153.853408,398.730614 C152.858913,385.951804 146.133495,374.312101 135.563476,367.076165 C124.993457,359.840228 111.717184,357.78734 99.4583341,361.493285 C78.8986408,367.706039 61.4522725,371.106395 46.1597768,371.87074 L45.9933412,371.87074 C43.1345648,372.027529 40.0016592,372.027529 35.8505592,371.87074 C33.3050734,371.74335 30.5148293,371.449371 27.098004,370.939807 C21.5446917,369.935292 16.1335685,368.260453 10.9831206,365.951965 C4.96155034,363.222451 -0.735971067,359.827102 -6.00310217,355.829291 C-11.9398847,351.266454 -17.4012154,346.115297 -22.3040019,340.454193 C-22.4998085,340.238609 -22.6858247,340.023024 -22.8816313,339.817239 C-23.0774379,339.611454 -23.8606644,338.621725 -24.3991325,337.974971 C-24.9376007,337.328218 -25.4271172,336.710862 -25.9460047,336.083707 C-26.4648922,335.456552 -26.876086,334.848995 -27.3558122,334.23164 C-28.0998773,333.25171 -28.8145714,332.320777 -29.3138782,331.683822 C-29.8131851,331.046868 -30.2047983,330.419713 -30.6453631,329.792558 C-31.4285896,328.685237 -32.2313966,327.548519 -32.6034292,326.852769 L-32.8286068,326.431399 L-34.6104469,323.638599 L-36.3139643,320.757606 C-38.2720303,317.484641 -40.1224027,313.956894 -42.0217268,309.978379 C-43.7644055,306.146854 -45.526665,302.138941 -46.8385692,298.434807 L-46.9560532,298.101631 C-49.8547627,290.251433 -52.017946,282.148469 -53.4176711,273.897366 L-53.9561392,270.604802 L-54.3673331,267.312239 C-54.3673331,266.949665 -54.4554461,266.577291 -54.514188,266.214717 C-54.57293,265.852143 -54.6414623,264.666428 -54.690414,263.862886 C-54.7589463,262.882956 -54.8176883,261.903026 -54.8960109,260.991692 C-54.9743336,260.080357 -55.0232852,259.169023 -55.0918175,258.257688 C-55.1995111,256.944582 -55.2876241,255.690272 -55.3463661,254.622149 L-55.3463661,246.978697 C-55.4051081,229.702536 -52.3407347,210.838888 -46.2511494,190.916917 C-46.1140848,190.475949 -45.9868105,190.03498 -45.8693265,189.584213 C-45.2525357,187.310776 -44.1462284,184.292592 -42.9322275,181.098021 C-42.2795388,179.340681 -41.6268501,177.586606 -40.9741614,175.835799 C-40.8958388,175.620214 -40.8370968,175.443827 -40.7685645,175.228242 C-40.6217096,174.806872 -40.1126124,173.611358 -39.7405798,172.739221 C-39.3685473,171.867083 -38.8790308,170.720565 -38.4580466,169.701438 L-37.165723,166.604861 C-36.6468355,165.35055 -36.127948,164.086441 -35.5796895,162.832131 C-31.2557693,153.482262 -26.4621749,144.35726 -21.2172752,135.492092 C-20.5613231,134.423968 -19.9151613,133.346046 -19.2592092,132.268123 C-18.4857731,130.974616 -17.7612887,129.749703 -17.3011432,129.004957 L-10.2716861,118.36292 L-3.00726115,108.299042 C-2.33172837,107.397506 -1.44080832,106.339182 -0.510726961,105.11427 C0.20396714,104.232333 0.90887091,103.340597 1.60398435,102.448861 C2.29909779,101.557125 3.11169519,100.557597 3.85576028,99.6070651 C4.59982537,98.6565332 5.48095509,97.5198148 5.96068126,96.9906527 C6.07816523,96.8436632 6.20543952,96.6966738 6.33271381,96.5594836 L12.2069119,89.6999755 L13.4894451,88.2006831 C13.7537841,87.8871055 14.0083326,87.573528 14.2726716,87.2795491 L23.0839687,77.8330265 L29.144183,71.6986665 L29.4476833,71.3850889 C32.3847823,68.3767047 35.6351719,65.2507288 39.1009488,61.9483657 L41.597483,59.5671364 C42.576516,58.5872067 43.7905169,57.5288826 45.0828405,56.3725655 L47.647907,54.0403328 L50.2227638,51.6983007 C51.4857164,50.5517829 52.6801367,49.4640609 53.727702,48.5625256 C55.2549935,47.2592191 56.7627044,45.9559125 58.2802056,44.6428067 C61.4718532,41.8892042 64.4970652,39.2923904 67.6103902,36.7151752 C85.0861295,22.173018 103.403837,8.22861802 122.798481,-6.52912367 L128.241905,-10.6742264 C148.87013,-26.4118978 170.193469,-42.6885306 191.340583,-61.0916109 C203.891786,-71.8708379 214.886327,-82.1796986 224.960576,-92.6649467 L225.048689,-92.7629397 C231.059952,-99.0638878 236.797085,-105.59022 242.083864,-112.14595 C247.947603,-119.330205 253.421749,-126.824387 258.482667,-134.59614 C263.908664,-142.933219 268.794297,-151.610378 273.10942,-160.574077 C277.54294,-169.697414 281.382238,-179.098233 284.603268,-188.717659 C290.954545,-207.724704 295.03292,-227.418175 296.753067,-247.386051 L296.753067,-247.503643 C300.128176,-287.246659 294.695814,-327.24539 280.843781,-364.644442 C267.48977,-400.558867 247.106303,-433.866678 220.124153,-463.607546 Z" id="Path-Copy-4" fill="url(#linearGradient-4)" fill-rule="nonzero" opacity="0.206263951" mask="url(#mask-2)" transform="translate(49.225843, 26.000000) rotate(22.000000) translate(-49.225843, -26.000000) "></path>
                    </g>
                </g>
                <g id="огоньки" transform="translate(0.000000, 156.000000)" fill-rule="nonzero">
                    <ellipse id="Oval-Copy-21" fill="url(#radialGradient-5)" opacity="0.498976935" cx="915.5" cy="258" rx="8.5" ry="7"></ellipse>
                    <ellipse id="Oval-Copy-32" fill="url(#radialGradient-5)" opacity="0.191778274" cx="773.5" cy="7" rx="8.5" ry="7"></ellipse>
                    <ellipse id="Oval-Copy-30" fill="url(#radialGradient-6)" cx="734.5" cy="325" rx="8.5" ry="7"></ellipse>
                    <ellipse id="Oval-Copy-24" fill="url(#radialGradient-6)" cx="1001.5" cy="180" rx="8.5" ry="7"></ellipse>
                    <ellipse id="Oval-Copy-25" fill="url(#radialGradient-6)" opacity="0.20375279" cx="965.5" cy="214" rx="8.5" ry="7"></ellipse>
                </g>
                <g id="монетка---Etherum" filter="url(#filter-7)" transform="translate(707.000000, 593.000000)">
                    <g id="coin" transform="translate(0.000000, 0.000000)" fill-rule="nonzero">
                        <path d="M63.9637295,35.1266393 C64.8428279,28.8184426 63.7932377,22.2278689 60.6071721,16.6788934 C59.5766815,14.8756472 58.3374086,13.2000358 56.914959,11.6866803 C55.3032787,9.97909836 53.4518443,8.48995902 51.7043033,6.92090164 C56.5473361,11.2204918 59.5895492,17.2596311 60.4526639,23.6530738 C61.3157787,30.0465164 60.045082,36.8288934 57.0827869,42.5829918 C54.1470244,48.3208638 49.7327683,53.1710277 44.2959016,56.632582 C38.8881148,60.0504098 32.5745902,61.9418033 26.1491803,61.7633197 C20.3151639,61.5795082 14.5903689,59.6321721 10.0163934,55.9719262 C9.67185792,55.696653 9.33531421,55.414276 9.0067623,55.1247951 C11.3217213,57.1760246 13.5594262,59.352459 16.1993852,60.9854508 C18.6371381,62.4676208 21.297922,63.5470463 24.0793033,64.1821721 C30.2276639,65.607377 36.7516393,64.9067623 42.5643443,62.5065574 C48.3927988,60.078974 53.4700313,56.1437051 57.2745902,51.104918 C60.8244756,46.4329837 63.1264868,40.9341932 63.9637295,35.1266393 Z" id="Path" fill="url(#linearGradient-8)"></path>
                        <path d="M42.5856557,62.5118852 C44.6114446,61.6702951 46.5531992,60.6392118 48.385041,59.432377 L46.1713115,57.0934426 C45.904918,57.2719262 45.6385246,57.4504098 45.3721311,57.6262295 C39.855123,61.1106557 33.4030738,63.0393443 26.8604508,62.8581967 C22.2210491,62.7287831 17.6849031,61.4588818 13.6526639,59.1606557 C16.7036864,61.6181684 20.2781285,63.3425041 24.1006148,64.2008197 C30.2489754,65.6127049 36.7622951,64.9120902 42.5856557,62.5118852 Z" id="Path" fill-opacity="0.5" fill="url(#linearGradient-9)" opacity="0.5" style="mix-blend-mode: screen;"></path>
                        <path d="M36.7143443,0.426229508 C53.1081967,2.14979508 63.5508197,17.2436475 60.0397541,34.1409836 C56.5286885,51.0383197 40.3985656,63.3403689 24.007377,61.6168033 C7.61618852,59.8932377 -2.82909836,44.7993852 0.679303279,27.9020492 C4.18770492,11.0047131 20.3231557,-1.29467213 36.7143443,0.426229508 Z" id="Path" fill="url(#linearGradient-10)"></path>
                        <path d="M36.4959016,1.1375 C20.6747951,-0.532786885 5.10143443,11.3456967 1.71557377,27.6543033 C1.45910127,28.8854298 1.27673799,30.1308376 1.16946721,31.3838115 C7.8079918,36.1788934 15.8211066,39.3196721 24.8172131,40.2653689 C36.8342213,41.5280738 48.7739754,38.6670082 59.1819672,32.7877049 C62.0297131,16.8467213 52.0319672,2.7704918 36.4959016,1.1375 Z" id="Path" fill="url(#linearGradient-11)" opacity="0.2" style="mix-blend-mode: screen;"></path>
                        <path d="M26.5008197,60.164959 C11.8891393,58.6278689 1.23606557,45.8915984 4.52868852,30.102459 C7.82131148,14.3133197 22.9098361,2.79180328 38.2327869,4.40348361 C51.104918,5.7567623 58.6358607,16.6043033 59.2086066,28.5946721 C59.8372951,14.3186475 50.2311475,2.39754098 35.9817623,0.892418033 C20.107377,-0.777868852 4.4807377,11.1352459 1.08422131,27.4997951 C-2.31229508,43.8643443 7.8,58.4840164 23.6743852,60.1516393 C25.1041199,60.3022842 26.5432301,60.3441395 27.9793033,60.2768443 C27.4864754,60.2528689 26.9936475,60.2182377 26.5008197,60.164959 Z" id="Path" fill="#94512A" opacity="0.5" style="mix-blend-mode: multiply;"></path>
                        <path d="M34.3407787,3.7295082 C35.2652609,3.72932743 36.189124,3.77734342 37.1086066,3.87336066 C43.9495902,4.59262295 49.8741803,7.94385246 53.7928279,13.3116803 C55.8410314,16.1300348 57.2583956,19.3563554 57.9485656,22.7713115 C58.7017601,26.5002126 58.678182,30.344348 57.8793033,34.0637295 C56.3622628,41.1421593 52.5019098,47.5019335 46.922541,52.1145492 C41.3629098,56.7471311 34.5938525,59.3071721 27.8620902,59.3071721 C26.9367212,59.307373 26.0119703,59.2593571 25.0915984,59.1633197 C18.2532787,58.4440574 12.3286885,55.0901639 8.41004098,49.725 C6.36307436,46.8979869 4.948468,43.6635626 4.26229508,40.2413934 C3.51111037,36.5130962 3.53559406,32.6700628 4.33422131,28.9516393 C5.84854146,21.8745969 9.70385032,15.5144635 15.2776639,10.8981557 C20.8372951,6.26557377 27.6063525,3.70553279 34.3407787,3.70553279 L34.3407787,3.70553279 L34.3407787,3.7295082 Z M34.3407787,1.0682377 C19.2202869,1.07889344 4.99487705,12.7495902 1.74221311,28.4135246 C-1.72090164,45.1270492 8.60184426,58.7184426 24.8145492,60.4233607 C25.8269305,60.5295357 26.8441565,60.5828867 27.8620902,60.5831967 C42.9852459,60.5831967 55.9852459,49.3786885 59.2379098,33.7147541 C62.7010246,16.9985656 53.6010246,2.94098361 37.3936475,1.23606557 C36.3812307,1.13064036 35.3639974,1.07817815 34.3461066,1.07889344 L34.3407787,1.0682377 Z" id="Shape" fill="#E99855"></path>
                        <path d="M33.6375,2.93032787 C34.5718092,2.92977519 35.5054927,2.97868242 36.4346311,3.07684426 C43.347541,3.80143443 49.3387295,7.19262295 53.3,12.6163934 C55.3715955,15.4654575 56.8053274,18.7272429 57.5036885,22.179918 C58.2626449,25.9504834 58.2381625,29.8368367 57.4317623,33.597541 C55.8961194,40.7546472 51.992908,47.1852325 46.352459,51.8508197 C40.7315574,56.5340164 33.8879098,59.1127049 27.0815574,59.1127049 C26.1454741,59.1133261 25.2100135,59.064419 24.2790984,58.9661885 C17.3661885,58.2389344 11.3776639,54.8504098 7.41639344,49.4239754 C5.34414303,46.5752877 3.91034603,43.313354 3.21270492,39.8604508 C2.45106886,36.0910406 2.47555497,32.2050048 3.28463115,28.4454918 C4.81847492,21.2884139 8.72207627,14.8581246 14.3639344,10.194877 C19.9795082,5.51168033 26.8284836,2.93032787 33.6348361,2.93032787 L33.6348361,2.93032787 L33.6375,2.93032787 Z M33.6348361,0.266393443 C18.3465164,0.266393443 3.96659836,12.064959 0.679303279,27.9020492 C-2.82909836,44.7993852 7.60553279,59.8959016 24.007377,61.6168033 C25.0302895,61.7253191 26.058233,61.7795618 27.0868852,61.7793033 C42.372541,61.7793033 56.752459,49.9780738 60.0397541,34.1409836 C63.5508197,17.2436475 53.1081967,2.14979508 36.7143443,0.426229508 C35.6912711,0.320056023 34.6634037,0.266706505 33.6348361,0.266393443 Z" id="Shape" fill="url(#linearGradient-12)"></path>
                        <polygon id="Path" fill="#FFFFFF" points="23.0297131 15.682582 20.4030738 15.032582 22.7846311 16.3272541 23.0616803 16.9586066 22.4143443 19.6278689 23.6930328 17.2036885 24.3137295 16.9239754 26.9377049 17.5739754 24.5588115 16.2766393 24.2817623 15.6479508 24.9290984 12.9786885 23.6504098 15.4028689"></polygon>
                        <path d="M36.6264344,0.428893443 C35.603522,0.320377577 34.5755785,0.266134882 33.5469262,0.266393443 C18.2612705,0.266393443 3.88135246,12.064959 0.594057377,27.9020492 C0.301787891,29.2991043 0.103325479,30.7141502 -1.42108547e-14,32.1377049 C0.841803279,32.7344262 1.70403005,33.2991803 2.58668033,33.8319672 C2.62441505,32.021567 2.82862257,30.2184769 3.19672131,28.4454918 C4.73146891,21.2881304 8.6360012,14.8578538 14.2786885,10.194877 C19.8995902,5.51168033 26.7432377,2.93032787 33.5495902,2.93032787 L33.5495902,2.93032787 C34.4847855,2.92977576 35.4193557,2.97868286 36.3493852,3.07684426 C43.2756148,3.80409836 49.2534836,7.19262295 53.2147541,12.6190574 C55.2860581,15.4679761 56.7189397,18.7298941 57.4157787,22.182582 C58.1774147,25.9519921 58.1529286,29.8380279 57.3438525,33.597541 C57.2772541,33.919877 57.2,34.2368852 57.1227459,34.5565574 C58.1581284,34.0237705 59.1793033,33.4696721 60.1862705,32.8942623 C62.9434426,16.5163934 52.6180328,2.10717213 36.6264344,0.428893443 Z" id="Path" fill="url(#linearGradient-13)" opacity="0.7"></path>
                    </g>
                    <g id="Group-7" transform="translate(29.890288, 31.474880) rotate(20.000000) translate(-29.890288, -31.474880) translate(18.109038, 13.599880)">
                        <polygon id="Path-4" fill="#FFF177" points="12.1482733 0.0684602271 0.773273289 17.2639042 10.7080667 23.3708739"></polygon>
                        <polygon id="Path-4-Copy" fill="#E1882B" transform="translate(16.842846, 11.719667) scale(-1, 1) translate(-16.842846, -11.719667) " points="21.537418 0.0684602271 10.7080667 18.5102093 22.9776245 23.3708739"></polygon>
                        <polygon id="Path-5" fill="#FFF177" points="0.708707471 21.3952046 10.6585147 34.9381516 10.6585147 26.6597521"></polygon>
                        <polygon id="Path-5-Copy" fill="#E1882B" transform="translate(16.646841, 28.408081) scale(-1, 1) translate(-16.646841, -28.408081) " points="10.6585147 21.8780095 22.6351674 34.9381516 22.6351674 26.6597521"></polygon>
                    </g>
                </g>
                <g id="eos" filter="url(#filter-14)" transform="translate(974.000000, 551.000000)" fill-rule="nonzero">
                    <g id="Group-13-Copy" filter="url(#filter-15)" transform="translate(61.750000, 61.038130) rotate(60.000000) translate(-61.750000, -61.038130) translate(17.250000, 16.038130)">
                        <g id="coin" transform="translate(0.000000, 0.000000)">
                            <path d="M88.5651639,48.6368852 C89.782377,39.902459 88.3290984,30.7770492 83.917623,23.0938525 C82.4907898,20.59705 80.7748735,18.2769727 78.8053279,16.1815574 C76.5737705,13.8172131 74.0102459,11.7553279 71.5905738,9.58278689 C78.2963115,15.5360656 82.5086066,23.8979508 83.7036885,32.7504098 C84.8987705,41.6028689 83.1393443,50.9938525 79.0377049,58.9610656 C74.972803,66.9058114 68.860756,73.621423 61.3327869,78.4143443 C53.845082,83.1467213 45.1032787,85.7655738 36.2065574,85.5184426 C28.1286885,85.2639344 20.2020492,82.567623 13.8688525,77.4995902 C13.3918033,77.1184426 12.9258197,76.727459 12.4709016,76.3266393 C15.6762295,79.1668033 18.7745902,82.1803279 22.429918,84.4413934 C25.8052681,86.4936287 29.4894305,87.9882179 33.3405738,88.867623 C41.8536885,90.8409836 50.8868852,89.8709016 58.9352459,86.547541 C67.0054137,83.1862717 74.035428,77.7374378 79.3032787,70.7606557 C84.2185047,64.2918237 87.4059048,56.6781136 88.5651639,48.6368852 Z" id="Path" fill="url(#linearGradient-16)"></path>
                            <path d="M58.9647541,86.554918 C61.7696925,85.3896393 64.4582758,83.9619856 66.9946721,82.2909836 L63.9295082,79.052459 C63.5606557,79.2995902 63.1918033,79.5467213 62.8229508,79.7901639 C55.1840164,84.6147541 46.2504098,87.2852459 37.1913934,87.0344262 C30.7676065,86.8552382 24.4867889,85.0969133 18.9036885,81.9147541 C23.1281812,85.317464 28.0774087,87.7050057 33.370082,88.8934426 C41.8831967,90.8483607 50.9016393,89.8782787 58.9647541,86.554918 Z" id="Path" fill-opacity="0.5" fill="url(#linearGradient-17)" opacity="0.5" style="mix-blend-mode: screen;"></path>
                            <path d="M50.8352459,0.590163934 C73.5344262,2.97663934 87.9934426,23.8758197 83.1319672,47.2721311 C78.2704918,70.6684426 55.9364754,87.7020492 33.2409836,85.3155738 C10.5454918,82.9290984 -3.91721311,62.029918 0.94057377,38.6336066 C5.79836066,15.2372951 28.1397541,-1.79262295 50.8352459,0.590163934 Z" id="Path" fill="url(#linearGradient-18)"></path>
                            <path d="M50.5327869,1.575 C28.6266393,-0.737704918 7.06352459,15.7094262 2.37540984,38.2905738 C2.02029406,39.9952105 1.76779106,41.7196212 1.6192623,43.4545082 C10.8110656,50.0938525 21.9061475,54.442623 34.3622951,55.7520492 C51.0012295,57.5004098 67.5331967,53.5389344 81.9442623,45.3983607 C85.8872951,23.3262295 72.0442623,3.83606557 50.5327869,1.575 Z" id="Path" fill="url(#linearGradient-19)" opacity="0.2" style="mix-blend-mode: screen;"></path>
                            <path d="M36.6934426,83.3053279 C16.4618852,81.1770492 1.71147541,63.5422131 6.2704918,41.6803279 C10.8295082,19.8184426 31.7213115,3.86557377 52.9377049,6.09713115 C70.7606557,7.97090164 81.1881148,22.9905738 81.9811475,39.592623 C82.8516393,19.8258197 69.5508197,3.31967213 49.8209016,1.23565574 C27.8409836,-1.07704918 6.20409836,15.4180328 1.50122951,38.0766393 C-3.20163934,60.7352459 10.8,80.9778689 32.779918,83.2868852 C34.7595506,83.4954704 36.7521647,83.5534239 38.7405738,83.4602459 C38.0581967,83.4270492 37.3758197,83.3790984 36.6934426,83.3053279 Z" id="Path" fill="#94512A" opacity="0.5" style="mix-blend-mode: multiply;"></path>
                            <path d="M47.5487705,5.16393443 C48.8288228,5.16368414 50.1080179,5.23016781 51.3811475,5.36311475 C60.8532787,6.35901639 69.0565574,10.9991803 74.482377,18.4315574 C77.3183512,22.3338943 79.2808554,26.8011075 80.2364754,31.5295082 C81.2793602,36.6926021 81.2467136,42.0152511 80.1405738,47.1651639 C78.0400562,56.9660667 72.6949521,65.771908 64.9696721,72.1586066 C57.2717213,78.5729508 47.8991803,82.117623 38.5782787,82.117623 C37.2969986,82.1179011 36.0165743,82.0514176 34.7422131,81.9184426 C25.2737705,80.922541 17.0704918,76.2786885 11.6446721,68.85 C8.81041065,64.9356742 6.85172492,60.4572406 5.90163934,55.7188525 C4.86153743,50.5565947 4.89543793,45.2354716 6.00122951,40.0868852 C8.09798049,30.2879034 13.4361004,21.4815648 21.1536885,15.0897541 C28.8516393,8.67540984 38.2241803,5.1307377 47.5487705,5.1307377 L47.5487705,5.1307377 L47.5487705,5.16393443 Z M47.5487705,1.47909836 C26.6127049,1.49385246 6.91598361,17.6532787 2.41229508,39.3418033 C-2.38278689,62.4836066 11.9102459,81.302459 34.3586066,83.6631148 C35.7603652,83.8101264 37.1688321,83.883997 38.5782787,83.8844262 C59.5180328,83.8844262 77.5180328,68.3704918 82.0217213,46.6819672 C86.8168033,23.5364754 74.2168033,4.07213115 51.7758197,1.71147541 C50.3740117,1.56550204 48.9655349,1.49286206 47.5561475,1.49385246 L47.5487705,1.47909836 Z" id="Shape" fill="#E99855"></path>
                            <path d="M46.575,4.05737705 C47.8686589,4.05661181 49.1614514,4.12432951 50.4479508,4.2602459 C60.0196721,5.26352459 68.3151639,9.95901639 73.8,17.4688525 C76.668363,21.4137103 78.6535302,25.9300287 79.6204918,30.7106557 C80.6713545,35.9314386 80.6374558,41.3125431 79.5209016,46.5196721 C77.3946268,56.4295115 71.9901803,65.3333988 64.1803279,71.7934426 C56.397541,78.2778689 46.9217213,81.8483607 37.497541,81.8483607 C36.2014257,81.8492208 34.9061726,81.7815032 33.6172131,81.6454918 C24.0454918,80.6385246 15.7536885,75.9467213 10.2688525,68.4331967 C7.39958266,64.4888598 5.41432527,59.9723364 4.44836066,55.1913934 C3.39378766,49.9722101 3.42769149,44.5915452 4.54795082,39.3860656 C6.67173451,29.4762653 12.076721,20.572788 19.8885246,14.1159836 C27.6639344,7.63155738 37.1471311,4.05737705 46.5713115,4.05737705 L46.5713115,4.05737705 L46.575,4.05737705 Z M46.5713115,0.368852459 C25.4028689,0.368852459 5.49221311,16.7053279 0.94057377,38.6336066 C-3.91721311,62.029918 10.5307377,82.9327869 33.2409836,85.3155738 C34.6573239,85.4658265 36.0806303,85.5409318 37.504918,85.5405738 C58.6696721,85.5405738 78.5803279,69.2004098 83.1319672,47.2721311 C87.9934426,23.8758197 73.5344262,2.97663934 50.8352459,0.590163934 C49.418683,0.443154493 47.9954821,0.369285931 46.5713115,0.368852459 Z" id="Shape" fill="url(#linearGradient-20)"></path>
                            <path d="M50.7135246,0.593852459 C49.2971843,0.443599722 47.8738779,0.368494452 46.4495902,0.368852459 C25.2848361,0.368852459 5.37418033,16.7053279 0.822540984,38.6336066 C0.417860157,40.5679905 0.143066048,42.5272848 -1.42108547e-14,44.4983607 C1.16557377,45.3245902 2.35942623,46.1065574 3.58155738,46.8442623 C3.63380545,44.3375543 3.91655433,41.8409681 4.42622951,39.3860656 C6.55126464,29.4758729 11.9575401,20.5724129 19.7704918,14.1159836 C27.5532787,7.63155738 37.0290984,4.05737705 46.4532787,4.05737705 L46.4532787,4.05737705 C47.7481646,4.05661259 49.0421848,4.12433011 50.329918,4.2602459 C59.920082,5.26721311 68.1971311,9.95901639 73.6819672,17.472541 C76.5499266,21.4171976 78.5339164,25.9336996 79.4987705,30.7143443 C80.5533435,35.9335276 80.5194397,41.3141925 79.3991803,46.5196721 C79.3069672,46.9659836 79.2,47.404918 79.0930328,47.847541 C80.5266393,47.1098361 81.9405738,46.342623 83.3348361,45.5459016 C87.152459,22.8688525 72.8557377,2.91762295 50.7135246,0.593852459 Z" id="Path" fill="url(#linearGradient-21)" opacity="0.7"></path>
                        </g>
                    </g>
                    <ellipse id="Oval-Copy-26" fill="url(#radialGradient-6)" opacity="0.20375279" cx="41.0288568" cy="18" rx="8.5" ry="7"></ellipse>
                    <g id="Group-14" transform="translate(39.710801, 40.818672)">
                        <path d="M26.9027241,34.6656878 L34.8254656,29.6628019 L32.3333092,17.223652 L26.9027241,34.6656878 Z M31.0037483,11.9030513 L23.4147198,1.79694012 L15.9794124,12.0896516 L23.477496,36.0759828 L31.0037483,11.9030513 Z M14.7031109,17.5628725 L12.1935175,29.8944477 L19.9894418,34.473818 L14.7031109,17.5628725 Z M25.5991472,38.852536 L25.5532342,39 L25.3656181,39 L23.7819838,40 L21.7895944,39.8256885 L9,31.3169786 L13.0867685,11.2355219 L23.3703057,-3 L34.0269588,11.1911868 L38,31.0219066 L25.5991472,38.852536 Z" id="Combined-Shape-Copy-2" fill="#E38E2D" transform="translate(23.500000, 18.500000) rotate(85.000000) translate(-23.500000, -18.500000) "></path>
                        <path d="M26.9675506,32.6247526 L34.8254656,27.6628019 L32.3537009,15.3254333 L26.9675506,32.6247526 Z M31.0405648,9.95207892 L23.4147198,-0.203059879 L16.1386597,9.86920518 L23.6174398,33.7937846 L31.0405648,9.95207892 Z M14.7930775,15.1207973 L12.1935175,27.8944477 L20.2689182,32.6379841 L14.7930775,15.1207973 Z M34.104236,9.576902 L34.1399438,9.58835115 L34.1196126,9.65365137 L38,29.0219066 L23.7819838,38 L21.5991684,36.7178018 L21.5442618,36.7178018 L21.5319121,36.6782951 L9,29.3169786 L13.0867685,9.23552185 L23.3703057,-5 L34.0269588,9.19118681 L34.104236,9.576902 Z" id="Combined-Shape" fill="#FFF37E" transform="translate(23.500000, 16.500000) rotate(85.000000) translate(-23.500000, -16.500000) "></path>
                    </g>
                </g>
                <g id="tron" transform="translate(693.000000, 96.000000)" fill-rule="nonzero">
                    <g id="Group-34">
                        <g id="Group-13-Copy-2" filter="url(#filter-22)" transform="translate(35.000000, 35.000000) scale(1, -1) rotate(-120.000000) translate(-35.000000, -35.000000) translate(9.390244, 9.390244)">
                            <g id="coin" transform="translate(0.000000, 0.000000)">
                                <path d="M50.4029388,27.6795282 C51.0956617,22.7087165 50.2685926,17.5153938 47.7579968,13.1428429 C46.9459779,11.7218984 45.9694402,10.4015292 44.8485606,9.20901639 C43.5785686,7.86345462 42.1196521,6.69002399 40.742603,5.45361855 C44.5588764,8.84166333 46.9561176,13.6004598 47.6362455,18.6384446 C48.3163735,23.6764294 47.315074,29.0208916 44.9808077,33.555078 C42.6674488,38.076478 39.1890482,41.8983708 34.9048381,44.6260496 C30.6435426,47.3192723 25.6685326,48.8096761 20.6053579,48.6690324 C16.0081967,48.5241903 11.4971012,46.9897041 7.89284286,44.1054578 C7.62135146,43.8885446 7.35615754,43.6660336 7.0972611,43.4379248 C8.92143143,45.0542783 10.6847261,46.7692923 12.764994,48.0560776 C14.685925,49.2240164 16.7826027,50.0745956 18.9743103,50.57507 C23.8191723,51.6981208 28.960016,51.1460416 33.5403838,49.2546981 C38.1331623,47.3417807 42.1339834,44.2408182 45.1319472,40.2702919 C47.9292303,36.5888427 49.7431979,32.255837 50.4029388,27.6795282 Z" id="Path" fill="url(#linearGradient-23)"></path>
                                <path d="M33.5571771,49.2588964 C35.1534836,48.5957297 36.6835716,47.7832438 38.1270492,46.8322671 L36.3826469,44.9892043 C36.1727309,45.1298481 35.9628149,45.2704918 35.7528988,45.4090364 C31.4055378,48.1547381 26.3213715,49.6745302 21.1658337,49.5317873 C17.51002,49.4298104 13.9355709,48.4291377 10.7581967,46.6181527 C13.1623795,48.5546543 15.9790131,49.9134179 18.9911036,50.5897641 C23.8359656,51.7023191 28.9684126,51.1502399 33.5571771,49.2588964 Z" id="Path" fill-opacity="0.5" fill="url(#linearGradient-24)" opacity="0.5" style="mix-blend-mode: screen;"></path>
                                <path d="M28.9306277,0.335865654 C41.8488605,1.69402239 50.077569,13.5878649 47.3108756,26.9028389 C44.5441823,40.2178129 31.8337665,49.9117353 18.9176329,48.5535786 C6.0014994,47.1954218 -2.22930828,35.3015794 0.535285886,21.9866054 C3.29988005,8.67163135 16.0144942,-1.02019192 28.9306277,0.335865654 Z" id="Path" fill="url(#linearGradient-25)"></path>
                                <path d="M28.7584966,0.896341463 C16.2915834,-0.419832067 4.01989204,8.94032387 1.35185926,21.7913834 C1.14976085,22.7615019 1.00605995,23.7428739 0.921531387,24.7302079 C6.15263894,28.5086965 12.4669132,30.9836066 19.5557777,31.7288085 C29.02509,32.7238105 38.4335266,30.4693123 46.634946,25.8364654 C48.8789484,13.27509 41.0007997,2.18312675 28.7584966,0.896341463 Z" id="Path" fill="url(#linearGradient-26)" opacity="0.2" style="mix-blend-mode: screen;"></path>
                                <path d="M20.882447,47.4095362 C9.36855258,46.1983207 0.974010396,36.1622351 3.56857257,23.7205118 C6.16313475,11.2787885 18.0527789,2.19992003 30.1271491,3.46991204 C40.2702919,4.53628549 46.2046182,13.0840664 46.6559376,22.532387 C47.1513395,11.2829868 39.5817673,1.8892443 28.3533587,0.703218713 C15.8444622,-0.612954818 3.53078768,8.7744902 0.854358257,21.6696321 C-1.82207117,34.5647741 6.14634146,46.084966 18.6552379,47.3990404 C19.7818581,47.5177474 20.9158661,47.550729 22.047481,47.4977009 C21.6591363,47.4788085 21.2707917,47.4515194 20.882447,47.4095362 Z" id="Path" fill="#94512A" opacity="0.5" style="mix-blend-mode: multiply;"></path>
                                <path d="M27.0602759,2.93882447 C27.788761,2.93868203 28.5167581,2.97651826 29.2413035,3.05217913 C34.6319472,3.61895242 39.3004798,6.25969612 42.3883447,10.4895042 C44.0023137,12.7103464 45.119186,15.2526628 45.6630348,17.9436226 C46.2565464,20.8819687 46.2379671,23.9111185 45.6084566,26.8419632 C44.4130401,32.4197127 41.3711109,37.4311671 36.9746102,41.0658737 C32.5936625,44.7163135 27.2596961,46.7336066 21.955118,46.7336066 C21.2259342,46.7337649 20.4972374,46.6959287 19.7719912,46.6202519 C14.3834466,46.0534786 9.71491403,43.4106357 6.62704918,39.1829268 C5.01405484,36.9552618 3.89935564,34.4065597 3.35865654,31.709916 C2.76672862,28.7720458 2.78602159,25.7437643 3.41533387,22.8136745 C4.60860678,17.2370182 7.64656122,12.2252808 12.0386845,8.58766493 C16.4196321,4.93722511 21.7535986,2.91993203 27.0602759,2.91993203 L27.0602759,2.91993203 L27.0602759,2.93882447 Z M27.0602759,0.841763295 C15.1454418,0.850159936 3.93592563,10.0465814 1.37285086,22.3896441 C-1.35605758,35.5597761 6.77818872,46.2696921 19.5536785,47.6131547 C20.3514274,47.6968199 21.1529939,47.7388601 21.955118,47.7391044 C33.8720512,47.7391044 44.1159536,38.910036 46.6790284,26.5669732 C49.4079368,13.3947421 42.2372051,2.31747301 29.4659136,0.974010396 C28.6681368,0.890936118 27.8665646,0.849596294 27.0644742,0.850159936 L27.0602759,0.841763295 Z" id="Shape" fill="#E99855"></path>
                                <path d="M26.5060976,2.30907637 C27.2423262,2.30864087 27.9780618,2.34717939 28.7102159,2.42453019 C34.157537,2.9955018 38.8785486,5.66773291 42,9.94162335 C43.6324017,12.1866644 44.7621717,14.7569269 45.312475,17.477609 C45.910527,20.4487862 45.891235,23.5112034 45.2557977,26.4746102 C44.0457226,32.1143562 40.9700213,37.1816091 36.5253898,40.8580568 C32.0961615,44.5483806 26.7034186,46.5803679 21.340064,46.5803679 C20.6024374,46.5808573 19.8653015,46.5423189 19.1317473,46.464914 C13.6844262,45.8918433 8.96551379,43.2217113 5.84406238,38.9457217 C4.2111446,36.7009771 3.08132332,34.1305979 2.53158737,31.4097361 C1.93142387,28.4394692 1.95071874,25.3773021 2.58826469,22.4148341 C3.79692208,16.7751104 6.87293065,11.7080907 11.3186725,8.03348661 C15.7437025,4.34316273 21.1406437,2.30907637 26.5039984,2.30907637 L26.5039984,2.30907637 L26.5060976,2.30907637 Z M26.5039984,0.209916034 C14.4569172,0.209916034 3.12564974,9.50709716 0.535285886,21.9866054 C-2.22930828,35.3015794 5.99310276,47.197521 18.9176329,48.5535786 C19.7236803,48.6390883 20.533692,48.6818311 21.3442623,48.6816273 C33.3892443,48.6816273 44.7205118,39.3823471 47.3108756,26.9028389 C50.077569,13.5878649 41.8488605,1.69402239 28.9306277,0.335865654 C28.1244538,0.252201744 27.314502,0.210162725 26.5039984,0.209916034 Z" id="Shape" fill="url(#linearGradient-27)"></path>
                                <polygon id="Path" fill="#FFFFFF" points="18.1472411 12.3577569 16.077469 11.8455618 17.9541184 12.8657537 18.172431 13.3632547 17.6623351 15.4666134 18.669932 13.5563774 19.1590364 13.3359656 21.2267093 13.8481607 19.3521591 12.8258697 19.1338465 12.3304678 19.6439424 10.2271092 18.6363455 12.1373451"></polygon>
                                <path d="M28.8613555,0.337964814 C28.0553081,0.252455126 27.2452964,0.20971229 26.4347261,0.209916034 C14.3897441,0.209916034 3.05847661,9.50709716 0.468112755,21.9866054 C0.237806594,23.0874743 0.0814197021,24.2025198 -1.42108547e-14,25.3242703 C0.663334666,25.7944822 1.34276289,26.2395042 2.03828469,26.6593363 C2.06801936,25.2327545 2.22893336,23.811933 2.5189924,22.4148341 C3.72836199,16.774887 6.80510413,11.7078773 11.2514994,8.03348661 C15.6807277,4.34316273 21.0734706,2.30907637 26.4368253,2.30907637 L26.4368253,2.30907637 C27.1737522,2.30864131 27.9101865,2.34717974 28.6430428,2.42453019 C34.1008597,2.99760096 38.8113754,5.66773291 41.9328269,9.94372251 C43.5649989,12.1886491 44.6940988,14.759016 45.2432027,17.4797081 C45.8433662,20.449975 45.8240713,23.5121421 45.1865254,26.4746102 C45.1340464,26.7286086 45.0731707,26.9784086 45.0122951,27.2303079 C45.8281687,26.8104758 46.6328469,26.3738505 47.4263295,25.9204318 C49.5989604,13.0147941 41.462615,1.66043583 28.8613555,0.337964814 Z" id="Path" fill="url(#linearGradient-28)" opacity="0.7"></path>
                            </g>
                        </g>
                        <path d="M43.5195835,25.8591253 L30.6005909,23.2099811 L38.5817829,29.6224412 L43.5195835,25.8591253 Z M45.3312044,26.3909404 L39.8516655,30.567139 L48.3422993,29.1422091 L45.3312044,26.3909404 Z M48.1414676,30.7182982 L39.6043203,32.1510342 L38.0991017,42.7757021 L48.1414676,30.7182982 Z M37.7384389,45.3214601 L37.7270405,45.4019162 L37.677298,45.3948691 L36.6836829,46.5878567 L36.1185775,45.1740419 L36.0536255,45.1648401 L36.0696603,45.0516578 L26.4473973,20.9781006 L27.2384061,20.110505 L45.7417804,24.9345703 L50.8391277,29.5920696 L37.7384389,45.3214601 Z M36.4507082,42.3620102 L38.0131238,31.3336138 L29.2182462,24.267401 L36.4507082,42.3620102 Z" id="Combined-Shape-Copy" fill="#E48E2D" transform="translate(38.643262, 33.349181) rotate(-89.000000) translate(-38.643262, -33.349181) "></path>
                    </g>
                    <path d="M43.0996567,24.5792397 L30.1806641,21.9300956 L38.1618561,28.3425556 L43.0996567,24.5792397 Z M44.9112777,25.1110548 L39.4317387,29.2872534 L47.9223725,27.8623235 L44.9112777,25.1110548 Z M47.7215409,29.4384126 L39.1843935,30.8711486 L37.6791749,41.4958165 L47.7215409,29.4384126 Z M37.3185121,44.0415746 L37.3071137,44.1220306 L37.2573713,44.1149835 L36.2637562,45.3079712 L35.6986507,43.8941564 L35.6336987,43.8849545 L35.6497335,43.7717722 L26.0274705,19.6982151 L45.3218537,23.6546848 L50.4192009,28.312184 L37.3185121,44.0415746 Z M36.0307814,41.0821246 L37.5931971,30.0537283 L28.7983194,22.9875154 L36.0307814,41.0821246 Z" id="Combined-Shape" fill="#FFF178" transform="translate(38.223336, 32.503093) rotate(-89.000000) translate(-38.223336, -32.503093) "></path>
                </g>
            </g>
        </g>
    </g>
</svg>