<?xml version="1.0" encoding="UTF-8"?>
<svg width="150px" height="141px" viewBox="0 0 150 141" version="1.1" xmlns="http://www.w3.org/2000/svg" xmlns:xlink="http://www.w3.org/1999/xlink">
    <!-- Generator: Sketch 53.1 (72631) - https://sketchapp.com -->
    <title>Group 2</title>
    <desc>Created with Sketch.</desc>
    <defs>
        <linearGradient x1="50%" y1="0%" x2="50%" y2="100%" id="linearGradient-1">
            <stop stop-color="#E89A31" offset="0%"></stop>
            <stop stop-color="#D87224" offset="100%"></stop>
        </linearGradient>
        <linearGradient x1="50%" y1="0%" x2="50%" y2="100%" id="linearGradient-2">
            <stop stop-color="#E89A31" offset="0%"></stop>
            <stop stop-color="#D87224" offset="100%"></stop>
        </linearGradient>
        <linearGradient x1="50%" y1="0%" x2="50%" y2="100%" id="linearGradient-3">
            <stop stop-color="#E89A31" offset="0%"></stop>
            <stop stop-color="#D87224" offset="100%"></stop>
        </linearGradient>
        <linearGradient x1="50%" y1="0%" x2="50%" y2="100%" id="linearGradient-4">
            <stop stop-color="#E89A31" offset="0%"></stop>
            <stop stop-color="#D87224" offset="100%"></stop>
        </linearGradient>
        <linearGradient x1="50%" y1="0%" x2="50%" y2="100%" id="linearGradient-5">
            <stop stop-color="#F6C554" offset="0%"></stop>
            <stop stop-color="#F5A939" offset="100%"></stop>
        </linearGradient>
        <linearGradient x1="50%" y1="-11.7598012%" x2="50%" y2="100%" id="linearGradient-6">
            <stop stop-color="#FFFAB4" offset="0%"></stop>
            <stop stop-color="#F5A939" offset="100%"></stop>
        </linearGradient>
        <linearGradient x1="50%" y1="0%" x2="50%" y2="100%" id="linearGradient-7">
            <stop stop-color="#F6C554" offset="0%"></stop>
            <stop stop-color="#F5A939" offset="100%"></stop>
        </linearGradient>
        <linearGradient x1="85.9380988%" y1="32.7181216%" x2="41.2384768%" y2="67.2818784%" id="linearGradient-8">
            <stop stop-color="#FFFAB4" offset="0%"></stop>
            <stop stop-color="#F5A939" offset="100%"></stop>
        </linearGradient>
        <linearGradient x1="50%" y1="0%" x2="50%" y2="100%" id="linearGradient-9">
            <stop stop-color="#E1882B" offset="0%"></stop>
            <stop stop-color="#F5A939" offset="100%"></stop>
        </linearGradient>
        <linearGradient x1="50%" y1="0%" x2="50%" y2="100%" id="linearGradient-10">
            <stop stop-color="#F6C554" offset="0%"></stop>
            <stop stop-color="#F3BA66" offset="100%"></stop>
        </linearGradient>
        <linearGradient x1="56.0190756%" y1="0%" x2="56.0190756%" y2="306.912074%" id="linearGradient-11">
            <stop stop-color="#FFFAB4" offset="0%"></stop>
            <stop stop-color="#F5A939" offset="100%"></stop>
        </linearGradient>
        <linearGradient x1="50%" y1="0%" x2="50%" y2="100%" id="linearGradient-12">
            <stop stop-color="#F6C554" offset="0%"></stop>
            <stop stop-color="#F5A939" offset="100%"></stop>
        </linearGradient>
        <linearGradient x1="50.9192551%" y1="5.19246708%" x2="50%" y2="114.979979%" id="linearGradient-13">
            <stop stop-color="#FFFAB4" offset="0%"></stop>
            <stop stop-color="#F5A939" offset="100%"></stop>
        </linearGradient>
    </defs>
    <g id="design" stroke="none" stroke-width="1" fill="none" fill-rule="evenodd">
        <g id="bounty" transform="translate(-645.000000, -103.000000)" fill-rule="nonzero">
            <g id="background">
                <g id="Group-2" transform="translate(645.923387, 103.000000)">
                    <g id="gift" transform="translate(8.076613, 0.000000)">
                        <path d="M81.2001869,44.9017233 L59.3517757,44.9017233 C50.3031776,44.9017233 36.6951402,37.0655421 31.6700935,31.8834061 C24.5981308,24.5870307 24.5981308,12.7023058 31.6788785,5.40593042 C38.5575701,-1.68351942 50.5579439,-1.68351942 57.4454206,5.40593042 C61.2493458,9.32851942 71.3521495,25.261788 69.9641121,35.8959628 L70.5878505,35.8959628 C69.1998131,25.261788 79.3026168,9.32851942 83.1153271,5.40593042 C89.9852336,-1.68351942 101.985607,-1.70151294 108.881869,5.40593042 C115.971402,12.7023058 115.971402,24.578034 108.881869,31.8744094 C103.856822,37.0565453 90.248785,44.9017233 81.2001869,44.9017233 Z M81.2001869,35.9049595 C87.2706542,35.9049595 98.8669159,29.4452832 102.644486,25.5406877 C106.334206,21.7440534 106.334206,15.5542799 102.644486,11.7576456 C99.077757,8.07796926 92.8842991,8.09596278 89.3351402,11.7576456 C83.4140187,17.8574515 77.5280374,33.4398463 79.5749533,35.6080663 C79.5837383,35.6080663 79.9527103,35.9049595 81.2001869,35.9049595 Z M44.5665421,8.91466828 C42.0540187,8.91466828 39.6908411,9.92230583 37.9074766,11.7576456 C34.2265421,15.5542799 34.2265421,21.7440534 37.9074766,25.5406877 C41.6938318,29.4452832 53.2813084,35.9049595 59.3517757,35.9049595 C60.6080374,35.9049595 60.9770093,35.6170631 60.9770093,35.6170631 C63.0239252,33.4308495 57.1379439,17.8484547 51.2168224,11.7576456 C49.4334579,9.92230583 47.0702804,8.91466828 44.5665421,8.91466828 Z" id="Shape" fill="url(#linearGradient-1)"></path>
                        <path d="M8.78504673,62.8952508 L8.78504673,125.872597 C8.78504673,130.838811 12.7295327,134.869361 17.5700935,134.869361 L119.845419,138.917905 C124.694764,138.917905 131.775701,130.838811 131.775701,125.872597 L131.775701,62.8952508 L8.78504673,62.8952508 Z" id="Path" fill="url(#linearGradient-2)"></path>
                        <path d="M131.775701,35.9049595 L8.78504673,35.9049595 C3.94448598,35.9049595 0,39.9445065 0,44.9017233 L0,67.3936327 C0,69.8767395 1.96785047,71.8920146 4.39252336,71.8920146 L131.775701,75.9405583 C134.200374,75.9405583 140.560748,69.8767395 140.560748,67.3936327 L140.560748,44.9017233 C140.560748,39.9355097 136.625047,35.9049595 131.775701,35.9049595 Z" id="Path" fill="url(#linearGradient-3)"></path>
                        <rect id="Rectangle" fill="url(#linearGradient-4)" x="61.4953271" y="35.9049595" width="17.5700935" height="98.9644013"></rect>
                    </g>
                    <g id="gift-copy" transform="translate(0.076613, 4.000000)">
                        <path d="M81.05853,45.0309369 L59.2482342,45.0309369 C50.2154217,45.0309369 36.6311241,37.1722055 31.6148437,31.975157 C24.5552184,24.6577848 24.5552184,12.7388592 31.6236135,5.42148706 C38.4903049,-1.68836408 50.4697436,-1.68836408 57.3452048,5.42148706 C61.1424939,9.35536408 71.2276729,25.3344838 69.842057,35.9992605 L70.4647072,35.9992605 C69.0790913,25.3344838 79.1642703,9.35536408 82.9703292,5.42148706 C89.8282509,-1.68836408 101.80769,-1.70640939 108.691921,5.42148706 C115.769085,12.7388592 115.769085,24.6487621 108.691921,31.9661343 C103.67564,37.1631828 90.0913425,45.0309369 81.05853,45.0309369 Z M81.05853,36.0082832 C87.1184072,36.0082832 98.6944387,29.5300178 102.465419,25.6141861 C106.148701,21.8066262 106.148701,15.5990405 102.465419,11.7914806 C98.904912,8.10121521 92.7222588,8.11926052 89.1792916,11.7914806 C83.2684997,17.9088398 77.3927867,33.5360761 79.4361317,35.7105356 C79.4449014,35.7105356 79.8132297,36.0082832 81.05853,36.0082832 Z M44.488794,8.94032201 C41.9806538,8.94032201 39.6215989,9.95085922 37.8413456,11.7914806 C34.1668325,15.5990405 34.1668325,21.8066262 37.8413456,25.6141861 C41.6210953,29.5300178 53.1883571,36.0082832 59.2482342,36.0082832 C60.5023043,36.0082832 60.8706326,35.7195583 60.8706326,35.7195583 C62.9139775,33.5270534 57.0382646,17.8998172 51.1274727,11.7914806 C49.3472194,9.95085922 46.9881644,8.94032201 44.488794,8.94032201 Z" id="Shape" stroke="url(#linearGradient-6)" stroke-width="2" fill="url(#linearGradient-5)"></path>
                        <path d="M8.76972087,63.0762443 L8.76972087,126.23482 C8.76972087,131.215325 12.7073255,135.257474 17.5394417,135.257474 L122.776092,135.257474 C127.616978,135.257474 131.545813,131.215325 131.545813,126.23482 L131.545813,63.0762443 L8.76972087,63.0762443 Z" id="Path" stroke="url(#linearGradient-8)" stroke-width="2" fill="url(#linearGradient-7)"></path>
                        <path d="M8.76972087,126.23482 C8.76972087,131.215325 12.7073255,135.257474 17.5394417,135.257474 L121.892543,133.943795 C126.733429,133.943795 129.892223,131.215325 129.892223,126.23482 L129.892223,81.5726845 L8.76972087,126.23482 Z" id="Path-Copy-5" fill-opacity="0.6" fill="url(#linearGradient-9)"></path>
                        <path d="M131.545813,36.0082832 L8.76972087,36.0082832 C3.93760467,36.0082832 0,40.0594547 0,45.0309369 L0,67.5875712 C0,70.0778236 1.96441748,72.0988981 4.38486044,72.0988981 L135.930674,72.0988981 C138.351117,72.0988981 140.315534,70.0778236 140.315534,67.5875712 L140.315534,45.0309369 C140.315534,40.050432 136.386699,36.0082832 131.545813,36.0082832 Z" id="Path" stroke="url(#linearGradient-11)" stroke-width="2" fill="url(#linearGradient-10)"></path>
                        <rect id="Rectangle" stroke="url(#linearGradient-13)" stroke-width="2" fill="url(#linearGradient-12)" x="61.3880461" y="36.0082832" width="17.5394417" height="99.2491909"></rect>
                    </g>
                </g>
            </g>
        </g>
    </g>
</svg>