<?xml version="1.0" encoding="UTF-8"?>
<svg width="96px" height="108px" viewBox="0 0 96 108" version="1.1" xmlns="http://www.w3.org/2000/svg" xmlns:xlink="http://www.w3.org/1999/xlink">
    <!-- Generator: Sketch 53.1 (72631) - https://sketchapp.com -->
    <title>giftbox</title>
    <desc>Created with Sketch.</desc>
    <g id="design" stroke="none" stroke-width="1" fill="none" fill-rule="evenodd" fill-opacity="0.1">
        <g id="bounty" transform="translate(-140.000000, -208.000000)" fill="#FFFFFF">
            <g id="background">
                <g id="giftbox" transform="translate(140.653820, 208.694673)">
                    <path d="M55,107 L76.9594993,107 C81.4002209,107 85,103.448229 85,99.0663681 L85,55 L55,55 L55,107 L55,107 Z" id="Path"></path>
                    <path d="M10,99.0663681 C10,103.448229 13.5997791,107 18.0405007,107 L40,107 L40,55 L10,55 L10,99.0663681 Z" id="Path"></path>
                    <path d="M90.7368169,25.4528719 L76.1764871,25.4528719 C76.1976017,25.4466127 76.2216286,25.4410898 76.2423792,25.4348306 C83.0456456,23.4370398 86.9594896,16.2389543 84.9841834,9.35861561 C83.3550836,3.68667158 78.2315191,0 72.6711011,0 C71.4864998,0 70.2833323,0.167157585 69.0889018,0.517673049 C64.3625101,1.90537555 53.2289325,8.09499264 47.5334539,14.0519146 C41.8383394,8.09499264 30.7047618,1.90574374 25.9780061,0.517673049 C24.7835756,0.167157585 23.5807721,0 22.3961708,0 C16.8357528,0.000736377025 11.7121884,3.68667158 10.0830885,9.35861561 C8.10741823,16.2393225 12.0216263,23.4370398 18.8248928,25.4348306 C18.8456433,25.4410898 18.8696702,25.4466127 18.8907848,25.4528719 L4.33081902,25.4528719 C1.95761194,25.4528719 0.034,27.39838 0.034,29.7986009 L0.034,40.654271 C0.034,43.0544919 1.95761194,45 4.33081902,45 L39.9176398,45 L39.9176398,25.4532401 L55.1499961,25.4532401 L55.1499961,45 L90.737181,45 C93.1103881,45 95.034,43.0544919 95.034,40.654271 L95.034,29.7986009 C95.033636,27.39838 93.110024,25.4528719 90.7368169,25.4528719 Z M59.4268746,13.2318285 C64.3868761,9.95120839 69.1383271,7.74345645 70.9274132,7.22362061 C71.4385807,7.075513 71.9617799,7 72.4824269,7 C74.9343536,7 77.1255921,8.6496124 77.8110378,11.0113087 C78.2248574,12.4365709 78.0589649,13.9380757 77.3439868,15.2389421 C76.6290086,16.5398085 75.4506254,17.4839033 74.0254089,17.8983128 C72.5013861,18.3411765 68.1466185,19 62.3965315,19 C58.1052041,19 55.0520541,18.626083 53.034,18.2058368 C54.3509307,16.9294118 56.3904962,15.2396717 59.4268746,13.2318285 Z M17.7240233,15.2389421 C17.0090347,13.9384405 16.8431399,12.4365709 17.2569655,11.0113087 C17.9424211,8.6496124 20.1340562,7.0003648 22.5863832,7 L22.5867478,7 C23.1066733,7 23.6291509,7.075513 24.1399612,7.22362061 C25.9298026,7.74345645 30.6813229,9.95120839 35.6413968,13.2318285 C38.6774549,15.2396717 40.7174147,16.9294118 42.034,18.2058368 C40.0159164,18.6257182 36.9627219,19 32.671332,19 C26.9211611,19 22.5666946,18.3411765 21.0419204,17.897948 C19.6174123,17.4839033 18.4390119,16.5398085 17.7240233,15.2389421 Z" id="Shape"></path>
                </g>
            </g>
        </g>
    </g>
</svg>