<?xml version="1.0" encoding="UTF-8"?>
<svg width="87px" height="115px" viewBox="0 0 87 115" version="1.1" xmlns="http://www.w3.org/2000/svg" xmlns:xlink="http://www.w3.org/1999/xlink">
    <!-- Generator: Sketch 53.1 (72631) - https://sketchapp.com -->
    <title>file copy</title>
    <desc>Created with Sketch.</desc>
    <g id="design" stroke="none" stroke-width="1" fill="none" fill-rule="evenodd" fill-opacity="0.1">
        <g id="terms-of-use" transform="translate(-101.000000, -223.000000)" fill="#FFFFFF">
            <g id="file-copy" transform="translate(144.901931, 280.269346) rotate(-360.000000) translate(-144.901931, -280.269346) translate(101.901931, 223.269346)">
                <path d="M83.9853438,24.6688438 C83.9779063,23.9959687 83.7175938,23.3366562 83.223,22.8418437 L63.1494063,2.76803125 C63.1485313,2.76715625 63.147875,2.7669375 63.147,2.76628125 C62.6729688,2.2926875 62.0180313,2 61.2950625,2 L5.5295625,2 C2.48521875,2 0.00875,4.47625 0.00875,7.52059375 L0.00875,108.479187 C0.00875,111.523312 2.485,113.999781 5.52934375,113.999781 L78.4702188,113.999781 C81.5143438,113.999781 83.9908125,111.523531 83.9908125,108.479187 L83.9908125,24.6959687 C83.99125,24.6863438 83.9862188,24.67825 83.9853438,24.6688438 Z" id="Shape"></path>
                <path d="M62.125,1.38555833e-13 L86,23.875 L62.125,23.875 L62.125,1.38555833e-13 Z" id="Path"></path>
            </g>
        </g>
    </g>
</svg>