<svg xmlns="http://www.w3.org/2000/svg" xmlns:xlink="http://www.w3.org/1999/xlink" width="1440" height="781" viewBox="0 0 1440 781">
  <defs>
    <linearGradient id="a" x1="50%" x2="50%" y1="19.516%" y2="87.047%">
      <stop offset="0%" stop-color="#F0F0F8"/>
      <stop offset="100%" stop-color="#F0F0F8" stop-opacity="0"/>
    </linearGradient>
    <path id="b" d="M.165.469h1440.004v671.399c-.003-13.217-82.203-25.684-246.6-37.4-246.594-17.572-537.755-24-759.942 0-148.124 16-292.612 16.198-433.462.592V.469z"/>
    <linearGradient id="c" x1="12.499%" x2="82.056%" y1="105.881%" y2="21.491%">
      <stop offset="0%" stop-color="#5D45B9"/>
      <stop offset="40%" stop-color="#5A3EC4"/>
      <stop offset="100%" stop-color="#7153E0"/>
    </linearGradient>
    <linearGradient id="e" x1="37.873%" x2="60.366%" y1="105.881%" y2="21.491%">
      <stop offset="0%" stop-color="#5D45B9"/>
      <stop offset="40%" stop-color="#5A3EC4"/>
      <stop offset="100%" stop-color="#8269E1"/>
    </linearGradient>
    <linearGradient id="f" x1="38.697%" x2="60.366%" y1="102.429%" y2="21.491%">
      <stop offset="0%" stop-color="#5D45B9"/>
      <stop offset="40%" stop-color="#5A3EC4"/>
      <stop offset="100%" stop-color="#8269E1"/>
    </linearGradient>
  </defs>
  <g fill="none" fill-rule="evenodd">
    <path fill="#5A3EC4" d="M0 692.127c283.957 12.11 461.597.324 532.92-35.359 106.984-53.525 847.557 1.716 929.86 35.36 54.869 22.428 70.955-10.038 48.258-97.4L0 576v116.127z" opacity=".178"/>
    <path fill="#5A3EC4" d="M1471 692.127c-265.967 9.665-443.607-2.122-532.92-35.359-178.53-86.077-847.557 1.716-929.86 35.36-54.869 22.428-70.955-10.038-48.258-97.4L1471 576v116.127z" opacity=".543"/>
    <path fill="#5A3EC4" d="M0 662.127c250.014 16.7 428.459 10.128 535.333-19.717 160.313-44.768 845.144-13.926 927.447 19.717 54.869 22.429 70.955-10.037 48.258-97.399L0 546v116.127z" opacity=".897"/>
    <path fill="#5A3EC4" d="M0 701.975c196.18 32.851 352.892 27.205 470.135-16.937C646 618.824 1440 721.53 1440 721.53V618.824L0 608v93.975z" opacity=".101"/>
    <path fill="url(#a)" d="M41 0h1449v253H41z" opacity=".469" transform="matrix(1 0 0 -1 -50 781)"/>
    <g transform="translate(-.165 -.469)">
      <mask id="d" fill="#fff">
        <use xlink:href="#b"/>
      </mask>
      <use fill="#5A3EC4" xlink:href="#b"/>
      <path fill="url(#c)" fill-rule="nonzero" d="M1291.533-235.994c-22.137-13.845-46.241-26.627-72.07-38.217-5.629-2.558-10.949-4.812-16.114-6.987l-2.875-1.225-.758-.314c-4.975-2.058-9.744-3.92-14.341-5.713l-4.666-1.823-.413-.156c-2.6-.98-5.251-1.96-7.903-2.94l-2.513-.921-.414-.157-5.165-1.842c-15.44-5.782-34.06-8.152-52.356-6.664h-.516c-11.948 1.017-23.318 3.6-33.212 7.546-3.95 1.563-7.675 3.303-11.139 5.203l-.224.118a73.819 73.819 0 0 0-4.459 2.567l-.912.578c-2.531 1.578-5.682 3.548-9.521 6.233l-4.15 2.88-.705.48-4.563 3.264c-6.18 4.43-12.327 8.927-18.37 13.405l-2.17 1.617-.86.657-2.273 1.822-.138.098-4.648 3.636-.293.235-9.16 7.252c-3.064 2.41-6.197 5.027-9.21 7.555l-1.722 1.391-.293.236-9.813 8.339a46.71 46.71 0 0 0-4.683 4.566l-1.05 1.215a36.033 36.033 0 0 0-3.444 4.469l-5.991 9.329-16.666 25.478-.155.235a731.497 731.497 0 0 1-9.555 14.307l-4.907 7.134c-1.412 2.009-2.497 3.675-3.547 5.292l-1.033 1.577c-.482.716-.93 1.44-1.325 2.166l-.138.245a37.316 37.316 0 0 0-2.583 5.311c-2.128 5.208-2.606 10.59-1.412 15.895v.127c3.377 14.839 20.197 27.579 44.3 33.553l2.427.627c.981.265 1.98.52 2.961.764l.844.216c1.6.47 3.237.921 4.855 1.382 1.274.352 2.565.705 3.822 1.078 1.963.627 3.977 1.224 5.974 1.822 1.102.333 2.221.657 3.306.98l.534.177c11.423 3.642 22.404 7.718 32.866 12.2 9.863 4.228 19.152 8.873 27.788 13.895l.173.108 2.91 1.685 2.616 1.676c.758.49 1.532.98 2.29 1.45l.758.47 3.012 2.068c.74.52 1.516 1.039 2.29 1.549l3.134 2.361 1.291.98c.551.422 1.05.853 1.567 1.284.516.431 1.325 1.107 2.014 1.666 12.101 10.202 20.452 21.692 24.551 33.778 1.91 5.77 2.614 11.647 2.1 17.511a38.282 38.282 0 0 1-1.721 8.163c-.103.304-.207.598-.293.902-.81 2.487-1.961 4.935-3.443 7.32-1.974 3.279-4.273 6.492-6.887 9.623-2.84 3.351-6.318 7.006-10.33 10.857-8.859 8.375-18.719 16.393-29.51 23.999l-.62.45c-21.141 15.395-47.087 31.417-81.658 50.447-24.62 13.553-50.29 26.743-77.597 40.667l-20.556 10.584c-36.276 18.618-71.605 37.09-105.023 57.502-35.754 21.537-68.023 44.866-96.414 69.702-29.547 25.5-54.221 52.723-73.602 81.207l-6.525 9.75c-.43.637-.826 1.284-1.205 1.96l-8.609 14.925c-1.274 2.204-2.134 4.086-2.789 5.468-.137.323-.292.646-.447.98l-.31.617-4.752 9.858c-1.463 2.94-2.48 5.546-3.323 7.84l-3.805 10.26a.526.526 0 0 1 0 .156l-.31.843c-.654 1.715-1.532 4.027-2.22 6.79l-2.962 10.123c0 .118 0 .245-.086.373-.12.44-.258.872-.379 1.313-.413 1.43-.93 3.214-1.36 5.291 0 .236 0 .47-.138.716l-.947 5.36v.118l-1.928 10.661a27.719 27.719 0 0 0-.24 1.666c-.242 2.43-.431 4.9-.603 7.3-.104 1.304-.19 2.607-.31 3.92v.559c0 .833-.12 1.656-.19 2.48-.224 2.939-.516 6.525-.344 10.582V510.741l.396 5.292c.206 3.44.637 6.576 1.016 9.359.137.98.275 1.96.396 2.94v.578c.55 3.723 1.256 7.153 1.928 10.465l.362 1.823.206.98c2.187 9.025 4.666 17.158 7.593 24.86 6.283 16.7 14.92 33.086 25.825 48.997 0 .059 0 .118.12.167 11.035 16.224 24.442 31.893 40.081 46.84l.706.676c3.443 3.234 7.283 6.86 11.76 10.701l1.428 1.245c1.722 1.44 3.306 2.871 5.027 4.282.138.098.259.206.38.304l8.97 7.065c.447.343.894.696 1.36 1.039l3.064 2.313.155.107 6.198 4.635c.43.324.878.647 1.326.98l.396.285c4.545 3.194 9.228 6.496 14.496 9.926 21.601 14.189 45.602 27.134 71.656 38.649l.19.088c27.364 11.993 56.904 22.285 88.115 30.701l.259.059c30.588 8.07 62.419 14.515 95.088 19.255a1293.174 1293.174 0 0 0 89.854 9.888c22.503 1.813 43.886 3.057 64.563 4.253l15.289.892c21.975 1.304 43.833-3.018 59.653-11.797s23.965-21.106 22.23-33.643l-19.145-138.601c-1.749-12.779-13.576-24.419-32.164-31.654-18.588-7.236-41.935-9.29-63.493-5.583-36.155 6.212-66.835 9.613-93.728 10.377h-.293c-5.027.157-10.536.157-17.836 0-4.476-.127-9.383-.421-15.392-.93-9.766-1.005-19.281-2.68-28.339-4.989-10.589-2.73-20.608-6.125-29.87-10.122-10.441-4.563-20.045-9.714-28.667-15.375-.344-.216-.671-.432-1.016-.637-.344-.206-1.721-1.196-2.668-1.843-.947-.646-1.808-1.264-2.72-1.89-.913-.628-1.636-1.236-2.48-1.853-1.308-.98-2.565-1.91-3.443-2.548-.878-.637-1.567-1.264-2.342-1.891-1.377-1.107-2.789-2.244-3.443-2.94l-.396-.421-3.133-2.793-2.996-2.881c-3.443-3.273-6.697-6.8-10.038-10.78-3.064-3.83-6.163-7.839-8.47-11.543l-.207-.333c-5.097-7.85-8.901-15.953-11.363-24.204l-.947-3.293-.723-3.292c0-.363-.155-.735-.258-1.098-.103-.363-.224-1.548-.31-2.352-.12-.98-.224-1.96-.362-2.871-.137-.911-.223-1.823-.344-2.734a80.378 80.378 0 0 1-.448-3.636v-7.643c-.103-17.276 5.286-36.14 15.995-56.062.24-.44.465-.882.671-1.332 1.085-2.274 3.03-5.292 5.165-8.487a3685.24 3685.24 0 0 1 3.444-5.262c.137-.215.24-.392.361-.607.258-.422 1.154-1.617 1.808-2.49.654-.872 1.515-2.018 2.255-3.037l2.273-3.097c.912-1.254 1.825-2.518 2.79-3.773 7.603-9.35 16.033-18.474 25.256-27.34 1.154-1.068 2.29-2.146 3.444-3.224 1.36-1.293 2.634-2.518 3.443-3.263l12.362-10.642 12.774-10.064c1.188-.901 2.755-1.96 4.39-3.184a249.002 249.002 0 0 0 3.72-2.666c1.222-.892 2.65-1.891 3.96-2.842 1.308-.95 2.857-2.087 3.701-2.616.207-.147.43-.294.654-.431l10.33-6.86 2.256-1.499c.465-.314.912-.627 1.377-.921l15.495-9.447 10.657-6.134.534-.314c5.165-3.008 10.881-6.134 16.976-9.436l4.39-2.382c1.722-.98 3.857-2.038 6.13-3.194l4.51-2.332 4.528-2.342c2.221-1.147 4.322-2.235 6.164-3.136a1617.61 1617.61 0 0 0 8.006-3.92c5.612-2.753 10.932-5.35 16.407-7.927 30.732-14.543 62.945-28.487 97.051-43.245l9.573-4.145c36.276-15.738 73.774-32.014 110.962-50.417 22.072-10.78 41.406-21.088 59.123-31.574l.155-.098c10.57-6.3 20.66-12.827 29.957-19.383 10.311-7.184 19.938-14.678 28.838-22.45 9.542-8.337 18.133-17.014 25.722-25.978 7.796-9.123 14.548-18.524 20.212-28.143 11.17-19.007 18.341-38.7 21.366-58.669v-.117c5.936-39.743-3.617-79.742-27.977-117.141-23.484-35.915-59.33-69.222-106.779-98.963z" mask="url(#d)" opacity=".206" transform="rotate(22 991 253.613)"/>
      <path fill="url(#c)" fill-rule="nonzero" d="M580.533-83.994c-22.137-13.845-46.241-26.627-72.07-38.217-5.629-2.558-10.949-4.812-16.114-6.987l-2.875-1.225-.758-.314c-4.975-2.058-9.744-3.92-14.341-5.713l-4.666-1.823-.413-.156c-2.6-.98-5.251-1.96-7.903-2.94l-2.513-.921-.414-.157-5.165-1.842c-15.44-5.782-34.06-8.152-52.356-6.664h-.516c-11.948 1.017-23.318 3.6-33.212 7.546-3.95 1.563-7.675 3.303-11.139 5.203l-.224.118a73.816 73.816 0 0 0-4.459 2.567l-.912.578c-2.531 1.578-5.682 3.548-9.521 6.233l-4.15 2.88-.705.48-4.563 3.264c-6.18 4.43-12.327 8.927-18.37 13.405l-2.17 1.617-.86.657-2.273 1.822-.138.098-4.648 3.636-.293.235-9.16 7.252c-3.064 2.41-6.197 5.027-9.21 7.555l-1.722 1.391-.293.236-9.813 8.339a46.71 46.71 0 0 0-4.683 4.566l-1.05 1.215a36.033 36.033 0 0 0-3.444 4.469l-5.991 9.329-16.666 25.478-.155.235a731.495 731.495 0 0 1-9.555 14.307l-4.907 7.134c-1.412 2.009-2.497 3.675-3.547 5.292l-1.033 1.577c-.482.716-.93 1.44-1.325 2.166l-.138.245a37.316 37.316 0 0 0-2.583 5.311c-2.128 5.208-2.606 10.59-1.412 15.895v.127c3.377 14.839 20.197 27.579 44.3 33.553l2.427.627c.981.265 1.98.52 2.961.764l.844.216c1.6.47 3.237.921 4.855 1.382 1.274.352 2.565.705 3.822 1.078 1.963.627 3.977 1.224 5.974 1.822 1.102.333 2.221.657 3.306.98l.534.177c11.423 3.642 22.404 7.718 32.866 12.2 9.863 4.228 19.151 8.873 27.788 13.895l.173.108 2.91 1.685 2.616 1.676c.758.49 1.532.98 2.29 1.45l.758.47 3.012 2.068c.74.52 1.516 1.039 2.29 1.549l3.134 2.361 1.291.98c.551.422 1.05.853 1.567 1.284.516.431 1.325 1.107 2.014 1.666 12.101 10.202 20.452 21.692 24.551 33.778 1.91 5.77 2.614 11.647 2.1 17.511a38.282 38.282 0 0 1-1.721 8.163c-.103.304-.207.598-.293.902-.81 2.487-1.961 4.935-3.443 7.32-1.974 3.279-4.273 6.492-6.887 9.623-2.84 3.351-6.318 7.006-10.33 10.857-8.859 8.375-18.719 16.393-29.51 23.999l-.62.45c-21.141 15.395-47.087 31.417-81.658 50.447-24.62 13.553-50.29 26.743-77.597 40.667l-20.556 10.584c-36.276 18.618-71.605 37.09-105.023 57.502C21.096 396.836-11.173 420.165-39.564 445c-29.547 25.5-54.221 52.723-73.602 81.207l-6.525 9.75c-.43.637-.826 1.284-1.205 1.96l-8.609 14.925c-1.274 2.204-2.134 4.086-2.789 5.468-.137.323-.292.646-.447.98l-.31.617-4.752 9.858c-1.463 2.94-2.48 5.546-3.323 7.84l-3.805 10.26a.526.526 0 0 1 0 .156l-.31.843c-.654 1.715-1.532 4.027-2.22 6.79l-2.962 10.123c0 .118 0 .245-.086.373-.12.44-.258.872-.379 1.313-.413 1.43-.93 3.214-1.36 5.291 0 .236 0 .47-.138.716l-.947 5.36v.118l-1.928 10.661a27.719 27.719 0 0 0-.24 1.666c-.242 2.43-.431 4.9-.603 7.3-.104 1.304-.19 2.607-.31 3.92v.559c0 .833-.12 1.656-.19 2.48-.224 2.939-.516 6.525-.344 10.582V662.741l.396 5.292c.206 3.44.637 6.576 1.016 9.359.137.98.275 1.96.396 2.94v.578c.55 3.723 1.256 7.153 1.928 10.465l.362 1.823.206.98c2.187 9.025 4.666 17.158 7.593 24.86 6.283 16.7 14.92 33.086 25.825 48.997 0 .059 0 .118.12.167 11.035 16.224 24.442 31.893 40.081 46.84l.706.676c3.443 3.234 7.283 6.86 11.76 10.701l1.428 1.245c1.722 1.44 3.306 2.871 5.027 4.282.138.098.259.206.38.304l8.97 7.065c.447.343.894.696 1.36 1.039l3.064 2.313.155.107 6.198 4.635c.43.324.878.647 1.326.98l.396.285c4.545 3.194 9.228 6.496 14.496 9.926 21.601 14.189 45.602 27.134 71.656 38.649l.19.088c27.364 11.993 56.904 22.285 88.115 30.701l.259.059c30.588 8.07 62.419 14.515 95.088 19.255a1293.174 1293.174 0 0 0 89.854 9.888c22.503 1.813 43.886 3.057 64.563 4.253l15.289.892c21.975 1.304 43.833-3.018 59.653-11.797s23.965-21.106 22.23-33.643l-19.145-138.601c-1.749-12.779-13.576-24.419-32.164-31.654-18.588-7.236-41.935-9.29-63.493-5.583-36.155 6.212-66.835 9.613-93.728 10.377h-.293c-5.027.157-10.536.157-17.836 0-4.476-.127-9.383-.421-15.392-.93-9.766-1.005-19.281-2.68-28.339-4.989-10.589-2.73-20.608-6.125-29.87-10.122-10.441-4.563-20.045-9.714-28.667-15.375-.344-.216-.671-.432-1.016-.637-.344-.206-1.721-1.196-2.668-1.843-.947-.646-1.808-1.264-2.72-1.89-.913-.628-1.636-1.236-2.48-1.853-1.308-.98-2.565-1.91-3.443-2.548-.878-.637-1.567-1.264-2.342-1.891-1.377-1.107-2.789-2.244-3.443-2.94l-.396-.421-3.133-2.793-2.996-2.881c-3.444-3.273-6.697-6.8-10.038-10.78-3.064-3.83-6.163-7.839-8.47-11.543l-.207-.333c-5.097-7.85-8.901-15.953-11.363-24.204l-.947-3.293-.723-3.292c0-.363-.155-.735-.258-1.098-.103-.363-.224-1.548-.31-2.352-.12-.98-.224-1.96-.362-2.871-.137-.911-.223-1.823-.344-2.734a80.378 80.378 0 0 1-.448-3.636v-7.643c-.103-17.276 5.286-36.14 15.995-56.062.24-.44.465-.882.671-1.332 1.085-2.274 3.03-5.292 5.165-8.487a3685.24 3685.24 0 0 1 3.444-5.262c.137-.215.24-.392.361-.607.258-.422 1.154-1.617 1.808-2.49.654-.872 1.515-2.018 2.255-3.037l2.273-3.097c.912-1.254 1.825-2.518 2.79-3.773 7.603-9.35 16.033-18.474 25.256-27.34 1.154-1.068 2.29-2.146 3.444-3.224 1.36-1.293 2.634-2.518 3.443-3.263l12.362-10.642 12.774-10.064c1.188-.901 2.755-1.96 4.39-3.184a249.002 249.002 0 0 0 3.72-2.666c1.222-.892 2.65-1.891 3.96-2.842 1.308-.95 2.857-2.087 3.701-2.616.207-.147.43-.294.654-.431l10.33-6.86 2.256-1.499c.465-.314.912-.627 1.377-.921l15.495-9.447 10.657-6.134.534-.314c5.165-3.008 10.881-6.134 16.976-9.436l4.39-2.382c1.722-.98 3.857-2.038 6.13-3.194l4.51-2.332 4.528-2.342c2.221-1.147 4.322-2.235 6.164-3.136a1617.74 1617.74 0 0 0 8.006-3.92c5.612-2.753 10.932-5.35 16.407-7.927 30.732-14.543 62.945-28.487 97.051-43.245l9.573-4.145c36.276-15.738 73.774-32.014 110.962-50.417 22.072-10.78 41.406-21.088 59.123-31.574l.154-.098c10.572-6.3 20.66-12.827 29.958-19.383 10.311-7.184 19.938-14.678 28.838-22.45 9.542-8.337 18.133-17.014 25.722-25.978 7.796-9.123 14.548-18.524 20.212-28.143 11.17-19.007 18.341-38.7 21.366-58.669v-.117c5.936-39.743-3.617-79.742-27.977-117.141-23.484-35.915-59.33-69.222-106.779-98.963z" mask="url(#d)" opacity=".206" transform="scale(-1 1) rotate(22 0 -1034.862)"/>
      <path fill="url(#e)" fill-rule="nonzero" d="M1504.124 113.392a340.406 340.406 0 0 0-40.982-38.217c-3.202-2.557-6.227-4.811-9.164-6.987l-1.635-1.225-.43-.313c-2.83-2.058-5.542-3.92-8.156-5.713l-2.653-1.823-.235-.157c-1.479-.98-2.986-1.96-4.494-2.94l-1.43-.92-.234-.157-2.937-1.843A43.046 43.046 0 0 0 1402 46.434h-.293a44.317 44.317 0 0 0-18.886 7.545 51.37 51.37 0 0 0-6.334 5.204l-.128.117a44.787 44.787 0 0 0-2.535 2.568l-.52.578c-1.438 1.578-3.23 3.547-5.413 6.232l-2.36 2.881-.401.48-2.595 3.264c-3.514 4.429-7.01 8.927-10.446 13.405l-1.233 1.617-.49.656-1.292 1.823-.079.098-2.643 3.636-.166.235-5.209 7.251c-1.743 2.411-3.524 5.027-5.238 7.556l-.979 1.391-.166.235-5.58 8.34a43.36 43.36 0 0 0-2.664 4.566l-.597 1.215a40.97 40.97 0 0 0-1.958 4.469l-3.407 9.328-9.477 25.479-.088.235a905.34 905.34 0 0 1-5.434 14.307l-2.79 7.134a202.85 202.85 0 0 0-2.017 5.291l-.587 1.578c-.274.715-.529 1.44-.754 2.166l-.078.245a53.27 53.27 0 0 0-1.469 5.31 44.99 44.99 0 0 0-.803 15.895v.128a42.554 42.554 0 0 0 25.19 33.552l1.381.628c.558.264 1.126.519 1.684.764l.48.216c.91.47 1.84.92 2.76 1.381.725.353 1.46.706 2.174 1.078 1.116.627 2.262 1.225 3.397 1.823.627.333 1.263.656 1.88.98l.304.176a166.078 166.078 0 0 1 18.69 12.2 139.944 139.944 0 0 1 15.801 13.896l.098.107 1.654 1.686 1.489 1.676c.43.49.87.98 1.302 1.45l.43.47 1.714 2.068c.42.52.861 1.039 1.302 1.548l1.782 2.362.734.98c.313.421.597.852.89 1.284.295.43.755 1.107 1.146 1.665a91.336 91.336 0 0 1 13.961 33.779 74.62 74.62 0 0 1 1.195 17.51 64.31 64.31 0 0 1-.98 8.164c-.058.304-.117.598-.166.901a48.484 48.484 0 0 1-1.958 7.32 91.68 91.68 0 0 1-3.916 9.623c-1.615 3.352-3.593 7.007-5.874 10.858a213.371 213.371 0 0 1-16.78 23.998l-.353.451c-12.023 15.395-26.777 31.417-46.436 50.447-14 13.552-28.597 26.742-44.125 40.667l-11.69 10.583c-20.628 18.619-40.717 37.09-59.72 57.503a492.76 492.76 0 0 0-54.826 69.702 428.795 428.795 0 0 0-41.854 81.207l-3.71 9.75c-.245.637-.47 1.284-.686 1.96l-4.895 14.924c-.724 2.205-1.214 4.086-1.586 5.468-.078.324-.166.647-.254.98l-.177.617-2.702 9.859c-.832 2.94-1.41 5.546-1.89 7.839l-2.163 10.26a.922.922 0 0 1 0 .157l-.176.842c-.372 1.715-.872 4.028-1.263 6.791l-1.684 10.123c0 .118 0 .245-.05.372-.068.441-.146.872-.214 1.313-.235 1.431-.53 3.215-.774 5.292 0 .235 0 .47-.078.715l-.539 5.36v.118l-1.096 10.662a47.729 47.729 0 0 0-.137 1.666c-.137 2.43-.245 4.9-.343 7.3-.059 1.304-.108 2.607-.176 3.92v.559c0 .832-.069 1.656-.108 2.479-.127 2.94-.294 6.526-.196 10.583V860.128l.226 5.292c.117 3.44.362 6.575.577 9.358.078.98.157 1.96.225 2.94v.578c.314 3.724.715 7.154 1.097 10.466l.205 1.823.118.98c1.243 9.025 2.653 17.158 4.317 24.86a318.285 318.285 0 0 0 14.686 48.997c0 .059 0 .117.069.166a311.022 311.022 0 0 0 22.791 46.841l.402.676c1.958 3.234 4.141 6.86 6.687 10.701l.812 1.244c.98 1.441 1.88 2.872 2.859 4.283.078.098.147.206.215.304l5.101 7.065c.255.343.51.696.774 1.039l1.742 2.312.088.108 3.525 4.635c.245.323.5.647.754.98l.225.284c2.585 3.195 5.248 6.497 8.243 9.927a286.173 286.173 0 0 0 40.748 38.648l.107.088a275.337 275.337 0 0 0 50.107 30.702l.147.058a311.506 311.506 0 0 0 54.072 19.256 434.23 434.23 0 0 0 51.096 9.888c12.796 1.812 24.955 3.057 36.714 4.252l8.693.892a42.28 42.28 0 0 0 33.922-11.796 42.364 42.364 0 0 0 12.641-33.643l-10.887-138.601a42.34 42.34 0 0 0-18.29-31.655 42.262 42.262 0 0 0-36.105-5.583c-20.56 6.213-38.006 9.613-53.298 10.378h-.167c-2.858.157-5.991.157-10.142 0-2.546-.128-5.336-.422-8.753-.931a69.758 69.758 0 0 1-16.115-4.988 88.595 88.595 0 0 1-16.986-10.123 111.24 111.24 0 0 1-16.301-15.375c-.196-.215-.382-.431-.578-.637-.195-.206-.979-1.195-1.517-1.842-.539-.647-1.028-1.264-1.547-1.891-.519-.627-.93-1.235-1.41-1.852-.744-.98-1.459-1.911-1.958-2.548-.5-.637-.89-1.264-1.331-1.891-.784-1.108-1.586-2.244-1.958-2.94l-.226-.422-1.781-2.792-1.704-2.881c-1.958-3.273-3.808-6.801-5.708-10.78-1.742-3.831-3.505-7.84-4.817-11.543l-.117-.333a135.113 135.113 0 0 1-6.462-24.205l-.538-3.292-.411-3.293c0-.362-.088-.735-.147-1.097-.059-.363-.127-1.549-.176-2.352-.069-.98-.128-1.96-.206-2.871-.078-.912-.127-1.823-.196-2.734a139.265 139.265 0 0 1-.254-3.636v-7.643c-.06-17.276 3.005-36.14 9.095-56.062.137-.441.264-.882.382-1.333.616-2.273 1.723-5.291 2.937-8.486.652-1.757 1.305-3.511 1.958-5.262.078-.216.137-.392.205-.608.147-.421.656-1.617 1.028-2.489.372-.872.862-2.018 1.283-3.038l1.292-3.096c.52-1.254 1.038-2.519 1.586-3.773a305.672 305.672 0 0 1 14.363-27.34c.656-1.068 1.302-2.146 1.958-3.224.773-1.293 1.498-2.518 1.958-3.263l7.03-10.642 7.264-10.064c.675-.901 1.566-1.96 2.496-3.185a180.01 180.01 0 0 0 2.115-2.665c.695-.892 1.508-1.891 2.252-2.842.744-.95 1.625-2.087 2.105-2.616.117-.147.244-.294.372-.432l5.874-6.859 1.282-1.5c.265-.313.52-.626.784-.92l8.811-9.447 6.06-6.134.304-.314c2.937-3.008 6.187-6.134 9.653-9.437l2.496-2.38c.98-.98 2.194-2.04 3.486-3.195l2.565-2.333 2.575-2.342c1.263-1.146 2.457-2.234 3.505-3.135a871.29 871.29 0 0 0 4.552-3.92c3.192-2.754 6.217-5.35 9.33-7.928 17.476-14.542 35.794-28.486 55.188-43.244l5.444-4.145c20.628-15.738 41.951-32.015 63.099-50.418 12.55-10.779 23.545-21.088 33.62-31.573l.088-.098a311.694 311.694 0 0 0 17.035-19.383 259.171 259.171 0 0 0 16.399-22.45 232.528 232.528 0 0 0 14.626-25.978 235.394 235.394 0 0 0 11.494-28.144 253.867 253.867 0 0 0 12.15-58.668v-.118a271.2 271.2 0 0 0-15.91-117.14c-13.353-35.915-33.737-69.223-60.719-98.964z" mask="url(#d)" opacity=".206" transform="rotate(22 1333.226 603)"/>
      <path fill="url(#f)" fill-rule="nonzero" d="M759.124-441.608a340.406 340.406 0 0 0-40.982-38.217c-3.202-2.557-6.227-4.811-9.164-6.987l-1.635-1.225-.43-.313c-2.83-2.058-5.542-3.92-8.156-5.713l-2.653-1.823-.235-.157c-1.479-.98-2.986-1.96-4.494-2.94l-1.43-.92-.234-.157-2.937-1.843A43.046 43.046 0 0 0 657-508.566h-.293a44.317 44.317 0 0 0-18.886 7.545 51.37 51.37 0 0 0-6.334 5.204l-.128.117a44.783 44.783 0 0 0-2.535 2.568l-.52.578c-1.438 1.578-3.23 3.547-5.413 6.232l-2.36 2.881-.401.48-2.595 3.264c-3.514 4.429-7.01 8.927-10.446 13.405l-1.233 1.617-.49.656-1.292 1.823-.079.098-2.643 3.636-.166.235-5.209 7.251c-1.743 2.411-3.524 5.027-5.238 7.556l-.979 1.391-.166.235-5.58 8.34a43.362 43.362 0 0 0-2.664 4.566l-.597 1.215a40.97 40.97 0 0 0-1.958 4.469l-3.407 9.328-9.477 25.479-.088.235a905.43 905.43 0 0 1-5.434 14.307l-2.79 7.134a202.863 202.863 0 0 0-2.017 5.291l-.587 1.578c-.274.715-.529 1.44-.754 2.166l-.078.245a53.268 53.268 0 0 0-1.469 5.31 44.99 44.99 0 0 0-.803 15.895v.128a42.554 42.554 0 0 0 25.19 33.552l1.381.628c.558.264 1.126.519 1.684.764l.48.216c.91.47 1.84.92 2.76 1.381.725.353 1.46.706 2.174 1.078 1.116.627 2.262 1.225 3.397 1.823.627.333 1.263.656 1.88.98l.304.176a166.077 166.077 0 0 1 18.69 12.2 139.943 139.943 0 0 1 15.801 13.896l.098.107 1.654 1.686 1.489 1.676c.43.49.87.98 1.302 1.45l.43.47 1.714 2.068c.42.52.861 1.039 1.302 1.548l1.782 2.362.734.98c.313.421.597.852.89 1.284.295.43.755 1.107 1.146 1.665a91.336 91.336 0 0 1 13.961 33.779 74.62 74.62 0 0 1 1.195 17.51 64.31 64.31 0 0 1-.98 8.164c-.058.304-.117.598-.166.901a48.483 48.483 0 0 1-1.958 7.32 91.681 91.681 0 0 1-3.916 9.623c-1.615 3.352-3.593 7.007-5.874 10.858a213.372 213.372 0 0 1-16.78 23.998l-.353.451c-12.023 15.395-26.777 31.417-46.436 50.447-14 13.552-28.597 26.742-44.125 40.667l-11.69 10.583c-20.628 18.619-40.717 37.09-59.72 57.503a492.76 492.76 0 0 0-54.826 69.702 428.795 428.795 0 0 0-41.854 81.207l-3.71 9.75c-.245.637-.47 1.284-.686 1.96l-4.895 14.924c-.724 2.205-1.214 4.086-1.586 5.468-.078.324-.166.647-.254.98l-.177.617-2.702 9.859c-.832 2.94-1.41 5.546-1.89 7.839l-2.163 10.26a.922.922 0 0 1 0 .157l-.176.842c-.372 1.715-.872 4.028-1.263 6.791l-1.684 10.123c0 .118 0 .245-.05.372-.068.441-.146.873-.214 1.313-.235 1.431-.53 3.215-.774 5.292 0 .235 0 .47-.078.715l-.539 5.36v.118l-1.096 10.662a47.727 47.727 0 0 0-.137 1.666c-.137 2.43-.245 4.9-.343 7.3-.059 1.304-.108 2.607-.176 3.92v.559c0 .832-.069 1.656-.108 2.479-.127 2.94-.294 6.526-.196 10.583V305.128l.226 5.292c.117 3.44.362 6.575.577 9.358.078.98.157 1.96.225 2.94v.578c.314 3.724.715 7.154 1.097 10.466l.205 1.823.118.98c1.243 9.025 2.653 17.158 4.317 24.86a318.284 318.284 0 0 0 14.686 48.997c0 .059 0 .117.069.166a311.023 311.023 0 0 0 22.791 46.841l.402.676c1.958 3.234 4.141 6.86 6.687 10.701l.812 1.244c.98 1.441 1.88 2.872 2.859 4.283.078.098.147.206.215.304l5.101 7.065c.255.343.51.696.774 1.039l1.742 2.312.088.108 3.525 4.635c.245.323.5.647.754.98l.225.284c2.585 3.195 5.248 6.497 8.243 9.927a286.174 286.174 0 0 0 40.748 38.648l.107.088a275.337 275.337 0 0 0 50.107 30.702l.147.058a311.507 311.507 0 0 0 54.072 19.256 434.229 434.229 0 0 0 51.096 9.888c12.796 1.812 24.955 3.057 36.714 4.252l8.693.892a42.28 42.28 0 0 0 33.922-11.796 42.364 42.364 0 0 0 12.641-33.643L692.853 420.73a42.34 42.34 0 0 0-18.29-31.655 42.262 42.262 0 0 0-36.105-5.583c-20.56 6.213-38.006 9.613-53.298 10.378h-.167c-2.858.157-5.991.157-10.142 0-2.546-.128-5.336-.422-8.753-.931a69.758 69.758 0 0 1-16.115-4.988 88.595 88.595 0 0 1-16.986-10.123 111.24 111.24 0 0 1-16.301-15.375c-.196-.215-.382-.431-.578-.637-.195-.206-.979-1.195-1.517-1.842-.539-.647-1.028-1.264-1.547-1.891-.519-.627-.93-1.235-1.41-1.852-.744-.98-1.459-1.911-1.958-2.548-.5-.637-.89-1.264-1.331-1.891-.784-1.108-1.586-2.244-1.958-2.94l-.226-.422-1.781-2.792-1.704-2.881c-1.958-3.273-3.808-6.801-5.708-10.78-1.742-3.831-3.505-7.84-4.817-11.543l-.117-.333a135.113 135.113 0 0 1-6.462-24.205l-.538-3.292-.411-3.293c0-.362-.088-.735-.147-1.097-.059-.363-.127-1.549-.176-2.352-.069-.98-.128-1.96-.206-2.871-.078-.912-.127-1.823-.196-2.734a139.216 139.216 0 0 1-.254-3.636v-7.643c-.06-17.276 3.005-36.14 9.095-56.062.137-.441.264-.882.382-1.333.616-2.273 1.723-5.291 2.937-8.486.652-1.757 1.305-3.511 1.958-5.262.078-.216.137-.392.205-.608.147-.421.656-1.617 1.028-2.489.372-.872.862-2.018 1.283-3.038l1.292-3.096c.52-1.254 1.038-2.519 1.586-3.773a305.67 305.67 0 0 1 14.363-27.34c.656-1.068 1.302-2.146 1.958-3.224.773-1.293 1.498-2.518 1.958-3.263l7.03-10.642 7.264-10.064c.675-.901 1.566-1.96 2.496-3.185a180.07 180.07 0 0 0 2.115-2.665c.695-.892 1.508-1.891 2.252-2.842.744-.95 1.625-2.087 2.105-2.616.117-.147.244-.294.372-.432l5.874-6.859 1.282-1.5c.265-.313.52-.626.784-.92l8.811-9.447 6.06-6.134.304-.314c2.937-3.008 6.187-6.134 9.653-9.437l2.496-2.38c.98-.98 2.194-2.04 3.486-3.195l2.565-2.333 2.575-2.342c1.263-1.146 2.457-2.234 3.505-3.135a870.862 870.862 0 0 0 4.552-3.92c3.192-2.754 6.217-5.35 9.33-7.928 17.476-14.542 35.794-28.486 55.188-43.244l5.444-4.145C687.87-4.412 709.193-20.69 730.34-39.092c12.55-10.779 23.545-21.088 33.62-31.573l.088-.098a311.696 311.696 0 0 0 17.035-19.383 259.171 259.171 0 0 0 16.399-22.45 232.528 232.528 0 0 0 14.626-25.978 235.394 235.394 0 0 0 11.494-28.144 253.867 253.867 0 0 0 12.15-58.668v-.118a271.2 271.2 0 0 0-15.91-117.14c-13.353-35.915-33.737-69.223-60.719-98.964z" mask="url(#d)" opacity=".206" transform="rotate(22 588.226 48)"/>
    </g>
  </g>
</svg>
