<svg xmlns="http://www.w3.org/2000/svg" width="802" height="804" viewBox="0 0 802 804">
  <defs>
    <linearGradient id="a" x1="0%" x2="103.427%" y1="50%" y2="50%">
      <stop offset="0%" stop-color="#8B78FE"/>
      <stop offset="100%" stop-color="#C6BFFF"/>
    </linearGradient>
    <linearGradient id="b" x1="96.056%" x2="9.271%" y1="53.707%" y2="46.524%">
      <stop offset="0%" stop-color="#E9E9FC"/>
      <stop offset="100%" stop-color="#CECFF8"/>
    </linearGradient>
    <linearGradient id="c" x1="96.056%" x2="9.271%" y1="50.409%" y2="49.617%">
      <stop offset="0%" stop-color="#E9E9FC"/>
      <stop offset="100%" stop-color="#CECFF8"/>
    </linearGradient>
    <linearGradient id="d" x1="96.056%" x2="9.271%" y1="72.152%" y2="29.229%">
      <stop offset="0%" stop-color="#E9E9FC"/>
      <stop offset="100%" stop-color="#CECFF8"/>
    </linearGradient>
    <linearGradient id="e" x1="96.056%" x2="9.271%" y1="64.829%" y2="36.095%">
      <stop offset="0%" stop-color="#E9E9FC"/>
      <stop offset="100%" stop-color="#CECFF8"/>
    </linearGradient>
    <linearGradient id="f" x1="69.283%" x2="32.947%" y1="72.152%" y2="29.229%">
      <stop offset="0%" stop-color="#E9E9FC"/>
      <stop offset="100%" stop-color="#CECFF8"/>
    </linearGradient>
    <linearGradient id="g" x1="96.056%" x2="9.271%" y1="60.617%" y2="40.045%">
      <stop offset="0%" stop-color="#E9E9FC"/>
      <stop offset="100%" stop-color="#CECFF8"/>
    </linearGradient>
    <linearGradient id="h" x1="96.056%" x2="9.271%" y1="60.551%" y2="40.107%">
      <stop offset="0%" stop-color="#E9E9FC"/>
      <stop offset="100%" stop-color="#CECFF8"/>
    </linearGradient>
    <linearGradient id="i" x1="86.218%" x2="17.971%" y1="72.152%" y2="29.229%">
      <stop offset="0%" stop-color="#E9E9FC"/>
      <stop offset="100%" stop-color="#CECFF8"/>
    </linearGradient>
    <linearGradient id="j" x1="57.369%" x2="43.483%" y1="72.152%" y2="29.229%">
      <stop offset="0%" stop-color="#E9E9FC"/>
      <stop offset="100%" stop-color="#CECFF8"/>
    </linearGradient>
    <linearGradient id="k" x1="79.044%" x2="24.315%" y1="72.152%" y2="29.229%">
      <stop offset="0%" stop-color="#E9E9FC"/>
      <stop offset="100%" stop-color="#CECFF8"/>
    </linearGradient>
    <linearGradient id="l" x1="96.056%" x2="9.271%" y1="54.069%" y2="46.185%">
      <stop offset="0%" stop-color="#E9E9FC"/>
      <stop offset="100%" stop-color="#CECFF8"/>
    </linearGradient>
    <linearGradient id="m" x1="74.901%" x2="27.98%" y1="72.152%" y2="29.229%">
      <stop offset="0%" stop-color="#E9E9FC"/>
      <stop offset="100%" stop-color="#CECFF8"/>
    </linearGradient>
    <linearGradient id="n" x1="96.056%" x2="9.271%" y1="57.975%" y2="42.522%">
      <stop offset="0%" stop-color="#E9E9FC"/>
      <stop offset="100%" stop-color="#CECFF8"/>
    </linearGradient>
    <linearGradient id="o" x1="96.056%" x2="9.271%" y1="56.03%" y2="44.346%">
      <stop offset="0%" stop-color="#E9E9FC"/>
      <stop offset="100%" stop-color="#CECFF8"/>
    </linearGradient>
    <linearGradient id="p" x1="96.056%" x2="9.271%" y1="59.155%" y2="41.416%">
      <stop offset="0%" stop-color="#E9E9FC"/>
      <stop offset="100%" stop-color="#CECFF8"/>
    </linearGradient>
    <linearGradient id="q" x1="60.334%" x2="40.861%" y1="72.152%" y2="29.229%">
      <stop offset="0%" stop-color="#E9E9FC"/>
      <stop offset="100%" stop-color="#CECFF8"/>
    </linearGradient>
    <linearGradient id="r" x1="69.033%" x2="33.168%" y1="72.152%" y2="29.229%">
      <stop offset="0%" stop-color="#E9E9FC"/>
      <stop offset="100%" stop-color="#CECFF8"/>
    </linearGradient>
    <linearGradient id="s" x1="67.2%" x2="34.789%" y1="72.152%" y2="29.229%">
      <stop offset="0%" stop-color="#E9E9FC"/>
      <stop offset="100%" stop-color="#CECFF8"/>
    </linearGradient>
    <linearGradient id="t" x1="65.039%" x2="36.701%" y1="72.152%" y2="29.229%">
      <stop offset="0%" stop-color="#E9E9FC"/>
      <stop offset="100%" stop-color="#CECFF8"/>
    </linearGradient>
    <linearGradient id="u" x1="96.056%" x2="9.271%" y1="63.227%" y2="37.598%">
      <stop offset="0%" stop-color="#E9E9FC"/>
      <stop offset="100%" stop-color="#CECFF8"/>
    </linearGradient>
    <linearGradient id="v" x1="75.907%" x2="27.09%" y1="72.152%" y2="29.229%">
      <stop offset="0%" stop-color="#E9E9FC"/>
      <stop offset="100%" stop-color="#CECFF8"/>
    </linearGradient>
    <linearGradient id="w" x1="96.056%" x2="9.271%" y1="56.901%" y2="43.529%">
      <stop offset="0%" stop-color="#E9E9FC"/>
      <stop offset="100%" stop-color="#CECFF8"/>
    </linearGradient>
    <linearGradient id="x" x1="96.056%" x2="9.271%" y1="63.521%" y2="37.322%">
      <stop offset="0%" stop-color="#E9E9FC"/>
      <stop offset="100%" stop-color="#CECFF8"/>
    </linearGradient>
    <linearGradient id="y" x1="96.056%" x2="9.271%" y1="67.943%" y2="33.176%">
      <stop offset="0%" stop-color="#E9E9FC"/>
      <stop offset="100%" stop-color="#CECFF8"/>
    </linearGradient>
    <linearGradient id="z" x1="54.145%" x2="46.334%" y1="72.152%" y2="29.229%">
      <stop offset="0%" stop-color="#E9E9FC"/>
      <stop offset="100%" stop-color="#CECFF8"/>
    </linearGradient>
    <linearGradient id="A" x1="52.137%" x2="48.111%" y1="72.152%" y2="29.229%">
      <stop offset="0%" stop-color="#E9E9FC"/>
      <stop offset="100%" stop-color="#CECFF8"/>
    </linearGradient>
    <linearGradient id="B" x1="54.498%" x2="46.023%" y1="72.152%" y2="29.229%">
      <stop offset="0%" stop-color="#E9E9FC"/>
      <stop offset="100%" stop-color="#CECFF8"/>
    </linearGradient>
    <linearGradient id="C" x1="57.601%" x2="43.278%" y1="72.152%" y2="29.229%">
      <stop offset="0%" stop-color="#E9E9FC"/>
      <stop offset="100%" stop-color="#CECFF8"/>
    </linearGradient>
    <linearGradient id="D" x1="96.056%" x2="9.271%" y1="51.994%" y2="48.131%">
      <stop offset="0%" stop-color="#E9E9FC"/>
      <stop offset="100%" stop-color="#CECFF8"/>
    </linearGradient>
    <linearGradient id="E" x1="72.567%" x2="30.043%" y1="72.152%" y2="29.229%">
      <stop offset="0%" stop-color="#E9E9FC"/>
      <stop offset="100%" stop-color="#CECFF8"/>
    </linearGradient>
    <linearGradient id="F" x1="61.514%" x2="39.818%" y1="72.152%" y2="29.229%">
      <stop offset="0%" stop-color="#E9E9FC"/>
      <stop offset="100%" stop-color="#CECFF8"/>
    </linearGradient>
    <linearGradient id="G" x1="96.056%" x2="9.271%" y1="55.538%" y2="44.807%">
      <stop offset="0%" stop-color="#E9E9FC"/>
      <stop offset="100%" stop-color="#CECFF8"/>
    </linearGradient>
    <linearGradient id="H" x1="96.056%" x2="9.271%" y1="69.584%" y2="31.638%">
      <stop offset="0%" stop-color="#E9E9FC"/>
      <stop offset="100%" stop-color="#CECFF8"/>
    </linearGradient>
    <linearGradient id="I" x1="87.708%" x2="-608.254%" y1="-159.538%" y2="-578.441%">
      <stop offset="0%" stop-color="#E9E9FC"/>
      <stop offset="100%" stop-color="#CECFF8"/>
    </linearGradient>
    <linearGradient id="J" x1="100%" x2="-822.836%" y1="-159.538%" y2="-578.441%">
      <stop offset="0%" stop-color="#E9E9FC"/>
      <stop offset="100%" stop-color="#CECFF8"/>
    </linearGradient>
    <linearGradient id="K" x1="63.85%" x2="-191.783%" y1="-159.538%" y2="-578.441%">
      <stop offset="0%" stop-color="#E9E9FC"/>
      <stop offset="100%" stop-color="#CECFF8"/>
    </linearGradient>
    <linearGradient id="L" x1="70.663%" x2="-310.713%" y1="-159.538%" y2="-578.441%">
      <stop offset="0%" stop-color="#E9E9FC"/>
      <stop offset="100%" stop-color="#CECFF8"/>
    </linearGradient>
    <linearGradient id="M" x1="55.259%" x2="-41.81%" y1="-159.538%" y2="-578.441%">
      <stop offset="0%" stop-color="#E9E9FC"/>
      <stop offset="100%" stop-color="#CECFF8"/>
    </linearGradient>
    <linearGradient id="N" x1="61.219%" x2="-145.844%" y1="-159.538%" y2="-578.441%">
      <stop offset="0%" stop-color="#E9E9FC"/>
      <stop offset="100%" stop-color="#CECFF8"/>
    </linearGradient>
    <linearGradient id="O" x1="100%" x2="-822.836%" y1="-72.533%" y2="-317.496%">
      <stop offset="0%" stop-color="#E9E9FC"/>
      <stop offset="100%" stop-color="#CECFF8"/>
    </linearGradient>
  </defs>
  <g fill="none" fill-rule="nonzero" opacity=".419">
    <g transform="rotate(-31 402.566 396.68)">
      <ellipse cx="402.038" cy="395.509" fill="url(#a)" opacity=".172" rx="391.929" ry="394.364"/>
      <ellipse cx="398.342" cy="399.971" stroke="#FFF" stroke-opacity=".413" stroke-width="5" opacity=".427" rx="397.5" ry="399.5"/>
    </g>
    <g opacity=".669">
      <path fill="url(#b)" d="M473.46 702.977a264.811 264.811 0 0 1-11.168 3.512c6.9-2.055 12.131-3.879 22-7.327-4.275 1.6-4.275 1.6-10.832 3.815z" transform="rotate(-31 436.911 286.665)"/>
      <path fill="url(#c)" d="M385.871 716.594h-.007c21.433 1.362 49.823-2.59 76.428-10.432-4.41 1.335-9.48 2.765-16.778 4.754l-1.56.398c-22.244 5.348-38.64 6.743-62.662 5.334 1.063-.067 3.877-.08 4.47-.06l.11.006z" transform="rotate(-31 436.911 286.665)"/>
      <path fill="url(#d)" d="M502.995 692.259l-.703.308c.313-.135.594-.264.92-.405-.07.026-.153.064-.217.097zM508.15 689.984a364.58 364.58 0 0 1-4.858 2.216c2.02-.932 4.621-2.126 6.603-3.038-.588.276-1.164.552-1.745.822zM490.142 697.387c-.173.064-.39.154-.563.225l-.287.115c.422-.173.984-.398 1.406-.565-.166.064-.39.154-.556.225z" transform="rotate(-31 436.911 286.665)"/>
      <path fill="url(#e)" d="M107.35 575.807c-.19-.45.128-.636.333-.764.006 0 .012-.007.012-.007.007-.006.007-.006.013-.006.007 0 .007 0 .013-.006.006 0 .013-.007.013-.007.006-.006.012-.006.012-.006.007 0 .013-.007.013-.007.007 0 .013-.006.013-.006.006-.007.013-.007.013-.013.81-.257 1.564-.72 2.432-.822 1.137-.135 2.17.642 3.32.385.632-.14.664-.86 1.117-1.175.224-.154.485.097.709-.077.09-.083.057-.199.083-.295.268-1.105 2.19-.803 2.202-.796 1.047.237.55 1.181.345 1.586-.517.982-1.136 1.547-1.845 1.682-.447.084-.785.045-1.75-.186-.727-.174-1.5-.321-2.936-.18-1.379.128-2.732.495-4.111.7z" transform="rotate(-31 436.911 286.665)"/>
      <path fill="url(#f)" d="M75.932 540.874c1.342 2.24 1.58 2.646 1.19 4.288-1.25-1.981-2.307-3.43-3.147-4.308-.218-.233-.49-.512-.88-1.11-.74-1.11-1.309-2.314-1.95-3.477-1.005-1.809-1.871-3.704-2.936-5.472-.549-.917-1.29-1.689-1.89-2.566-.007-.014-.014-.034-.027-.047.013-.006.046-.013.066-.02.516.3 4.675 3.464 5.078 3.896.575.618.932 1.656 1.481 3.225.337.997 1.012 2.247 3.015 5.591z" transform="rotate(-31 436.911 286.665)"/>
      <path fill="url(#g)" d="M113.136 582.78c-1.254-.597-2.306-1.528-3.553-2.125-.32-.154-.719-.276-1.202-.385-1-.219-1.209-.29-2.666-1.015a28.401 28.401 0 0 1-2.293-1.335l-.13-.084h.032c1.006-.02 1.816-.86 2.875-.636.457.097 1 .334 1.241.437.666.295 1.156.886 1.83 1.194.829.38 1.763.437 2.593.829 1.907.963 2.168 1.162 3.07 2.388.49.668.94 1.15 1.359 1.477-.941.225-2.254-.346-2.313-.366a14.057 14.057 0 0 1-.843-.378z" transform="rotate(-31 436.911 286.665)"/>
      <path fill="url(#d)" d="M79.763 533.98c.007-1.234.027-1.255.216-1.517.802.11 1.261 1.392 2.232.82.169-.103.169-.103 1.066-2.777.95-.579 1.841-.965 2.765-1.344 1.463.572 3.939 2.081 4.916 3.17 1.127 1.24 1.43 2.04 2.037 3.632.439 1.164.857 2.267 4.242 6.03 2.948 3.273 6.394 6.043 9.159 9.496.135.172.303.413.432.585.593.827 1.065 2.212 1.166 3.019.081.654-.532 1.047-.6 1.64-.094.896 4.222 6.657 6.886 9.613.25.276.593.64.755.979.236.503.58 1.274-.398 1.681-.222.09-1.753.393-2.32-.214-.688-.73-.694-1.805-1.254-2.598-1.814-2.529-4.033-4.713-5.827-7.263-.33-.496-.661-.992-.991-1.482-.284-.42-.56-.854-.85-1.274a49.041 49.041 0 0 1-.708-1.075c-.196-.297-.385-.586-.574-.876-.155-.22-.296-.448-.451-.675l-.304-.475c-.067-.097-.121-.193-.182-.283-.027-.028-.04-.062-.068-.096-.067.006-.161.02-.236.027-.276.717.007 1.564 2.118 6.471 3.46 8.035 2.873 7.642-2.752 3.887.162-2.53.162-2.53.108-2.667-.634-1.675-2.158-2.722-2.954-4.3-1.207-2.405-.957-5.355-2.704-7.56-.054-.076-.182-.13-.263-.18-.695-.392-1.47.221-2.158-.165-1.464-.827-2.192-2.57-3.817-3.19-1.235-.476-2.01.055-2.3.255-1.403-2.895 3.102-2.295 5.834-1.337 3.54 1.254 4.087 1.447 3.183-.6-.85-1.922-4.053-8.083-5.247-8.724-.277-.145-.513-.2-.695-.165-.769.172-1.146.971-1.888 1.192-.81.241-1.652-.172-2.469.09-.418.13-.97.51-1.793 1.075-3.11 2.143-3.541 1.998-7.783-2.495.283-.38.721-.6 1.166-.82 1.943 1.295 2.577 1.654 3.035 1.516.27-.062.27-.669.27-1.027zM498.375 693.472l-.083.032 3.055-1.342c-1.144.514-2.205.976-2.972 1.31z" transform="rotate(-31 436.911 286.665)"/>
      <path fill="url(#h)" d="M123.965 625.686c-.088-1.137-.095-1.233-1.565-2.98-3.096-3.672-3.531-8.865-6.94-12.36-3.511-3.596-8.9-4.864-11.595-9.474-2.735-4.693 1.075-6.57 2.688-5.344.667.52.857.767 3.09 3.836 2.347-2.692 2.768-3.185 13.342 7.482.205-.199.463-.466.667-.672-.197-5.186-.197-5.186-.163-5.289.864-.054 1.007-.061 3.007 1.097 6.573 3.781 11.908 6.501 15.868 8.084 4.607 1.843 7.308 6.282 11.574 8.577 9.458 4.693 21.237 2.68 29.64 10.414-.054-.486-.204-1.137-.394-1.59l21.168 18.197c6.192 5.357 11.064 12.058 17.426 17.23 4.987 4.05 13.432 3.337 15.514 11.414-.463.377-1.409 1.172-6.88-.767-3.579-1.268-7.389.171-10.988-.932-3.818-1.178-7.288-3.323-11.255-4.083-1.272-.24-1.272-.24-1.885.418-2.524.082-4.246-3.357-7.13-1.651-1.362.801-2.913 1.712.83 5.37 1.088 1.063 1.088 1.063 6.355 4.66-.545.048-.545.048-8.73-2.7 3.443 1.795 7.042 3.289 10.52 5.008-.647-.144-1.511-.39-2.137-.603 6.818 4.317 14.615 6.906 20.944 12.072-.028.199-.069.466-.089.665-.544.048-.544.048-3.103-.63 1.041.835 2.32 1.212 3.457 1.883-4.076 1.843-40.132-14.449-56.177-23.917-9.472-5.59-19.27-11.372-37.764-28.26-32.559-29.74-37.927-40.812-37.968-40.908 10.016 8.057 17.739 18.71 28.673 25.753z" transform="rotate(-31 436.911 286.665)"/>
      <path fill="url(#i)" d="M125.126 526.834c1.4 3.677 1.467 4.601.323 4.486-.208-.02-.403-.075-.598-.088-.82-.048-1.251.978 1.291 6.137 1.164 2.372 1.365 3.099.955 3.52-.888.918-2.367-.027-3.222 1.033-1.62 2.019-1.62 2.019-3.04 1.808-1.694-.251-2.562.571-2.986 1.305-.84 1.448-2.811 4.832-4.795 3.996-.464-.19-1.117-1.046-3.323-4.343-.948-1.406-2.226-3.33-3.907-4.703-1.285-1.067-2.845-1.733-3.995-2.977-1.345-1.468-2.132-3.316-3.269-4.934-.868-1.237-3.712-5.097-3.948-2.976-.013.122-.054.292-.08.407-.054.014-.122.048-.169.068-.787-.448-1.291-1.216-1.957-1.794a2.193 2.193 0 0 0-.128-.116c-.249-.258-.376-.387-.497-.87-.047-.203-.068-.475.208-.985.444-.836.895-1.699.04-3.575-2.468-5.376-2.468-5.376-2.925-7.483-.108-.482-.209-.93-3.08-3.024-1.137-.822-1.73-2.148-2.751-3.079-.787-.72-1.857-1.006-2.677-1.685-.128-.11-.323-.313-.303-.483.088-.734.848-1.121.955-1.842.363-2.392.04-4.825.43-7.217.061-.429.37-.952.673-1.258h.02c.525.163.673.204 2.24 1.434 4.116 3.215 6.255 5.458 6.336 6.654.02.38.047.74 1.123 1.454.208.136.504.3.726.422.915.503 2.004.482 2.926.985.968.53 1.728 1.34 2.59 2.019.033.027 3.92 3.004 7.99 4.275 5.783 1.814 7.169 4.69 6.584 6.599 1.056.537 3.84-2.25 3.35-4.472l-.014-.068H116.235c1.655-.116 3.188 1.753 4.412 3.249 1.433 1.712 1.58 1.889 1.964 2.575.652 1.19-.343 2.481.209 3.677.464 1.013 1.896.789 2.306 1.87z" transform="rotate(-31 436.911 286.665)"/>
      <path fill="url(#j)" d="M143.443 519.26c.07-.492 1.536-5.267 1.55-5.287.21-.445.46-.702 1.822-1.848.97-.816 1.745-1.497 2.262-2.199l5.187-7.985c.035-.06 3.295-6.245 3.56-9.3.455-5.125 11.06-7.472 11.164-7.479 1.473.486-2.841 10.642-3.805 11.067-.768.344-2.017-.391-2.401.688-.077.216-.133.52-.175.749-.426 2.387.929 4.754.084 7.142-.552 1.57-1.962 2.771-2.109 4.511.063 1.464.482 2.894.496 4.364 0 .256-.035.6-.07.856-.174 1.363-1.117 2.502-1.298 3.865-.077.586-.035.897.314 3.324.014.095 1.18 10.278.817 11.816-.552 2.286-1.704 4.377-2.255 6.663-.768 3.163.188 6.602-1.683 9.583-.468.742-1.229-.364-1.892-.283-.656.074-1.159.587-1.822.647-.09.007-.195.014-.28 0-.432-.047-.949-.209-1.856-1.045-1.362-1.275-4.797-5.78-5.746-7.256-.635-.999-2.108-3.548-2.01-5.598.097-1.814 2.296-2.596 2.31-4.444.014-1.93-.684-3.797-.516-5.74.07-.809 1.291-.944 1.165-1.868-.006-.02-.467-2.036-2.17-3.884-.385-.405-.685-.735-.643-1.059z" transform="rotate(-31 436.911 286.665)"/>
      <path fill="url(#k)" d="M648.28 167.147c-.88.296-5.29-3.772-5.331-3.813-1.484-1.407-2.886-2.903-4.431-4.254-.84-.738-1.91-1.158-2.69-1.979-1.057-1.103-1.904-2.09-3.956-5.447-1.606-2.613-1.979-3.378-2.683-4.84-1.565-3.227-4.404-5.454-6.423-8.329-2.202-3.165-1.382-3.771-1.03-4.027.447-.33.596-.537.237-1.296h.055c3.51 2.462 7.086 5.613 6.646 7.054a.931.931 0 0 1-.278-.035c1.755 1.73 3.753 3.186 5.46 4.958 2.074 2.137 3.002 3.33 3.991 4.778.955 1.565 1.07 2.275.346 2.123-.21-.041-.468-.193-.603-.269.067.138.196.29.298.407 1.612 1.93 10.765 13.57 10.393 14.969z" transform="rotate(-31 436.911 286.665)"/>
      <path fill="url(#l)" d="M277.292 9.22c4.53-1.2 14.071-2.89 15.935-3.217l5.065-.84c-7.03 1.174-13.958 2.805-20.967 4.058h-.033z" transform="rotate(-31 436.911 286.665)"/>
      <path fill="url(#m)" d="M634.472 159.396c.116.19.333 1.047-1.367.612-.292-.075-.856-.313-1.727-.68-3.019-1.272-3.55-1.225-3.937-1.034-.109 1.163 1.768 2.598 2.448 2.843 1.299.463 1.822.687 3.237 2.068.938.911 1.938 2.36 2.829 3.32 2.4 2.584 5.535 4.469 7.337 7.625-.544.034-.544.034-1.653-.483-4.76-2.225-9.152-5.19-14.021-7.19-1.585-.653-3.244-1.116-4.78-1.905-.504-.265-.925-.653-1.415-.952-2.876-1.735-6.154-2.816-8.677-5.15-.156-.142-.34-.394-.34-.598 1.666-.367 2.904 1.476 4.61.905-.496-.966-.496-.966-2.753-3.53-1.727-1.973-7.004-7.98-6.147-10.15 1.067-.448 2.386 1.524 3.073.245.157-.299-.177-2.714-1.081-3.952-.476-.49-.476-.49-2.21-.476-.544.157-1.455.415-1.979-.313-.027-.027-.047-.075-.068-.109-1.217-2.993 2.224-4.816 1.918-7.577-.218-1.966-2.305-3.333-1.782-5.544.157-.673.483-2.068 3.271-1.279-14.13-14.094-14.13-14.094-14.164-14.366.523-.238.687-.306 4.61 1.585 1.564.755 1.605.768 2.04.884-.048-.231-.184-.837-5.902-5.598-2.265-1.891-2.4-2.122-2.55-2.395.115-.02.265-.06.374-.027.054.02 5.399 2.075 9.166 5.544.32.293.714.721 1.006 1.048l12.54 14.325c-3.292-.571-4.658-3.85-7.351-5.251-.075.333.918 2.115 4.338 5.271.986.919 1.66 1.66 2.23 2.49.123.177 2.408 3.877 2.326 4.408-.075.442-.353.483-1.979.714-.374.055-.856.184-1.19.354 0 .075-.04.19-.006.258.503.96 1.489 1.53 2.006 2.483.938 1.708 1.366 3.633 2.27 5.347.055.115.157.265.218.38 1.72 2.667 2.53 1.64 3.108.892.544.068 1.033.204 1.516.34 1.476 2.34 1.89 5.17 3.38 7.51 1.863 2.91 5.42 4.122 7.228 7.108z" transform="rotate(-31 436.911 286.665)"/>
      <path fill="url(#n)" d="M266.845 12c-.007-.019-.027-.05-.033-.077-1.607-.109-2.934 1.015-4.52 1.002.126-.064.305-.115.438-.16 2.834-.854 13.433-3.423 14.562-3.603-3.053.764-4.494 1.13-6.71 1.927-.571.205-3.28.95-3.737.911z" transform="rotate(-31 436.911 286.665)"/>
      <path fill="url(#d)" d="M514.311 686.188l.038-.026-.057.032zM298.368 5.22l.358-.058-.434.071z" transform="rotate(-31 436.911 286.665)"/>
      <path fill="url(#o)" d="M537.292 673.162c-9.43 5.521-12.836 7.17-23 12 7.794-3.676 15.447-7.737 23-12z" transform="rotate(-31 436.911 286.665)"/>
      <path fill="url(#d)" d="M554.66 662.305c-1.195.739-2.282 1.42-3.368 2.087 1.668-1.085 3.356-2.119 5.005-3.23-.537.373-1.119.796-1.637 1.143z" transform="rotate(-31 436.911 286.665)"/>
      <path fill="url(#p)" d="M551.292 665.162a354.508 354.508 0 0 1-14 8.29c3.556-2.074 8.019-4.726 14-8.29z" transform="rotate(-31 436.911 286.665)"/>
      <path fill="url(#d)" d="M556.292 661.345c1.029-.706 2.058-1.412 3.145-2.183-1.049.726-2.084 1.47-3.145 2.183zM560.292 658.94c.364-.258.722-.52 1.08-.778-.364.264-.716.52-1.08.777z" transform="rotate(-31 436.911 286.665)"/>
      <path fill="url(#l)" d="M529.706 275.598c-.129-.044-.285-.122-.414-.173 0-.045 0-.096.007-.135 1.066-.436 2.174-.802 3.22-1.29.971-.456 1.787-1.17 2.812-1.529 1.121-.391 2.202-.314 2.772-.276 2.167.225 4.287.758 6.475.816 3.526.102 3.526.102 3.818.173 1.664.411 2.344 1.24 1.59 1.94-1.672 1.553-15.504 2.15-20.28.474z" transform="rotate(-31 436.911 286.665)"/>
      <path fill="url(#d)" d="M148.399 67.2l.051-.038-5.062 3.808c-.039.026-.064.045-.096.064 1.943-1.483 2.467-1.888 5.107-3.833z" transform="rotate(-31 436.911 286.665)"/>
      <path fill="url(#q)" d="M67.207 555.62c2.567 1.22 3.964 3.87 6.449 5.2.117-.109.268-.239.378-.341-.11-.846-.158-1.195-2.602-5.945-2.863-5.57-3.2-6.6-2.408-7.344 1.37-.232 4.494 1.078 4.576 1.27.035.081.076.197.104.293.66 2.232-.689 4.204-.826 6.334-.055.976.44 1.146 1.252 1.42 1.79.614 2.444 1.228 3.015 3.89l1.253 10.28c0 .068.46 7.234 9.167 12.62.737.457.902.6.97.866.359 1.23-.956 2.082-.756 3.277.275 1.645 3.262 2.252 2.202 4.232-.316.607-.316.607-6.62-3.911a6.688 6.688 0 0 0-.173.3c.337.819.337.819 10.104 16.101-.296-.32-29.637-33.315-26.808-48.167.22-.116.502-.26.723-.376z" transform="rotate(-31 436.911 286.665)"/>
      <path fill="url(#d)" d="M74.015 582.235c-.019-.115-.019-.115-.121-.276-.499-.764-.332-1.015-.332-1.015.6.225 3.33 4.45 2.978 4.617-.294.142-1.227-.423-3.988-3.904-1.458-1.836-3.254-4.424-3.26-4.495 1.125 1.092 1.879 2.472 2.87 3.66 1.4 1.657 1.515 1.6 1.853 1.413z" transform="rotate(-31 436.911 286.665)"/>
      <path fill="url(#d)" d="M80.613 590.157l-.095-.116c-4.13-5.034-6.182-7.782-6.226-7.879 2.48 2.794 4.576 5.901 6.967 8.778l-.646-.783z" transform="rotate(-31 436.911 286.665)"/>
      <path fill="url(#p)" d="M499.987 278.937c-.534-.013-5.656-.829-6.145-1.047-.81-.36-3.494-5.266-3.507-5.31-.154-.463.129-.43.431-.405 2.516.52 4.904 1.637 7.542 1.573 1.03-.026 2.04-.315 3.07-.32 0 0 .958-.007 1.537.275 2.143 1.053 1.493 3.423.026 4.45-.547.385-1.5.829-2.954.784z" transform="rotate(-31 436.911 286.665)"/>
      <path fill="url(#r)" d="M610.808 230.27c-.173.28-.09.68-.41.892-1.067-.586-3.164-8.401-3.19-8.481-.344-1.325-1.086-4.78-.881-5.479.025-.013.051-.026.083-.04l.09.047c.146.133.268.253.632.859.806 1.371 1.125 2.955 1.752 4.4.716 1.664 1.662 2.49 2.352 3.096.505.439.933.825 1.15 1.57.07.254.013.746-.115 1-.05.092-.108.226-.16.312-.396.64-.9 1.185-1.303 1.824z" transform="rotate(-31 436.911 286.665)"/>
      <path fill="url(#s)" d="M618.989 246.62c-.52.321-1.565-.263-1.688.577-.208 1.346.85 2.298 1.058 3.526.656 3.913-5.233-1.385-5.298-1.445-.714-.696-1.785-1.746-2.318-3.243a6.797 6.797 0 0 1-.195-.617c-.038-.19-.103-.433-.142-.617-.292-1.293-.221-2.633-.52-3.92-.35-1.536-1-2.98-1.383-4.503-.396-1.59-.337-2.45 1.065-2.16 1.46.453 5.363 2.718 7.278 5.245.948 1.248 3.272 6.467 2.143 7.156z" transform="rotate(-31 436.911 286.665)"/>
      <path fill="url(#d)" d="M640.2 253.104c-.192-.096-.448-.263-.595-.43-.013-.02-2.116-2.46-2.237-2.73-.396-.853.825-.892 1.994-.66 2.39.526 5.088 2.337 3.657 3.41-.595.449-2.148.731-2.82.41z" transform="rotate(-31 436.911 286.665)"/>
      <path fill="url(#t)" d="M281.293 50.578c-.054-1.845 1.564-3.002 5.01-5.036 1.353-.791 2.148-1.282 2.72-2.067 1.89-2.583 1.767-5.964 3.657-8.554.17-.236.421-.536.612-.759-2.89 6.148-5.582 13.172-8.07 21-1.876-.64-3.807-1.301-3.929-4.584z" transform="rotate(-31 436.911 286.665)"/>
      <path fill="url(#u)" d="M134.196 559.643c1.338-1.677 3.498-2.454 3.51-2.454.716.085.624 1.188 1.445 1.13 1.524-.105 2.697-1.123 4.114-1.508h.014l.006-.007c.007 0 .013-.007.013-.007h.007s.013 0 .02-.006h.007c.006 0 .006-.007.013-.007h.006c.484-.137.55-.156.882-1.11 1.238-3.648 1.285-3.792 2.915-4.053.33 0 .669 0 1.106.32.59-.176 1.06-.607 1.663-.744.424-.104.755.052.94.13.67.3 3.724 2.794 3.413 3.303-.438.699-1.478.053-1.889.803-.397.725.623 1.462.63 1.475-2.319 2.892-2.756 3.134-3.558 3.57-.643.353-1.45.556-1.96.588-.79.06-1.518-.326-2.3-.274-.238.013-.305.118-.563.868-.219.66-.828 2.39-3.816 3.747a8.032 8.032 0 0 1-.908.34c-1.358.443-2.802.49-4.167.907-.662.202-1.126.45-1.53.842-.318.3-.967.927-1.451.548-.616-.49-.623-3.329-.013-4.673.556-1.208.576-2.631 1.45-3.728z" transform="rotate(-31 436.911 286.665)"/>
      <path fill="url(#d)" d="M83.626 558.788c-.505.186-1.074 1.451-1.19 3.506-.07-.07-.159-.16-.223-.238-1.26-1.509-2.966-6.96-1.087-7.815.991-.237 2.672.11 2.985.38 1.912 1.63 4.411 5.355 4.187 5.753-.064.103-.243.045-.588-.058-.415-.122-.85-.077-1.265-.225-.25-.09-.358-.128-1.183-.745-.575-.43-1.093-.764-1.636-.558zM89.437 553.162c.473.045 1.189.116 3.234 3.468.627 1.014.46 1.464.013 1.83-.972.796-2.742.847-3.72-.36-1.023-1.24-.889-4.552.473-4.938zM119.319 571.243c.179-.328.556-.308.812-.514.102-.083.185-.244.268-.347.166-.224.275-.25.512-.295.837.064 1.649.417 2.505.205.901-.224 1.125-.802 1.183-1.13 1.272.103 2.505.411 2.927.732.486.386-.044 1.458-.083 1.49-.466.437-6.302 1.567-7.773.392-.44-.353-.396-.45-.351-.533zM122.11 575.169a1.09 1.09 0 0 1 .787.218c.045.032.109.084.147.122.09.084.198.218.288.302.326.321.9.392 1.003.95.077.386-.99 3.262-1.246 3.532-.128.135-.34.276-.697-.116-.007-.012-.99-1.085-1.068-2.414-.064-1.259-.127-2.35.787-2.594zM623.672 145.94c-.453-.128-.92-.256-1.38-.385.3-.366.473-.45.716-.36.243.129.383.315.664.745zM336.497 31.174c1.95-.09 1.547.366 1.33.61-.384.43-5.242 4.309-5.523 3.05-.14-.649.895-3.48 4.193-3.66z" transform="rotate(-31 436.911 286.665)"/>
      <path fill="url(#v)" d="M23.683 226.162c-1.355 3.705-2.902 7.935-4.391 12 1.31-3.81 2.742-7.77 4.391-12z" transform="rotate(-31 436.911 286.665)"/>
      <path fill="url(#d)" d="M350.27.162c-.326.007-.652.013-.978.026.364-.007.728-.013 1.048-.026h-.07z" transform="rotate(-31 436.911 286.665)"/>
      <path fill="url(#w)" d="M356.059 25.753c-4.012 3.016-14.655 5.36-16.265 4.026a.867.867 0 0 1 .371-.44c1.5-.746 3.57-3.647 4.08-6.398.117-.63.578-3.91-2.002-6.241-.193-.176-.51-.325-.743-.44l-12.963-6.438c-.867-.285-.867-.285-12.9-1.864-.097-.129-.269-.291-.33-.447-.028-.081-.007-.21-.014-.298.495-.461 3.378-1.057 3.667-1.05 22.505 3.577 22.505 3.577 27.48 6.2.261.135.626.298.832.501.131.136.31.319.44.461.716.76.393 1.931 1.108 2.69.984 1.05 2.477 1.322 3.53 2.25.482.42.833 1.247 1.335 1.627 1.403 1.036 3.371 1.165 4.472 2.697.654.942-1.238 2.52-2.098 3.164z" transform="rotate(-31 436.911 286.665)"/>
      <path fill="url(#d)" d="M25.803 224.402l.275-.674c.767-1.869 1.15-2.787 1.93-4.566a344.656 344.656 0 0 0-2.716 6.576c.172-.43.351-.919.511-1.336z" transform="rotate(-31 436.911 286.665)"/>
      <path fill="url(#x)" d="M593.746 90.199c-.466-.007-17.165-12.374-25.247-18.612-.034-.027-3.053-2.36-3.505-3.034.169-.007.169-.007 1.195.402.007-.047.007-.102.014-.157-.622-.572-1.304-1.07-1.911-1.636.08.027.182.075.256.11 4.64 2.93 9.9 6.265 22.554 16.88l6.171 5.317.29.253c.912.81 1.824 1.622 2.729 2.44-.939-.804-2.006-1.718-2.6-2.14.02.054.034.129.054.177z" transform="rotate(-31 436.911 286.665)"/>
      <path fill="url(#y)" d="M370.01 37.988c-.403-.032-5.828-.88-6.551-1.49-.717-.597.982-1.175 2.961-1.304.24-.019.546-.025.785-.032 3.31-.013 6.769 1.195 5.97 2.087-.354.398-2.299.81-3.166.739z" transform="rotate(-31 436.911 286.665)"/>
      <path fill="url(#d)" d="M587.656 84.47c-.064-.05-.109-.09-.173-.14-.063-.052-.127-.116-.191-.168.108.097.255.212.364.308zM17.42 244.56c.044-.122.108-.276.153-.398-.006.026-.006.045-.013.07-.09.226-.185.482-.268.7.032-.108.09-.256.128-.372z" transform="rotate(-31 436.911 286.665)"/>
      <path fill="url(#z)" d="M4.174 304.162c-.007-3.007-.007-3.007.025-3.16 1.247-5.623 1.247-5.623 1.24-6.293-.287.376-.134 1.15-.767 1.214-1.01 1.702-.926 3.725-1.38 5.588.23-1.828.588-3.642.748-5.484-.032.05-.09.119-.128.168a1.953 1.953 0 0 1 0-.335l1.713-9.405c-.051.286-.102.572-.147.858 1.56-4.234 1.374-8.965 3.132-13.15-.032.432-.147.843-.243 1.269-1.361 6.23-2.57 13.96-2.557 14.358.109-.167.109-.167.544-1.549-.627 7.005-.627 7.005-2.18 15.921z" transform="rotate(-31 436.911 286.665)"/>
      <path fill="url(#d)" d="M35.292 203.361l.096-.199-.02.052z" transform="rotate(-31 436.911 286.665)"/>
      <path fill="url(#A)" d="M1.401 321.198c.604-7.268 2.088-17.002 2.095-17.036.225 1.182.212 1.243.09 2.753.026-.103.07-.246.103-.348.41 1.359-.482 7.179-.502 7.233-.469 2.493-1.574 19.508.309 20.97 1.735-1.448-.328-3.804 1.13-5.314.078.068.187.157.27.225-.263 9.713.052 12.186.367 12.562.315-.246.392-.3.655-1.667.405-2.09 2.133-1.236 2.153-1.23 1.934 1.162.886 3.436 1.657 5.028.456.922 1.607.943 2.101 1.81l1.992 6.933c.366 1.783.508 4.713.463 4.932-.032.11-.097.239-.148.335-1.266-.438-.328-2.05-1.208-2.719-.758.929-.835 1.025.553 7.11.205.902.687 3-.257 6.387-.123-.007-.29-.007-.405-.013-2.519-4.645-2.577-8.675-2.622-11.087-.032-2.26.084-3.128.09-3.162.232-1.674 1.607-3.074 1.035-4.932-.437-1.448-.444-1.455-.765-1.776-.25.171-.25.171-.642.772a4.717 4.717 0 0 0-.315-.17c0 6.256-.007 11.195-.334 12.158-2.313-1.435-1.388-4.194-2.25-6.223-.09.041-.224.082-.314.123-.128.348-.128.348-.366 1.332-.662-.519-1.041-4.194-1.041-4.228-.103.895-.16 4.167-.167 4.2-3.097-1.051-.868-4.801-1.31-7.206-.418 1.776-.418 1.776-.553 2.07l-.347-.02c-.437-.779-.437-.779-.81-1.749-.29.294-.29.294-.463 1.031-.09-.034-.212-.075-.308-.109-.238.396-.238.396-.218 1.277-2.005-1.632.263-29.965.282-30.252z" transform="rotate(-31 436.911 286.665)"/>
      <path fill="url(#d)" d="M27.292 218.162a292.132 292.132 0 0 1 3.93-8.72l.129-.28-.039.07c-2.167 4.804-3.279 7.257-4.02 8.93z" transform="rotate(-31 436.911 286.665)"/>
      <path fill="url(#B)" d="M10.446 265.64c-.268.345-.268.352-1.154 3.522 1.98-8.87 5.45-17.299 7.78-26.066.694-1.854 1.443-3.852 2.22-5.934-3.925 11.18-6.633 20.938-9.258 30.456.11-.661.289-1.316.412-1.978z" transform="rotate(-31 436.911 286.665)"/>
      <path fill="url(#d)" d="M342.292.175c.076-.006.166-.006.249-.013-.064.007-.134.007-.205.007-.019 0-.031 0-.044.006zM344.27.169l.09-.007c-.314.013-.71.026-1.068.045l.978-.038zM348.547.175c.192-.006.384-.006.57-.013l-.825.02c.083 0 .179-.007.255-.007zM299.354 20.756c.006-.006-.013-.012-.026-.019-.025-.02-.064-.064-.006-.173.07-.129.255-.283.32-.34 1.719-1.355 4.589-2.049 4.876-2.062.365.026.39.405-.089.803-1.17.982-4.583 2.016-5.075 1.791zM5.311 287.175l-.019.077.019-.09zM338.292.278l.268-.02c-.05 0-.108.007-.166.007.614-.032 1.425-.07 2.033-.103h.006c-.396.032-1.918.103-2.122.11.006.006-.013.006-.02.006z" transform="rotate(-31 436.911 286.665)"/>
      <path fill="url(#C)" d="M413.033 574.491c9.471 2.295 10.178 6.938 10.232 7.46.47 4.909-5.496 6.579-5.639 11.181-.027.998.04 1.412 1.787 4.04 1.841 2.776 1.998 5.24 1.63 8.804-.054.577-.244 1.337-.414 1.893-.59 1.874-7.61 12.26-7.678 12.348-.849 1.161-1.617.971-2.024.862-4.79-1.228-7.203-2.654-7.155-4.249.095-3.93-.347-8.309-.537-10.176l-3.914-33.826c-.74.387-1.06 1.181-1.603 1.752-.102-.014-.238-.034-.347-.048-.081-.536-.102-.638-.054-1.717.231-5.275 3.513-17.175 7.576-15.491 2.453 4.976-.856 11.642 4.634 15.722.897.678 2.392 1.174 3.506 1.445z" transform="rotate(-31 436.911 286.665)"/>
      <path fill="url(#d)" d="M238.527 450.414c-.096.148-.21.27-.313.411-.154.212-.205.482-.39.675-.09.096-.243.16-.384.025a.488.488 0 0 1-.102-.167c-.14-.385.07-.828.211-1.156.045-.083.358-.796.313-.956.14-.065.345-.084.416-.084.383.013.466.212.55.533-.033-.058-.077-.122-.11-.173-.006.308-.025.63-.191.892z" transform="rotate(-31 436.911 286.665)"/>
      <path fill="url(#D)" d="M270.863 711.083c1.814.36 3.628.687 5.429 1.072-.25-.013-2.383-.327-3.723-.584.203.058.42.115.623.186-.962 0-13.2-2.53-22.094-5.124-.643-.187-1.51-.443-2.153-.636l-2.653-.835c5.205 1.573 7.75 2.132 9.354 2.485 14.391 3.127 14.391 3.127 15.217 3.436z" transform="rotate(-31 436.911 286.665)"/>
      <path fill="url(#d)" d="M242.957 703.393l-.665-.23 4.583 1.508a181.41 181.41 0 0 1-3.918-1.278z" transform="rotate(-31 436.911 286.665)"/>
      <path fill="url(#E)" d="M54.37 489.237c1.425 4.23 1.484 4.284 1.679 4.507a.55.55 0 0 1 .104-.013c.514-.825.514-.825.585-.791.352.176.508.574.833.777.56.338 1.23.426 1.756.811.013.007.787.568 2.42 2-1.437-3.338-1.555-3.608-1.184-4.088a.512.512 0 0 1 .267.108c.78.608 1.294 1.507 2.075 2.122.872.696 1.945 1.054 2.817 1.764.299.243.637.649.897.932.553.636 2.134 3.028 1.542 3.704-.032.034-.084.067-.123.094-1.464-1.06-2.05-3.04-3.754-3.852-.032-.013-2.524-.757-2.225 1.007.566 3.217 3.116 5.636 3.337 8.988.046.683-.41 1.602-.65 1.764-.046.027-.117.007-.17.007-.175 0-.311-.149-.48-.149-.443-.006-.853.426-1.321.129-.11-.061-.267-.162-.885-2.366-.839-2.953-1.216-3.588-2.517-4.237l-.085.088c.065.392.098.507.573 2.02.741 2.366.715 2.535.683 2.677-.469-.345-2.869-4.852-3.064-5.244-3.311-6.765-3.272-8.178-3.149-12.834.02.014.033.048.04.075z" transform="rotate(-31 436.911 286.665)"/>
      <path fill="url(#d)" d="M64.557 475.175c.371-.046.784-.085 2.057 2.245.977 1.801 1.624 2.995 3.433 4.536 2.202 1.873 4.678 3.432 6.701 5.495.172.176.365.372.544.711-.028-.006-3.385-1.148-5.18-2.33-.503-.326-.902-.665-1.06-.796-.991-.835-1.383-2.062-2.188-3.022a.482.482 0 0 0-.248-.117c-.812-.111-2.153-.561-2.628-1.195-.035-.045-2.49-5.214-1.431-5.527z" transform="rotate(-31 436.911 286.665)"/>
      <path fill="url(#F)" d="M231.809 470.125c-2.064-3.214 2.576-16.895 4.693-16.963.81.13 2.178 2.288 4.114 11.835 1.254 6.17.52 6.687-.25 7.232-4.208 2.956-8.517-2.05-8.557-2.104z" transform="rotate(-31 436.911 286.665)"/>
      <path fill="url(#d)" d="M84.302 529.232c.409-.128.843-.083 1.54.16-.87.354-1.72.714-2.55 1.067.281-.726.556-1.06 1.01-1.227zM76.81 533.328c-.421.205-.836.417-1.246.623a54.197 54.197 0 0 1-3.253-3.77c0-.006-.013-.012-.02-.019l.007.007c1.911 1.38 2.787 2.003 4.513 3.159z" transform="rotate(-31 436.911 286.665)"/>
      <path fill="url(#y)" d="M84.532 426.098c-.406-.192-.54-.628-.865-.897-.175-.141-.472-.263-.688-.334-.622-.211-1.168-.397-1.89-1.583-.467-.743-.723-1.583-1.257-2.295-.385-.519-1.053-.769-1.438-1.294-.142-.199-.115-.475-.047-.91.08-.539.33-1.039.418-1.577.385.237.892.557 1.27.794 3.95-.858 3.95-.858 4.118-.833.095.013 3.268 2.026 3.289 2.045 1.208.974.952 4 .317 4.961-.02.026-2.228 2.404-3.227 1.923z" transform="rotate(-31 436.911 286.665)"/>
      <path fill="url(#G)" d="M240.744 697.883c-.731-1.11-2.374-.706-3.165-1.72.134-.014 15.297 4.7 15.713 5.534-.423.309-11.663-2.767-15.727-4.077-.013-.007-1.73-.559-2.273-.784.013-.006.027-.025.033-.032 5.292 1.15 5.292 1.15 5.419 1.08z" transform="rotate(-31 436.911 286.665)"/>
      <path fill="url(#d)" d="M659.292 556.114c.447-.655.907-1.322 1.33-1.952-.34.527-.806 1.22-1.33 1.952zM584.292 639.849c2.946-2.485 5.983-5.125 8.93-7.687a309.667 309.667 0 0 1-8.93 7.687z" transform="rotate(-31 436.911 286.665)"/>
      <path fill="url(#H)" d="M17.922 312.547c-5.943 23.087-.115 30.299-.047 30.36.528.041 1.24.089 1.769.123 2.392-8.385.027-16.879.576-25.312 1.165-17.847 8.58-21.122 11.371-22.35 1.328-6.89 1.328-6.89 2.148-8.303.543.075 1.275.184 1.81.26 2.548 3.731 7.075 5.39 9.535 9.21-1.464 6.072-1.464 6.072-13.398 15.616-.332 6.68 9.813 9.313 6.513 17.132-2.101 4.987-4.798 14.716-4.23 18.625 5.226 36.343 5.226 36.343 9.353 45.185 7.217 15.453 24.736 13.386 36.222 21.573.414-4.626 1.512-16.906 16.787-1.842 4.676 4.605 4.676 4.605.007 18.386-12.395 36.569 22.614 44.162 22.966 44.224-1.606-3.5-3.429-7.457-.48-14.9 2.161-5.459 8.403-7.082 11.147-12.001-.223-.662-.515-1.55-.738-2.21.535-.076 1.24-.356 1.768-.253.299.061 16.231 17.595 9.325 23.155-.176 10.056-.176 10.056-4.432 21.696-2.94 8.03 2.23 15.166 2.474 22.848.047.28.101.546.237.73.373.491 1.064-.116 2.04-1.262-.325.075-.637.15-.956.225.319-.075.63-.15 1.207-.525 6.017-7.873 5.577-10.254 3.707-20.256-1.45-7.75 5.265-13.338 5.394-20.659.163-9.08-6.777-15.828-7.929-24.479-1.111-8.405-1.959-22.568.258-27.085 6.322 7.068 8.03 8.16 13.397 4.783-1.83-15.133-1.83-15.133 7.082-41.481.027-.007 20.71 2.463 25.19 3.2 1.47 11.68 38.533 30.571 38.9 30.667 2.825.73 3.029 2.333 3.916 9.08.481 3.63 12.016 27.024 12.117 27.14.305.348 3.158 3.48 8.648 5.574 3.388-3.704 19.971-25.345 13.526-87.546 3.368 2.259 4.209 3.664 6.452 7.416.176.341.922.45.969.826 4.012 1.105 9.006 2.476 15.648-9.797l-.773.054c-3.788-.204-4.344-.314-7.034-1.05-.258-.737-.603-1.72-.854-2.456 11.561-.007 11.561-.007 21.008-17.97 38.974 1.466 38.974 1.466 54.527-4.415 2.921-1.112 1.606-5.274 4.534-6.386 5.293-2.02 10.958-.04 16.285-1.549.616-.177 14.956-4.407 19.13-20.003.313-1.167 1.146-4.264 4.413-5.055 4.886-1.194 27.676-5.015-4.073 36.807-1.362-3.145-1.362-3.145-1.22-8.713-1.627 4.722-.976 10.064-3.924 14.423-16.874.6-17.539.621-28.124-11.653-2.799 8.576-2.799 8.576-15.424 17.111-.597 4.196-.597 4.196-5.205 7.287 3.158 7.245 4.46 10.24 9.86 12.11.583-.308 1.376-.703 1.966-1.01 1.342 3.404 1.579 7.157 3.171 10.486 11.948 3.664 14.096 4.325 15.594 7.163 4.568 8.645 64.11 25.864 64.502 25.653.746-.403 2.731-1.46 4.263-11.585l49.004-92.744c2.433 4.236 2.433 4.236 4.046 6.01.623-.198 1.463-.45 2.08-.641 1.362-3.022 2.243-6.236 3.748-9.197 7.075 6.604-18.047 49.559-20.12 51.537-2.19 2.088-4.074 3.89-4.413 13.604-.833 23.551-33.152 26.362-32.901 50.63-1.77 1.753-3.179 3.138-10.911 7.73-.244-.082-30.544-7.846-38.195-7.553-.223 3.916 16.278 42.28 31.316 54.573.237.191.55.444.793.628 16.42 13.154 27.575 43.568 27.657 43.848-1.342 1.978-3.402 3.377-4.494 5.567-1.436 2.866.15 6.14-1.233 9.02-1.572 3.281-4.737 5.478-6.045 8.944-.718 1.93-3.246 13.754-3.334 16.612-.007.09.054 8.515 1.803 10.493 2.981 3.37 8.037 4.06 10.395 8.228 4.676 8.276 3.267 10.289 2.237 11.762-5.28 7.566-5.28 7.566-5.666 9.859-1.403 8.44-1.403 8.44.393 9.346 5.015 2.532 5.015 2.532 2.894 7.485-3.199 7.436-3.253 7.58-2.61 20.48.157 3.085 1.343 5.97 1.64 9.027 4.765 1.173 7.849 7.45 13.914 4.619 13.39-6.25 22.086-18.482 33.803-26.86l39.245-39.973c9.108-10.323 7.556-25.011 14.577-36.187 19.843-31.554 21.686-32.413 23.651-33.327 1.688-.785 12.964-11.749 14.035-13.639.014-.027 2.25-6.126 5.008-18.106a649.951 649.951 0 0 0-14.394-1.795c4.988.567 9.786 1.167 14.821-.116.644-2.879 26.342-18.912 26.566-18.912 14.245-.047 20.764 13.195 31.776 18.708 18.013-10.923 40.662-36.01 46.273-93.475 1.843-18.905-14.957-98.34-26.626-107.706-.637 1.18-2.122 2.442-3.368 2.92-2.257-1.638-2.257-1.638-6.506-1.263-12.253-15.016-23.957-18.666-24.072-18.707a64.476 64.476 0 0 1-4.195 2.19c-4.682-5.683-12.625-4.243-18.033-8.357-4.242 1.235-4.242 1.235-5.842 2.981 4.466 6.734 3.003 15.405 7.19 22.235l-27.825 18.188c-2.874 1.48-12.653 6.23-17.668 5.213-1.836-3.057-1.836-3.057-1.274-8.979.543-5.567-5.984-13.133-16.705-9.265-.223.696-.521 1.624-.738 2.32-10.322 4.516-10.322 4.516-11.223 5.922-10.104-.669-20.534 4.025-30.3-1.917-12.496 4.564-15.457 5.642-19.483.784-9.853-11.898-8.613-27.583-13.845-41.064 2.88-.621 5.862-.375 8.749-.983 5.103 4.108 5.103 4.108 20.568.205 1.89 1.153 2.406 3.834 4.845 4.387 8.946 2.026 22.506-10.015 15.235-24.861 1.247.355 3.015.518 4.303.41-3.883-9.511-15.804-4.285-20.907-11.558.536-.573 1.24-1.337 1.776-1.917-7.93-1.651-14.482-7.32-22.784-7.853h-.319c-.027 0-.054-.007-.074-.007h-.088c-.027-.007-.054 0-.082-.007-.033 0-.054-.006-1.775-.02-10.314-.518-18.169 8.078-28.43 7.764H457.404l-1.213-.007c-.67-.02-1.565-.027-2.23-.082-21.57-1.794-21.57-1.794 12.64-31.902-.217-.6-.516-1.412-.74-2.019-4.635-1.221-7.78-4.94-11.811-7.157 1.145-.873 2.419-2.435 3.009-3.752-4.914-.573-4.914-.573-7.252-2.88.373-.538.854-1.268 1.22-1.807 14.001.327 19.348 4.694 24.512 8.917-.725 1.903-1.64 4.264-7.678 6.577 10.592 6.324 13.56 6.4 16.42 6.467.502-1.364.922-3.274 1.071-4.72.644.013 1.511.026 2.155.047.136-.641.325-1.501.46-2.142-5.644-2.784-5.692-2.995-6.383-6.53 5.611.369 6.14-.088 8.376-2.033-1.335-.156-3.097-1.03-3.998-2.033 11.595.887 15.024 13.01 23.902 17.623 1.166 6.208 7.509 9.647 8.43 15.978.671 4.592-3.07 7.396-4.465 11.148 5.977 1.747 5.977 1.747 13.967 6.932.027-.649.081-1.515.115-2.163.142-.089 15.031-7.955 20.866.56.88 1.282.942 3.704.407 5.164-4.134 11.046-4.134 11.046 1.775 27.877.027 0 .04.006.068 0 .027 0 .047 0 .074.006.014 0 .041 0 .068.007.02 0 .04 0 .068.007.013 0 .04 0 .068.007.013 0 .04 0 .067.007.028 0 .041 0 .068.007.02 0 .048 0 .624.034 5.469-3.76 7.739-5.308 4.256-13.645 5.136-7.178 5.136-7.178 5.455-26.922l22.465-28.518c4.568 2.163 4.568 2.163 7.489 11.98-6.398 4.476-6.011 14.062-13.29 17.869.183.648.42 1.507.603 2.149-8.105 7.204-8.105 7.204-8.701 8.52.312.724.725 1.693 1.05 2.416.848-1.01 2.393-2.067 3.667-2.367 3.957 6.4 4.913 14.293 9.955 20.153.529-.354 1.233-.839 1.762-1.194 2.812 3.89 2.812 3.89 2.5 11.974.624.225 1.45.518 2.074.75 2.752-2.06 4.622-5.3 8.261-6.154.238-.682.55-1.59.78-2.265-12.971-4.243-18.894-6.174-18.332-13.7l22.195-37.298c4.418-.866 4.418-.866 15.763 10.923 1.382-.539 3.164-1.419 4.445-2.17.237.082.237.082 35.342 57.098 2.677 4.353 8.017 5.117 11.392 8.542.664-.048 1.551-.116 2.222-.171-.332-1.453-.277-3.548.197-4.96 2.717 1.058 2.717 1.058 6.858 3.138-5.022-17.888-6.262-36.711-13.215-54.115-18.934-2.845-33.898-5.09-26.755-36.473.793-.157 1.864-.362 2.657-.519-4.168-7.054-4.168-7.054-6.879-6.352-1.83-1.29-1.83-1.29-6.506-7.013-13.615.703-15.14-15.166-25.535-18.885-5.306-11.42-16.461-17.772-24.892-21.088-3.246-1.29-3.246-1.29-3.483-2.818-1.721-10.943-9.162-20.992-9.244-21.088-2.473-3.309-7.915-5.11-10.944-5.888a3.001 3.001 0 0 0-.603-.027c-.027.048-.075.123-.109.177.075.226 3.7 6.182 8.126 10.125 4.405 3.916 7.082 8.044 7.963 12.267 1.233 5.942-.746 5.362-2.176 4.926-6.336-1.883-7.78-.505-8.254-.055.115.014.224.027.332.034-.108-.014-.224-.027-.481.102-2.372 1.235-3.287 1.276-5.686-.77-1.606-1.44-1.606-1.44-20.066-5.09l-.143-.034c.15-.062.346-.137.495-.198-12.097-7.075-12.097-7.075-19.104-19.137-1.782-3.063-1.782-3.063-6.126-4.148a55.45 55.45 0 0 0-1.539 3.357c-4.337 1.064-4.337 1.064-10.917-7.164.65-.791 1.802-1.61 2.717-2.054 1.017-3.227 1.017-3.227 1.064-5.055-7.353-1.153-14.93-.041-22.187-2.231-2.318-4.708-7.21-1.678-10.552-3.377 9.413-3.855 18.386 1.508 27.63 1.29 6.919-.164 6.614-11.865-8.566-19.472-14.943-7.498-16.218-9.074-17.24-10.35 6.817-12.226 46.306 26.137 46.665 26.594-.061.566-.156 1.33-.224 1.897-.908.655-2.074 1.61-2.833 2.422.515 2.02 36.826 31.67 39.252 32.045.386-.32.895-.75 1.281-1.071-2.86-9.067-3.117-18.857-7.502-27.508 7.909 7.388 16.868 15.76 23.93 14.723 2.696-15.774-111.9-85.943-136.237-83.426 8.566 3.814 8.566 3.814 10.05 4.899-12.652-4.803-16.054-6.093-18.277-1.576 2.4.812 5.063.75 7.231 2.279-.583.443-.583.443-10.66-.314-.21.416-.501.982-.718 1.398 1.186.014 2.765.123 3.937.294.21.505.488 1.173.691 1.685-8.566 2.886-18.236 2.429-25.697 8.65 9.487 11.64 14.15 10.146 33.803 3.849-1.227 2.695-1.227 2.695 2.54 17.336-4.065 4.707-10.022 4.455-13.41 1.507.664-1.426 1.93-2.435 2.636-3.834l-20.182-8.74c-3.388-1.077-3.388-1.077-9.698-.79-.108.006-10.185-.294-3.388-8.222-1.416-3.056-6.086-3.718-7.258-3.732-.583.785-1.084 2.054-1.274 3.023 1.165-.007 2.724.13 3.856.388.237.43.556 1.01.8 1.44-1.98 4.591-5.605 3.18-17.614-1.501-6.133-2.388-17.538-6.822-38.031-3.684-.055.505-.13 1.166-.183 1.671-4.609 1.385-8.18-2.217-8.22-2.258 3.808-2.613 3.808-2.613 4.336-3.077-13.452-9.142-21.686 7.573-32.63 11.053.237-8.494 9.623-10.24 12.307-16.927-2.989-5.629-2.989-5.629-3.07-8.296-.366-.307-.847-.723-1.213-1.037-2.779.177-2.779.177-7.069.88l-1.43.246c-.196.034-.406-.028-.576.109-.305.511-1.308 2.401-1.104 5.308-.597 3.104-.597 3.104-2.61 5.464-2.88 6.414-5.563 13.74-6.98 22.187 2.874.45 5.856-.102 8.654.996-3.198 1.549-6.248 2.9-11.175 3.746h-.006-.007-.014c-5.828 20.645-10.43 46.188-13.6 75.756a704.239 704.239 0 0 1 12.455-76.404c-2.304-2.204-5.408-3.453-7.292-6.161.827-2.047 3.138-3.254 3.226-5.724-3.768-2.75-5.598-1.406-14.659 6.208 6.37-9.462 11.697-10.104 15.235-10.52 0 0 .007-.007.013-.007h.095c.007 0 .02-.007.02-.007h.062c.006 0 .013-.006.027-.006h.061c.013 0 .013 0 .02-.007h.02c4.216-.58 7.11-6.338 9.407-18.667-7.699 8.153-7.699 8.153-12.185 7.928 4.263-1.678 4.263-1.678 5.516-2.804-6.98-3.834-12.544 4.332-19.307 2.327 4.96-3.78 11.256-5.452 15.702-10.057-5.74 1.208-15.79 2.02-17.749 2.17 2.711-3.63 7.8-3.793 10.552-7.362-6.289-.934-12.429 2.17-18.738.717 3.395-1.249 3.395-1.249 4.662-2.286-6.261 1.378-11.778 5.056-18.175 6.024 1.145-.423 2.65-1.037 3.768-1.507-26.125 8.01-28.741 11.878-33.505 18.891-12.144-.552-20.704 9.45-32.123 11.053.299-.273.705-.628 1.003-.901-12.672 5.908-23.082 15.303-34.69 22.855l-6.31 4.749c-16.515 13.133-17.965 14.593-42.132 38.86-13.574 14.764-13.987 15.33-35.226 44.592-2.602 4.053-6.18 9.388-8.627 13.536-3.734 6.31-3.734 6.31-6.885 14.88-.84 2.435-7.59 14.286-9.603 16.599.88-1.938 1.775-3.862 2.616-5.82-2.216 4.1-4.656 8.76-8.03 16.579-13.006 30.21-19.152 58.441-14.957 68.661 2.84-4.537 2.84-4.537 3.26-4.898 4.208 21.04 3.415 24.11 1.063 33.232zm351.456-51.721c.529-3.67 2.392-6.973 2.948-10.636.597-3.855-.935-7.969 1.403-11.605 3.592-5.574 3.592-5.574 2.04-6.925-.895-.792-2.433-1.153-4.575-1.085-2.561.082-3.727.116-3.795-.764 0-.068 1.803-7.512 4.683-8.992 2.548-1.31 2.731 3.03 4.209 4.428 1.775-3.787-.481-7.41-.44-11.128 4.357.164 4.357.164 11.317-14.818-.095-.082-.224-.184-.312-.266-1.776.58-2.84.934-5.049.675-.081-.123-.196-.28-.271-.402.854-1.044 2.1-1.72 2.772-2.934 2.846-5.13-16.604-.368-16.807-.314l-.047.485c-1.396-.594-5.063-2.9-5.463-3.33-.033-.082.028-.218-.013-.3 9.84-.116 9.84-.116 9.04-3.439-1.328-5.553 1.186-9.838 7.028-7.368.827.348 1.091.389 1.89.396.82-.089 1.14-.116 2.413-.614 3.843-1.501 11.928.743 14.116 3.288 1.098 1.29 1.817 2.886 3.138 3.998.942.798 2.372.43 3.253 1.365 1.28 1.35 1.559 3.37 3.023 4.598 1.192 1.003 1.192 1.003 6.702 3.589-4.757 4.741-4.757 4.741-6.431 13.617-.346 1.788-1.044 5.513-2.454 6.83-3.124 2.933-7.475 3.486-10.951 5.744.264-.082.617-.218.894-.218.692.014 6.432 12.403 6.48 12.533.772 2.176.392 4.537 1.05 6.727.833 2.81 2.67 5.205 3.354 8.084.156.676.197 1.856-.339 2.3l-9.237 4.55c-2.25.9-7.949 2.333-8.003 2.347-7.705 1.835-15.77 1.774-16.671 1.18-.44-.314-.983-1.05-.895-1.596z" opacity=".347" transform="rotate(-31 436.911 286.665)"/>
      <path fill="url(#I)" d="M646.733 572.083c.564-.791 9.283-12.588 9.317-12.628a4.77 4.77 0 0 1-.217 1.027c1.155-1.19 2.412-2.853 3.459-4.32-6.157 8.91-13.857 20.065-20.184 28.279-22.84 26.676-23.73 27.717-38.674 41.57-2.195 1.872-4.635 3.988-7.142 6.151 28.46-25.33 45.973-49.682 53.441-60.08z" transform="rotate(-31 436.911 286.665)"/>
      <path fill="url(#J)" d="M579.292 644.855c1.54-1.227 3.004-2.46 4.487-3.693a280.968 280.968 0 0 1-4.487 3.692zM579.292 645.188a.05.05 0 0 0 .025-.026l-.025.026z" transform="rotate(-31 436.911 286.665)"/>
      <path fill="url(#K)" d="M58.804 480.094c.973.627 2.314 1.492 3.191 3.949.168.449.29 1.096.297 1.572 0 .554-.168 1.083-.207 1.637-.045.634.426 1.281-.038 1.909-.103.006-.271.013-.722-.502-1.026-1.136-1.806-2.47-2.799-3.632-1.044-1.222-2.327-2.2-3.3-3.487-.6-.786-1.535-2.925-2-4.061a51.014 51.014 0 0 1-.934-2.556c.993 1.196 2.32 2.78 3.307 3.97-.02-.073-1.96-7.588 2.115-8.73 2.947.026 3.682 7.164 2.553 8.465-.29.337-1.16 1.347-2.766.165.265.608 1.135 1.189 1.303 1.301z" transform="rotate(-31 436.911 286.665)"/>
      <path fill="url(#L)" d="M50.305 473.438c1.208-.51 1.758-.74 1.202 3.282-.077.591-.153 1.155.026 1.76.05.183.67 1.67.824 1.752.505.259.57-.597.857-.876l.013-.007c.313.04.632 1.291.632 1.298.224.917.096 1.875.288 2.792.23 1.142.786 2.174 1.01 3.322.051.279.032.32-.026.401-.185-.04-.185-.04-.447-.734-2.244-5.985-2.308-5.992-2.576-6.04-.658.687.345 1.387.013 2.08-.25-.272-1.004-1.651-1.54-3.003-2.053-5.184-1.273-5.558-.276-6.027z" transform="rotate(-31 436.911 286.665)"/>
      <path fill="url(#M)" d="M54.815 447.248c3.392 7.544 2.876 8.238.98 10.817-1.399 1.914.471 3.613.303 5.444-.129 1.49-1.624 2.17-1.844 3.605-.077.506-.096.604-.058 1.325-.947-.86-.444-2.698-1.889-3.218-1.437 2.143 1.006 4.868-.902 6.941-.67-4.41-.67-4.41-1.032-4.736-.657-.596-.741-.672-.47-2.087.502-2.683 1.392-3.072 3.552-3.994.006-.028.529-3.71-2.45-10.97-.31.34-.31.34-.49.389-1.87-1.36-5.21-12.51-5.222-12.6-.013-.131.103-.304.193-.388 1.057-.922 2.34-1.497 3.269-2.614.097.021.232.042.329.063.941 1.123 4.371 9.215 4.577 12.051.071.936.136 1.824.464 2.6.2-.783.484-1.837.69-2.628z" transform="rotate(-31 436.911 286.665)"/>
      <path fill="url(#N)" d="M38.103 397.167c.85-.142 5.216 2.768 5.747 4.638.722 2.504-.269 14.303-.295 14.357-.78-.115-2.92-5.508-2.933-5.562-1.304-3.503-1.982-7.216-3.139-10.766-.46-1.432-.026-2.444.62-2.667z" transform="rotate(-31 436.911 286.665)"/>
      <path fill="url(#O)" d="M578.292 645.162c-.396.33-.837.72-1.226 1.044a296.305 296.305 0 0 1-6.023 4.766c-3.196 2.478-6.477 4.834-9.751 7.19 4.862-3.602 9.984-7.567 14.413-10.92.843-.693 1.744-1.386 2.587-2.08z" transform="rotate(-31 436.911 286.665)"/>
    </g>
  </g>
</svg>
