<svg role="img" id="planet-illustration" xmlns="http://www.w3.org/2000/svg" viewBox="0 0 906 368">
    <defs>
        <filter id="a" width="107.4%" height="102.9%" x="-3.7%" y="-1.5%" filterUnits="objectBoundingBox">
            <feOffset dy="2" in="SourceAlpha" result="shadowOffsetOuter1"/>
            <feGaussianBlur in="shadowOffsetOuter1" result="shadowBlurOuter1" stdDeviation="2"/>
            <feColorMatrix in="shadowBlurOuter1" result="shadowMatrixOuter1" values="0 0 0 0 1 0 0 0 0 1 0 0 0 0 1 0 0 0 0.5 0"/>
            <feMerge>
                <feMergeNode in="shadowMatrixOuter1"/>
                <feMergeNode in="SourceGraphic"/>
            </feMerge>
        </filter>
        <radialGradient id="b" cx="49.701633%" r="61.076588%" fx="49.701633%" fy="50%" gradientTransform="matrix(.82353 0 0 1 .087709 0)">
            <stop offset="0%" stop-color="#FEC30C"/>
            <stop offset="29.29%" stop-color="#FEC30C" stop-opacity=".715745"/>
            <stop offset="55.652199%" stop-color="#FEC30C" stop-opacity=".168133"/>
            <stop offset="100%" stop-color="#FEC30C" stop-opacity="0"/>
        </radialGradient>
        <filter id="c" width="261.4%" height="261.4%" x="-80.7%" y="-80.7%" filterUnits="objectBoundingBox">
            <feOffset dy="10" in="SourceAlpha" result="shadowOffsetOuter1"/>
            <feGaussianBlur in="shadowOffsetOuter1" result="shadowBlurOuter1" stdDeviation="9.5"/>
            <feColorMatrix in="shadowBlurOuter1" result="shadowMatrixOuter1" values="0 0 0 0 0.996078431 0 0 0 0 0.764705882 0 0 0 0 0.0470588235 0 0 0 0.197088068 0"/>
            <feMerge>
                <feMergeNode in="shadowMatrixOuter1"/>
                <feMergeNode in="SourceGraphic"/>
            </feMerge>
        </filter>
        <linearGradient id="d" x1="105.221669%" x2="17.190313%" y1="-52.300464%" y2="140.305435%">
            <stop offset="0%" stop-color="#FFC649"/>
            <stop offset="0%" stop-color="#FFC848"/>
            <stop offset="0%" stop-color="#FFCF45"/>
            <stop offset="0%" stop-color="#FFD243"/>
            <stop offset="100%" stop-color="#CD571B"/>
        </linearGradient>
        <linearGradient id="e" x1="72.004909%" x2="32.152171%" y1="38.539639%" y2="57.273965%">
            <stop offset="0%" stop-color="#E08C3C"/>
            <stop offset="100%" stop-color="#FFD06F"/>
        </linearGradient>
        <linearGradient id="f" x1="23.21523%" x2="82.246345%" y1="185.967261%" y2="-113.701976%">
            <stop offset="0%" stop-color="#F5942A"/>
            <stop offset="100%" stop-color="#F5D85D"/>
        </linearGradient>
        <linearGradient id="g" x1="34.514847%" x2="75.623901%" y1="113.594236%" y2="-25.7731%">
            <stop offset="0%" stop-color="#E08C3C"/>
            <stop offset="100%" stop-color="#FFD06F"/>
        </linearGradient>
        <linearGradient id="h" x1="69.319445%" x2="18.800032%" y1="-27.175089%" y2="174.630806%">
            <stop offset="20%" stop-color="#FFDE43"/>
            <stop offset="56%" stop-color="#FFD23E"/>
            <stop offset="100%" stop-color="#FFBD37"/>
        </linearGradient>
        <linearGradient id="i" x1="67.227567%" x2="33.413871%" y1="23.909014%" y2="99.30948%">
            <stop offset="2%" stop-color="#FFFFA0"/>
            <stop offset="98%" stop-color="#FFEB6A"/>
        </linearGradient>
        <filter id="j" width="288.3%" height="288.3%" x="-94.2%" y="-94.2%" filterUnits="objectBoundingBox">
            <feOffset dy="10" in="SourceAlpha" result="shadowOffsetOuter1"/>
            <feGaussianBlur in="shadowOffsetOuter1" result="shadowBlurOuter1" stdDeviation="9.5"/>
            <feColorMatrix in="shadowBlurOuter1" result="shadowMatrixOuter1" values="0 0 0 0 0.996078431 0 0 0 0 0.764705882 0 0 0 0 0.0470588235 0 0 0 0.328206949 0"/>
            <feMerge>
                <feMergeNode in="shadowMatrixOuter1"/>
                <feMergeNode in="SourceGraphic"/>
            </feMerge>
        </filter>
        <linearGradient id="k" x1="105.221669%" x2="17.190313%" y1="-52.300464%" y2="140.305435%">
            <stop offset="0%" stop-color="#FFC649"/>
            <stop offset="0%" stop-color="#FFC848"/>
            <stop offset="0%" stop-color="#FFCF45"/>
            <stop offset="0%" stop-color="#FFD243"/>
            <stop offset="100%" stop-color="#CD571B"/>
        </linearGradient>
        <linearGradient id="l" x1="72.004909%" x2="32.152171%" y1="38.539639%" y2="57.273965%">
            <stop offset="0%" stop-color="#E08C3C"/>
            <stop offset="100%" stop-color="#FFD06F"/>
        </linearGradient>
        <linearGradient id="m" x1="23.21523%" x2="82.246345%" y1="185.967261%" y2="-113.701976%">
            <stop offset="0%" stop-color="#F5942A"/>
            <stop offset="100%" stop-color="#F5D85D"/>
        </linearGradient>
        <linearGradient id="n" x1="34.514847%" x2="75.623901%" y1="113.594236%" y2="-25.7731%">
            <stop offset="0%" stop-color="#E08C3C"/>
            <stop offset="100%" stop-color="#FFD06F"/>
        </linearGradient>
        <linearGradient id="o" x1="69.319445%" x2="18.800032%" y1="-27.175089%" y2="174.630806%">
            <stop offset="20%" stop-color="#FFDE43"/>
            <stop offset="56%" stop-color="#FFD23E"/>
            <stop offset="100%" stop-color="#FFBD37"/>
        </linearGradient>
        <linearGradient id="p" x1="67.227567%" x2="33.413871%" y1="23.909014%" y2="99.30948%">
            <stop offset="2%" stop-color="#FFFFA0"/>
            <stop offset="98%" stop-color="#FFEB6A"/>
        </linearGradient>
        <filter id="q" width="220%" height="220%" x="-94.7%" y="-95.5%" filterUnits="objectBoundingBox">
            <feOffset dy="10" in="SourceAlpha" result="shadowOffsetOuter1"/>
            <feGaussianBlur in="shadowOffsetOuter1" result="shadowBlurOuter1" stdDeviation="9.5"/>
            <feColorMatrix in="shadowBlurOuter1" result="shadowMatrixOuter1" values="0 0 0 0 0.996078431 0 0 0 0 0.764705882 0 0 0 0 0.0470588235 0 0 0 0.328206949 0"/>
            <feMerge>
                <feMergeNode in="shadowMatrixOuter1"/>
                <feMergeNode in="SourceGraphic"/>
            </feMerge>
        </filter>
        <filter id="r" width="233.7%" height="232.2%" x="-66.9%" y="-66.1%" filterUnits="objectBoundingBox">
            <feOffset dy="13" in="SourceAlpha" result="shadowOffsetOuter1"/>
            <feGaussianBlur in="shadowOffsetOuter1" result="shadowBlurOuter1" stdDeviation="9"/>
            <feColorMatrix in="shadowBlurOuter1" result="shadowMatrixOuter1" values="0 0 0 0 0.996078431 0 0 0 0 0.764705882 0 0 0 0 0.0470588235 0 0 0 0.0925480769 0"/>
            <feMerge>
                <feMergeNode in="shadowMatrixOuter1"/>
                <feMergeNode in="SourceGraphic"/>
            </feMerge>
        </filter>
        <linearGradient id="s" x1="105.221669%" x2="17.190313%" y1="-52.300464%" y2="140.305435%">
            <stop offset="0%" stop-color="#FFC649"/>
            <stop offset="0%" stop-color="#FFC848"/>
            <stop offset="0%" stop-color="#FFCF45"/>
            <stop offset="0%" stop-color="#FFD243"/>
            <stop offset="100%" stop-color="#CD571B"/>
        </linearGradient>
        <linearGradient id="t" x1="72.004909%" x2="32.152171%" y1="38.539639%" y2="57.273965%">
            <stop offset="0%" stop-color="#E08C3C"/>
            <stop offset="100%" stop-color="#FFD06F"/>
        </linearGradient>
        <linearGradient id="u" x1="23.21523%" x2="82.246345%" y1="185.967261%" y2="-113.701976%">
            <stop offset="0%" stop-color="#F5942A"/>
            <stop offset="100%" stop-color="#F5D85D"/>
        </linearGradient>
        <linearGradient id="v" x1="34.514847%" x2="75.623901%" y1="113.594236%" y2="-25.7731%">
            <stop offset="0%" stop-color="#E08C3C"/>
            <stop offset="100%" stop-color="#FFD06F"/>
        </linearGradient>
        <linearGradient id="w" x1="69.319445%" x2="18.800032%" y1="-27.175089%" y2="174.630806%">
            <stop offset="20%" stop-color="#FFDE43"/>
            <stop offset="56%" stop-color="#FFD23E"/>
            <stop offset="100%" stop-color="#FFBD37"/>
        </linearGradient>
        <linearGradient id="x" x1="67.227567%" x2="33.413871%" y1="23.909014%" y2="99.30948%">
            <stop offset="2%" stop-color="#FFFFA0"/>
            <stop offset="98%" stop-color="#FFEB6A"/>
        </linearGradient>
    </defs>
    <g fill="none" fill-rule="evenodd" transform="translate(2 -3)">
        <g style="mix-blend-mode:overlay" fill="#FFF" fill-rule="nonzero" filter="url(#a)" opacity=".262788" transform="rotate(-90 207 207)">
            <path d="M53.50421 18.059461c-5.625708-2.938867-11.454195-5.473395-17.4411-7.584293C24.426063 6.637722 12.545073 3.581318.499615 1.3264v.306093c12.0076 2.259655 23.853542 5.304464 35.461301 9.114756 5.267256 1.886476 10.419775 4.078196 15.431287 6.563985C34.765545 11.521308 17.761657 6.873723.499615 3.401029v.340102c17.948725 3.61322 35.616362 8.500436 52.868337 14.624423.064676.03063.139712.03063.204388 0l-.06813-.306093zM227.676768 672.349313c-18.078325 23.820678-38.631649 45.663632-61.31637 65.163705-.071249.051088-.167204.051088-.238453 0v-.204062c23.190221-21.511167 42.20958-47.106547 56.10448-75.502831 2.763157 2.869077 4.550979 6.534212 5.109697 10.475167l.340646.06802zM171.027255 733.1597c20.718352-18.403613 39.58873-38.781623 56.342932-60.844398-.542795-3.824492-2.256053-7.388083-4.90531-10.203086-12.926633 26.459221-30.327597 50.494056-51.437622 71.047484zM172.5261 100.806483l-3.406465-.680206h-.783487C135.642901 64.928048 95.492234 37.460021 50.813104 19.725965c45.876471 18.026485 87.363128 45.63625 121.678931 80.978487l.034065.10203zm-4.121823-.986298h.749422l2.793302.578175c-23.989352-24.831687-51.668062-45.824298-82.061743-62.238821 29.339793 16.180151 55.857048 37.004037 78.519019 61.660646zM50.915298 19.453882C34.453478 13.395856 17.612276 8.419725.499614 4.557378v.340103c14.065405 3.17593 27.949731 7.104111 41.592938 11.767558C28.466693 12.515784 14.840833 9.012725.499615 6.01982v.306093c17.00731 3.530707 33.804482 8.004318 50.313489 13.400052 0 0 .170323-.238072.102193-.272083z"/>
            <path d="M53.57234 18.161492C36.254134 11.991857 18.51852 7.059268.499615 3.401027v.340103c17.875506 3.595608 35.47403 8.448504 52.66395 14.522391-.65525.591242-1.453684 1.001545-2.316397 1.19036C34.410021 13.391372 17.591181 8.415123.499615 4.557378v.340103c17.073674 3.855248 33.879879 8.808404 50.313489 14.828483 1.005206-.203746 1.921948-.714876 2.622978-1.462442l.136258-.10203zM166.292268 737.308957c-34.098472 28.059716-72.13296 50.976906-112.890251 68.020568-17.31594 6.345322-34.978443 11.704881-52.902402 16.052855v.306092c15.874127-3.877172 31.305414-8.36653 45.919149-13.604114-14.990232 5.973977-30.323808 11.050513-45.919149 15.202598v.408123c18.002423-4.821524 35.6641-10.831908 52.868337-17.99144 46.907024-17.277225 84.957238-40.200157 113.02651-68.02057l-.102194-.374112zm-106.21358 65.537818c37.256968-16.311 72.145737-37.554036 103.726861-63.157099-26.400104 25.541724-61.111983 46.730131-103.72686 63.157099zM286.642678 246.676593c0 8.604602-5.075633 18.195503-14.681864 27.684372-10.901612 10.250496-23.394944 18.669462-36.99421 24.929538.681293-7.516272 1.02194-15.134576 1.02194-22.71887-.003972-65.167712-24.135185-128.034035-67.75459-176.513376v-.204062c52.425496 39.894064 93.064624 88.732833 117.727431 141.278722.46686 1.810588.695878 3.67411.681293 5.543676zm-51.57388 52.103756c13.483889-6.184972 25.873922-14.512212 36.687628-24.657456 9.572167-9.420849 14.613735-18.909718 14.613735-27.4463.006-1.837636-.234592-3.667794-.715358-5.441645-24.424354-52.035735-64.518447-100.43237-116.058263-140.122372 21.140632 23.55271 37.726298 50.813114 48.916838 80.400312 11.584714 30.263006 17.519056 62.388716 17.50923 94.786663 0 7.482263-.306582 15.066556-.95381 22.480798z"/>
            <path d="M285.961385 241.200938c-.071249.051088-.167204.051088-.238452 0-24.696872-52.443859-65.301935-101.248617-117.48898-141.10867.052699-.030377.117626-.030377.170324 0h.783487l3.406465.680205c49.632195 39.281879 88.874673 87.848565 113.367156 140.360444v.068021zm-117.012074-140.93862c36.551089 27.622333 68.204503 61.168078 93.643724 99.24201-24.475294-37.592108-54.972127-70.912737-90.271323-98.629824l-3.236142-.646195-.136259.03401zM254.485648 571.100697c-5.762456 31.785598-16.535698 62.458127-31.918577 90.87548-13.830248-2.992905-33.008646-5.441645-53.140855-7.890386 31.081372-24.650086 59.487692-52.486712 84.75285-83.053115l.306582.06802zm-32.122965 90.671418c15.243842-28.182261 25.946388-58.58591 31.71419-90.093243-25.214866 30.263125-53.516087 57.82389-84.446269 82.236868 19.961885 2.48275 38.96996 4.86347 52.732079 7.856375z"/>
            <path d="M169.426216 654.01777c-5.885826 22.96361-15.064591 44.957488-27.25172 65.299746 0-18.705657-8.78868-39.894064-25.821005-62.919027 18.939945-.578174 36.789822-1.3264 53.10679-2.244678l-.034065-.136041zm-27.25172 64.61954c12.058104-20.128707 21.133947-41.894295 26.945138-64.61954-16.180709.918277-33.894327 1.666503-52.66395 2.210668 16.896067 22.956942 25.378165 43.941288 25.650682 62.510903l.06813-.102031z"/>
            <path d="M222.601135 661.942166c-25.017156 21.543286-51.961732 40.748938-80.494769 57.37535v-.170052c12.207751-20.307652 21.388008-42.28219 27.25172-65.231725 20.132209 2.44874 39.344671 4.89748 53.17492 7.890386l.068129.13604zm-80.188187 56.899206c28.245294-16.485466 54.926177-35.507946 79.711282-56.831186-13.796184-2.958894-32.804259-5.373625-52.73208-7.822365-5.835093 22.733407-14.921577 44.508455-26.979202 64.65355z"/>
            <path d="M222.601135 661.942166c-13.901067 28.45919-32.957536 54.104007-56.206673 75.638872a3.70123 3.70123 0 0 0 0-.612185c0-5.339614-8.584292-11.529486-24.254031-17.447276-.030426-.052614-.030426-.117437 0-.170051 28.429775-16.689384 55.270985-35.940042 80.188187-57.511391l.272517.10203zm-56.138544 75.162728c22.863938-21.284194 41.656038-46.546198 55.45725-74.550543-24.793231 21.257433-51.460878 40.233072-79.677216 56.695144 15.60161 5.91779 24.151837 12.175682 24.151837 17.617327l.068129.238072zM122.28074 500.291285c-29.908763 16.563008-63.496508 33.228048-102.670856 51.015426-2.480181-57.520445-8.41812-114.840264-17.781748-171.649905 41.490744 39.281878 84.412204 79.856148 120.146022 120.668489.272517-.102031.306582-.068021.306582-.03401zM19.609884 550.966609c38.96996-17.685348 72.455511-34.282367 102.193951-50.777355C86.24034 459.376913 43.455139 419.108736 2.134718 379.996909c9.231022 56.591468 15.06648 113.683131 17.475166 170.9697z"/>
            <path d="M261.060125 605.383064c.003843 4.880951-.429367 9.752475-1.294457 14.556401-11.37382 14.906028-23.80534 28.977144-37.198598 42.104732h-.204388c15.386289-28.376477 26.149184-59.017847 31.884513-90.773449 4.349357 10.856734 6.658853 22.420371 6.81293 34.112316zm-1.669168 14.38635c.883966-4.74515 1.339987-9.559878 1.362586-14.38635-.070925-11.504177-2.229151-22.900324-6.37009-33.636172-5.702534 31.25152-16.265296 61.420378-31.305413 89.413038 13.064767-12.926512 25.199234-26.75773 36.312917-41.390516z"/>
            <path d="M259.765669 619.837434c-9.286383 18.33569-20.016406 35.906206-32.088901 52.54589-.578694-3.841158-2.340742-7.407176-5.041568-10.203086v-.204061c13.236588-13.183048 25.519364-27.287402 36.755757-42.206763 0 0 .374711.03401.374711.06802zm-32.122966 52.103756c11.627756-16.068898 22.013417-32.99825 31.066961-50.641314-11.061277 14.370386-23.115498 27.950938-36.074464 40.64229 2.61307 2.772078 4.354138 6.248657 5.007503 9.999024zM80.347156 28.80671c-9.505938-3.831462-19.30202-6.902067-29.2956-9.182776.944576-.179777 1.811942-.642425 2.48672-1.326401 9.776555 3.401028 18.53117 6.802057 26.774815 10.611209a.169873.169873 0 0 1 .034065-.102031zM51.59659 19.589925c8.959003 2.210668 16.078515 4.319306 22.107958 6.461954-6.267896-2.652802-12.876438-5.169563-20.06408-7.652314-.559466.575902-1.266389.987615-2.043878 1.19036z"/>
            <path d="M80.347155 28.80671c-8.20958-3.74113-17.032325-7.21018-26.74075-10.577198-5.608751-2.95934-11.426586-5.505553-17.407037-7.618304C51.302987 15.810295 66.08952 21.88581 80.483414 28.806711a.170572.170572 0 0 1-.136259 0zM45.090242 14.046248c3.065818 1.326401 5.825055 2.652802 8.413968 4.013214 5.961314 2.074627 11.581982 4.183265 17.032326 6.359923-8.27771-3.67311-16.759808-7.14216-25.446294-10.373137zM172.5261 100.806483h-.204388C138.061951 65.451554 96.635397 37.808357 50.813104 19.725965c13.143777 3.17085 25.953644 7.589636 38.254602 13.19599 38.356796 19.589924 66.426068 42.376815 83.458394 67.816507v.06802zM53.299823 20.40617c44.347696 17.916864 84.500668 44.804906 117.93182 78.971881-17.06639-24.759487-44.692821-47.002213-82.163937-66.184014-11.506494-5.344157-23.47915-9.624666-35.767883-12.787867z"/>
            <path d="M89.067706 33.057996c-12.257612-5.68658-25.033678-10.185234-38.152408-13.434062v-.204062c0-.204062 0 0 0 0 10.016777 2.291623 19.83553 5.373566 29.363728 9.216787 2.622979 1.19036 5.41628 2.550771 8.85681 4.251286l-.06813.170051zm-21.596988-8.706633c4.121823 1.360412 7.971128 2.856864 11.377593 4.115245-3.406465-1.25838-7.119512-2.788844-11.377593-4.115245z"/>
            <path d="M89.067705 33.057996c-3.406465-1.700514-6.23383-3.026915-8.856809-4.251285-14.399772-6.907735-29.185532-12.982933-44.284045-18.195503 18.20404 6.214234 35.959386 13.668669 53.140854 22.310747v.136041z"/>
            <path d="M112.504185 46.390028C94.84985 35.777982 76.399928 26.545002 57.31945 18.773677 50.302133 15.916813 43.114492 13.23 35.960916 10.74725c7.119511 2.41473 14.307153 5.135553 21.358535 8.026427 10.83256 4.081234 21.52886 8.944705 31.748254 14.148278 8.03188 3.985823 15.82329 8.437441 23.334286 13.332032.05596.023865.094915.075723.102194.13604zM322.206173 411.25236c.009507 36.183923-4.731806 72.212985-14.102765 107.166406v-.170051c6.928799-28.839153 10.41627-58.3954 10.389718-88.052627.009067-20.08015-1.574208-40.129502-4.734987-59.960131 3.406465-.816247 5.722862-1.972597 5.961314-2.890875v-.340102a.645227.645227 0 0 1 0 .442133 410.399542 410.399542 0 0 1 2.48672 43.805247zm-11.71824 96.249105c7.540339-31.529352 11.347567-63.83344 11.343529-96.249105a409.787563 409.787563 0 0 0-2.316397-43.431134c-1.669584 1.36055-3.665516 2.263147-5.79099 2.618792 3.133897 19.799087 4.705702 39.813307 4.700922 59.858101.015415 25.938225-2.644298 51.8091-7.937064 77.203346zM134.237432 604.600826c0 5.849769 0 11.699538-.408776 17.413266-30.658185-23.126993-67.75459-44.995606-114.218772-70.707381 39.140283-17.753369 72.728028-34.418408 102.636791-51.015427 7.584065 34.264811 11.602313 69.220207 11.990757 104.309542zm-.715358 17.005142c.272518-5.611696.408776-11.359435.408776-17.005142-.362762-35.008547-4.358312-69.885316-11.922627-104.07147-29.80657 16.494988-63.258056 33.092007-102.193952 50.743344 46.191666 25.609744 83.254006 47.308306 113.707803 70.435299v-.102031z"/>
            <path d="M133.828656 621.980082c-5.722861 12.03964-11.616046 23.569127-17.543295 34.282367-23.81119-36.765118-60.601013-72.135814-96.91393-104.887718 46.430118 25.745786 83.628717 47.614399 114.218773 70.741392l.238452-.136041zm-17.747683 34.010284c5.893185-10.611208 11.71824-22.004654 17.407037-34.010284-30.31754-22.922932-67.107361-44.587483-112.924316-69.993165 35.938206 32.513831 72.285188 67.510414 95.51728 103.969439v.03401zM314.746014 352.312537c0 6.05383-.374711 12.10766-.987875 18.02545h-.170323c-12.365468-23.058972-36.653564-44.995606-78.655278-71.421597 38.867766 17.345245 67.31175 33.057997 79.745347 53.328126l.068129.06802zm-1.226328 17.515296c.5791-5.747738.885681-11.631517.919746-17.447276-12.195145-19.862006-39.821576-35.336685-77.599273-52.307817 40.673192 25.575734 64.382189 47.172264 76.679528 69.755093z"/>
            <path d="M314.746014 352.312536c-12.399533-20.202109-40.87758-35.91486-79.643153-53.226095 13.494309-6.279182 25.874224-14.710739 36.653564-24.963549 9.572167-9.420848 14.613735-18.909718 14.613735-27.4463.006-1.837636-.234592-3.667794-.715358-5.441645 15.117631 35.411469 24.8208 72.88962 28.78463 111.17962l.306582-.102031zm-79.506894-53.260105c38.390861 17.005142 66.562327 32.683883 79.132183 52.61391-3.953599-37.453126-13.399624-74.122673-28.035208-108.83291a24.143721 24.143721 0 0 1 .340647 3.877172c0 8.604602-5.075633 18.195502-14.681864 27.684372-10.848874 10.133105-23.25921 18.45853-36.755758 24.657456zM319.855712 367.311072c0 1.29239-3.202077 2.550771-6.199767 3.401028.613164-5.917789.95381-11.93761.987875-17.99144 2.930825 4.356838 4.69039 9.392872 5.109698 14.624422a.954863.954863 0 0 1 .102194-.03401zm-6.063508 2.958895c3.406465-.884268 5.756926-2.074627 5.756926-2.958895a.441447.441447 0 0 0 0-.204062c-.37434-5.030552-2.014712-9.885325-4.769051-14.114268-.102194 5.645708-.408776 11.461466-.885681 17.141184l-.102194.13604z"/>
            <path d="M314.916338 346.156675v6.189871c-3.95167-38.270252-13.655434-75.727767-28.78463-111.111599v-.170051c11.17449 24.93366 19.85762 50.907298 25.923199 77.543448 1.951795 9.051973 2.911251 18.289114 2.86143 27.548331zm-.374712 4.081234v-4.081234c-.01304-9.2201-1.029593-18.411482-3.031753-27.41229-4.9387-21.799362-11.648946-43.16053-20.06408-63.871314 11.75958 30.692406 19.521704 62.7658 23.095833 95.432858v-.06802z"/>
            <path d="M319.821647 366.90295l-.306582-2.652803c-.743845-4.239566-2.355772-8.28032-4.734986-11.86959v-6.15586c-.013041-9.2201-1.029593-18.411483-3.031754-27.41229-.03651-.063137-.03651-.140925 0-.204062.06056-.045347.143828-.045347.204388 0 3.403466 15.035203 5.951042 30.250843 7.630482 45.573781a23.431178 23.431178 0 0 1 .306581 2.652803l-.068129.06802zm-5.075633-14.624423c1.829237 2.787385 3.219347 5.838452 4.121823 9.046736-1.260392-10.985322-3.031754-22.038665-5.245956-32.955966a124.995708 124.995708 0 0 1 1.294456 17.787379c0 2.040617-.068129 4.149254-.170323 6.12185zM215.651946 351.63233C159.990308 364.148115 90.12371 373.296882 2.100653 379.656805c22.728596-26.799982 43.472061-55.21705 62.065793-85.025711h.170324l27.25172 9.828972c44.284045 16.052854 86.251695 31.221441 124.370038 47.274295-.340646-.238072-.306582-.170051-.306582-.10203zM2.339106 379.452743c87.61428-6.325913 157.174297-15.440669 212.665612-27.888433-38.01615-15.950823-79.745346-31.05139-123.927198-47.070234l-26.945138-9.760951c-18.517875 29.695167-39.169878 58.00941-61.793276 84.719618z"/>
            <path d="M215.651946 351.632331c-18.565234 47.410337-49.121225 96.079054-93.405271 148.726974-35.699753-40.812341-78.621213-81.38661-120.111957-120.634479 87.988992-6.325913 157.821525-15.50869 213.483164-28.024474l.034064-.06802zm-93.541529 148.318851c44.284045-52.51188 74.635649-101.010545 93.132754-148.25083-55.52538 12.447764-125.153526 21.59653-212.904065 27.922443 41.38855 39.281879 84.173751 79.754117 119.771311 120.328387z"/>
            <path d="M235.034733 299.05243c-4.761548 18.116245-11.252185 35.734856-19.382786 52.61391-38.152409-16.052853-80.017864-31.18743-124.370039-47.274295l-27.081397-9.794961c-.05876-.028414-.09608-.087862-.09608-.153047 0-.065184.03732-.124633.09608-.153046 62.678957 3.70712 120.146022 5.203573 170.766093 4.489357l.068129.272083zm-19.621239 52.375839c8.094774-16.71828 14.551675-34.17876 19.280592-52.137766-50.245359.612185-107.405842-.884268-169.471635-4.523368l26.093522 9.454859c44.147787 16.052854 86.013242 31.18743 124.097521 47.206275z"/>
            <path d="M313.894398 370.303977c-11.657083-4.033181-23.6659-6.970816-35.870077-8.774653-17.032325-3.128946-36.48324-6.121851-62.202051-9.931003 8.129232-16.856091 14.619898-34.452004 19.382786-52.54589 42.103908 26.25594 66.392003 48.260594 78.791536 71.421598l-.102194-.170052zm-98.038064-18.807687c25.616617 3.809152 44.931274 6.802057 61.997664 9.896993 12.090574 1.805917 23.993314 4.697172 35.563495 8.638612-12.399533-22.888922-36.585435-44.723524-78.348696-70.741392-4.760212 17.9804-11.23955 35.462634-19.348721 52.205787h.136258z"/>
            <path d="M313.894398 372.378605c0 65.70787-20.43879 134.442654-59.306556 198.824123v-.170052c1.96729-14.119725 2.946183-28.359212 2.92956-42.614886 0-55.164682-14.443412-116.281163-41.729197-176.85348 25.718811 3.809153 45.101597 6.802058 62.202051 9.931004 12.226969 1.801052 24.258656 4.738703 35.938207 8.774653l-.034065 2.108638zM254.587842 570.38648c38.52712-64.109386 58.863716-132.64011 58.863716-198.007876v-1.972597c-11.627833-3.998474-23.601597-6.913133-35.767883-8.706632-17.032325-3.128947-36.346982-6.087841-61.929535-9.896993 12.913619 28.275194 23.176835 57.683615 30.658186 87.848564 7.208971 29.069418 10.948004 58.888275 11.13914 88.834863-.029874 14.018016-1.02006 28.017578-2.963624 41.900671zM285.961385 241.200937h-.204388c-24.526548-52.409848-63.837155-100.942524-113.46935-140.258413 8.628844 2.22649 16.873672 5.734694 24.458419 10.407147 18.77016 18.54498 35.76286 38.8012 50.756329 60.504296 14.949301 21.84886 27.824736 45.042308 38.45899 69.27895v.06802zm-112.822122-140.02034c44.804424 35.041038 81.567942 79.260808 107.814618 129.681214-20.967448-44.40823-49.480903-84.85481-84.275944-119.54615-7.297022-4.529643-15.230778-7.945687-23.538674-10.135065z"/>
            <path d="M196.916389 111.21363c-7.551733-4.594268-15.75005-8.03344-24.32216-10.203085-17.304843-25.473703-45.34005-48.260594-83.526523-67.816507 39.921075 20.09407 76.319135 46.51061 107.780554 78.223654 0 0 .068129-.238072.068129-.204062zm-24.424354-10.543188c8.056258 2.150527 15.797375 5.340356 23.027703 9.48887-25.048663-25.073767-53.251379-46.7951-83.901234-64.619541 26.979204 16.528998 47.38393 35.030593 60.87353 55.130671z"/>
            <path d="M196.916389 111.21363c-11.554543-11.658621-23.806215-22.607333-36.687628-32.785914-15.150793-11.736328-31.084488-22.428955-47.69051-32.003678-5.41628-3.401028-11.241336-7.006118-17.338908-10.203085l-6.131637-3.026915c2.009814 1.020308 4.019629 2.040617 5.961314 3.094936 22.961514 11.939245 44.765297 25.977508 65.131611 41.93468 12.99004 10.074156 25.260387 21.040748 36.721693 32.819925 0 0 .034065.13604.034065.170051zM108.14391 43.533164l4.292146 2.720823c6.949189 4.013213 13.762119 8.185142 20.43879 12.515785-8.107386-5.373625-16.351032-10.452494-24.730936-15.236608zM177.124827 519.337043c-11.532745 35.389678-26.027276 69.747872-43.330235 102.711059.272517-5.679717.408776-11.529486.408776-17.379255-.356391-35.07822-4.363482-70.024471-11.956692-104.275532 21.83544 7.24419 39.276542 13.29802 54.844087 19.045759 0-.238072.034064-.170051.034064-.10203zm-43.262106 102.030853c17.119612-32.761546 31.476393-66.889801 42.92146-102.030853-15.465351-5.713728-32.804258-11.699538-54.50344-18.909718 7.567215 34.18567 11.5628 69.062742 11.922627 104.07147.034065 5.713728-.102194 11.325425-.340647 16.801081v.06802z"/>
            <path d="M215.651947 351.632331c-2.99769 54.008332-15.976321 110.431394-38.52712 167.772733-15.567545-5.713727-33.008646-11.767558-54.844087-19.011749a.305622.305622 0 0 1 0-.170051c44.284046-52.61391 74.942231-101.214606 93.337142-148.590933h.034065zm-38.765572 167.500651c22.380475-56.899206 35.290978-112.914144 38.424925-166.650394-18.565234 47.104244-48.984967 95.398848-92.928366 147.672655 21.665118 7.278201 39.004025 13.400053 54.50344 18.977739z"/>
            <path d="M257.415208 528.48581c.01666 14.266972-.96223 28.517771-2.92956 42.648897-15.192834-16.324936-38.322732-31.799616-77.292692-51.729643 22.516734-57.273319 35.495366-113.69638 38.493055-167.670702 12.916772 28.356063 23.179851 57.843786 30.658186 88.086637 7.172696 29.016895 10.888757 58.777848 11.071011 88.664811zm-3.202077 42.274784c1.940161-14.008098 2.907635-28.133395 2.895495-42.274784 0-54.99463-14.341218-115.907049-41.490744-176.241294-3.065819 53.77026-16.010386 109.95525-38.45899 167.024507 38.765572 19.827996 61.793275 35.098614 77.054239 51.491571zM116.319426 656.194428C92.848882 619.293269 55.99093 583.922574 19.643949 551.17067c-.306582 69.142908-6.472284 125.838052-18.803687 172.908286v1.15635c12.53579-47.206275 18.803687-104.139492 19.110268-173.724533 36.210724 32.649873 72.898352 68.020568 96.300767 104.615635-40.87758 29.656968-81.039803 54.960619-115.411035 75.978975v.340103c34.439361-21.018356 74.94223-46.390028 115.819811-76.149027l-.340647-.102031z"/>
            <path d="M254.826295 570.760594c-11.71824 1.12234-24.935324 2.3127-38.935896 3.401029l-38.118343 3.401028c12.978631-18.229513 24.765-36.288973 35.01846-53.600208 19.314657 15.50869 33.451487 31.18743 42.103908 46.59409l-.06813.204061zm-76.91798 6.802057l37.811761-3.401028c13.898377-1.258381 27.047333-2.41473 38.697443-3.401029-8.584292-15.270618-22.618928-30.813318-41.729197-46.219976-10.18533 17.073162-21.869505 34.962572-34.780008 53.056043v-.03401z"/>
            <path d="M254.826295 570.760593c-24.969389 23.092983-56.240738 46.49206-98.44684 73.700287 8.912783-21.609083 16.022406-43.916326 21.256342-66.694168l38.118344-3.401028c13.966506-1.258381 27.25172-2.448741 38.90183-3.401029l.170324-.204062zm-98.208387 73.258153c41.763261-26.936145 72.830222-50.19918 97.629288-73.088101-11.616046 1.12234-24.696872 2.3127-38.493055 3.401028l-38.01615 3.401029c-5.223913 22.631715-12.287341 44.800507-21.120083 66.286044zM322.206173 411.25236c-.005093 32.919592-3.938902 65.721322-11.71824 97.711547-.177985 3.290271-.999644 6.513894-2.41859 9.488869-.030425-.052614-.030425-.117437 0-.170051.851616-3.128946 1.669168-6.291903 2.41859-9.420849a22.51372 22.51372 0 0 0-.408776-5.271594c7.788512-31.584543 11.72315-63.993494 11.71824-96.521187 0-13.400052-.681293-26.902135-2.009814-40.132136a418.073222 418.073222 0 0 1 2.41859 44.3154zm-11.71824 96.317125c7.536354-31.553126 11.34349-63.879258 11.343529-96.317125v-7.958407 3.775142c-.011923 32.53789-3.946296 64.956084-11.71824 96.555197a21.868747 21.868747 0 0 1 .374711 3.945193zm-1.90762 8.808664c.67194-1.75475 1.140538-3.58051 1.39665-5.441646-.37471 1.802545-.851616 3.639101-1.328521 5.441646h-.06813z"/>
            <path d="M310.487932 495.597865c0 2.686812 0 5.407635-.272517 8.060437-9.23152 21.562521-27.25172 43.533164-55.286927 67.170312-.063238.036452-.14115.036452-.204388 0 14.921942-45.547579 22.443232-93.186764 22.278281-141.10867 0-9.5909-.306582-19.317842-.88568-28.908742 10.470246 14.478034 18.937761 30.299257 25.173776 47.036224 5.816903 15.263642 8.929143 31.421463 9.197455 47.750439zm-.579099 7.992417c0-2.618792.272518-5.305605.272518-7.992417 0-30.609256-11.684175-63.25913-33.792134-94.41255.545035 9.42085.851617 18.97774.851617 28.398588.173514 47.778354-7.301408 95.277428-22.142023 140.700547 27.592367-23.467097 45.510373-45.301699 54.707828-66.694168h.102194zM285.961385 241.200937c-2.520784-5.815759-5.245956-11.665528-8.073322-17.379255-8.292432-13.7075-18.591694-26.099622-30.555992-36.765118-6.865481-20.006375-17.362079-38.579567-30.964767-54.790568-6.30196-7.17617-12.910502-14.216299-19.655303-20.916325v-.204062c7.001053 6.559924 13.577431 13.557474 19.689368 20.950335 24.36223 27.808621 44.97593 58.679824 61.31637 91.827768 3.264908 5.474938 6.024162 11.235079 8.243646 17.209204v.068021zm-38.390861-54.144373c10.854496 9.833598 20.350939 21.064748 28.239595 33.398099-14.929552-29.603853-33.29138-57.35377-54.707828-82.679001 11.504105 14.844505 20.449427 31.499699 26.468233 49.280902z"/>
            <path d="M280.919817 230.045564l2.384525 5.135553c-.749422-1.700515-1.53291-3.435039-2.384525-5.135553zM247.604589 187.056565c-26.386562-33.655367-56.870834-63.896766-90.748229-90.025223 21.733247 3.843162 35.972271 7.584293 39.92377 14.35234 24.39029 22.446788 41.89952 48.668717 50.824459 75.672883zm-90.066936-89.889182c33.371146 25.893338 63.426023 55.786024 89.487837 89.004915-8.993068-26.528022-26.36604-52.409849-50.347553-74.822626-3.849306-6.700026-17.815812-10.407147-39.140284-14.182289z"/>
            <path d="M196.916389 111.21363c-1.294457-1.3264-2.588914-2.652802-3.917435-3.945193-6.506348-4.455347-19.04214-7.346221-35.836012-10.203085-8.448034-19.07977-23.81119-36.527046-44.89721-50.539283v-.204061c0-.204062 0 0 .204388 0 29.35462 16.706392 56.412386 37.147388 80.49477 60.810388 1.602204 1.010258 2.953416 2.370944 3.951499 3.979203v.102031zm-39.719383-14.45437c15.840063 2.822853 27.898949 5.543676 34.711879 9.5909-22.829965-22.3049-48.319827-41.723035-75.896041-57.817484 17.917772 11.978398 32.170626 28.668467 41.184162 48.226583z"/>
            <path d="M280.953882 339.116547c.026119 20.603507-1.488289 41.180218-4.530599 61.558615-3.406465-114.614659-46.66857-225.284125-119.566923-303.67783v-.204062c33.886334 26.197175 64.360545 56.519923 90.714164 90.263295 21.835441 44.553473 33.383358 97.201393 33.383358 152.059982zm-4.769051 59.79008c2.952867-19.793933 4.444375-39.777807 4.462469-59.79008 0-54.824579-11.547917-107.404479-33.349293-152.059982-25.884633-33.131538-55.744075-62.96617-88.908737-88.834863 17.782464 19.405054 33.682302 40.449535 47.486122 62.851006 14.512508 23.498168 26.871329 48.256041 36.926081 73.972368 10.270888 26.198076 18.249137 53.235311 23.845255 80.808436 5.561002 27.359743 8.752155 55.146737 9.538103 83.053115zM157.197006 96.8953c-27.592367-37.13923-66.698585-66.013962-113.53748-83.291187l-7.69861-2.720822c2.554848.850257 5.177826 1.768534 7.732675 2.720822 23.905074 8.66854 46.9242 19.601689 68.742465 32.649874 21.086018 14.046247 36.517305 31.561544 44.76095 50.607303v.03401zM62.326955 20.882314c15.795845 7.22567 30.815922 16.034173 44.82908 26.28995 18.719333 13.625996 35.278459 29.986718 49.121226 48.532676-8.243646-18.467584-23.43648-35.472727-44.011529-49.178871-16.023785-9.70577-32.711182-18.274812-49.938777-25.643755z"/>
            <path d="M157.197007 96.82728c-14.820555-20.112338-32.827304-37.676798-53.311178-52.001725-20.80705-14.693918-43.657-26.266805-67.822719-34.350387C24.78771 6.597995 13.478247 3.401028 2.475365.476144L.499615 0v.340103l1.873556.442134C58.40952 15.916813 113.287672 50.097149 156.85636 96.99733h.204388c.204388 0 0 0 0 0l.136259-.170051zM84.571172 36.731107C62.557537 22.890761 38.890562 11.864562 14.125475 3.911183 21.347181 5.9518 28.671081 8.230489 35.960916 10.71324c48.610256 16.494988 90.850422 46.253986 119.294405 84.141443C134.29778 72.52352 110.53999 52.98749 84.571172 36.731107zM234.79628 668.880264c-20.1142 25.428938-43.062561 48.489007-68.401818 68.734785-.071248.051088-.167203.051088-.238452 0v-.204062c22.69338-19.47848 43.247738-41.311133 61.31637-65.129695 2.470985-.86556 4.836377-2.006438 7.051383-3.401028h.272517zm-61.793275 62.919026c22.401239-18.613804 42.822857-39.481499 60.94166-62.27283-2.014982 1.181384-4.13623 2.171998-6.336026 2.958894-16.270108 21.46098-34.554912 41.322368-54.605634 59.313936z"/>
            <path d="M259.765668 619.837434c-6.009475 17.439632-14.424969 33.957584-25.003453 49.07684-2.243904 1.40763-4.644665 2.549026-7.153577 3.401029-.03651-.063137-.03651-.140925 0-.204062 11.980446-16.569694 22.608717-34.073234 31.78232-52.341827h.204387c.204388 0 .170323 0 .170323.06802zm-25.20784 48.9408c10.120188-14.49913 18.254155-30.28358 24.1859-46.934193-8.931623 17.473085-19.180537 34.24311-30.658184 50.16517 2.269068-.83793 4.439427-1.921378 6.472283-3.230978zM235.034733 299.052431c-50.654135.714216-108.155265-.816247-170.834222-4.489357 26.945139-48.566687 41.218227-95.53489 41.218227-135.837076-.029783-12.230897-1.52796-24.414133-4.462469-36.288974 26.962266 25.426173 51.86212 52.947435 74.465326 82.304888 22.708044 29.533395 42.662249 61.079027 59.613138 94.242499v.06802zm-170.732028-4.659409c62.508634 3.673111 119.805376 5.203574 170.323252 4.489358-32.054836-63.089078-76.91798-122.437024-133.294977-175.969212 2.762744 11.701978 4.13479 23.688217 4.087758 35.710799.034065 40.302187-14.204959 87.236379-41.116033 135.769055zM101.194721 122.437024C70.687708 91.908574 36.92104 64.810616.499615 41.628588v.374113c35.936866 22.851776 69.287783 49.524138 99.468779 79.550055C65.460904 99.582112 31.1578 79.482034.499615 61.490594v.340103c31.101026 18.161492 65.676646 38.499642 100.524783 60.606327h.170323z"/>
            <path d="M101.228786 122.437024C74.638146 84.84176 40.291573 53.368026.499615 30.133112v.476144c39.149205 22.824645 73.02331 53.654432 99.40065 90.467357C69.741454 91.08345 36.412969 64.44497.499615 41.628588v.374113c36.32728 23.082635 70.023576 50.05367 100.490719 80.434323h.238452zM259.765668 619.837434c-2.042168 13.584767-7.451983 26.444722-15.737868 37.411313-2.835525 4.071522-5.930444 7.956716-9.265585 11.631517 10.455005-15.13616 18.74444-31.65423 24.628742-49.07684l.374711.03401zm-23.606802 47.138254c2.708134-3.13375 5.254916-6.402958 7.630481-9.794962 7.968663-10.535096 13.316061-22.80982 15.60161-35.81283-5.753636 16.13412-13.561714 31.462452-23.232091 45.607792z"/>
            <path d="M310.487933 507.943598c-.032619 3.640622-.870112 7.229128-2.452655 10.509178-6.271442 24.839396-14.835597 49.044902-25.582553 72.305865-10.711323 23.332611-23.563112 45.625107-38.39086 66.592137 32.444102-46.099004 54.841346-98.480525 65.744775-153.760496a23.296643 23.296643 0 0 1 .681293 4.353316zm-28.443983 82.883064c10.794562-23.31098 19.393207-47.5742 25.684746-72.475917 1.57748-3.245582 2.415105-6.799806 2.452655-10.407147a19.695347 19.695347 0 0 0-.306582-3.401028c-5.938338 29.72168-15.252766 58.670135-27.76269 86.284092h-.06813zM235.034733 299.052431c-32.429548-63.259129-77.42895-122.675096-134.0444-176.615407 22.142023-6.802057 36.926081-13.604114 46.634507-21.018356 48.678385 52.035736 79.643152 122.437024 87.17144 197.735794l.238453-.102031zM101.399109 122.437024c26.793042 25.459057 51.543213 52.978534 74.022485 82.304889 22.530389 29.31694 42.35738 60.609298 59.238427 93.494271-7.664546-75.026687-38.52712-144.849801-86.898923-196.647464-9.67436 7.584293-24.424354 14.216299-46.361989 20.848304z"/>
            <path d="M236.022607 276.299551c0 7.584294-.306582 15.236608-.987875 22.75288-7.83487-75.4008-38.765572-145.564017-87.375828-197.565742 7.83487-.340103 14.749994-.816247 20.43879-1.428432 21.701109 23.809627 38.691882 51.505394 50.075036 81.624683 11.68062 30.187818 17.730194 62.254723 17.849877 94.616611zm-1.158198 21.086376c.579099-6.802056.88568-14.046247.88568-21.086376.00622-65.018121-24.023243-127.751067-67.482071-176.173273-5.722862.578175-12.501727 1.054319-20.166274 1.394421 48.167416 51.525581 78.96186 121.144634 86.762665 195.865228zM238.952168 661.466022c-.159682 3.009574-1.675004 5.785314-4.121823 7.550284-3.985564 5.067532-8.20958 10.203085-12.535791 15.134576-15.551478 20.754716-34.413458 38.816773-55.831962 53.464167v-.204061c20.03387-16.147915 38.592455-34.039522 55.45725-53.464168 6.003964-8.30239 11.086709-17.231463 15.15877-26.630052 1.115793 1.104983 1.783077 2.582777 1.873556 4.149254zm-14.920317 20.20211c3.644917-4.217276 7.187641-8.570592 10.594106-12.889898 2.390758-1.694207 3.872036-4.388838 4.019629-7.312212.009924-1.373405-.432973-2.711927-1.260392-3.809151-3.68139 8.42705-8.188503 16.469946-13.455537 24.01126h.102194zm-53.208984 52.443858c18.639584-13.32954 35.233238-29.300935 49.257484-47.410337-15.143282 17.073634-31.613663 32.926379-49.257484 47.410337z"/>
            <path d="M244.061864 657.282757c-1.941685 2.822854-4.087758 5.611697-6.336025 8.2645-.755556 1.316297-1.76245 2.471799-2.963624 3.401028-.03651-.063137-.03651-.140925 0-.204062 1.02194-1.088329 1.97575-2.210668 2.92956-3.401028.690327-1.214769 1.065075-2.582754 1.090069-3.979203.019676-1.465605-.487985-2.889615-1.430716-4.013214h6.676672l.034064-.06802zm-5.825055 7.21018c1.90762-2.312699 3.713047-4.693419 5.382215-7.074138H237.555516c.854365 1.137118 1.30934 2.523775 1.294457 3.945193.003603 1.073083-.204759 2.136344-.613164 3.128946z"/>
            <path d="M310.113222 503.624292c-11.01753 55.28225-33.531077 107.641193-66.085422 153.692476h-6.778866c34.163776-45.927249 58.828948-98.18483 72.557706-153.726486l.306581.03401zm-66.28981 153.488414c31.198055-44.161121 53.174635-94.139638 64.620642-146.95844-6.661838 25.342205-15.659233 50.014243-26.87701 73.700287-12.240274 25.805862-26.981058 50.353612-44.011528 73.292163h2.009815c2.146073-.03401 3.576788-.06802 4.258081-.03401z"/>
            <path d="M310.113222 503.624292c-6.784918 27.645945-16.348832 54.53713-28.546177 80.264272-12.30278 25.904795-27.136007 50.53422-44.284046 73.530235v-.204062c11.648114-23.41252 17.732948-49.19106 17.781748-75.33278 0-3.741132 0-7.482263-.374712-11.189384 27.933014-23.603137 45.987278-45.53977 55.218799-67.03427 0 0 .204388-.102031.204388-.03401zm-71.978607 152.298054c33.323975-45.115239 57.528929-96.278073 71.263249-150.63155-9.469973 21.052366-27.25172 42.478846-54.50344 65.503808.272517 3.707121.37471 7.448252.37471 11.155373-.072293 25.629593-5.928886 50.913411-17.134519 73.972369z"/>
            <path d="M255.201006 581.949977c-.0601 26.198721-6.155894 52.032499-17.815812 75.502831-5.722861-3.094936-15.09064-5.033522-27.25172-7.040129-14.170895-2.278689-31.680125-4.183264-53.515566-5.883779 42.172037-27.208227 73.409321-50.573293 98.37871-73.666276.102194 3.57108.204388 7.312211.204388 11.087353zm-18.0202 75.196739c11.604172-23.376981 17.665077-49.106353 17.713618-75.19674 0-3.6391 0-7.2782-.340646-10.88329-24.83313 22.956942-55.934156 46.219976-97.799612 73.224142 21.631053 1.700515 39.004025 3.60509 53.072726 5.84977 12.263274 1.972596 21.596988 3.945192 27.353914 7.006118zM166.394462 737.376977h-.204388c-8.364266 8.23656-17.300024 15.873816-26.74075 22.854911-16.793873 9.862983-38.152409 17.95743-56.887966 24.623446-25.432281 16.04856-53.078769 28.29718-82.061743 36.356994v.510154c24.861302-5.949887 49.195813-13.911952 72.762093-23.807199 23.499655-9.854795 45.769134-22.409894 66.357939-37.411313 10.471212-5.630238 19.612667-13.43504 26.80888-22.88892l-.034065-.238073zM4.144532 820.498112c27.721672-8.039105 54.167198-19.946934 78.553084-35.370696 18.774584-6.252777 37.00357-14.033231 54.503441-23.263034-34.916267 25.269641-80.699157 45.43774-133.056524 58.63373zm137.893705-61.830697c8.083847-6.122915 15.785451-12.733225 23.061768-19.793985-6.379619 7.98-14.202194 14.69414-23.061768 19.793985z"/>
            <path d="M237.385194 657.350778c-12.058887 28.262546-35.904142 55.232702-70.990732 80.230261-13.62586 19.657944-43.398364 33.228048-83.696846 47.614398 60.021442-31.061314 112.71208-74.554185 154.551319-127.572577h.204388c.204388 0-.068129-.306092-.068129-.272082zM84.639302 784.107108c39.242477-14.046247 68.1293-27.446299 81.516708-46.69612 34.643749-24.657457 58.318681-51.219489 70.445697-78.97188-41.281341 52.051323-93.05319 94.86497-151.962405 125.668zM82.629487 784.821324C56.032492 796.914907 28.623506 807.14278.601809 815.43058v.340102c27.3829-8.127618 54.184654-18.09264 80.222251-29.827019-24.962183 15.503531-52.008503 27.378964-80.324445 35.268665v.340103c29.040774-8.0955 56.743206-20.377858 82.232066-36.459025l-.102194-.272082z"/>
            <path d="M237.385194 657.350778c-41.838456 53.085777-94.570158 96.618571-154.653513 127.674607h-.204388c45.442244-31.0854 73.715904-82.44093 73.715904-134.102551v-6.325913c21.869505 1.700514 39.378735 3.60509 53.54963 5.88378 12.365468 2.006606 21.733247 3.979202 27.490173 7.108149l.102194-.238072zM84.741495 783.732995c59.079924-30.958233 110.963274-73.997881 152.268987-126.314197-5.722861-3.060925-15.02251-4.999512-27.25172-6.972108-14.13683-2.27869-31.57793-4.183265-53.345242-5.84977v6.155862c-.18355 26.597231-7.1471 52.709834-20.234402 75.876945-12.689644 22.609208-30.260313 42.115216-51.437623 57.103268z"/>
            <path d="M156.447584 644.42687c-.052698-.030377-.117625-.030377-.170323 0C128.344248 721.664226 71.115635 783.29086.635873 813.423973v.272082c31.794571-13.857101 60.68662-33.576184 85.161626-58.123576 31.215529-31.242773 55.232529-68.9053 70.377568-110.363373v5.543676c0 51.661623-28.27366 103.017152-73.715903 134.102552C55.844446 796.934306 28.425162 807.161774.39742 815.46459v.340103c28.085929-8.294467 55.562426-18.522049 82.232066-30.609256 22.131133-15.119669 40.477753-35.124437 53.617759-58.46368 13.087303-23.16711 20.050853-49.279713 20.234403-75.876944.102194-2.210668.034064-4.353316-.034065-6.427943zM101.262851 122.437024c-7.672303-21.030847-19.408418-40.35182-34.541556-56.865196C51.225143 48.539163 32.81551 34.396964 12.354113 23.8072c-3.644917.442134-7.596417.816247-11.786369 1.15635v.306092c4.189952-.340103 8.107387-.714216 11.752305-1.15635 41.286356 21.52851 73.341192 56.967227 88.261509 97.337435C74.064982 84.287234 39.953447 53.162899.499615 30.133112v.476144c39.662718 23.117551 73.923586 54.424911 100.490719 91.827768h.170323c.170323 0 0 0 0 0h.102194z"/>
            <path d="M147.931421 101.384658c-9.708425 7.618303-24.560612 14.31833-46.702635 21.086376-.063238.036452-.14115.036452-.204388 0-14.681864-40.812341-47.009217-76.727202-88.56809-98.425763 48.709052 18.926831 94.340257 44.955279 135.406984 77.237356 0 0 .068129.06802.068129.10203zm-46.7367 21.052366c21.937635-6.802057 36.653564-13.604114 46.327925-21.052366C107.184458 69.640525 62.430742 43.931022 14.670509 25.06558c19.549284 10.420782 37.156507 24.122833 52.050786 40.506248 15.125912 16.506426 26.840814 35.83059 34.473426 56.865196z"/>
            <path d="M168.50647 99.956226c-5.825055.578175-12.774244 1.088329-20.609113 1.428432-41.151754-32.320955-86.875243-58.37258-135.679502-77.305377C72.03538 44.21337 124.6312 69.721083 168.43834 99.854195c.034065.03401.068129.06802.068129.10203zm-20.677242 1.29239c7.596417-.340102 14.375282-.816246 20.064079-1.394421C125.789399 70.945453 75.441846 46.219976 18.656073 26.28995c46.386373 18.77214 89.875974 44.008981 129.173155 74.958667z"/>
            <path d="M168.50647 99.956226C124.460877 69.993166 72.03538 44.41743 12.25192 24.07928c16.351031-.442134 30.658185-1.088329 38.527119-4.319306 44.699533 17.626253 84.896112 44.98927 117.659302 80.09422 0 0 .068129.06802.068129.10203zM13.1376 24.07928C72.03538 44.21337 123.949908 69.449001 167.416401 99.10597 134.886423 64.409614 95.08182 37.315537 50.847168 19.759975c-7.868934 3.162957-21.699182 3.843162-37.709568 4.319306z"/>
            <path d="M50.915298 19.453882C34.37233 14.046788 17.541148 9.561851.499614 6.01982v.272082c16.871706 3.508019 33.53283 7.959034 49.904713 13.332032-8.005193 3.060925-22.005764 3.70712-38.08428 4.183265-3.781176-2.24468-7.76674-4.353317-11.820433-6.325913v.272082c4.019629 2.006607 7.937064 4.081234 11.71824 6.325913 16.419161-.442134 30.658185-1.08833 38.629313-4.353316 0 0 .102194-.238072.06813-.272083zM64.200511 294.461042c-20.745372 1.428432-42.001714 2.924885-63.700896 3.979204v.306092c21.619698-1.065655 42.705717-2.403393 63.258056-4.013213-18.515572 29.68595-39.167736 57.989048-61.793276 84.685608l-1.46478-1.22437v.374113l1.39665 1.19036c22.73568-26.802497 43.4903-55.219249 62.099858-85.025711l.204388-.272083zM156.311326 575.658074h-.170324c-5.075632 61.218512-23.845255 115.634968-54.50344 157.399597-25.994923 35.19533-60.901787 62.850877-101.137947 80.12823v.442134c31.79457-13.857102 60.68662-33.576185 85.161626-58.123576 31.410965-31.415362 55.528981-69.334227 70.650085-111.07759 1.394248-10.907203 2.088313-21.892276 2.077943-32.887944a302.655431 302.655431 0 0 0-2.077943-35.88085zm1.90762 35.88085c.012599 10.973133-.681481 21.93572-2.077944 32.819925-24.083707 66.456096-69.900662 121.518746-127.197404 154.882835 28.511832-16.782372 53.312585-39.171562 72.898352-65.8099 30.317539-41.594578 49.087161-95.53489 54.50344-156.073195a297.90168 297.90168 0 0 1 2.043879 34.350387l-.170323-.170051z"/>
            <path d="M157.197007 96.79327C112.708573 49.04283 57.421646 14.930514.499615 0v.374113c35.129427 9.603037 67.61535 27.046964 95.00631 51.015427 38.152408 33.53414 68.1293 80.842446 86.422018 136.823374 15.214439 47.888681 22.756193 97.876365 22.34641 148.114789 0 78.563757-16.691678 161.344789-48.269609 239.364382 20.528049-42.532509 36.513026-87.105018 47.69051-132.980212 10.899682-43.971059 16.537019-89.077698 16.793873-134.374634.204388-84.991701-21.801376-158.147823-63.29212-211.54397zm63.189926 211.611989c0 84.617588-22.107958 177.805767-62.304246 262.899499 30.419733-76.761212 46.498248-157.909751 46.498248-235.045076.420834-50.264073-7.132858-100.277639-22.380475-148.182809-18.394911-56.048949-48.303674-103.425275-86.319824-137.061446C72.514281 30.643047 45.42435 14.97167 16.101225 4.86347c51.267299 16.69905 100.524783 48.804758 140.72107 92.13386 41.592938 53.328126 63.564638 126.416228 63.564638 211.373918v.03401zM212.790516 524.166504c-10.219395 17.311235-22.039829 35.370696-35.01846 53.600209-6.336026-.680206-13.18302-1.360412-21.46073-2.074628 21.937634-18.705656 40.400675-35.540747 56.47919-51.49157v-.03401zm-35.15472 53.464168c12.74018-17.8554 24.288096-35.506737 34.371233-52.51188-15.805998 15.644731-34.06465 32.17373-55.389122 50.437252 8.005193.748227 14.681865 1.394422 21.01789 2.074628zM177.635796 577.800722c-5.277862 22.766868-12.421432 45.062006-21.358536 66.660158 1.395305-10.89571 2.089377-21.869536 2.077944-32.853935-.027495-11.982147-.766861-23.952115-2.214202-35.84684 8.27771.748227 15.09064 1.394422 21.46073 2.074628l.034064-.03401zm-21.188212 65.503808c8.69578-21.206722 15.667487-43.077959 20.847566-65.401777-6.267896-.646195-12.978632-1.29239-21.086019-2.040617a306.425272 306.425272 0 0 1 2.180138 35.676788 253.35045 253.35045 0 0 1-1.805427 31.765606h-.136258zM277.13864 429.583903c.172512 47.958538-7.360612 95.634285-22.312346 141.210701-4.632792-26.153909-17.032325-53.532188-36.857952-81.3526 22.802574-27.115129 42.362693-56.790842 58.284617-88.42674.5791 9.250797.885681 18.977738.885681 28.568639zM254.7241 570.114398c14.812841-45.370386 22.276075-92.810854 22.107958-140.530495 0-9.386839-.306582-18.909719-.851616-28.330567-15.837218 31.482568-35.269733 61.029914-57.909906 88.052626 19.55311 27.650361 31.918578 54.858589 36.653564 80.808436z"/>
            <path d="M254.826294 570.760594c-8.618357-15.372649-22.755186-31.01738-42.001714-46.52607 2.077944-11.325424 3.81524-23.024962 5.143762-34.82653 19.859691 27.854422 32.259224 55.266712 36.926081 81.624682l-.06813-.272082zm-42.035779-46.66211c18.939946 15.270617 32.906453 30.609256 41.592938 45.777842-4.76905-25.779795-17.032325-52.71594-36.517305-80.16224-1.294456 11.665528-3.031754 23.229024-5.075633 34.384398zM276.423283 400.675162c-15.980908 31.751632-35.621667 61.531002-58.52307 88.732832 12.535774-46.249529 18.926566-93.943885 19.008076-141.856897-.272517-99.27602-28.614307-188.110883-80.085993-250.553765 18.323001 19.793535 34.671714 41.321625 48.814644 64.279437 14.583679 23.424246 27.022214 48.113637 37.164533 73.768307 10.270888 26.198076 18.249137 53.235311 23.845255 80.808436 5.746118 27.932585 9.017603 56.316077 9.776555 84.82165zm-58.318681 87.984605c22.642143-27.008977 42.074918-56.545305 57.909905-88.018616-2.759236-112.846124-44.897209-221.883095-115.81981-300.03873 49.53 62.272832 76.781721 149.645252 76.781721 246.778625-.082641 47.713751-6.427257 95.210991-18.871816 141.278721z"/>
            <path d="M236.942353 347.381046c-.079255 47.946725-6.470008 95.675096-19.008075 141.958927-18.723562 30.045541-39.304438 58.896838-61.622952 86.386123 41.524808-86.284092 64.382189-181.172786 64.382189-267.218805 0-85.025711-21.9717-158.079803-63.564638-211.407928V96.8953c51.437622 62.408872 79.813476 151.379776 79.813476 250.485745zm-19.314657 141.856896c12.538099-46.249061 18.928932-93.943725 19.008075-141.856896 0-94.854684-25.991328-180.45857-73.443386-242.357287 37.641439 52.5799 57.50113 122.607075 57.50113 203.381501-.256854 45.296936-5.894191 90.403575-16.793873 134.374634-11.038198 45.446694-26.804988 89.61672-47.043282 131.789852 22.005537-27.16149 42.301653-55.660192 60.771336-85.331804z"/>
            <path d="M217.934278 489.305963c-1.328522 11.801568-3.065819 23.535117-5.143763 34.860541-16.078515 15.984834-34.57562 32.819925-56.513255 51.525581h-.204388c-.03651-.063137-.03651-.140924 0-.204061 22.30676-27.466579 42.876304-56.295222 61.588888-86.318102l.272518.13604zm-5.450344 34.79252c2.043879-11.087352 3.747111-22.582828 5.041568-34.010284-18.35953 29.35533-38.50693 57.557564-60.328496 84.447537 21.46073-18.297533 39.549059-34.792521 55.286928-50.437252zM64.132382 294.393022c-20.43879-9.828972-41.865455-20.40617-63.632767-31.0854v.340103c21.562924 10.71324 42.85333 21.052366 62.985539 30.609256-20.43879 1.632494-41.45668 2.958895-62.985539 4.013214v.306092c21.733247-1.054319 42.989589-2.41473 63.564638-4.047224a.271918.271918 0 0 0 .068129-.13604zM313.144975 329.899759c-.011312 5.567565-.896373 11.098974-2.622978 16.392957-.052698.030377-.117625.030377-.170323 0-.232568-25.26719-4.380784-50.346214-12.297339-74.346482-3.644917-10.203085-7.76674-20.40617-12.263274-30.609256v-.170051c4.753406 9.92453 8.84995 20.149547 12.263274 30.609256 5.454635 15.400721 10.004324 31.106167 13.62586 47.036223.903174 3.629246 1.394524 7.34842 1.46478 11.087353zm-2.657042 15.202597c1.519977-4.926408 2.311806-10.047894 2.35046-15.202597-.003723-3.69752-.426544-7.382742-1.260391-10.985322-2.895496-12.821877-6.472284-25.609744-10.594107-38.15954 6.011892 20.9335 9.207935 42.572438 9.504038 64.347459z"/>
            <path d="M310.487933 346.054644c-10.8298-56.498899-32.257844-110.445084-63.155862-158.99808h.204388c19.04214 17.651338 31.952642 35.91486 38.424925 54.416455 15.678297 32.671104 24.04746 68.357361 24.526549 104.581625zm-62.270181-158.147823c15.097531 23.975165 27.959761 49.282882 38.424925 75.604862 10.379688 26.135229 18.260988 53.191786 23.538674 80.808436-.668588-35.710294-9.033824-70.857812-24.526549-103.051162-6.336025-18.05946-18.939945-35.98288-37.43705-53.362136zM319.821647 366.902948c-1.403622-7.55946-4.578617-14.680143-9.265585-20.780283 1.603956-5.255611 2.374054-10.729499 2.282332-16.222906-.008268-3.431373-.385135-6.851964-1.124134-10.203086v-.612185c.06056-.045347.143829-.045347.204388 0a3.938918 3.938918 0 0 0 0 .612185c3.512918 15.70893 6.117492 31.606676 7.800805 47.614399l.102194-.408124zm-9.333714-20.848304c3.987903 5.247514 6.915076 11.21958 8.618357 17.583317-1.430716-13.025939-3.406466-26.085888-6.267896-38.975786a49.984167 49.984167 0 0 1 .306582 5.237584c-.042651 5.489825-.939014 10.939735-2.657043 16.154885z"/>
            <path d="M321.831461 407.069095c-.01183 32.549108-3.946184 64.978569-11.71824 96.589207-.060559.045347-.143828.045347-.204387 0 5.171684-26.097927 7.761692-52.640166 7.732675-79.243962-.01264-26.244597-2.464451-52.431406-7.3239-78.223655v-.170051c0-.170051 0 0 0 0 4.728604 6.134435 7.927892 13.30386 9.333715 20.916325 1.498844 13.19599 2.180137 26.732083 2.180137 40.132136zm-10.457847 89.957202c6.764077-29.510014 10.191965-59.684328 10.219395-89.957202 0-13.400053-.681293-26.902135-2.009815-40.132136-1.31999-7.403993-4.365611-14.394246-8.890873-20.40617 4.79404 25.604978 7.211522 51.59698 7.221706 77.645479.001338 24.429537-2.187534 48.810163-6.540413 72.850029z"/>
            <path d="M317.845898 424.34632c.029084 26.62631-2.560903 53.191122-7.732676 79.311983 0-2.618792.272517-5.339615.272517-8.026428 0-30.779307-11.786369-63.565221-34.06465-94.854683 18.292717-19.07977 29.806569-37.411313 34.06465-54.416455h.170324c4.834514 25.714986 7.274867 51.821518 7.289835 77.985582zm-7.596417 77.033293c4.867985-25.389319 7.308898-51.182977 7.289835-77.033294.022502-25.974603-2.337817-51.896679-7.051383-77.441418-4.564663 17.005143-16.010385 35.064604-34.06465 53.906301 10.43519 14.452128 18.879204 30.237937 25.105647 46.934193 5.74714 15.310317 8.7788 31.503228 8.959003 47.85247 0 1.938586 0 3.877173-.238452 5.781748z"/>
            <path d="M310.487933 346.054644c-4.428405 17.005142-15.976321 35.540747-34.303103 54.654527-.064676.030629-.139712.030629-.204388 0 3.099396-20.362704 4.670743-40.928139 4.700922-61.524605 0-54.824578-11.547917-107.404478-33.349293-152.059981 15.45561 24.185683 28.616235 49.758983 39.310606 76.387098 10.59295 26.68322 18.57848 54.326008 23.845256 82.542961zm-34.06465 54.144373c18.088329-18.909719 29.499986-37.139231 34.06465-54.144373-10.523484-55.574724-31.316421-108.708158-61.316371-156.68538 21.64735 46.902887 32.640074 98.004248 32.191095 149.645251-.120715 20.48907-1.771752 40.940622-4.939375 61.184502zM297.06646 541.477739c-9.864985 27.303305-22.416735 53.56295-37.471115 78.393706-.03651-.063137-.03651-.140925 0-.204062.807425-4.717998 1.195003-9.498089 1.158198-14.28432-.090624-11.642705-2.318971-23.170118-6.574478-34.010284 19.587174-9.760952 33.519616-19.453883 42.546749-29.588947.063238-.036453.14115-.036453.204388 0-.030324-.121161.02586-.247375.136258-.306093zm-37.164533 77.509438c14.668746-24.384677 26.921829-50.138872 36.585434-76.897253-9.027132 9.931003-22.78925 19.453883-41.967649 29.044783 4.233513 10.845337 6.44993 22.370755 6.540413 34.010284.000954 4.638224-.386461 9.268409-1.158198 13.842186z"/>
            <path d="M316.142665 415.231562c.026612 42.824507-6.415929 85.408124-19.11027 126.314197-9.027132 10.203085-22.993638 19.862006-42.614877 29.656968 38.799637-64.313448 59.272492-133.014222 59.272492-198.654071v-2.074628a429.00725 429.00725 0 0 1 2.452655 44.757535zm-19.280593 126.178156c12.686026-40.860447 19.117309-83.399699 19.076205-126.178156a418.81897 418.81897 0 0 0-2.04388-41.90067c-.204387 65.265736-20.43879 133.490367-59.034039 197.429701 19.178399-9.5909 32.940517-19.317841 42.001714-29.350875z"/>
            <path d="M297.06646 541.477739c-4.881732 20.338984-11.72667 40.157626-20.43879 59.177895-8.803819 19.275852-19.374838 37.697224-31.57793 55.02864l-1.158199 1.632494 1.158198-1.632494c7.59163-10.627202 12.510492-22.922227 14.341218-35.84684 15.045148-24.835729 27.596451-51.094439 37.471115-78.393705 0 0 .204388-.03401.204388.03401zm-47.383928 107.166406c21.477903-31.847342 37.192835-67.20994 46.430118-104.479594-9.6723 26.366647-21.843149 51.751393-36.346982 75.808925-1.433414 10.127501-4.860302 19.871611-10.083136 28.670669z"/>
            <path d="M318.493126 430.298118c.08421 29.673026-3.346069 59.251917-10.219395 88.120648-2.890134 8.076845-6.599757 15.837527-11.071011 23.161003h-.204388c12.684324-40.8725 19.115529-83.422697 19.076204-126.212165a418.684167 418.684167 0 0 0-2.384526-44.859566c3.157367 19.774824 4.763287 39.765614 4.803116 59.79008zM297.407107 540.32139c4.195087-6.972573 7.68679-14.343574 10.423783-22.004654 6.855322-28.837297 10.285408-58.380282 10.219396-88.018617-.003236-18.082267-1.289558-36.141588-3.849306-54.042341 1.192263 12.889897 1.805426 25.983857 1.805426 38.941775.079986 42.400272-6.189059 84.57428-18.599299 125.123837z"/>
            <path d="M308.103407 518.384755c-5.991218 23.747088-14.073286 46.91892-24.151837 69.24494-10.092592 22.391008-22.153256 43.844758-36.0404 64.109385-1.260392 1.870566-2.554849 3.741132-3.88337 5.577687 1.294456-1.836555 2.622978-3.707121 3.88337-5.577687 22.980043-33.44215 39.575404-70.834537 48.950903-110.295352 4.458675-7.289507 8.156996-15.016235 11.036946-23.058973a.238808.238808 0 0 1 .170323 0h.034065zm-42.887395 105.431882c18.490515-32.178825 32.571376-66.689938 41.865456-102.609028-2.784488 7.095226-6.204834 13.925-10.219395 20.40617-6.753583 28.678421-17.400769 56.300903-31.64606 82.100827v.102031zM64.200511 294.461043C43.182621 255.82536 21.721892 219.740448.499615 184.981937v.578175c21.086019 34.520439 42.34236 70.299258 63.189926 108.628849-20.200337-9.760952-41.558873-20.134089-63.189926-30.881339v.340103c21.733247 10.81527 43.228041 21.222418 63.496508 31.05139h.170324l.034064-.238072z"/>
            <path d="M101.262851 122.437024c-31.237285 1.666504-64.961288 2.006607-100.592913.986298v.306093c35.59756 1.020308 69.253434.680205 100.490719-.986298 2.81802 11.797367 4.213217 23.888803 4.155887 36.01689 0 40.234167-14.20496 87.13435-41.081968 135.599005C43.080428 255.689318 21.687828 219.672427.499615 184.981937v.578175c21.154148 34.62247 42.512684 70.57134 63.428379 109.070982 26.979203-48.634707 41.252291-95.63692 41.252291-136.041138.132062-12.163307-1.182956-24.299245-3.917434-36.152932z"/>
            <path d="M101.194721 122.437024C66.278455 100.058257 31.634705 79.686097.499615 61.490594v.340103c30.964767 18.093471 65.404129 38.363601 100.116007 60.606327-31.101025 1.666504-64.722835 1.972597-100.116007.952288v.306092c35.631624 1.02031 69.355628.680206 100.626977-.986298 0 0 .102194-.272082.068129-.272082zM42.331006 731.969342c-14.375283 8.2645-28.20553 16.256916-41.831391 23.87522v.374113c13.62586-7.720334 27.422044-15.61072 41.524809-23.807199.170323 2.652802.272517 5.339615.272517 7.958407.335279 14.755204-2.827912 29.38055-9.23152 42.682907L.499615 781.318265v.306093l32.633935 1.564473c6.476684-13.353337 9.676129-28.05429 9.333714-42.886969.136259-2.788843.034065-5.679718-.136258-8.33252z"/>
            <path d="M116.115038 656.092398C75.237458 685.783376 35.04117 711.121038.635874 732.139394v.340102c34.06465-20.848304 74.124679-45.947894 114.593483-75.36679-23.019869 26.185675-47.386194 51.160179-73.000545 74.822626-13.046761.680206-27.047333 1.29239-41.592938 1.836555v.306093c14.57967-.544165 28.580241-1.15635 41.661067-1.836556 26.00665-23.949596 50.71588-49.266505 74.022485-75.842934l-.204388-.306092z"/>
            <path d="M142.106366 719.283506c-34.755399 23.79691-71.134252 45.139355-108.870622 63.871314h-.204388a.441447.441447 0 0 1 0-.204062c6.44627-13.314227 9.633593-27.966498 9.29965-42.750927 0-2.686813 0-5.441646-.272518-8.23049 39.889706-3.77514 72.489576-7.924395 99.741296-12.685835h.306582zm-108.598105 63.39517c37.344077-18.53022 73.357183-39.621766 107.780553-63.123088-27.047332 4.72743-59.442814 8.808664-98.787486 12.549795.170324 2.720823.272518 5.441646.272518 8.094448.26829 14.686943-2.904593 29.233285-9.265585 42.478845z"/>
            <path d="M142.106366 719.283506c-27.25172 4.76144-59.91972 8.910695-99.809425 12.685836-.052699.030377-.117625.030377-.170324 0 25.969039-23.907275 50.644095-49.17871 73.920291-75.706893 17.032326 23.092983 25.786941 44.21337 25.889135 63.123088l.170323-.10203zm-99.502844 12.481775c39.651253-3.741132 72.0808-7.856376 99.196262-12.617816 0-18.637636-8.78868-39.724012-25.71881-62.646944-23.146227 26.364131-47.672972 51.48748-73.477452 75.26476zM157.197006 646.739569c-13.080825 3.401028-26.877009 6.529975-40.87758 9.52288 5.92725-10.71324 11.820434-22.242726 17.543295-34.282367 8.359543 7.650583 16.157715 15.89095 23.334285 24.657456v.10203zm-40.87758 9.318818c13.932442-2.992905 27.524238-6.155862 40.43474-9.420849-7.121743-8.590256-14.815065-16.691711-23.027704-24.249333-5.654732 11.699538-11.479787 23.092983-17.407036 33.670182z"/>
            <path d="M169.426216 654.05178c-16.351032.918278-34.06465 1.666505-53.17492 2.24468v-.170052c14.102766-3.026915 27.89895-6.223882 40.877581-9.52288 4.087758 2.27869 8.175516 4.76144 12.195145 7.312212.055959.023865.094915.075723.102194.13604zm-51.64201 2.006607c18.156459-.544164 35.290978-1.25838 51.096975-2.142647-3.849305-2.44874-7.800805-4.79545-11.71824-7.006119-12.67205 3.162956-25.889134 6.257892-39.378735 9.148766z"/>
            <path d="M177.124827 519.337044c-.275493 43.230502-6.991625 86.17953-19.92782 127.436536-7.203499-8.785617-15.024055-17.04831-23.402416-24.725477a.23773.23773 0 0 1 0-.204062c17.283845-32.932505 31.766803-67.256149 43.296171-102.609028a.238809.238809 0 0 1 .170323 0l-.136258.10203zm-19.92782 127.096433c12.69176-40.838651 19.302816-83.317952 19.621238-126.076125-11.475445 34.992354-25.843386 68.97217-42.955524 101.58872 8.331584 7.618309 16.128102 15.800111 23.334285 24.487405z"/>
            <path d="M254.485648 571.100697c-25.310035 25.473703-57.126418 50.19918-97.288641 75.774914h-.170323c12.922415-41.235938 19.627086-84.162174 19.893755-127.368516 39.004025 19.964037 62.167987 35.438717 77.360821 51.797664l.204388-.204062zm-97.118318 75.264759c39.957835-25.405682 71.535766-50.029128 96.743607-75.264759-15.15877-16.256916-38.220538-31.697585-76.98611-51.525581-.30873 43.003228-6.966146 85.726052-19.757497 126.79034z"/>
            <path d="M254.485648 571.100697c-25.405172 30.54624-53.948443 58.348612-85.161626 82.951084-4.019628-2.550772-8.107386-4.999512-12.195144-7.278201 40.196287-25.541724 71.978606-50.2672 97.220512-75.604863h.204387l-.068129-.06802zm-85.161626 82.747022c30.337546-23.950605 58.152926-50.923904 83.015553-80.502343-24.83313 24.589435-55.934156 48.600696-94.904116 73.394194 3.917435 2.244678 7.903 4.625398 11.820434 7.108149h.06813zM142.106366 719.283506c-41.627002 44.859565-89.555965 78.83584-138.643127 98.357742 15.022511-8.298509 25.821005-20.814294 29.67031-34.384397 37.70147-18.672014 74.046567-39.957866 108.768429-63.701263l.204388-.272082zM5.404924 816.552919c47.963028-19.487893 94.733793-52.74995 135.50918-96.351136-34.393507 23.413233-70.359884 44.435893-107.644296 62.919027-4.740312 14.249676-14.69137 26.188892-27.864884 33.43211z"/>
            <path d="M166.462591 736.866823a4.34619 4.34619 0 0 1 0 .646195c-45.067532 33.296069-99.877555 60.232214-162.999352 80.12823 49.019032-19.521903 96.91393-53.464167 138.506869-98.18769 15.805997 5.645706 24.492483 11.93761 24.492483 17.413265zm-.340646.544164c.613163-5.475655-8.005193-11.835579-24.117773-17.95743-40.536934 43.635195-87.001117 76.965274-134.691627 96.79327 61.31637-19.862006 114.797872-46.356018 158.8094-78.83584z"/>
            <g>
                <path d="M166.394462 737.376977c-44.965338 33.160027-99.741296 60.096173-162.863093 79.99219l-2.827366 1.39442v.340104l2.963624-1.462443c60.907595-19.21581 114.04845-44.961596 158.128107-76.55715-47.507235 38.243625-102.42251 66.26535-161.296119 82.304888v.238072c60.796324-16.563701 117.35348-45.887063 165.894847-86.012009v-.238072z"/>
            </g>
        </g>
        <path class="pl-1" stroke="#FEC30C" stroke-opacity=".3" d="M52.001421 107.215806c70.5721-29.118594 152.5721-6.191415 246 68.781536"/>
        <path class="pl-2" stroke="#FEC30C" stroke-opacity=".3" d="M828.075468 33.854462C750.297318 28.90011 664.8595 70.369168 571.762014 158.26164"/>
        <ellipse class="pd" cx="300.501421" cy="178.997342" fill="url(#b)" fill-rule="nonzero" rx="8.5" ry="7"/>
        <ellipse class="pd" cx="571.501421" cy="158.997342" fill="url(#b)" fill-rule="nonzero" rx="8.5" ry="7"/>
        <ellipse class="pd" cx="501.501421" cy="290.997342" fill="url(#b)" fill-rule="nonzero" rx="8.5" ry="7"/>
        <g id="pc1" class="pc">
            <g fill-rule="nonzero">
                <path fill="url(#d)" d="M68.884016 37.828688c.946722-6.793442-.183606-13.890983-3.614754-19.866803a28.487709 28.487709 0 0 0-3.97623-5.37623c-1.735655-1.838934-3.729507-3.442622-5.611475-5.132376 5.215574 4.630328 8.491804 11.134016 9.421312 18.019262.929508 6.885246-.438935 14.189344-3.629098 20.386066-3.16159 6.179246-7.915405 11.4025-13.770492 15.130327-5.82377 3.680738-12.622951 5.717623-19.542623 5.52541-6.282787-.19795-12.447951-2.295082-17.37377-6.236885-.371039-.296448-.73347-.600546-1.087296-.912295 2.493033 2.209016 4.902869 4.552869 7.745902 6.311475a28.582375 28.582375 0 0 0 8.486065 3.442623c6.621312 1.534836 13.647131.780328 19.906968-1.804508 6.276797-2.61432 11.744586-6.852302 15.841803-12.278688 3.822953-5.031314 6.302042-10.953089 7.203688-17.207377z"/>
                <path fill="url(#e)" fill-opacity=".5" d="M45.861475 67.320492a37.510248 37.510248 0 0 0 6.245492-3.316394l-2.384016-2.518852c-.286885.192213-.57377.384426-.860656.57377-5.941393 3.75246-12.889754 5.829509-19.935656 5.634427-4.996278-.139369-9.881359-1.506955-14.22377-3.981968 3.285716 2.646553 7.135116 4.50353 11.25164 5.42787 6.62131 1.520491 13.635655.765983 19.906966-1.818853z" opacity=".5" style="mix-blend-mode:screen"/>
                <path fill="url(#f)" d="M39.538525.459016c17.654918 1.856148 28.90082 18.111066 25.119672 36.308197-3.781148 18.197131-21.15205 31.445492-38.804099 29.589344C8.20205 64.50041-3.046722 48.245492.731558 30.048361 4.509835 11.85123 21.886474-1.394262 39.538524.459016z"/>
                <path fill="url(#g)" d="M39.303279 1.225C22.265164-.57377 5.493852 12.218443 1.84754 29.781557a33.852458 33.852458 0 0 0-.588115 4.016394c7.14918 5.163934 15.778689 8.546311 25.466804 9.564754 12.941393 1.359836 25.79959-1.721312 37.008196-8.052869 3.066804-17.167213-7.7-32.32623-24.431147-34.084836z" opacity=".2" style="mix-blend-mode:screen"/>
                <path fill="#94512A" d="M28.539344 64.793033C12.803688 63.137705 1.331148 49.42172 4.87705 32.418033 8.422951 15.414344 24.672131 3.006557 41.173771 4.742213c13.862295 1.457377 21.97254 13.139344 22.589344 26.05205C64.440164 15.420081 54.095082 2.581966 38.74959.961065 21.654098-.837704 4.82541 11.991803 1.167623 29.615164-2.490164 47.238524 8.4 62.982787 25.495492 64.778689a30.581964 30.581964 0 0 0 4.636065.134836c-.530737-.02582-1.061475-.063115-1.592213-.120492z" opacity=".5" style="mix-blend-mode:multiply"/>
                <path fill="#E99855" d="M36.982377 4.016393a28.645491 28.645491 0 0 1 2.980738.154918c7.367213.77459 13.74754 4.383607 17.967623 10.164345 2.205757 3.03515 3.73215 6.50965 4.47541 10.187295a29.807378 29.807378 0 0 1-.07459 12.161065c-1.633736 7.622925-5.79104 14.471912-11.79959 19.439345-5.987296 4.988934-13.27705 7.745901-20.52664 7.745901a28.688532 28.688532 0 0 1-2.983607-.154918C19.657377 62.939754 13.27705 59.32787 9.056967 53.55c-2.204425-3.044476-3.727848-6.527702-4.466803-10.213115a29.836066 29.836066 0 0 1 .077459-12.158197c1.630806-7.62143 5.782677-14.470804 11.785246-19.442213 5.987295-4.988934 13.277049-7.745901 20.529508-7.745901v.02582zm0-2.865983C20.69877 1.161885 5.379098 13.730328 1.87623 30.59918-1.85328 48.59836 9.263525 63.235246 26.72336 65.071311a31.557367 31.557367 0 0 0 3.281968.172132c16.286475 0 30.286475-12.066394 33.789344-28.935246 3.729508-18.00205-6.070492-33.140984-23.52459-34.97705a31.47418 31.47418 0 0 0-3.281967-.169262l-.005738-.011475z"/>
                <path fill="url(#h)" d="M36.225 3.155738a28.510659 28.510659 0 0 1 3.012295.157787C46.681967 4.093852 53.134016 7.745902 57.4 13.586885c2.230949 3.068223 3.774968 6.580915 4.52705 10.29918a30.211887 30.211887 0 0 1-.07746 12.295902c-1.65377 7.707653-5.857228 14.632899-11.931557 19.657377-6.053279 5.043443-13.42336 7.820492-20.753279 7.820492a28.579533 28.579533 0 0 1-3.018033-.157787c-7.444672-.783197-13.893852-4.432377-18.159836-10.27623-2.231654-3.067817-3.775743-6.580669-4.527049-10.29918-.820223-4.059365-.793854-8.244326.07746-12.293032 1.65183-7.707623 5.85571-14.63255 11.931557-19.654509 6.04754-5.043442 13.42336-7.82336 20.753278-7.82336H36.225zM36.222131.286885c-16.464344 0-31.95041 12.706148-35.490574 29.761476-3.778278 18.19713 7.459017 34.454918 25.122541 36.308196a31.36232 31.36232 0 0 0 3.316394.175c16.461475 0 31.94754-12.709016 35.487705-29.764344C68.439344 18.570082 57.193443 2.315163 39.538525.459016a32.222951 32.222951 0 0 0-3.316394-.17213z"/>
                <path fill="#FFF" d="M24.80123 16.888934l-2.828689-.7 2.564754 1.394263.298361.679918-.697131 2.87459 1.377049-2.610656.668442-.301229 2.82582.7-2.561885-1.397131-.298361-.67705.697131-2.87459-1.377049 2.610656z"/>
                <path fill="url(#i)" d="M39.443852.461885a31.362296 31.362296 0 0 0-3.316393-.175c-16.461475 0-31.947541 12.706148-35.487705 29.761476A34.457785 34.457785 0 0 0 0 34.609836c.906557.642623 1.83511 1.25082 2.785656 1.82459a31.795491 31.795491 0 0 1 .656967-5.80082c1.652805-7.707927 5.857686-14.63284 11.934426-19.654508 6.053279-5.043442 13.42336-7.82336 20.753279-7.82336a28.565165 28.565165 0 0 1 3.015164.157787c7.459016.783196 13.896721 4.432377 18.162705 10.27623 2.230635 3.068065 3.773738 6.5809 4.52418 10.29918.820223 4.059364.793854 8.244326-.077459 12.293032-.071721.347131-.154918.688525-.238115 1.032787 1.115028-.57377 2.214754-1.170492 3.29918-1.790164 2.969263-17.637705-8.15041-33.155328-25.37213-34.962705z" opacity=".7"/>
            </g>
            <g>
                <path fill="#FFF177" d="M39.119632 16.011407L21.27481 29.22305l7.804403 9.839387z"/>
                <path fill="#E1882B" d="M39.119632 16.011407l4.166412 22.65139-14.206831.399639z"/>
                <path fill="#FFF177" d="M19.687791 33.380047L24.768498 50.75l3.049178-8.377548z"/>
                <path fill="#E1882B" d="M41.699026 41.944794L24.768498 50.75l3.049178-8.377548z"/>
            </g>
        </g>
        <g id="pc2" class="pc">
            <g transform="translate(3 -1)">
                <path fill="url(#k)" d="M59.043443 32.42459c.811475-5.82295-.157377-11.906557-3.098361-17.028688a24.418034 24.418034 0 0 0-3.408197-4.608197c-1.487705-1.57623-3.196721-2.95082-4.809836-4.39918 4.470492 3.968852 7.278689 9.543442 8.07541 15.445082.796721 5.901639-.37623 12.162295-3.110656 17.47377-2.709934 5.296497-6.784632 9.773572-11.803278 12.968852-4.991804 3.154919-10.819673 4.90082-16.75082 4.736066-5.385246-.169672-10.669672-1.967213-14.891803-5.345902-.318033-.254098-.628689-.514754-.931968-.781967 2.136886 1.893443 4.20246 3.90246 6.639345 5.409836a24.499181 24.499181 0 0 0 7.27377 2.95082c5.67541 1.315574 11.697541.668852 17.063115-1.546721 5.380112-2.240846 10.066788-5.873402 13.578689-10.52459 3.276817-4.312555 5.40175-9.388362 6.17459-14.74918z"/>
                <path fill="url(#l)" fill-opacity=".5" d="M39.309836 57.703279a32.15164 32.15164 0 0 0 5.353279-2.842623l-2.043443-2.159017c-.245902.164754-.491803.329509-.737705.491804-5.092623 3.216393-11.04836 4.99672-17.087705 4.829508-4.282524-.119459-8.469736-1.291675-12.191803-3.413115 2.816328 2.268473 6.115814 3.860168 9.644262 4.65246 5.67541 1.303278 11.687705.656557 17.063115-1.559017z" opacity=".5" style="mix-blend-mode:screen"/>
                <path fill="url(#m)" d="M33.890164.393443c15.132787 1.590983 24.772131 15.52377 21.531148 31.121311-3.240984 15.597541-18.130328 26.953279-33.260656 25.362295C7.030328 55.286066-2.611475 41.35328.627049 25.755738 3.865574 10.158197 18.759836-1.195082 33.890164.393443z"/>
                <path fill="url(#n)" d="M33.688525 1.05C19.084426-.491803 4.709016 10.47295 1.583607 25.52705a29.016392 29.016392 0 0 0-.504099 3.442622c6.127869 4.42623 13.52459 7.32541 21.828689 8.19836 11.092623 1.165575 22.113934-1.475409 31.721311-6.902458 2.628689-14.714754-6.6-27.708197-20.940983-29.215574z" opacity=".2" style="mix-blend-mode:screen"/>
                <path fill="#94512A" d="M24.462295 55.536885c-13.487705-1.418852-23.321311-13.17541-20.281967-27.75S21.14754 2.57705 35.291803 4.064755c11.881968 1.24918 18.833607 11.262294 19.362295 22.330327C55.234426 13.217213 46.367213 2.213115 33.213934.82377 18.560656-.718033 4.136066 10.278688 1.00082 25.384426-2.134426 40.490164 7.2 53.985246 21.853279 55.52459a26.213119 26.213119 0 0 0 3.97377.115574c-.454918-.022131-.909836-.054098-1.364754-.103279z" opacity=".5" style="mix-blend-mode:multiply"/>
                <path fill="#E99855" d="M31.69918 3.442623a24.55328 24.55328 0 0 1 2.554918.132787c6.314754.663934 11.783607 3.757377 15.40082 8.712295a22.40164 22.40164 0 0 1 3.836066 8.731967 25.549181 25.549181 0 0 1-.063935 10.42377c-1.400345 6.533936-4.963748 12.404497-10.113934 16.662296-5.131968 4.27623-11.380328 6.639344-17.594263 6.639344a24.590197 24.590197 0 0 1-2.557377-.132787C16.84918 53.948361 11.380328 50.85246 7.763115 45.9a22.453279 22.453279 0 0 1-3.828689-8.754098A25.57377 25.57377 0 0 1 4.00082 26.72459c1.397834-6.532654 4.95658-12.403547 10.101639-16.664754 5.131967-4.27623 11.380328-6.639344 17.596721-6.639344v.022131zm0-2.456557C17.741803.995902 4.610656 11.768853 1.608197 26.227869c-3.196722 15.427869 6.331967 27.97377 21.29754 29.54754a27.049162 27.049162 0 0 0 2.813116.147542c13.959836 0 25.959836-10.342623 28.962295-24.80164 3.19672-15.430327-5.20328-28.406557-20.163935-29.980327a26.977867 26.977867 0 0 0-2.813115-.145082L31.69918.986066z"/>
                <path fill="url(#o)" d="M31.05 2.704918a24.437708 24.437708 0 0 1 2.581967.135246c6.381148.668852 11.911476 3.79918 15.568033 8.805738a22.645083 22.645083 0 0 1 3.880328 8.827869 25.895902 25.895902 0 0 1-.066394 10.539344c-1.417516 6.60656-5.02048 12.542484-10.227049 16.84918-5.188524 4.32295-11.505737 6.703279-17.788524 6.703279a24.496734 24.496734 0 0 1-2.586886-.135246c-6.381147-.671312-11.909016-3.79918-15.565573-8.808197a22.62295 22.62295 0 0 1-3.880328-8.827869 25.797541 25.797541 0 0 1 .066393-10.536885c1.415856-6.606533 5.01918-12.542185 10.22705-16.846721 5.183606-4.322951 11.505737-6.705738 17.788524-6.705738H31.05zM31.047541.245902c-14.112295 0-27.386066 10.890983-30.420492 25.509836-3.238524 15.59754 6.393443 29.532787 21.533607 31.121311a26.881958 26.881958 0 0 0 2.842623.15c14.109836 0 27.383606-10.893442 30.418033-25.512295C58.662295 15.917214 49.02295 1.984426 33.890163.393443A27.61967 27.61967 0 0 0 31.04754.245902z"/>
                <path fill="#FFF" d="M21.258197 14.47623l-2.42459-.6 2.19836 1.195082.255738.582786-.597541 2.463935 1.180328-2.237705.572951-.258197 2.422131.6-2.195902-1.197541-.255738-.580328.597541-2.463934-1.180327 2.237705z"/>
                <path fill="url(#p)" d="M33.809016.395902a26.881968 26.881968 0 0 0-2.842623-.15c-14.109836 0-27.383606 10.890983-30.418032 25.509836A29.535245 29.535245 0 0 0 0 29.665574c.77705.55082 1.57295 1.07213 2.387705 1.563934a27.25328 27.25328 0 0 1 .563115-4.972131c1.41669-6.606795 5.020873-12.542435 10.229508-16.846721 5.188524-4.322951 11.505738-6.705738 17.788525-6.705738a24.484428 24.484428 0 0 1 2.584426.135246c6.393442.671311 11.911475 3.79918 15.568032 8.808197a22.62295 22.62295 0 0 1 3.87787 8.827868 25.797542 25.797542 0 0 1-.066394 10.536886c-.061476.29754-.132787.590164-.204099.885246.955738-.491804 1.898361-1.003279 2.82787-1.534427C58.101638 15.245902 48.570491 1.945082 33.809015.395902z" opacity=".7"/>
            </g>
            <g transform="translate(-820 -10)">
                <path fill="#E48E2D" d="M843.06735 33.670148l-3.36693 15.077212 7.673765-9.216874-4.306835-5.860338zm.659926-2.110989l4.779348 6.50329-1.495365-9.973788-3.283983 3.470498zm5.125872-3.203051l1.503557 10.028426 12.41337 1.9802-13.916927-12.008626zm16.891274 12.4831l.094.014995-.00927.058116 1.376973 1.188162-1.667484.632975-.012105.075887-.132237-.021094-28.392878 10.77791-1-.944206 6.028475-21.573455 5.559308-5.87505 18.155218 15.66576zm-3.492583 1.44775l-12.885069-2.055447-8.456107 10.156539 21.341176-8.101092z"/>
                <path fill="#FFF178" d="M842.06735 32.670148l-3.36693 15.077213 7.673765-9.216875-4.306835-5.860338zm.659926-2.110988l4.779348 6.50329-1.495365-9.973788-3.283983 3.470498zm5.125872-3.203052l1.503557 10.028426 12.41337 1.980201-13.916927-12.008627zm16.891274 12.4831l.094.014995-.00927.058117 1.376973 1.188161-1.667484.632976-.012105.075887-.132237-.021095L836.00142 52.56616l5.028475-22.517662 5.559308-5.87505 18.155218 15.66576zm-3.492583 1.44775l-12.885069-2.055446-8.456107 10.156539 21.341176-8.101092z"/>
            </g>
        </g>
        <path class="pl-3" stroke="#FEC30C" stroke-opacity=".3" d="M503.001421 290.997342c80.925459-56.528424 146.925459-81.522677 198-74.982757"/>
        <g id="pc3" class="pc">
            <g fill-rule="nonzero">
                <g transform="translate(3 -12)">
                    <path fill="url(#s)" d="M88.565164 48.636885c1.217213-8.734426-.236066-17.859836-4.647541-25.543032a36.627052 36.627052 0 0 0-5.112295-6.912296c-2.231558-2.364344-4.795082-4.42623-7.214754-6.59877C78.29631 15.536066 82.508607 23.89795 83.703688 32.75041c1.195082 8.852459-.564344 18.243443-4.665983 26.210656-4.064902 7.944745-10.176949 14.660357-17.704918 19.453278-7.487705 4.732377-16.229508 7.35123-25.12623 7.104099-8.077868-.254509-16.004508-2.95082-22.337704-8.018853-.47705-.381147-.943033-.772131-1.397951-1.17295 3.205327 2.840163 6.303688 5.853688 9.959016 8.114753a36.748773 36.748773 0 0 0 10.910656 4.42623c8.513115 1.97336 17.546311 1.003279 25.594672-2.320082 8.070168-3.36127 15.100182-8.810103 20.368033-15.786885 4.915226-6.468832 8.102626-14.082542 9.261885-22.12377z"/>
                    <path fill="url(#t)" fill-opacity=".5" d="M58.964754 86.554918a48.227458 48.227458 0 0 0 8.029918-4.263934l-3.065164-3.238525c-.368852.247131-.737705.494262-1.106557.737705-7.638935 4.82459-16.572541 7.495082-25.631558 7.244262-6.423786-.179188-12.704604-1.937513-18.287704-5.119672 4.224492 3.40271 9.17372 5.790252 14.466393 6.978689 8.513115 1.954918 17.531557.984836 25.594672-2.338525z" opacity=".5" style="mix-blend-mode:screen"/>
                    <path fill="url(#u)" d="M50.835246.590164C73.534426 2.976639 87.993443 23.87582 83.131967 47.27213 78.270492 70.668443 55.936475 87.70205 33.240984 85.315574 10.545492 82.929098-3.917213 62.029918.940574 38.633607 5.79836 15.237295 28.139754-1.792623 50.835246.590164z"/>
                    <path fill="url(#v)" d="M50.532787 1.575C28.626639-.737705 7.063525 15.709426 2.37541 38.290574a43.524586 43.524586 0 0 0-.756148 5.163934c9.191804 6.639344 20.286886 10.988115 32.743033 12.297541 16.638934 1.74836 33.170902-2.213115 47.581967-10.353688 3.943033-22.072132-9.9-41.562295-31.411475-43.823361z" opacity=".2" style="mix-blend-mode:screen"/>
                    <path fill="#94512A" d="M36.693443 83.305328c-20.231558-2.128279-34.981968-19.763115-30.422951-41.625C10.829508 19.818443 31.721312 3.865574 52.937705 6.09713c17.82295 1.87377 28.25041 16.893443 29.043443 33.495492.870491-19.766803-12.430328-36.27295-32.160246-38.356967C27.840984-1.07705 6.204098 15.418033 1.50123 38.076639-3.20164 60.735246 10.8 80.97787 32.779918 83.286885a39.319666 39.319666 0 0 0 5.960656.17336c-.682377-.033196-1.364754-.081147-2.047131-.154917z" opacity=".5" style="mix-blend-mode:multiply"/>
                    <path fill="#E99855" d="M47.54877 5.163934a36.829918 36.829918 0 0 1 3.832377.19918c9.472132.995902 17.67541 5.636066 23.10123 13.068443 2.835974 3.902337 4.798478 8.36955 5.754098 13.097951 1.042885 5.163094 1.010239 10.485743-.095901 15.635656-2.100518 9.800903-7.445622 18.606744-15.170902 24.993443-7.69795 6.414344-17.070492 9.959016-26.391393 9.959016a36.885255 36.885255 0 0 1-3.836066-.19918C25.273771 80.92254 17.070492 76.278689 11.644673 68.85c-2.834262-3.914326-4.792948-8.39276-5.743034-13.131147-1.040102-5.162258-1.006201-10.483381.09959-15.631968 2.096751-9.798982 7.434871-18.60532 15.15246-24.99713C28.851638 8.67541 38.22418 5.130737 47.54877 5.130737v.033196zm0-3.684836c-20.936065.014754-40.632786 16.17418-45.136475 37.862705-4.795082 23.141804 9.49795 41.960656 31.946312 44.321312a40.573782 40.573782 0 0 0 4.219672.221311c20.939754 0 38.939754-15.513934 43.443442-37.202459C86.816803 23.536475 74.216803 4.072131 51.77582 1.711475a40.466806 40.466806 0 0 0-4.219673-.217623l-.007376-.014754z"/>
                    <path fill="url(#w)" d="M46.575 4.057377a36.65656 36.65656 0 0 1 3.87295.202869C60.019673 5.263525 68.315165 9.959016 73.8 17.468852c2.868363 3.944858 4.85353 8.461177 5.820492 13.241804 1.050863 5.220783 1.016964 10.601887-.09959 15.809016-2.126275 9.90984-7.530722 18.813727-15.340574 25.27377C56.39754 78.27787 46.92172 81.848362 37.49754 81.848362a36.745075 36.745075 0 0 1-3.880328-.20287c-9.571721-1.006966-17.863524-5.69877-23.34836-13.212294-2.86927-3.944337-4.854528-8.46086-5.820492-13.241804-1.054573-5.219183-1.02067-10.599848.09959-15.805327 2.123784-9.9098 7.52877-18.813278 15.340574-25.270082C27.663935 7.631557 37.14713 4.057377 46.57131 4.057377H46.575zM46.571311.368852C25.40287.368852 5.492213 16.705328.940574 38.633607c-4.857787 23.396311 9.590164 44.29918 32.30041 46.681967a40.322963 40.322963 0 0 0 4.263934.225c21.164754 0 41.07541-16.340164 45.62705-38.268443C87.993442 23.87582 73.534425 2.97664 50.835245.590164a41.429509 41.429509 0 0 0-4.263934-.221312z"/>
                    <path fill="#FFF" d="M31.887295 21.714344l-3.636885-.9 3.297541 1.792623.383606.87418-.896311 3.695902 1.770492-3.356557.859426-.387295 3.633197.9-3.293853-1.796312-.383606-.870492.896311-3.695901-1.770492 3.356557z"/>
                    <path fill="url(#x)" d="M50.713525.593852a40.322951 40.322951 0 0 0-4.263935-.225c-21.164754 0-41.07541 16.336476-45.627049 38.264755A44.302866 44.302866 0 0 0 0 44.49836c1.165574.82623 2.359426 1.608196 3.581557 2.345901a40.879917 40.879917 0 0 1 .844673-7.458196c2.125035-9.910193 7.53131-18.813653 15.344262-25.270082C27.553279 7.631557 37.029098 4.057377 46.453279 4.057377a36.726638 36.726638 0 0 1 3.876639.202869c9.590164 1.006967 17.867213 5.69877 23.35205 13.212295 2.867959 3.944657 4.851948 8.461159 5.816803 13.241803 1.054572 5.219184 1.020669 10.599848-.09959 15.805328-.092214.446312-.199181.885246-.306148 1.327869 1.433606-.737705 2.84754-1.504918 4.241803-2.30164C87.15246 22.868853 72.855738 2.917624 50.713525.593853z" opacity=".7"/>
                </g>
                <g transform="translate(-15 -25)">
                    <path fill="#E38E2D" d="M47.403195 64.11738l5.674361 7.456563 12.17461-3.566816-17.84897-3.889747zm23.033446 2.101524l9.406227-8.440955-10.901574-6.509945L45.699739 60.8281l24.736902 5.390803zm-7.058978-15.745322l-12.503375-1.425276-3.882485 8.165377 16.38586-6.740101zm-20.258998 12.71009l-.150904-.032886-.016352-.186902-1.134218-1.490453v-2l7.361646-13.482509 20.361226 2.321003 15.07762 9.003698-13.208396 11.852945-19.408985 5.686283-8.881637-11.67118z"/>
                    <path fill="#FFF37E" d="M47.449625 62.178392l5.627931 7.395551 12.074993-3.537631-17.702924-3.85792zm22.941384 2.081462l9.451859-8.481905-10.668087-6.370517-23.181721 9.535486 24.397949 5.316936zm-6.565112-15.735177l-12.95161-1.476371-4.021668 8.458097 16.973278-6.981726zm7.205878 18.75449l-.008294.03657-.066824-.014562-18.956355 5.553676-10.18311-13.38142 1.087074-2.28626-.004786-.054697.03828-.015746 6.241077-13.125806 20.361226 2.321003 15.07762 9.003698-13.208396 11.852945-.377512.1106z"/>
                </g>
            </g>
        </g>
    </g>
</svg>