<?xml version="1.0" encoding="UTF-8"?>
<svg width="98px" height="112px" viewBox="0 0 98 112" version="1.1" xmlns="http://www.w3.org/2000/svg" xmlns:xlink="http://www.w3.org/1999/xlink">
    <!-- Generator: Sketch 53.1 (72631) - https://sketchapp.com -->
    <title>Path Copy 6</title>
    <desc>Created with Sketch.</desc>
    <g id="design" stroke="none" stroke-width="1" fill="none" fill-rule="evenodd" fill-opacity="0.1">
        <g id="submit" transform="translate(-933.000000, -178.000000)" fill="#FFFFFF">
            <g id="background">
                <path d="M1029.90723,240.437156 C1029.54659,239.572644 1028.70503,239.008511 1027.77114,239.008511 L1002.43869,239.008511 L1002.43869,181.21557 C1002.43869,179.939499 1001.40294,178.903774 1000.12684,178.903774 L963.138231,178.903774 C961.862127,178.903774 960.826376,179.939499 960.826376,181.21557 L960.826376,239.008727 L935.396832,239.008727 C934.462944,239.008727 933.621383,239.57286 933.260744,240.432821 C932.904657,241.297334 933.098847,242.291447 933.76009,242.952672 L979.880166,289.224128 C980.314709,289.65866 980.902046,289.903774 981.516908,289.903774 C982.13177,289.903774 982.719108,289.65866 983.153651,289.228679 L1029.40788,242.957223 C1030.06912,242.295781 1030.26787,241.301885 1029.90723,240.437156 Z" id="Path-Copy-6" transform="translate(981.584997, 234.403774) rotate(-180.000000) translate(-981.584997, -234.403774) "></path>
            </g>
        </g>
    </g>
</svg>