<?xml version="1.0" encoding="UTF-8"?>
<svg width="20px" height="17px" viewBox="0 0 20 17" version="1.1" xmlns="http://www.w3.org/2000/svg" xmlns:xlink="http://www.w3.org/1999/xlink">
    <!-- Generator: sketchtool 53.1 (72631) - https://sketchapp.com -->
    <title>F59687B6-E120-4C13-91A7-3C0BC8F17399</title>
    <desc>Created with sketchtool.</desc>
    <g id="design" stroke="none" stroke-width="1" fill="none" fill-rule="evenodd">
        <g id="main" transform="translate(-566.000000, -3884.000000)" fill="#FFFFFF" fill-rule="nonzero">
            <path d="M566.353259,3892.15144 L570.961665,3893.83061 L572.745401,3899.43091 C572.859535,3899.78959 573.308802,3899.92217 573.607002,3899.68416 L576.175806,3897.63973 C576.445073,3897.42554 576.828606,3897.41486 577.110007,3897.61428 L581.743213,3900.89824 C582.062213,3901.1246 582.514147,3900.95395 582.594147,3900.57763 L585.988218,3884.63909 C586.075552,3884.22802 585.661818,3883.88509 585.260884,3884.03648 L566.347859,3891.15936 C565.881125,3891.33509 565.885192,3891.9802 566.353259,3892.15144 Z M572.457934,3892.93674 L581.464479,3887.52128 C581.626346,3887.42424 581.79288,3887.63791 581.653879,3887.76379 L574.22087,3894.50911 C573.959603,3894.74654 573.791069,3895.06428 573.743336,3895.40916 L573.490135,3897.24102 C573.456602,3897.48561 573.104668,3897.50989 573.035535,3897.27318 L572.061734,3893.93273 C571.9502,3893.55173 572.112734,3893.14475 572.457934,3892.93674 Z" id="XMLID_497_"></path>
        </g>
    </g>
</svg>