<?xml version="1.0" encoding="UTF-8"?>
<svg width="20px" height="20px" viewBox="0 0 20 20" version="1.1" xmlns="http://www.w3.org/2000/svg" xmlns:xlink="http://www.w3.org/1999/xlink">
    <!-- Generator: Sketch 53.1 (72631) - https://sketchapp.com -->
    <title>instagram</title>
    <desc>Created with Sketch.</desc>
    <g id="design" stroke="none" stroke-width="1" fill="none" fill-rule="evenodd">
        <g id="submit" transform="translate(-433.000000, -2976.000000)" fill="#FFFFFF" fill-rule="nonzero">
            <g id="instagram" transform="translate(433.000000, 2976.000000)">
                <path d="M14.5960547,0 L5.40394531,0 C2.42421875,0 0,2.42421875 0,5.40394531 L0,14.5960547 C0,17.5757812 2.42421875,20 5.40394531,20 L14.5960547,20 C17.5757812,20 20,17.5757812 20,14.5960547 L20,5.40394531 C20,2.42421875 17.5757812,0 14.5960547,0 Z M18.3842188,14.5960547 C18.3842188,16.6848438 16.6848828,18.3842188 14.5960547,18.3842188 L5.40394531,18.3842188 C3.31515625,18.3842188 1.61578125,16.6848828 1.61578125,14.5960547 L1.61578125,5.40394531 C1.61578125,3.31515625 3.31511719,1.61578125 5.40394531,1.61578125 L14.5960547,1.61578125 C16.6848437,1.61578125 18.3842187,3.31511719 18.3842187,5.40394531 L18.3842187,14.5960547 L18.3842188,14.5960547 Z" id="Shape"></path>
                <path d="M14.4760156,9.30238281 C14.3338281,8.34351562 13.8963672,7.47445312 13.2109375,6.78902344 C12.5255078,6.10363281 11.6564453,5.66613281 10.6976172,5.52398437 C10.2610547,5.45925781 9.8184375,5.45925781 9.38191406,5.52398437 C8.19691406,5.69972656 7.15132813,6.32636719 6.43769531,7.28851562 C5.7240625,8.25066406 5.42777344,9.43316406 5.60351562,10.6180859 C5.77925781,11.8030469 6.40589844,12.8486328 7.36804688,13.5623047 C8.14914063,14.1416406 9.0753125,14.4458594 10.0302734,14.4458594 C10.2516406,14.4458594 10.4746094,14.4295312 10.6975781,14.3964453 C11.8825781,14.2207031 12.9281641,13.5940625 13.6417969,12.6319141 C14.3554688,11.6698047 14.6517578,10.4873437 14.4760156,9.30238281 Z M10.4605859,12.798125 C9.70257812,12.9107031 8.94613281,12.7210547 8.330625,12.2645312 C7.71511719,11.8080078 7.31425781,11.1391016 7.201875,10.3810937 C7.08945312,9.62308594 7.27894531,8.86664062 7.73546875,8.25113281 C8.19203125,7.635625 8.86089844,7.23476562 9.61894531,7.12234375 C9.75855469,7.10164062 9.89914062,7.09128906 10.0397266,7.09128906 C10.1803125,7.09128906 10.3209375,7.10164062 10.4605469,7.12238281 C11.7195703,7.3090625 12.6909375,8.28039062 12.8776562,9.53945312 C13.1096875,11.1042187 12.0254297,12.5660938 10.4605859,12.798125 Z" id="Shape"></path>
                <path d="M15.6269141,4.37308594 C15.4764453,4.22265625 15.2682031,4.13644531 15.055625,4.13644531 C14.8430469,4.13644531 14.6348047,4.22261719 14.4843359,4.37308594 C14.3339062,4.52355469 14.2476953,4.73144531 14.2476953,4.944375 C14.2476953,5.15730469 14.3339062,5.36519531 14.4843359,5.51566406 C14.6348047,5.66609375 14.8430469,5.75230469 15.055625,5.75230469 C15.2682031,5.75230469 15.4764453,5.66613281 15.6269141,5.51566406 C15.7773437,5.36519531 15.8635547,5.15695313 15.8635547,4.944375 C15.8635547,4.73175781 15.7773437,4.52351562 15.6269141,4.37308594 Z" id="Path"></path>
            </g>
        </g>
    </g>
</svg>