<?xml version="1.0" encoding="UTF-8"?>
<svg width="13px" height="13px" viewBox="0 0 13 13" version="1.1" xmlns="http://www.w3.org/2000/svg" xmlns:xlink="http://www.w3.org/1999/xlink">
    <!-- Generator: Sketch 53.1 (72631) - https://sketchapp.com -->
    <title>filter</title>
    <desc>Created with Sketch.</desc>
    <g id="Page-1" stroke="none" stroke-width="1" fill="none" fill-rule="evenodd">
        <g id="ranking_mob" transform="translate(-130.000000, -398.000000)" fill="#5A3EC4" fill-rule="nonzero">
            <g id="Group-4" transform="translate(105.000000, 381.000000)">
                <g id="filter" transform="translate(25.000000, 17.000000)">
                    <path d="M12.9360643,0.312861598 C12.8576082,0.123487329 12.6727953,0 12.4678363,0 L0.506847953,0 C0.301863548,0 0.117050682,0.123487329 0.0385945419,0.312861598 C-0.0398615984,0.502261209 0.00349707602,0.720245614 0.148448343,0.865196881 L4.73972904,5.45647758 L4.73972904,12.4678363 C4.73972904,12.6728207 4.86321637,12.8576335 5.05261598,12.9360897 C5.24206628,13.0145458 5.46005068,12.9711365 5.60495127,12.8262359 L8.08650682,10.3447057 C8.18153606,10.2496764 8.23492982,10.1207407 8.23492982,9.98633138 L8.23492982,5.45647758 L12.8262105,0.865196881 C12.9711618,0.720245614 13.0145205,0.502261209 12.9360643,0.312861598 Z M7.3697076,4.88817739 C7.27467836,4.98320663 7.2212846,5.1121423 7.2212846,5.24655166 L7.2212846,9.77635478 L5.75337427,11.2442398 L5.75337427,5.24655166 C5.75337427,5.1121423 5.69998051,4.98320663 5.60495127,4.88817739 L1.7304191,1.01364522 L11.2442651,1.01364522 L7.3697076,4.88817739 Z" id="Shape"></path>
                </g>
            </g>
        </g>
    </g>
</svg>