<?xml version="1.0" encoding="UTF-8"?>
<svg width="14px" height="13px" viewBox="0 0 14 13" version="1.1" xmlns="http://www.w3.org/2000/svg" xmlns:xlink="http://www.w3.org/1999/xlink">
    <!-- Generator: Sketch 53.1 (72631) - https://sketchapp.com -->
    <title>like (1)</title>
    <desc>Created with Sketch.</desc>
    <g id="design" stroke="none" stroke-width="1" fill="none" fill-rule="evenodd">
        <g id="main" transform="translate(-109.000000, -538.000000)" fill="#FFFFFF" fill-rule="nonzero">
            <g id="like-(1)" transform="translate(109.000000, 538.000000)">
                <path d="M2.20836179,4.15513821 L0.441682927,4.15513821 C0.198804878,4.15513821 0,4.35293902 0,4.59679472 L0,12.5469024 C0,12.7906524 0.197932927,12.9885061 0.441682927,12.9885061 L2.20836179,12.9885061 C2.45211179,12.9885061 2.65004472,12.790626 2.65004472,12.5469024 L2.65004472,4.59679472 C2.65004472,4.35293902 2.45121341,4.15513821 2.20836179,4.15513821 Z" id="Path"></path>
                <path d="M12.4257276,4.15513821 C12.3545976,4.14308943 9.0240874,4.15513821 9.0240874,4.15513821 L9.48928659,2.886 C9.81027033,2.00945122 9.60245528,0.671058943 8.71182317,0.195237805 C8.42183333,0.0402947154 8.01666667,-0.0375203252 7.69000203,0.0447073171 C7.50266463,0.0918455285 7.33802439,0.215873984 7.23989024,0.382046748 C7.12703862,0.573162602 7.13869106,0.79625 7.09850203,1.00816057 C6.99658943,1.54565244 6.74261382,2.05669512 6.34931098,2.44027439 C5.6635874,3.10906098 3.53341057,5.03845122 3.53341057,5.03845122 L3.53341057,12.1052197 L10.8946077,12.1052195 C11.8878923,12.1058008 12.5388435,10.9965732 12.048939,10.1301443 C12.6329085,9.75613008 12.8326382,8.96833537 12.490622,8.36346545 C13.0746179,7.98945122 13.2743211,7.2016565 12.9323049,6.59678659 C13.9399106,5.95146341 13.6030467,4.35426016 12.4257276,4.15513821 Z" id="Path"></path>
            </g>
        </g>
    </g>
</svg>