<?xml version="1.0" encoding="UTF-8"?>
<svg width="10px" height="16px" viewBox="0 0 10 16" version="1.1" xmlns="http://www.w3.org/2000/svg" xmlns:xlink="http://www.w3.org/1999/xlink">
    <!-- Generator: Sketch 53.1 (72631) - https://sketchapp.com -->
    <title>left-arrow</title>
    <desc>Created with Sketch.</desc>
    <g id="design" stroke="none" stroke-width="1" fill="none" fill-rule="evenodd">
        <g id="DAPP-INNER---2-version" transform="translate(-419.000000, -780.000000)" fill="#3E3B4A" fill-rule="nonzero">
            <g id="left-arrow" transform="translate(419.000000, 780.000000)">
                <path d="M3.15863763,8.00338211 L9.14419861,2.01756098 C9.30901162,1.85313821 9.39967828,1.63330081 9.39967828,1.39889431 C9.39967828,1.16435772 9.30901162,0.944650407 9.14419861,0.77996748 L8.6197108,0.255739837 C8.45515796,0.090796748 8.23519048,0 8.00078397,0 C7.76637747,0 7.54667015,0.090796748 7.38198722,0.255739837 L0.255222997,7.38237398 C0.0898896639,7.54757724 -0.000646921454,7.7683252 3.48504976e-06,8.00299187 C-0.000646921454,8.23869919 0.0897595826,8.45918699 0.255222997,8.62452033 L7.37535308,15.7442602 C7.54003601,15.9092033 7.75974332,16 7.99427991,16 C8.22868641,16 8.44839373,15.9092033 8.61320674,15.7442602 L9.13756446,15.2200325 C9.47876771,14.8788293 9.47876771,14.3233821 9.13756446,13.9823089 L3.15863763,8.00338211 Z" id="Path"></path>
            </g>
        </g>
    </g>
</svg>