<?xml version="1.0" encoding="UTF-8"?>
<svg width="21px" height="21px" viewBox="0 0 21 21" version="1.1" xmlns="http://www.w3.org/2000/svg" xmlns:xlink="http://www.w3.org/1999/xlink">
    <!-- Generator: Sketch 53.1 (72631) - https://sketchapp.com -->
    <title>Group</title>
    <desc>Created with Sketch.</desc>
    <g id="design" stroke="none" stroke-width="1" fill="none" fill-rule="evenodd">
        <g id="submit" transform="translate(-757.000000, -3113.000000)" fill="#FFFFFF" fill-rule="nonzero">
            <g id="Group" transform="translate(757.000000, 3113.000000)">
                <path d="M7.57494152,5.25 L2.05045969,5.25 C0.917870682,5.25 0,6.2292156 0,7.4375 C0,8.6457844 0.917870682,9.625 2.05045969,9.625 L7.57454018,9.625 C8.70712919,9.625 9.62499987,8.6457844 9.62499987,7.4375 C9.62540121,6.22964377 8.70712919,5.25 7.57494152,5.25 L7.57494152,5.25 Z" id="Path"></path>
                <path d="M18.0749416,10.5 L12.5504597,10.5 C11.4178707,10.5 10.5,11.4792156 10.5,12.6875 C10.5,13.8957844 11.4178707,14.875 12.5504597,14.875 L18.0745403,14.875 C19.2071293,14.875 20.125,13.8957844 20.125,12.6875 C20.125,11.4792156 19.2071293,10.5 18.0749416,10.5 L18.0749416,10.5 Z" id="Path"></path>
                <path d="M12.6875,9.625 C13.8957844,9.625 14.875,8.70712931 14.875,7.57454028 L14.875,2.05045972 C14.875,0.917870695 13.8957844,0 12.6875,0 C11.4792156,0 10.5,0.917870695 10.5,2.05045972 L10.5,7.57454028 C10.5,8.70712931 11.4796438,9.625 12.6875,9.625 Z" id="Path"></path>
                <path d="M7.4375,11.375 C6.2292156,11.375 5.25,12.2928707 5.25,13.4254597 L5.25,18.9495403 C5.25,20.0821293 6.2292156,21 7.4375,21 C8.6457844,21 9.625,20.0821293 9.625,18.9495403 L9.625,13.4250584 C9.625,12.2928707 8.64535623,11.375 7.4375,11.375 L7.4375,11.375 Z" id="Path"></path>
                <path d="M0,12.6875 C0,13.8954852 0.979514812,14.875 2.1875,14.875 C3.39548519,14.875 4.375,13.8954852 4.375,12.6875 L4.375,10.5 L2.1875,10.5 C0.979514812,10.5 0,11.4795148 0,12.6875 Z" id="Path"></path>
                <path d="M7.4375,0 C6.22951481,0 5.25,0.979514812 5.25,2.1875 C5.25,3.39548519 6.22951481,4.375 7.4375,4.375 L9.625,4.375 L9.625,2.1875 C9.625,0.979099411 8.64548519,1.47579969e-15 7.4375,1.47579969e-15 L7.4375,0 Z" id="Path"></path>
                <path d="M20.125,7.4375 C20.125,6.22951481 19.1454852,5.25 17.9375,5.25 C16.7295148,5.25 15.75,6.22951481 15.75,7.4375 L15.75,9.625 L17.9375,9.625 C19.1454852,9.625 20.125,8.64590059 20.125,7.4375 Z" id="Path"></path>
                <path d="M12.6875,15.75 L10.5,15.75 L10.5,17.9375 C10.5,19.1454852 11.4795148,20.125 12.6875,20.125 C13.8954852,20.125 14.875,19.1454852 14.875,17.9375 C14.875,16.7295148 13.8959006,15.75 12.6875,15.75 Z" id="Path"></path>
            </g>
        </g>
    </g>
</svg>