<?xml version="1.0" encoding="UTF-8"?>
<svg width="14px" height="13px" viewBox="0 0 14 13" version="1.1" xmlns="http://www.w3.org/2000/svg" xmlns:xlink="http://www.w3.org/1999/xlink">
    <!-- Generator: sketchtool 53.1 (72631) - https://sketchapp.com -->
    <title>F8050254-ADBC-406D-A905-9CA4F4360193</title>
    <desc>Created with sketchtool.</desc>
    <g id="design" stroke="none" stroke-width="1" fill="none" fill-rule="evenodd">
        <g id="main" transform="translate(-1309.000000, -1503.000000)" fill="#FEC30C">
            <g id="top-dapps" transform="translate(85.000000, 1264.000000)">
                <g id="Group-23-Copy" transform="translate(1215.000000, 230.000000)">
                    <path d="M15.7673294,19.6223222 L12.7822393,21.1916769 C12.537817,21.3201773 12.2355034,21.2262041 12.107003,20.9817818 C12.0558335,20.8844515 12.0381762,20.7729675 12.0567646,20.6645887 L12.6268661,17.340642 C12.654685,17.1784449 12.6009108,17.0129448 12.4830678,16.8980762 L10.0680791,14.5440441 C9.87033732,14.3512935 9.86629117,14.0347369 10.0590418,13.8369951 C10.1357961,13.7582533 10.2363673,13.7070097 10.3451858,13.6911974 L13.682618,13.2062401 C13.8454731,13.1825759 13.9862559,13.0802912 14.0590869,12.9327195 L15.551632,9.90849288 C15.6738431,9.66086605 15.973656,9.55919655 16.2212829,9.68140769 C16.3198892,9.73007281 16.3997029,9.80988657 16.448368,9.90849288 L17.9409131,12.9327195 C18.0137441,13.0802912 18.1545269,13.1825759 18.317382,13.2062401 L21.6548142,13.6911974 C21.9280866,13.7309062 22.1174274,13.9846277 22.0777186,14.2579001 C22.0619063,14.3667186 22.0106627,14.4672898 21.9319209,14.5440441 L19.5169322,16.8980762 C19.3990892,17.0129448 19.345315,17.1784449 19.3731339,17.340642 L19.9432354,20.6645887 C19.9899159,20.9367569 19.807122,21.1952349 19.5349538,21.2419154 C19.426575,21.2605038 19.3150909,21.2428464 19.2177607,21.1916769 L16.2326706,19.6223222 C16.0870086,19.5457431 15.9129914,19.5457431 15.7673294,19.6223222 Z" id="Star"></path>
                </g>
            </g>
        </g>
    </g>
</svg>