<?xml version="1.0" encoding="UTF-8"?>
<svg width="25px" height="17px" viewBox="0 0 25 17" version="1.1" xmlns="http://www.w3.org/2000/svg" xmlns:xlink="http://www.w3.org/1999/xlink">
    <!-- Generator: sketchtool 53.1 (72631) - https://sketchapp.com -->
    <title>5DCE61CA-2ECD-4EF6-826B-3749F80E407B</title>
    <desc>Created with sketchtool.</desc>
    <g id="design" stroke="none" stroke-width="1" fill="none" fill-rule="evenodd">
        <g id="main" transform="translate(-716.000000, -3884.000000)" fill="#FFFFFF" fill-rule="nonzero">
            <path d="M739.9375,3885.63818 C739.259375,3884.44509 738.523438,3884.22564 737.025,3884.14218 C735.528125,3884.04173 731.764063,3884 728.503125,3884 C725.235937,3884 721.470312,3884.04173 719.975,3884.14064 C718.479687,3884.22564 717.742188,3884.44355 717.057812,3885.63818 C716.359375,3886.82973 716,3888.88209 716,3892.49536 C716,3892.49845 716,3892.5 716,3892.5 C716,3892.50309 716,3892.50464 716,3892.50464 L716,3892.50773 C716,3896.10555 716.359375,3898.17336 717.057812,3899.35255 C717.742188,3900.54564 718.478125,3900.762 719.973438,3900.86245 C721.470312,3900.949 725.235937,3901 728.503125,3901 C731.764063,3901 735.528125,3900.949 737.026562,3900.864 C738.525,3900.76355 739.260937,3900.54718 739.939062,3899.35409 C740.64375,3898.17491 741,3896.10709 741,3892.50927 C741,3892.50927 741,3892.50464 741,3892.50155 C741,3892.50155 741,3892.49845 741,3892.49691 C741,3888.88209 740.64375,3886.82973 739.9375,3885.63818 Z M725.375,3897.13636 L725.375,3887.86364 L733.1875,3892.5 L725.375,3897.13636 Z" id="Shape"></path>
        </g>
    </g>
</svg>