<?xml version="1.0" encoding="UTF-8"?>
<svg width="22px" height="19px" viewBox="0 0 22 19" version="1.1" xmlns="http://www.w3.org/2000/svg" xmlns:xlink="http://www.w3.org/1999/xlink">
    <!-- Generator: Sketch 53.1 (72631) - https://sketchapp.com -->
    <title>discord</title>
    <desc>Created with Sketch.</desc>
    <g id="design" stroke="none" stroke-width="1" fill="none" fill-rule="evenodd">
        <g id="submit" transform="translate(-432.000000, -3114.000000)" fill="#FFFFFF" fill-rule="nonzero">
            <g id="discord" transform="translate(432.000000, 3114.000000)">
                <path d="M20.0681026,1.1868849 L19.9963027,1.00351287 C19.994201,0.998250791 19.9901679,0.993903856 19.9849988,0.991558798 L19.8067488,0.910053763 C18.3393954,0.238967043 16.2696387,0.0733831298 14.4384008,0 L12.3758582,0 C12.3525687,0 12.3454683,0.0316868698 12.3664288,0.0418106531 L16.6030765,2.08698647 C16.6269909,2.09848297 16.6137556,2.13428799 16.5880803,2.1275388 C14.6827136,1.62649732 12.7578632,1.37288797 10.8571543,1.37288797 C8.9625803,1.37288797 7.04397829,1.62495301 5.14446233,2.12279149 C5.11861665,2.12954068 5.10549499,2.09333528 5.12975017,2.08206757 L9.51505315,0.0420394391 C9.53629774,0.0321444419 9.52936769,0.000114393032 9.50590775,0.000114393032 L7.27596463,0.000114393032 C5.44478353,0.0734975228 3.37491325,0.239081436 1.9076167,0.910168156 L1.72936667,0.991673191 C1.72419753,0.994018249 1.72010766,0.998307987 1.71806273,1.00362726 L1.64626284,1.18699929 C0.144600048,5.0183651 -0.282109398,11.5226957 0.172945098,15.5974327 L0.196802655,15.8111189 L0.365623272,15.9429568 C2.71150276,17.774618 5.84826026,18.7163587 7.82156424,18.9662503 L8.07672649,18.9985663 C8.1596599,19.0090904 8.23890107,18.9608166 8.26821178,18.8819998 L9.5525436,15.4269299 C9.59259021,15.3192288 9.52442576,15.2016328 9.4116136,15.1837875 L9.01750948,15.1214433 C7.6432574,14.9040393 5.69619674,14.3277272 4.05076376,12.8251747 C4.01565907,12.7930875 4.04951408,12.7354334 4.09393458,12.7520204 C4.2276505,12.8020674 4.37511293,12.8600646 4.52694923,12.9197778 C4.89901351,13.0661437 5.28380183,13.2174856 5.53487421,13.277542 C7.29942456,13.6999955 9.08879813,13.9142536 10.8570407,13.9142536 L10.8570407,13.8825667 L10.860733,13.8825667 L10.8609602,13.9142536 C12.6256241,13.9142536 14.4149409,13.7000527 16.1793209,13.277542 C16.4305068,13.2174285 16.8152952,13.0661437 17.1874162,12.9197206 C17.3391389,12.8600074 17.4865446,12.8020102 17.6202037,12.7520204 C17.6646242,12.7354334 17.6984792,12.7931447 17.6633745,12.8251747 C16.0234515,14.3210924 14.0739483,14.8959174 12.6966288,15.1131498 L12.3026383,15.1752652 C12.1898261,15.1930533 12.121548,15.3105349 12.1615379,15.418236 L13.4460969,18.8818282 C13.4753508,18.9607022 13.5546488,19.0090333 13.6375822,18.9985091 L13.8929716,18.9661931 C15.866162,18.7163015 19.0026923,17.7745608 21.3486286,15.9428996 L21.5174492,15.8110617 L21.5413068,15.5973755 C21.9964181,11.5226957 21.5697086,5.01830791 20.0681026,1.1868849 Z M6.66526798,10.5935383 C5.07004948,10.7367584 3.73919543,9.39681559 3.8812615,7.79056583 C3.99021101,6.55929644 4.97484646,5.56773764 6.19771667,5.45792033 C7.79293517,5.31470025 9.12378922,6.65464303 8.98172315,8.26089278 C8.87271683,9.49216218 7.88808138,10.483721 6.66526798,10.5935383 Z M15.5167624,10.5935383 C13.9215439,10.7367584 12.5906899,9.39681559 12.7327559,7.79056583 C12.8417054,6.55929644 13.8263409,5.56773764 15.0492111,5.45792033 C16.6443728,5.31470025 17.9752837,6.65464303 17.8332176,8.26089278 C17.7242113,9.49216218 16.7395758,10.483721 15.5167624,10.5935383 Z" id="Shape"></path>
            </g>
        </g>
    </g>
</svg>