<?xml version="1.0" encoding="UTF-8"?>
<svg width="13px" height="10px" viewBox="0 0 13 10" version="1.1" xmlns="http://www.w3.org/2000/svg" xmlns:xlink="http://www.w3.org/1999/xlink">
    <!-- Generator: Sketch 53.1 (72631) - https://sketchapp.com -->
    <title>exchange-arrows</title>
    <desc>Created with Sketch.</desc>
    <g id="design" stroke="none" stroke-width="1" fill="none" fill-rule="evenodd">
        <g id="main" transform="translate(-403.000000, -1410.000000)" fill="#3E3B4A" fill-rule="nonzero">
            <g id="exchange-arrows" transform="translate(403.000000, 1410.000000)">
                <path d="M0.232114725,3.40905586 L10.2144962,3.40905586 L10.2144962,4.77270805 C10.2144962,4.83427613 10.2373647,4.88746101 10.2832795,4.93251143 C10.3292958,4.97753698 10.3837227,5 10.4465856,5 C10.514327,5 10.5699735,4.97873103 10.6133474,4.93609357 L12.9348757,2.66337309 C12.9782496,2.62076051 13,2.56628208 13,2.50006219 C13,2.43371792 12.9782496,2.37921462 12.9346979,2.33670154 L10.6206653,0.0710458365 C10.5625794,0.0236321935 10.5044936,0 10.4464077,0 C10.3787679,0 10.323096,0.0212938502 10.2796459,0.0638815505 C10.2361705,0.106543879 10.2144454,0.1609228 10.2144454,0.227242198 L10.2144454,1.59089439 L0.232114725,1.59089439 C0.169251909,1.59089439 0.114850417,1.61335741 0.0689102501,1.65835808 C0.0229700834,1.70335876 0,1.75659338 0,1.81813659 L0,3.18178878 C0,3.24333199 0.022944674,3.29659149 0.0689102501,3.34156729 C0.114875826,3.38654308 0.169251909,3.40905586 0.232114725,3.40905586 Z" id="Path"></path>
                <path d="M12.7679116,6.59101538 L2.78567073,6.59101538 L2.78567073,5.22725237 C2.78567073,5.16570641 2.76267532,5.11244452 2.71676075,5.06746671 C2.67079535,5.02246403 2.61636866,5 2.5535315,5 C2.48576494,5 2.43019483,5.0212948 2.38666873,5.06388441 L0.0652510437,7.33658228 C0.0218265758,7.37932115 0,7.43365276 0,7.50007463 C0,7.56154596 0.0217249386,7.61371326 0.0652510437,7.65617848 L2.37945249,9.92907537 C2.4375127,9.97639163 2.49554751,10 2.55360773,10 C2.61644489,10 2.67087158,9.97753597 2.71681156,9.93265767 C2.76272614,9.88755548 2.78572155,9.83441798 2.78572155,9.7727725 L2.78572155,8.409109 L12.7679116,8.409109 C12.8308758,8.409109 12.8851246,8.38674448 12.9312171,8.34169204 C12.9771316,8.2966396 13,8.24345235 13,8.18180687 L13,6.81814337 C13,6.75657253 12.9770554,6.70338528 12.9312171,6.65843234 C12.8851246,6.61347941 12.8308504,6.59101538 12.7679116,6.59101538 Z" id="Path"></path>
            </g>
        </g>
    </g>
</svg>