<?xml version="1.0" encoding="UTF-8"?>
<svg width="9px" height="17px" viewBox="0 0 9 17" version="1.1" xmlns="http://www.w3.org/2000/svg" xmlns:xlink="http://www.w3.org/1999/xlink">
    <!-- Generator: sketchtool 53.1 (72631) - https://sketchapp.com -->
    <title>3C7E2565-76C8-4687-BA0A-D3205523F0D1</title>
    <desc>Created with sketchtool.</desc>
    <g id="design" stroke="none" stroke-width="1" fill="none" fill-rule="evenodd">
        <g id="main" transform="translate(-770.000000, -3884.000000)" fill="#FFFFFF" fill-rule="nonzero">
            <path d="M778.661086,3884.00354 L776.502396,3884 C774.077181,3884 772.5099,3885.64211 772.5099,3888.18372 L772.5099,3890.1127 L770.339433,3890.1127 C770.151879,3890.1127 770,3890.26798 770,3890.45952 L770,3893.25438 C770,3893.44592 770.152052,3893.60102 770.339433,3893.60102 L772.5099,3893.60102 L772.5099,3900.65336 C772.5099,3900.8449 772.661779,3901 772.849333,3901 L775.681175,3901 C775.868729,3901 776.020608,3900.84472 776.020608,3900.65336 L776.020608,3893.60102 L778.558391,3893.60102 C778.745945,3893.60102 778.897824,3893.44592 778.897824,3893.25438 L778.898863,3890.45952 C778.898863,3890.36755 778.863014,3890.27948 778.799457,3890.21439 C778.7359,3890.14931 778.64931,3890.1127 778.559256,3890.1127 L776.020608,3890.1127 L776.020608,3888.47748 C776.020608,3887.69153 776.204006,3887.29254 777.206546,3887.29254 L778.66074,3887.29201 C778.848121,3887.29201 779,3887.13673 779,3886.94537 L779,3884.35018 C779,3884.15899 778.848294,3884.00389 778.661086,3884.00354 Z" id="Path"></path>
        </g>
    </g>
</svg>