<?xml version="1.0" encoding="UTF-8"?>
<svg width="44px" height="40px" viewBox="0 0 44 40" version="1.1" xmlns="http://www.w3.org/2000/svg" xmlns:xlink="http://www.w3.org/1999/xlink">
    <!-- Generator: Sketch 53.1 (72631) - https://sketchapp.com -->
    <title>upload</title>
    <desc>Created with Sketch.</desc>
    <g id="design" stroke="none" stroke-width="1" fill="none" fill-rule="evenodd">
        <g id="submit" transform="translate(-481.000000, -704.000000)" fill="#3E3B4A" fill-rule="nonzero">
            <g id="upload" transform="translate(481.000000, 704.000000)">
                <path d="M36.302521,-5.2066661e-14 L6.72268908,-5.2066661e-14 C3.01569067,-5.2066661e-14 0,3.01569067 0,6.72268908 L0,30.2521008 C0,33.9590992 3.01569067,36.9747899 6.72268908,36.9747899 L29.6638655,36.9747899 C30.5921744,36.9747899 31.3445378,36.2224265 31.3445378,35.2941176 C31.3445378,34.3658088 30.5921744,33.6134454 29.6638655,33.6134454 L23.4736082,33.6134454 L19.609375,28.6003151 L31.8549764,13.0248818 L40.0984769,22.1359638 C40.5646008,22.6516545 41.3002232,22.826615 41.9488576,22.5768119 C42.5971639,22.3266807 43.0252101,21.7033219 43.0252101,21.0084034 L43.0252101,6.72268908 C43.0252101,3.01569067 40.0095194,-5.68434189e-14 36.302521,-5.2066661e-14 Z M39.6638655,16.6458771 L33.011095,9.29260765 C32.6788997,8.92528891 32.2009585,8.72242647 31.7066045,8.74048059 C31.2119223,8.75787815 30.7497374,8.99225311 30.4434743,9.38156513 L17.4924501,25.8541229 L13.0957852,20.1503413 C12.7777049,19.7377232 12.2859769,19.4957983 11.7647059,19.4957983 C11.7643776,19.4957983 11.7640494,19.4957983 11.7637211,19.4957983 C11.2424501,19.4961266 10.7503939,19.7383797 10.4326418,20.1516545 L6.73384975,24.9599528 C6.16793597,25.6959034 6.30547529,26.7509192 7.04109765,27.3168329 C7.77704832,27.8830751 8.83206403,27.7452075 9.39830622,27.009585 L11.7660189,23.9311975 L19.2295824,33.6134454 L6.72268908,33.6134454 C4.86935395,33.6134454 3.36134454,32.105436 3.36134454,30.2521008 L3.36134454,6.72268908 C3.36134454,4.86935395 4.86935395,3.36134454 6.72268908,3.36134454 L36.302521,3.36134454 C38.1558561,3.36134454 39.6638655,4.86935395 39.6638655,6.72268908 L39.6638655,16.6458771 Z" id="Shape"></path>
                <path d="M11.7647059,6.05042017 C8.98437496,6.05042017 6.72268908,8.31210605 6.72268908,11.092437 C6.72268908,13.8727679 8.98437496,16.1344538 11.7647059,16.1344538 C14.5450368,16.1344538 16.8067227,13.8727679 16.8067227,11.092437 C16.8067227,8.31210605 14.5450368,6.05042017 11.7647059,6.05042017 Z M11.7647059,12.7731092 C10.8380383,12.7731092 10.0840336,12.0191045 10.0840336,11.092437 C10.0840336,10.1657694 10.8380383,9.41176471 11.7647059,9.41176471 C12.6913734,9.41176471 13.4453782,10.1657694 13.4453782,11.092437 C13.4453782,12.0191045 12.6913734,12.7731092 11.7647059,12.7731092 Z" id="Shape"></path>
                <path d="M39.3677783,25.457261 C39.3628545,25.4523371 39.3579307,25.447085 39.3530068,25.4421613 C38.5586266,24.6422007 37.5019696,24.2016807 36.3773634,24.2016807 C35.2560399,24.2016807 34.2023371,24.6395746 33.4089417,25.4349396 L30.1641282,28.6354386 C29.5033482,29.2870273 29.4961266,30.3512343 30.1480436,31.0120142 C30.7996324,31.6727941 31.8638393,31.680344 32.5246192,31.028427 L34.6966912,28.8862264 L34.6966912,38.3193277 C34.6966912,39.2476366 35.4490546,40 36.3773634,40 C37.3056723,40 38.0580357,39.2476366 38.0580357,38.3193277 L38.0580357,28.9374344 L40.1368829,31.0848871 C40.4664522,31.4256171 40.9053309,31.5966387 41.3445378,31.5966387 C41.7656907,31.5966387 42.1871718,31.4394039 42.5134585,31.1236213 C43.1804753,30.4779412 43.1975446,29.4140625 42.5518645,28.7470457 L39.3677783,25.457261 Z" id="Path"></path>
            </g>
        </g>
    </g>
</svg>