<?xml version="1.0" encoding="UTF-8"?>
<svg width="25px" height="25px" viewBox="0 0 25 25" version="1.1" xmlns="http://www.w3.org/2000/svg" xmlns:xlink="http://www.w3.org/1999/xlink">
    <!-- Generator: Sketch 53.1 (72631) - https://sketchapp.com -->
    <title>smiling-emoticon-square-face</title>
    <desc>Created with Sketch.</desc>
    <g id="design" stroke="none" stroke-width="1" fill="none" fill-rule="evenodd">
        <g id="blog-inner" transform="translate(-223.000000, -3575.000000)" fill="#3E3B4A" fill-rule="nonzero">
            <g id="smiling-emoticon-square-face" transform="translate(223.000000, 3575.000000)">
                <path d="M21.1556075,3.62570093 C16.3219626,-1.20841121 8.45771028,-1.20841121 3.625,3.62453271 C-1.20864486,8.45747664 -1.20817757,16.3219626 3.62546729,21.1558411 C8.45771028,25.9885514 16.3219626,25.9885514 21.1551402,21.1549065 C25.9883178,16.3219626 25.9880841,8.45794393 21.1556075,3.62570093 Z M19.8030374,19.803271 C15.7156542,23.8906542 9.06471963,23.8911215 4.9771028,19.8037383 C0.888785047,15.7156542 0.889252336,9.06401869 4.9771028,4.97663551 C9.06448598,0.889485981 15.7151869,0.889018692 19.8035047,4.9771028 C23.8908879,9.06448598 23.8904206,15.7161215 19.8030374,19.803271 Z M7.76635514,9.03528037 C7.76635514,8.23528037 8.41518692,7.5864486 9.21518692,7.5864486 C10.0149533,7.5864486 10.663785,8.23504673 10.663785,9.03528037 C10.663785,9.83574766 10.0149533,10.4843458 9.21518692,10.4843458 C8.41518692,10.4843458 7.76635514,9.83574766 7.76635514,9.03528037 Z M14.3357477,9.03528037 C14.3357477,8.23528037 14.9850467,7.5864486 15.7850467,7.5864486 C16.5848131,7.5864486 17.2336449,8.23504673 17.2336449,9.03528037 C17.2336449,9.83574766 16.5850467,10.4843458 15.7850467,10.4843458 C14.9850467,10.4843458 14.3357477,9.83574766 14.3357477,9.03528037 Z M17.7609813,14.9691589 C16.8630841,17.0455607 14.7602804,18.3871495 12.4042056,18.3871495 C9.99742991,18.3871495 7.88224299,17.038785 7.01542056,14.9518692 C6.86682243,14.5946262 7.03621495,14.1843458 7.39392523,14.0357477 C7.4817757,13.9995327 7.5728972,13.982243 7.66261682,13.982243 C7.93738318,13.982243 8.19813084,14.1446262 8.31004673,14.414486 C8.9588785,15.9766355 10.5658879,16.985514 12.4042056,16.985514 C14.2009346,16.985514 15.7985981,15.9759346 16.4742991,14.4128505 C16.6280374,14.0574766 17.0406542,13.8936916 17.3957944,14.0476636 C17.7509346,14.2016355 17.9147196,14.6140187 17.7609813,14.9691589 Z" id="Shape"></path>
            </g>
        </g>
    </g>
</svg>