<?xml version="1.0" encoding="UTF-8"?>
<svg width="21px" height="17px" viewBox="0 0 21 17" version="1.1" xmlns="http://www.w3.org/2000/svg" xmlns:xlink="http://www.w3.org/1999/xlink">
    <!-- Generator: Sketch 53.1 (72631) - https://sketchapp.com -->
    <title>reddit (1)</title>
    <desc>Created with Sketch.</desc>
    <g id="design" stroke="none" stroke-width="1" fill="none" fill-rule="evenodd">
        <g id="main" transform="translate(-805.000000, -3884.000000)" fill="#FFFFFF" fill-rule="nonzero">
            <g id="reddit-(1)" transform="translate(805.000000, 3884.000000)">
                <polygon id="Path" points="7.17505995 9.81646954 7.17505995 9.81966954 7.82733813 9.81966954"></polygon>
                <polygon id="Path" points="13.6978417 9.81646954 13.6978417 9.81966954 14.3501199 9.81966954"></polygon>
                <path d="M20.9642206,7.83227098 C20.9642206,6.39334532 19.7940336,5.22315827 18.3551079,5.22315827 C17.7797986,5.22315827 17.2331894,5.41101439 16.7870312,5.7515036 C15.3311463,4.74047242 13.4238849,4.13776739 11.3952998,3.98513429 L12.4898225,1.41776739 L15.6742446,2.16136451 C15.776,3.14630456 16.6004796,3.91860192 17.6115108,3.91860192 C18.6903789,3.91860192 19.5683453,3.04063549 19.5683453,1.96176739 C19.5683453,0.882899281 18.6903789,0.00493285372 17.6115108,0.00493285372 C16.9279233,0.00493285372 16.3265228,0.358467626 15.9769017,0.892031175 L12.2550024,0.0218920863 C11.9392998,-0.0498585132 11.6301199,0.110601918 11.5048825,0.401517986 L9.99159712,3.94991127 C7.801247,4.02557554 5.71395683,4.6426307 4.13805276,5.71758513 C3.70885372,5.39927338 3.17659472,5.22315827 2.60911271,5.22315827 C1.17018705,5.22315827 0,6.39334532 0,7.83227098 C0,8.78590168 0.520517986,9.64821343 1.31890647,10.090458 C1.30847002,10.205259 1.30455635,10.3226691 1.30455635,10.4413837 C1.30455635,14.0380456 5.40086331,16.9641655 10.4364508,16.9641655 C15.4707338,16.9641655 19.5683453,14.0380456 19.5683453,10.4413837 C19.5683453,10.3396283 19.5644317,10.2391775 19.5579089,10.1387266 C20.4084796,9.70561391 20.9642206,8.82242926 20.9642206,7.83227098 Z M17.6115108,1.30948921 C17.9702638,1.30948921 18.263789,1.60170983 18.263789,1.96176739 C18.263789,2.32182494 17.9702638,2.61404556 17.6115108,2.61404556 C17.2527578,2.61404556 16.9592326,2.32182494 16.9592326,1.96176739 C16.9592326,1.60170983 17.2527578,1.30948921 17.6115108,1.30948921 Z M5.8705036,9.78910552 C5.8705036,9.07029496 6.4562494,8.48454916 7.17505995,8.48454916 C7.8938705,8.48454916 8.47961631,9.07029496 8.47961631,9.78910552 C8.47961631,10.5092206 7.8938705,11.0936619 7.17505995,11.0936619 C6.4562494,11.0936619 5.8705036,10.5092206 5.8705036,9.78910552 Z M13.4486715,14.1163189 C12.5485276,14.7672926 11.4918369,15.0934317 10.4364508,15.0934317 C9.38106475,15.0934317 8.3243741,14.7672926 7.42423022,14.1163189 C7.13200959,13.9049808 7.06678177,13.4966547 7.2781199,13.2057386 C7.48945803,12.9148225 7.89778417,12.8495947 8.18870024,13.0596283 C9.53369784,14.0315228 11.3392038,14.0341319 12.6842014,13.0596283 C12.9751175,12.8495947 13.3821391,12.9122134 13.5947818,13.2057386 C13.8061199,13.4979592 13.7395875,13.9049808 13.4486715,14.1163189 Z M13.6978417,11.0936619 C12.9777266,11.0936619 12.3932854,10.5092206 12.3932854,9.78910552 C12.3932854,9.07029496 12.9777266,8.48454916 13.6978417,8.48454916 C14.4179568,8.48454916 15.0023981,9.07029496 15.0023981,9.78910552 C15.0023981,10.5092206 14.4179568,11.0936619 13.6978417,11.0936619 Z" id="Shape"></path>
            </g>
        </g>
    </g>
</svg>