<?xml version="1.0" encoding="UTF-8"?>
<svg width="18px" height="17px" viewBox="0 0 18 17" version="1.1" xmlns="http://www.w3.org/2000/svg" xmlns:xlink="http://www.w3.org/1999/xlink">
    <!-- Generator: sketchtool 53.1 (72631) - https://sketchapp.com -->
    <title>98924DEC-07EB-48CF-B755-B1B2BAB4494B</title>
    <desc>Created with sketchtool.</desc>
    <g id="design" stroke="none" stroke-width="1" fill="none" fill-rule="evenodd">
        <g id="main" transform="translate(-520.000000, -3884.000000)" fill="#FFFFFF" fill-rule="nonzero">
            <path d="M538,3894.42269 L538,3901 L534.142017,3901 L534.142017,3894.8632 C534.142017,3893.32158 533.584002,3892.26949 532.18754,3892.26949 C531.121518,3892.26949 530.487128,3892.97852 530.208036,3893.66439 C530.106259,3893.90959 530.080062,3894.25087 530.080062,3894.59409 L530.080062,3901 L526.220782,3901 C526.220782,3901 526.272758,3890.60627 526.220782,3889.5294 L530.079685,3889.5294 L530.079685,3891.15531 C530.07186,3891.16747 530.06169,3891.18058 530.054325,3891.19237 L530.079685,3891.19237 L530.079685,3891.15531 C530.592378,3890.37484 531.507994,3889.25992 533.557427,3889.25992 C536.096537,3889.25988 538,3890.89936 538,3894.42269 Z M522.18381,3884 C520.863556,3884 520,3884.85591 520,3885.98146 C520,3887.08249 520.838572,3887.96437 522.132587,3887.96437 L522.158366,3887.96437 C523.504191,3887.96437 524.341172,3887.08265 524.341172,3885.98146 C524.315812,3884.85591 523.504191,3884 522.18381,3884 Z M520.229207,3901 L524.087023,3901 L524.087023,3889.5294 L520.229207,3889.5294 L520.229207,3901 Z" id="LinkedIn"></path>
        </g>
    </g>
</svg>