<?xml version="1.0" encoding="UTF-8"?>
<svg width="12px" height="8px" viewBox="0 0 12 8" version="1.1" xmlns="http://www.w3.org/2000/svg" xmlns:xlink="http://www.w3.org/1999/xlink">
    <!-- Generator: Sketch 53.1 (72631) - https://sketchapp.com -->
    <title>gamepad-controller copy2</title>
    <desc>Created with Sketch.</desc>
    <g id="design" stroke="none" stroke-width="1" fill="none" fill-rule="evenodd">
        <g id="main" transform="translate(-404.000000, -1506.000000)" fill="#3E3B4A" fill-rule="nonzero">
            <g id="gamepad-controller-copy2" transform="translate(404.000000, 1506.000000)">
                <path d="M10.9271,1.4147871 C9.34212411,-1.20610101 6.95447858,0.617282172 6.95447858,0.617282172 C6.79962846,0.735072366 6.5140956,0.831917075 6.32008541,0.832367516 L5.68054549,0.832817956 C5.48653531,0.833043177 5.20100244,0.736198467 5.0463761,0.618408274 C5.0463761,0.618408274 2.6585068,-1.20542535 1.07330708,1.41546276 C-0.511445086,4.03544998 0.127199745,6.8887654 0.127199745,6.8887654 C0.239085665,7.58739863 0.607861657,8.05360455 1.30379208,7.99504729 C1.99770855,7.93671524 3.50391681,6.11355728 3.50391681,6.11355728 C3.62833395,5.96333537 3.88902814,5.84059033 4.08259079,5.84059033 L7.91669749,5.83991467 C8.1104839,5.83991467 8.37095432,5.96265971 8.49514769,6.11288162 C8.49514769,6.11288162 10.0015797,7.93603958 10.6966151,7.99437163 C11.3916504,8.05292889 11.7613215,7.58627253 11.8725361,6.88808973 C11.8723123,6.88808973 12.512076,4.03522476 10.9271,1.4147871 Z M4.5592248,3.54807335 L3.73708706,3.54807335 L3.73708706,4.34557827 C3.73708706,4.34557827 3.56299257,4.47935911 3.29357128,4.4759808 C3.02459753,4.47192684 2.90286565,4.33003808 2.90286565,4.33003808 L2.90286565,3.54829857 L2.12637736,3.54829857 C2.12637736,3.54829857 2.02948416,3.44830078 2.00352662,3.1850183 C1.97801663,2.92173582 2.11071333,2.70890268 2.11071333,2.70890268 L2.93307484,2.70890268 L2.93307484,1.88144346 C2.93307484,1.88144346 3.10224636,1.79022926 3.34548634,1.79721109 C3.58895011,1.80486858 3.76729626,1.89698366 3.76729626,1.89698366 L3.76393969,2.70867746 L4.54042797,2.70867746 C4.54042797,2.70867746 4.6760337,2.88389882 4.6872223,3.09560586 C4.69841089,3.30753812 4.5592248,3.54807335 4.5592248,3.54807335 Z M8.33022785,4.4570623 C7.97017896,4.4570623 7.67994688,4.16405075 7.67994688,3.8021218 C7.67994688,3.43951719 7.97017896,3.1471813 8.33022785,3.1471813 C8.68871034,3.1471813 8.98118013,3.43951719 8.98118013,3.8021218 C8.98118013,4.16427597 8.68871034,4.4570623 8.33022785,4.4570623 Z M8.33022785,2.65507504 C7.97017896,2.65507504 7.67994688,2.36228871 7.67994688,2.00035976 C7.67994688,1.63775515 7.97017896,1.34541926 8.33022785,1.34541926 C8.68871034,1.34541926 8.98118013,1.63775515 8.98118013,2.00035976 C8.98118013,2.36251393 8.68871034,2.65507504 8.33022785,2.65507504 Z M9.95078351,3.62239604 C9.59073462,3.62239604 9.30050255,3.3296097 9.30050255,2.96745553 C9.30050255,2.60507614 9.59073462,2.31251503 9.95078351,2.31251503 C10.309266,2.31251503 10.6017358,2.60507614 10.6017358,2.96745553 C10.6017358,3.3296097 10.309266,3.62239604 9.95078351,3.62239604 Z" id="Shape"></path>
            </g>
        </g>
    </g>
</svg>