<?xml version="1.0" encoding="UTF-8"?>
<svg width="21px" height="17px" viewBox="0 0 21 17" version="1.1" xmlns="http://www.w3.org/2000/svg" xmlns:xlink="http://www.w3.org/1999/xlink">
    <!-- Generator: sketchtool 53.1 (72631) - https://sketchapp.com -->
    <title>5AB6D7F5-3062-4B28-97C6-6E949BE9D358</title>
    <desc>Created with sketchtool.</desc>
    <g id="design" stroke="none" stroke-width="1" fill="none" fill-rule="evenodd">
        <g id="main-hover" transform="translate(-614.000000, -3884.000000)" fill="#FFFFFF" fill-rule="nonzero">
            <path d="M635,3886.01137 C634.227082,3886.35269 633.397752,3886.58417 632.526388,3886.68751 C633.41611,3886.15653 634.09717,3885.31433 634.41996,3884.31386 C633.58538,3884.80558 632.664158,3885.16263 631.682578,3885.35619 C630.896552,3884.52051 629.778506,3884 628.538406,3884 C626.159294,3884 624.230277,3885.92246 624.230277,3888.29217 C624.230277,3888.62826 624.268331,3888.95652 624.341831,3889.27041 C620.762011,3889.09122 617.587677,3887.38195 615.46314,3884.78465 C615.091762,3885.41764 614.880492,3886.1552 614.880492,3886.94252 C614.880492,3888.43211 615.641606,3889.74644 616.796402,3890.51539 C616.090396,3890.49186 615.42639,3890.29831 614.84508,3889.97658 L614.84508,3890.0302 C614.84508,3892.10959 616.330558,3893.84502 618.300237,3894.24 C617.939359,3894.33677 617.55882,3894.3904 617.165138,3894.3904 C616.886956,3894.3904 616.617936,3894.36294 616.354166,3894.31061 C616.902671,3896.01729 618.493149,3897.25836 620.377559,3897.29239 C618.903885,3898.44326 617.045726,3899.12723 615.027492,3899.12723 C614.679756,3899.12723 614.337236,3899.1063 614,3899.06838 C615.906714,3900.28856 618.17036,3901 620.603275,3901 C628.527975,3901 632.859747,3894.45841 632.859747,3888.78523 L632.8453,3888.22942 C633.691684,3887.62779 634.423906,3886.8719 635,3886.01137 Z" id="Path"></path>
        </g>
    </g>
</svg>