<?xml version="1.0" encoding="UTF-8"?>
<svg width="12px" height="14px" viewBox="0 0 12 14" version="1.1" xmlns="http://www.w3.org/2000/svg" xmlns:xlink="http://www.w3.org/1999/xlink">
    <!-- Generator: Sketch 53.1 (72631) - https://sketchapp.com -->
    <title>spades2</title>
    <desc>Created with Sketch.</desc>
    <g id="design" stroke="none" stroke-width="1" fill="none" fill-rule="evenodd">
        <g id="main" transform="translate(-404.000000, -1599.000000)" fill="#3E3B4A" fill-rule="nonzero">
            <g id="spades2" transform="translate(404.000000, 1599.000000)">
                <path d="M10.0924544,4.4878708 C7.50003732,2.63345115 6.60674681,1.14896997 6.00004264,2.47500155e-05 L6.00004264,2.47500155e-05 C5.99999121,2.47500155e-05 5.99999121,0 5.99999121,0 L5.99999121,2.47500155e-05 C5.39333846,1.14896997 4.49999653,2.6334759 1.90757948,4.4878708 C-2.51253582,7.64975953 1.64807034,12.0632813 5.30614113,9.63414152 C5.0677949,11.1414175 4.25439885,12.2402687 3.42835135,12.7134394 L3.42835135,13.2 L5.99999121,13.2 L8.57163107,13.2 L8.57163107,12.7135137 C7.74553214,12.2403429 6.93218751,11.141467 6.69381557,9.63414152 C10.3518606,12.0633308 14.512544,7.64975953 10.0924544,4.4878708 Z" id="Path"></path>
            </g>
        </g>
    </g>
</svg>