<?xml version="1.0" encoding="UTF-8"?>
<svg width="27px" height="35px" viewBox="0 0 27 35" version="1.1" xmlns="http://www.w3.org/2000/svg" xmlns:xlink="http://www.w3.org/1999/xlink">
    <!-- Generator: Sketch 53.1 (72631) - https://sketchapp.com -->
    <title>documents-symbol</title>
    <desc>Created with Sketch.</desc>
    <g id="design" stroke="none" stroke-width="1" fill="none" fill-rule="evenodd">
        <g id="blog-inner" transform="translate(-222.000000, -4440.000000)" fill="#3E3B4A" fill-rule="nonzero">
            <g id="documents-symbol" transform="translate(222.000000, 4440.000000)">
                <path d="M6.3068593,13.5912312 C5.10155779,13.5912312 5.10155779,15.4636432 6.3068593,15.4636432 C11.1073116,15.4636432 15.9068844,15.4636432 20.7069849,15.4636432 C21.914397,15.4636432 21.914397,13.5912312 20.7069849,13.5912312 C15.9068844,13.5912312 11.1073116,13.5912312 6.3068593,13.5912312 Z" id="Path"></path>
                <path d="M20.7069849,18.0182915 C15.9068844,18.0182915 11.1073116,18.0182915 6.3068593,18.0182915 C5.10155779,18.0182915 5.10155779,19.888593 6.3068593,19.888593 C11.1073116,19.888593 15.9068844,19.888593 20.7069849,19.888593 C21.9145729,19.888593 21.9145729,18.0182915 20.7069849,18.0182915 Z" id="Path"></path>
                <path d="M20.7069849,22.1187437 C15.9068844,22.1187437 11.1073116,22.1187437 6.3068593,22.1187437 C5.10155779,22.1187437 5.10155779,23.9888693 6.3068593,23.9888693 C11.1073116,23.9888693 15.9068844,23.9888693 20.7069849,23.9888693 C21.9145729,23.9886935 21.9145729,22.1187437 20.7069849,22.1187437 Z" id="Path"></path>
                <path d="M0.0636683417,0.0153015075 L0.0636683417,34.931407 L26.9515829,34.931407 L26.9515829,4.85954774 L21.9555528,0.0153015075 L0.0636683417,0.0153015075 Z M24.6276884,32.606809 L2.38932161,32.606809 L2.38932161,2.34007538 L20.7586935,2.34007538 L20.7586935,6.02826633 L24.6259296,6.02826633 L24.6259296,32.606809 L24.6276884,32.606809 Z" id="Shape"></path>
            </g>
        </g>
    </g>
</svg>