<?xml version="1.0" encoding="UTF-8"?>
<svg width="15px" height="15px" viewBox="0 0 15 15" version="1.1" xmlns="http://www.w3.org/2000/svg" xmlns:xlink="http://www.w3.org/1999/xlink">
    <!-- Generator: Sketch 53.1 (72631) - https://sketchapp.com -->
    <title>share</title>
    <desc>Created with Sketch.</desc>
    <g id="design" stroke="none" stroke-width="1" fill="none" fill-rule="evenodd">
        <g id="DAPP-INNER---2-version" transform="translate(-1228.000000, -365.000000)" fill="#5A3EC4" fill-rule="nonzero">
            <g id="share" transform="translate(1228.000000, 365.000000)">
                <path d="M12.1364873,9.53208861 C11.2681962,9.53208861 10.5023101,9.94575949 10.0019304,10.5792405 L5.36079114,8.20575949 C5.42155063,7.97914557 5.46522152,7.745 5.46522152,7.49857595 C5.46522152,7.23031646 5.41335443,6.97775316 5.34098101,6.73199367 L9.96164557,4.36946203 C10.4592722,5.03161392 11.2449684,5.46439873 12.1371519,5.46439873 C13.648481,5.46439873 14.8710443,4.24183544 14.8710443,2.73186709 C14.8710759,1.22325949 13.648481,0 12.1371835,0 C10.6292722,0 9.4053481,1.22325949 9.4053481,2.73183544 C9.4053481,2.9789557 9.44905063,3.21376582 9.51047468,3.44107595 L4.87,5.81455696 C4.3689557,5.18041139 3.60167722,4.76537975 2.73202532,4.76537975 C1.22205696,4.76537975 0.000189873418,5.9893038 0.000189873418,7.49857595 C0.000189873418,9.0078481 1.22208861,10.2311076 2.73202532,10.2311076 C3.62556962,10.2311076 4.41060127,9.79696203 4.91025316,9.13414557 L9.52886076,11.4966772 C9.45648734,11.7417405 9.4039557,11.9963608 9.4039557,12.2653165 C9.4039557,13.7745886 10.6278797,14.9978481 12.1357911,14.9978481 C13.6471203,14.9978481 14.8696835,13.7745886 14.8696835,12.2653165 C14.8703797,10.7546835 13.6478165,9.53208861 12.1364873,9.53208861 Z" id="Path"></path>
            </g>
        </g>
    </g>
</svg>