<?xml version="1.0" encoding="UTF-8"?>
<svg width="23px" height="17px" viewBox="0 0 23 17" version="1.1" xmlns="http://www.w3.org/2000/svg" xmlns:xlink="http://www.w3.org/1999/xlink">
    <!-- Generator: Sketch 53.1 (72631) - https://sketchapp.com -->
    <title>Path</title>
    <desc>Created with Sketch.</desc>
    <g id="design" stroke="none" stroke-width="1" fill="none" fill-rule="evenodd">
        <g id="main" transform="translate(-664.000000, -3884.000000)" fill="#FFFFFF" fill-rule="nonzero">
            <path d="M687,3886.4288 L685.730879,3886.4288 C685.40042,3886.4288 684.535721,3886.78262 684.535721,3887.08382 L684.535721,3898.02197 C684.535721,3898.32392 685.40042,3898.57148 685.730879,3898.57148 L687,3898.57148 L687,3901 L678.785674,3901 L678.785674,3898.57148 L680.428938,3898.57148 L680.428938,3887.23791 L680.142971,3887.23791 L676.188774,3900.99995 L673.127272,3900.99995 L669.224222,3887.23791 L668.928605,3887.23791 L668.928605,3898.57144 L670.571157,3898.57144 L670.571157,3900.99995 L664,3901 L664,3898.57144 L664.911377,3898.57144 C665.269169,3898.57144 665.642599,3898.32392 665.642599,3898.02192 L665.642599,3887.08382 C665.642599,3886.78257 665.269216,3886.4288 664.911377,3886.4288 L664,3886.4288 L664,3884 L672.516027,3884 L675.2966,3893.71417 L675.371419,3893.71417 L678.17942,3884 L687,3884 L687,3886.4288 Z" id="Path"></path>
        </g>
    </g>
</svg>