<?xml version="1.0" encoding="UTF-8"?>
<svg width="26px" height="22px" viewBox="0 0 26 22" version="1.1" xmlns="http://www.w3.org/2000/svg" xmlns:xlink="http://www.w3.org/1999/xlink">
    <!-- Generator: Sketch 53.1 (72631) - https://sketchapp.com -->
    <title>wechat</title>
    <desc>Created with Sketch.</desc>
    <g id="design" stroke="none" stroke-width="1" fill="none" fill-rule="evenodd">
        <g id="submit" transform="translate(-755.000000, -3182.000000)" fill-rule="nonzero">
            <g id="wechat" transform="translate(755.000000, 3182.000000)">
                <g id="Group" fill="#FFFFFF">
                    <path d="M25.3846154,14.1428571 C25.3846154,10.6715714 21.8323558,7.85714286 17.4519231,7.85714286 C13.0714904,7.85714286 9.51923077,10.6715714 9.51923077,14.1428571 C9.51923077,17.6141429 13.0714904,20.4285714 17.4519231,20.4285714 C18.1722115,20.4285714 18.8575962,20.328 19.5223558,20.185 L23.7980769,22 L22.3194231,19.0724286 C24.1725,17.9221429 25.3846154,16.1527143 25.3846154,14.1428571 Z" id="Path"></path>
                    <path d="M9.51923077,0 C4.26144231,0 0,3.51842857 0,7.85714286 C0,10.3588571 1.42471154,12.5777143 3.63475962,14.014 L2.37980769,16.5 L5.79879808,15.0495714 C6.53177885,15.3072857 7.29331731,15.5194286 8.10721154,15.6184286 C7.99615385,15.1391429 7.93269231,14.6472857 7.93269231,14.1428571 C7.93269231,9.81042857 12.2020673,6.28571429 17.4519231,6.28571429 C17.9326442,6.28571429 18.4022596,6.325 18.8655288,6.38157143 C18.0278365,2.74842857 14.1646154,0 9.51923077,0 Z" id="Path"></path>
                </g>
                <g id="Group" transform="translate(5.076923, 3.384615)" fill="#8BC34A">
                    <ellipse id="Oval" cx="1.20576923" cy="1.17159763" rx="1.20576923" ry="1.17159763"></ellipse>
                    <ellipse id="Oval" cx="7.63653846" cy="1.17159763" rx="1.20576923" ry="1.17159763"></ellipse>
                    <ellipse id="Oval" cx="10.0480769" cy="8.98224852" rx="1.20576923" ry="1.17159763"></ellipse>
                    <ellipse id="Oval" cx="14.8711538" cy="8.98224852" rx="1.20576923" ry="1.17159763"></ellipse>
                </g>
            </g>
        </g>
    </g>
</svg>