<?xml version="1.0" encoding="UTF-8"?>
<svg width="22px" height="21px" viewBox="0 0 22 21" version="1.1" xmlns="http://www.w3.org/2000/svg" xmlns:xlink="http://www.w3.org/1999/xlink">
    <!-- Generator: Sketch 53.1 (72631) - https://sketchapp.com -->
    <title>github-logo</title>
    <desc>Created with Sketch.</desc>
    <g id="design" stroke="none" stroke-width="1" fill="none" fill-rule="evenodd">
        <g id="submit" transform="translate(-432.000000, -3045.000000)" fill="#FFFFFF" fill-rule="nonzero">
            <g id="github-logo" transform="translate(432.000000, 3045.000000)">
                <path d="M20.4078078,5.36060989 C19.4297463,3.71150864 18.1030682,2.40591287 16.4274244,1.44352809 C14.7515312,0.48109422 12.9219555,0 10.9374002,0 C8.95309443,0 7.12292012,0.481241478 5.4473761,1.44352809 C3.77158268,2.40586379 2.44495446,3.71150864 1.46689287,5.36060989 C0.488980916,7.00966206 0,8.81043979 0,10.762894 C0,13.1082345 0.695337547,15.2172247 2.08636181,17.0904046 C3.47723642,18.9637318 5.27404052,20.2600012 7.47662446,20.97936 C7.73301147,21.0261883 7.9228077,20.9932514 8.04621266,20.8813839 C8.16966749,20.7693691 8.23132009,20.6290806 8.23132009,20.4611075 C8.23132009,20.4330793 8.22887593,20.1809232 8.22413726,19.704345 C8.21924895,19.2277667 8.21695444,18.8120062 8.21695444,18.45726 L7.8893876,18.513022 C7.68053693,18.5506711 7.41706685,18.5666241 7.09897736,18.5621082 C6.78103751,18.5577395 6.45097664,18.5249499 6.10924367,18.4639848 C5.76736106,18.4035597 5.44937133,18.2634184 5.15502507,18.0438557 C4.86082845,17.824293 4.65197779,17.536893 4.52852295,17.1820977 L4.38611343,16.8596011 C4.29119038,16.6448979 4.14174767,16.4063879 3.93758579,16.1449546 C3.73342392,15.8832758 3.52696752,15.7058782 3.31811686,15.6124671 L3.21840525,15.5422247 C3.1519641,15.4955436 3.09031151,15.4392417 3.03329782,15.3739079 C2.97633401,15.3085742 2.93368598,15.2431913 2.90520407,15.1777103 C2.87667229,15.1121801 2.90031576,15.0584307 2.97638389,15.0162656 C3.05245202,14.9741005 3.18992335,14.9536316 3.38939644,14.9536316 L3.67411571,14.9955021 C3.8640117,15.0329549 4.09890012,15.1448225 4.37908024,15.331792 C4.65911073,15.5186142 4.88931036,15.7614929 5.069729,16.0603299 C5.28820665,16.4434971 5.55142733,16.735462 5.86013924,16.936372 C6.16860175,17.137282 6.47960818,17.2375652 6.79285924,17.2375652 C7.10611031,17.2375652 7.37666345,17.2142001 7.60461844,17.1677154 C7.83232403,17.1209853 8.04596325,17.0507429 8.24543634,16.9573809 C8.33088205,16.3311387 8.56352583,15.8500445 8.94316816,15.5137546 C8.40206187,15.4577963 7.91557499,15.3735153 7.48345812,15.2614514 C7.05159065,15.1492402 6.60530765,14.9671303 6.1449084,14.7146307 C5.68425975,14.4624747 5.30212338,14.1493536 4.99839954,13.7758073 C4.69462582,13.4020647 4.44532187,12.9113986 4.25083686,12.304251 C4.05625208,11.6968579 3.95893475,10.9962009 3.95893475,10.2020837 C3.95893475,9.07138223 4.33403793,8.1091938 5.08409466,7.31497846 C4.73273471,6.46490299 4.7659054,5.51194276 5.1837065,4.45619595 C5.4590482,4.37201306 5.86737195,4.43518704 6.40847824,4.64532523 C6.9496843,4.85556159 7.34593691,5.035659 7.59763514,5.18497933 C7.84933337,5.33425058 8.05100121,5.46074582 8.20293795,5.56333606 C9.08607649,5.32050644 9.99744753,5.19906708 10.9373005,5.19906708 C11.8771534,5.19906708 12.788724,5.32050644 13.6719124,5.56333606 L14.2130686,5.22714441 C14.5831338,5.0028203 15.020139,4.79724714 15.5230366,4.61037583 C16.0262336,4.42360269 16.4110136,4.37216032 16.6769777,4.45634321 C17.1040566,5.51213911 17.1421157,6.46505025 16.7906559,7.31512572 C17.5406628,8.10934105 17.9159156,9.07177492 17.9159156,10.202231 C17.9159156,10.9963481 17.8182491,11.699214 17.6239636,12.3112703 C17.4294287,12.9234248 17.1779799,13.4135999 16.8695174,13.7828266 C16.5607057,14.1520042 16.1761252,14.462671 15.7157259,14.7147779 C15.2552269,14.9670812 14.8087943,15.1491912 14.3769268,15.2614023 C13.9448598,15.3736134 13.458373,15.4579436 12.9172667,15.5140001 C13.4107867,15.9342764 13.6575966,16.597677 13.6575966,17.5039071 L13.6575966,20.4607148 C13.6575966,20.6286879 13.7169547,20.7689273 13.8357706,20.8809912 C13.9544369,20.9928587 14.1418389,21.0257956 14.3982259,20.9789182 C16.6011091,20.2596576 18.3979132,18.9633391 19.788738,17.0900119 C21.179413,15.216832 21.875,13.1078418 21.875,10.7625013 C21.8745012,8.81029253 21.3852709,7.00966206 20.4078078,5.36060989 Z" id="Path"></path>
            </g>
        </g>
    </g>
</svg>