<?xml version="1.0" encoding="UTF-8"?>
<svg width="11px" height="25px" viewBox="0 0 11 25" version="1.1" xmlns="http://www.w3.org/2000/svg" xmlns:xlink="http://www.w3.org/1999/xlink">
    <!-- Generator: Sketch 53.1 (72631) - https://sketchapp.com -->
    <title>paper-clip-outline</title>
    <desc>Created with Sketch.</desc>
    <g id="design" stroke="none" stroke-width="1" fill="none" fill-rule="evenodd">
        <g id="blog-inner" transform="translate(-268.000000, -3575.000000)" fill="#3E3B4A" fill-rule="nonzero">
            <g id="paper-clip-outline" transform="translate(273.000000, 3587.500000) rotate(-315.000000) translate(-273.000000, -3587.500000) translate(263.000000, 3577.000000)">
                <path d="M17.8489428,13.9676911 L9.87764073,5.99634096 C9.31957895,5.42006636 8.63820824,5.13197712 7.83333638,5.13197712 C7.08329519,5.13197712 6.44776888,5.392627 5.92632494,5.91402288 C5.40473684,6.43532265 5.14413501,7.07108924 5.14413501,7.82117849 C5.14413501,8.6260984 5.43227231,9.30756522 6.00849886,9.86548284 L11.6338078,15.4906957 C11.7252082,15.5821442 11.8260755,15.6278444 11.9357368,15.6278444 C12.0821121,15.6278444 12.2970618,15.4859382 12.5803936,15.2025584 C12.8638696,14.9190824 13.0054874,14.7039405 13.0054874,14.5575652 C13.0054874,14.4480481 12.9599794,14.347373 12.8684828,14.2558284 L7.24336613,8.63061556 C7.01472082,8.38361327 6.90039817,8.11383295 6.90039817,7.82117849 C6.90039817,7.55577117 6.98723341,7.33630435 7.16104805,7.16253776 C7.33476659,6.98872311 7.55442563,6.90188787 7.81968879,6.90188787 C8.13065217,6.90188787 8.40499771,7.01150114 8.64291762,7.23101602 L16.6140275,15.2023661 C17.1905904,15.7784485 17.4787277,16.4415103 17.4787277,17.1914554 C17.4787277,17.7771968 17.28646,18.2618307 16.9024531,18.6458856 C16.5180137,19.0300366 16.033524,19.2224485 15.4478787,19.2224485 C14.6978375,19.2224485 14.0347757,18.9339748 13.4588375,18.3577483 L2.81183753,7.69734096 C2.11667506,7.00222654 1.76928604,6.17438444 1.76928604,5.21395881 C1.76928604,4.24435469 2.10302746,3.41651259 2.77079863,2.73057666 C3.43847368,2.04473684 4.25704119,1.70167277 5.22669336,1.70167277 C6.15953547,1.70167277 6.98723341,2.05381922 7.70983524,2.75787185 L16.0242014,11.0858856 C16.1156018,11.1774783 16.220746,11.2228902 16.339778,11.2228902 C16.4861533,11.2228902 16.6989405,11.0834348 16.977659,10.804524 C17.256762,10.5256133 17.395881,10.3129703 17.395881,10.166643 C17.395881,10.0570297 17.3503249,9.95630664 17.2590206,9.86485812 L8.95835011,1.55044394 C7.90652403,0.516878719 6.65810526,0 5.2129016,0 C3.75856751,0 2.52840961,0.507748284 1.52228375,1.52300458 C0.516061785,2.53830892 0.0130228833,3.7731762 0.0130228833,5.22741419 C0.0130228833,6.65426087 0.529709382,7.89364531 1.5632746,8.94551945 L12.2238741,19.5924233 C13.1385034,20.5067643 14.2130595,20.9642952 15.4479268,20.9642952 C16.5180618,20.9642952 17.4146224,20.6028741 18.137032,19.8802243 C18.8596339,19.1579588 19.2212471,18.2613501 19.2212471,17.1909268 C19.2209588,15.9379908 18.7634279,14.8634828 17.8489428,13.9676911 Z" id="Path"></path>
            </g>
        </g>
    </g>
</svg>