<?xml version="1.0" encoding="UTF-8"?>
<svg width="51px" height="68px" viewBox="0 0 51 68" version="1.1" xmlns="http://www.w3.org/2000/svg" xmlns:xlink="http://www.w3.org/1999/xlink">
    <!-- Generator: Sketch 53.1 (72631) - https://sketchapp.com -->
    <title>man-user</title>
    <desc>Created with Sketch.</desc>
    <g id="design" stroke="none" stroke-width="1" fill="none" fill-rule="evenodd">
        <g id="blog-inner-no_autorized" transform="translate(-135.000000, -3466.000000)" fill="#5A3EC4" fill-rule="nonzero">
            <g id="Group-6" transform="translate(125.000000, 3450.000000)">
                <g id="man-user" transform="translate(9.000000, 16.000000)">
                    <path d="M26.3227674,32.9032258 C33.5911378,32.9032258 39.483871,25.5376611 39.483871,16.451709 C39.483871,7.3655647 37.5492001,0 26.3227674,0 C15.0963347,0 13.1612903,7.3655647 13.1612903,16.451709 C13.1612903,25.5376611 19.0540235,32.9032258 26.3227674,32.9032258 Z" id="Path"></path>
                    <path d="M1.09908057,57.1981117 C1.09508581,56.5526568 1.09109106,57.0162556 1.09908057,57.1981117 L1.09908057,57.1981117 Z" id="Path"></path>
                    <path d="M51.5450309,57.280366 C51.557681,57.1308134 51.5493586,56.2427855 51.5450309,57.280366 L51.5450309,57.280366 Z" id="Path"></path>
                    <path d="M51.5201453,56.9971012 C51.2727926,41.3027999 49.2344546,36.8307761 33.6364496,34 C33.6364496,34 31.4407915,36.8134316 26.3231493,36.8134316 C21.205507,36.8134316 19.0094698,34 19.0094698,34 C3.58167383,36.799899 1.4193752,41.2055945 1.13506174,56.4872489 C1.11174804,57.7351005 1.10094412,57.8006665 1.09677419,57.6558113 C1.09772191,57.9272242 1.09677419,57.5651225 1.09677419,58.4405436 C1.16902699,58.5235126 8.99154957,68 26.3231493,68 C43.654749,68 51.5474394,59.3046831 51.5474394,59.3046831 C51.5474394,58.7422255 51.5478185,58.3511164 51.5483871,58.0850402 C51.5442172,58.1746217 51.5358773,58.000986 51.5201453,56.9971012 Z" id="Path"></path>
                </g>
            </g>
        </g>
    </g>
</svg>