<?xml version="1.0" encoding="UTF-8"?>
<svg width="84px" height="76px" viewBox="0 0 84 76" version="1.1" xmlns="http://www.w3.org/2000/svg" xmlns:xlink="http://www.w3.org/1999/xlink">
    <!-- Generator: Sketch 53.1 (72631) - https://sketchapp.com -->
    <title>search</title>
    <desc>Created with Sketch.</desc>
    <g id="design" stroke="none" stroke-width="1" fill="none" fill-rule="evenodd">
        <g id="blog-no-search-result" transform="translate(-678.000000, -322.000000)" fill="#5A3EC4" fill-rule="nonzero">
            <g id="search" transform="translate(678.000000, 322.000000)">
                <path d="M42.8060622,37.8158866 C43.0449638,38.0547882 43.3577655,38.1739203 43.6712045,38.1739203 C43.9840061,38.1739203 44.297445,38.0547882 44.5363466,37.8158866 L46.924725,35.4268709 L49.3137407,37.8158866 C49.5526422,38.0547882 49.8654439,38.1739203 50.1782457,38.1739203 C50.4916845,38.1739203 50.8044864,38.0547882 51.0433878,37.8158866 C51.521191,37.3380834 51.521191,36.5634053 51.0433878,36.0862393 L48.6550093,33.6972238 L51.0433878,31.3088452 C51.521191,30.8310422 51.521191,30.056364 51.0433878,29.5785608 C50.5655848,29.1007578 49.7915437,29.1007578 49.3137407,29.5785608 L46.924725,31.9675765 L44.5363466,29.5785608 C44.0585435,29.1007578 43.2838654,29.1007578 42.8060622,29.5785608 C42.3288962,30.056364 42.3288962,30.8310422 42.8060622,31.3088452 L45.1950779,33.6972238 L42.8060622,36.0862393 C42.328259,36.5634053 42.328259,37.3380834 42.8060622,37.8158866 L42.8060622,37.8158866 Z" id="Path"></path>
                <path d="M59.5132443,26.701549 C56.1526959,23.3410006 51.6842811,21.4903098 46.9317328,21.4903098 C42.1791845,21.4903098 37.711407,23.3410006 34.3508584,26.701549 C30.9903098,30.0620976 29.1396191,34.5298752 29.1396191,39.2824235 C29.1396191,44.0349718 30.9903098,48.5027495 34.3508584,51.863298 C37.711407,55.2238466 42.1791845,57.0745372 46.9317328,57.0745372 C51.6842811,57.0745372 56.1526959,55.2238466 59.5132443,51.863298 C66.4503084,44.9262339 66.4503084,33.6386131 59.5132443,26.701549 L59.5132443,26.701549 Z M36.0811427,28.4311964 C38.9798148,25.5325242 42.8328191,23.9366617 46.9323699,23.9366617 C51.0312836,23.9366617 54.8849249,25.5325242 57.78296,28.4311964 C61.8946151,32.5422143 63.1808611,38.4255633 61.641698,43.6457216 L32.2134857,43.6457216 C31.8006639,42.2473512 31.5866081,40.7814513 31.5866081,39.2817865 C31.5866081,35.18351 33.1824706,31.3298685 36.0811427,28.4311964 Z M57.78296,50.1330136 C54.8849249,53.0316859 51.0312836,54.6281853 46.9323699,54.6281853 C42.8328191,54.6281853 38.9791778,53.0316859 36.0811427,50.1330136 C34.8815383,48.9334093 33.9055458,47.5694407 33.1722774,46.0927106 L60.6803581,46.0927106 C59.9585569,47.5516027 58.99658,48.9200308 57.78296,50.1330136 Z" id="Shape"></path>
                <path d="M82.0254157,67.2339056 L67.264485,52.4729749 C69.8006639,48.5811091 71.1620843,44.036246 71.1620843,39.2817865 C71.1620843,32.809784 68.641832,26.7251208 64.0651153,22.1490411 C59.4883985,17.5723243 53.4043723,15.0520722 46.9317328,15.0520722 C40.4597304,15.0520722 34.3750671,17.5723243 29.7983504,22.1490411 C25.2222707,26.7251208 22.7020185,32.809784 22.7020185,39.2817865 C22.7020185,45.754426 25.2222707,51.8390894 29.7983504,56.4151689 C34.5222304,61.139049 40.7273001,63.5006706 46.9317328,63.5006706 C51.5288358,63.5006706 56.1246646,62.2029574 60.1190987,59.6107161 L74.8838519,74.3754693 C75.8681263,75.3597439 77.1613801,75.8521996 78.4546338,75.8521996 C79.7478876,75.8521996 81.0411413,75.3597439 82.0254157,74.3754693 C83.9946016,72.4062836 83.9946016,69.2030915 82.0254157,67.2339056 L82.0254157,67.2339056 Z M31.5286346,54.6855218 C27.4144313,50.5713184 25.1483705,45.1007912 25.1483705,39.2824235 C25.1483705,33.4634188 27.4144313,27.9935287 31.5286346,23.8793254 C35.643475,19.764485 41.1133651,17.4990612 46.9317328,17.4990612 C52.7501005,17.4990612 58.2206277,19.764485 62.3354681,23.8793254 C66.4496714,27.9935287 68.7157324,33.4640558 68.7157324,39.2824235 C68.7157324,45.1007912 66.4496714,50.5713184 62.3354681,54.6855218 C53.84204,63.1789499 40.0220628,63.1789499 31.5286346,54.6855218 Z M80.2957685,72.6458222 C79.2809148,73.660676 77.62899,73.660676 76.6141363,72.6458222 L62.1252347,58.1569206 C62.7954332,57.6173216 63.4433341,57.0375872 64.0657525,56.4151689 C64.6849853,55.7959362 65.2647196,55.1480351 65.808141,54.4765625 L80.2957685,68.9641899 C81.3106223,69.9790437 81.3106223,71.6303312 80.2957685,72.6458222 Z" id="Shape"></path>
                <path d="M19.3401959,34.3145454 L2.44635193,34.3145454 L2.44635193,2.52662294 L77.6710368,2.52662294 L77.6710368,34.3145454 L74.5614942,34.3145454 C73.886199,34.3145454 73.3383182,34.8617891 73.3383182,35.5377213 C73.3383182,36.2130164 73.886199,36.7608973 74.5614942,36.7608973 L78.8942128,36.7608973 C79.5695078,36.7608973 80.1173887,36.2130164 80.1173887,35.5377213 L80.1173887,1.30344697 C80.1173887,0.628151742 79.5695078,0.0802710043 78.8942128,0.0802710043 L1.22317597,0.0802710043 C0.547243871,0.0802710043 5.68434189e-14,0.628151742 5.68434189e-14,1.30344697 L5.68434189e-14,35.5377213 C5.68434189e-14,36.2130164 0.547243871,36.7608973 1.22317597,36.7608973 L19.3401959,36.7608973 C20.016128,36.7608973 20.5633719,36.2130164 20.5633719,35.5377213 C20.5633719,34.8617891 20.016128,34.3145454 19.3401959,34.3145454 Z" id="Path"></path>
                <path d="M10.9780043,8.54694206 C10.3027092,8.54694206 9.75482833,9.09418593 9.75482833,9.77011803 C9.75482833,10.4454131 10.3027092,10.993294 10.9780043,10.993294 L69.1393844,10.993294 C69.8146795,10.993294 70.3625604,10.4454131 70.3625604,9.77011803 C70.3625604,9.09418593 69.8146795,8.54694206 69.1393844,8.54694206 L10.9780043,8.54694206 Z" id="Path"></path>
            </g>
        </g>
    </g>
</svg>