<?xml version="1.0" encoding="UTF-8"?>
<svg width="118px" height="112px" viewBox="0 0 118 112" version="1.1" xmlns="http://www.w3.org/2000/svg" xmlns:xlink="http://www.w3.org/1999/xlink">
    <!-- Generator: Sketch 53.1 (72631) - https://sketchapp.com -->
    <title>Star Copy 4</title>
    <desc>Created with Sketch.</desc>
    <g id="design" stroke="none" stroke-width="1" fill="none" fill-rule="evenodd" fill-opacity="0.1">
        <g id="dapp-ranking" transform="translate(-307.000000, -143.000000)" fill="#FFFFFF">
            <g id="background">
                <path d="M365.455071,235.810063 L330.141792,254.375353 C329.897369,254.503853 329.595056,254.40988 329.466555,254.165458 C329.415386,254.068127 329.397728,253.956643 329.416317,253.848265 L336.160553,214.526351 C336.188372,214.364153 336.134598,214.198653 336.016755,214.083785 L307.447712,186.235851 C307.24997,186.0431 307.245924,185.726543 307.438675,185.528802 C307.515429,185.45006 307.616,185.398816 307.724819,185.383004 L347.206265,179.646014 C347.36912,179.62235 347.509903,179.520065 347.582734,179.372493 L365.239373,143.596234 C365.361584,143.348607 365.661397,143.246938 365.909024,143.369149 C366.00763,143.417814 366.087444,143.497628 366.136109,143.596234 L383.792749,179.372493 C383.86558,179.520065 384.006363,179.62235 384.169218,179.646014 L423.650664,185.383004 C423.923936,185.422713 424.113277,185.676434 424.073568,185.949707 C424.057756,186.058525 424.006512,186.159096 423.92777,186.235851 L395.358728,214.083785 C395.240885,214.198653 395.18711,214.364153 395.214929,214.526351 L401.959165,253.848265 C402.005846,254.120433 401.823052,254.378911 401.550884,254.425591 C401.442505,254.44418 401.331021,254.426522 401.233691,254.375353 L365.920412,235.810063 C365.77475,235.733484 365.600733,235.733484 365.455071,235.810063 Z" id="Star-Copy-4" transform="translate(365.687741, 204.687741) rotate(-360.000000) translate(-365.687741, -204.687741) "></path>
            </g>
        </g>
    </g>
</svg>